<?xml version="1.0" standalone="no"?>
<!DOCTYPE svg PUBLIC "-//W3C//DTD SVG 1.1//EN" "http://www.w3.org/Graphics/SVG/1.1/DTD/svg11.dtd" >
<svg>
<metadata>
Created by FontForge 20110222 at Mon Sep  3 15:28:30 2012
 By Colm O Neill
Pierre Huyghebaert (Typography, initiative, testing)
Pierre Marchand (Development and typography, Fonzie software)
Delphine Platteeuw (Design and testing)
Gregoire Vigneron (Scanning and assembling)

OSP: December 2010 - Version 1.0 (http://ospublish.constantvzw.org/foundry/univers-else)

Univers Else is released under the OFL 1.1 -- http://scripts.sil.org/OFL

For information on what you're allowed to change or modify, 
consult the OFL-1.1.txt and OFL-FAQ.txt files.  The OFL-FAQ also gives a very general rationale and various recommendations regarding why you would want to contribute to the project or make your own version of the font.
</metadata>
<defs>
<font id="UniversElse-Light" horiz-adv-x="589" >
  <font-face 
    font-family="Univers Else"
    font-weight="200"
    font-stretch="normal"
    units-per-em="1000"
    panose-1="2 0 3 3 0 0 0 0 0 0"
    ascent="800"
    descent="-200"
    x-height="500"
    cap-height="729"
    bbox="-39 -215 1026 921"
    underline-thickness="50"
    underline-position="-200"
    unicode-range="U+0020-20AC"
  />
<missing-glyph horiz-adv-x="500" 
d="M50 0v533h400v-533h-400zM100 50h300v433h-300v-433z" />
    <glyph glyph-name=".notdef" horiz-adv-x="500" 
d="M50 0v533h400v-533h-400zM100 50h300v433h-300v-433z" />
    <glyph glyph-name=".null" horiz-adv-x="0" 
 />
    <glyph glyph-name="nonmarkingreturn" horiz-adv-x="333" 
 />
    <glyph glyph-name="uni0020" unicode=" " horiz-adv-x="278" 
 />
    <glyph glyph-name="uni0021" unicode="!" horiz-adv-x="475" 
d="M232 90q3 4 6 4h3q4 -1 20 -3q13 -1 18 -7t4 -12t1 -12q4 -7 4 -20q0 -5 -3 -11t-3 -9l-6 -8q-5 -5 -9 -5l-10 -1h-18q-28 0 -32 1q-7 1 -10 7q-3 4 -3 11q0 6 2 10q1 2 -2 14q-3 8 -3 10t2 6q1 1 2.5 5.5t1.5 5.5q2 5 5 5t7 2q3 3 12 3q8 0 11 4zM256 731q1 0 3.5 0.5
l2.5 0.5q3 0 9 -2q7 -1 13 -9q5 -5 5 -16q0 -5 -1 -21q0 -8 -0.5 -16t-0.5 -13.5v-5.5v-5.5t0.5 -14t0.5 -16.5q0 -31 -2 -39l-4 -12q-2 -8 -2 -11q0 -6 5 -11q4 -5 4 -12q0 -3 -1 -14q-1 -20 -4 -24q-3 -3 -3 -86q0 -82 -3 -86q-4 -10 -4 -13q-1 -7 3 -13q3 -4 3 -14
q0 -8 -3 -14q-4 -5 -4 -31t-3 -30q-4 -4 -4 -11t-2 -9t-6 -2q-3 0 -6 -3q-2 -1 -3 -1t-5 2q-3 3 -13 2q-8 -1 -15 6q-5 4 -6 9.5t-1 33.5q0 38 -4 45t-2 12q1 3 1 6q-2 2 -2 41q0 38 -3 44q-3 4 -3 14v15q0 6 -2 6q-2 2 0 12q0 12 5 20q3 8 3 51q-1 24 -1 47v23q0 22 -3 24
q-3 4 -3 48t-4 49q-3 3 -3 7q0 2 1 7q2 10 4 11q4 2 9 7q6 4 14 6h21q12 0 14 2q3 3 5 4z" />
    <glyph glyph-name="uni0022" unicode="&#x22;" horiz-adv-x="656" 
d="M155 717h19q14 0 20 -3q5 -3 10 -3q2 0 14 -12q11 -13 15 -13q5 -2 10 -5t7 -9q3 -4 3 -23t3 -24q4 -5 4 -17q0 -16 -1 -24q-2 -15 -3 -17t-3 -16v-11v-17v-19q0 -26 -1 -31t-6 -10q-7 -8 -7 -15q1 -7 -4 -11q-3 -3 -7 -3q-3 0 -8 1q-7 0 -19 3l-6 3t-5 2q-3 2 -5 5l-7 7
q-4 2 -8 11q-3 8 -3 12t-5 7q-4 6 -4 7q0 3 -2 7q-3 4 -4 30q-1 14 -1 36q1 7 1 21q0 9 -5 22q-5 12 -3 19q2 9 1 14q0 7 -2 17q-3 10 -4 11q-2 3 -2 16q2 13 4 16q3 3 3 7t3 5zM435 723q0 2 7 2t11 -4q5 -5 12 -4q5 1 10 -2q4 -4 8 -4q3 0 12 -9t11 -13q1 -2 8 -12
q6 -10 6 -12q0 -4 -4 -14q-4 -12 -4 -21q0 -14 1 -21q0 -16 -1 -22q-1 -12 2 -17q4 -7 4 -17q0 -5 -3 -14q-3 -4 -4 -39q0 -33 -4 -41q-4 -7 -2 -9q0 -5 -2 -6q-1 -2 -14 -4h-6q-6 0 -9 1q-2 1 -9 1q-9 3 -10 4q-4 3 -7 3q-2 0 -4 5q-2 4 -6 9q-4 6 -4 9q0 4 -4 12
q-3 6 -3 15t-4 13q-3 5 -4 34t-4 34q-3 8 -3 32t-4 35q-4 7 -3 23q1 14 -3 19q-3 5 -3 10q0 7 4 12q4 8 6 8q4 0 7 -1q7 -2 12 1q4 1 7 4z" />
    <glyph glyph-name="uni0023" unicode="#" horiz-adv-x="564" 
d="M276 419q-8 2 -16 2q-11 0 -12 -3q-2 -4 -10 -4q-8 -2 -9 -4q-3 -2 -3 -12q-3 -13 -3 -14q-4 -4 -2 -23q0 -20 -3 -22q-3 -3 -3 -9q0 -5 -2 -11t-4 -11q-1 -2 -3 -26q0 -16 6.5 -18.5t46.5 -2.5q52 0 58 -2q3 -1 4 -1q2 0 2 2l10 14q8 9 9.5 13t2.5 21q0 22 2 24
q0 3 -1 5q-2 3 2 7q5 3 5 6q0 4 3 8q3 5 3 29q0 22 -3 26q-5 5 -13 5q-14 2 -16 3q-8 0 -13 -3q-8 -3 -20 -2zM253 677q1 3 6 3q1 0 9 -5q6 -5 7 -14t-2 -12q-2 -4 -2 -12t-2 -20q0 -7 -5 -17q-3 -7 -2 -19q1 -11 -1 -17q-1 -1 -4 -11q0 -5 -5 -12q-4 -5 -3 -25
q0 -20 -3 -24q-2 -4 -2 -9q0 -4 2 -10q1 -5 6 -7q3 -2 10 2q5 3 50 3q46 0 48 1q2 0 8 8t6 12q0 5 4 11q5 6 3 14t-2 12q0 3 4 9q3 4 3 13q0 10 -1 12q-1 3 4 6t4 11q0 6 3 14q3 4 6 29q2 26 2 30q2 8 2 12l4 8q2 2 16 2q15 0 19 -4t10 -3q7 0 8 -1q1 -2 3 -20q1 -17 -3 -21
q-4 -5 -4 -18t-5 -18q-3 -5 -2 -14q2 -10 1 -17q0 -8 -4 -14q-3 -3 -5 -16q0 -11 -4 -17q-3 -5 -2 -9q0 -3 2 -11q2 -7 8 -15q4 -5 7 -6t19 0q11 1 25 1q5 0 11 4q6 3 10 2t8 -9t3 -16q-1 -10 2 -16q2 -5 2 -7t-2 -7q-3 -7 -8 -10q-3 -2 -12 -1q-2 1 -6.5 3t-5.5 2
q-3 3 -32 3q-15 1 -19 1q-10 0 -17 -5q-7 -4 -8 -6.5t-1 -13.5q0 -14 -3 -18q-1 -1 -4 -7q-2 -4 -5 -7q-3 -2 -3 -20t-3 -22.5t-3 -12.5t-2 -14t1 -14q2 -7 3.5 -8.5t9.5 -5.5q12 -6 16 -6q3 1 11 1q1 0 11 -0.5t17 -0.5q22 -1 25 -4q4 -4 4 -6q2 -4 -2 -11q-4 -10 -4 -21
q-1 -4 -1.5 -9.5l-0.5 -5.5q-2 -2 -4 2q0 1 -1.5 2.5t-1.5 2.5t-8 -1q-7 -2 -11 -5q-3 -3 -10 -3q-5 0 -10 3q-4 4 -23 4h-12q-8 0 -18 -7q-9 -6 -10.5 -8.5t-0.5 -9.5q2 -10 0 -21q-2 -14 -3 -16q0 -5 -2 -7q-3 -3 -1 -9q0 -8 -4 -14q-5 -6 -4 -16q2 -10 2 -18q1 -8 -3 -12
q-5 -3 -5 -9q-3 -9 -4 -10q-3 -6 -3 -13q0 -8 -2 -16q-4 -8 -7 -8q-2 -2 -20 -2q-21 0 -26 1q-9 1 -11 6q-4 5 2 8q4 3 4.5 7t0.5 23q1 27 5 31q3 4 3 8q0 1 4 11q4 8 3 22q0 15 4 17q3 3 3 26q-1 24 -6 30q-3 4 -8 7h-24q-17 0 -24 -4q-6 -4 -10 -4q-3 0 -11 2q-6 4 -8 2
q-4 0 -6 2q-3 2 -10 1l-5 -2.5l-3 -1.5q-3 0 -6 -7q-1 -2 -3 -7t-3 -7q-4 -7 -4 -23t-5 -22q-4 -6 -4 -20q0 -18 -1 -24q-1 -13 -6 -16q-5 -5 -6 -13q0 -2 -0.5 -10.5t-0.5 -12.5q0 -13 -2 -21q-1 -2 -2 -4.5t-2 -2.5q0 -2 -20 -2t-27 4q-8 4 -11 4q-2 0 -4 2q-1 1 -3 9
q-1 7 4 15q7 11 8 16q5 10 7 13q4 5 0 11q-5 7 -2 11q2 2 4 19q0 15 3 18q4 4 4 15q2 13 5 14q2 3 2 19t-2 18q0 3 -6 3q-5 0 -7 2t-9 4q-8 0 -12 -3q-4 -4 -11 -4q-7 -2 -8 -1q-8 1 -16 1q-6 0 -14 1h-2q-3 3 -6 9q-5 9 -5 23t4 19q4 4 9 6t10 1q6 -2 31 -2q27 0 31 -3
t10 -1q5 0 11 3q5 3 5 5v2q1 7 1 11q0 9 4 17q4 5 4 14q-2 7 2 11q3 3 3 19q2 15 5 20q2 4 2 8q0 14 1 28q0 24 -1 25q-4 2 -27 2q-26 -2 -33 -4q-2 0 -7 -1.5t-6 -1.5q-5 0 -8 3q-3 6 -7 10q-4 8 -3 19q0 13 1 16q0 5 2 7t25 2h26q48 0 52 2q5 1 5 11q2 12 4 15q2 5 4 13
q2 9 0 14q-1 3 3 9q5 5 5 9q2 4 0 14q-2 11 -1 12q0 3 5 6q4 4 3 29q-1 14 -1 17q0 9 4 16q3 7 3 14q0 4 4 8t5.5 8.5t3.5 5.5t13 1q15 0 17 2z" />
    <glyph glyph-name="uni0024" unicode="$" 
d="M347 310q-2 2 -12 2q-11 0 -17 -3q-7 -3 -9 -10q-4 -10 -4 -22q-1 -7 -1 -40v-33v-29v-34v-8v-12v-11q-1 -12 -1 -15q0 -6 5 -11q1 -1 2 -3q3 -5 4 -6q0 -3 10 -7q8 -5 16 -5q3 0 12 1q19 2 23 4l9 6q2 1 8.5 4t8.5 4q13 7 18 13q9 7 9 12q0 6 4 10l7 11q0 1 3 5.5t4 5.5
q4 5 4 40q0 36 -3 43q-4 10 -4 14q0 7 -3 13t-11 14l-11 11q-1 3 -11 9q-6 3 -9 6l-7 7q-8 4 -13 4t-11 4q-4 3 -12 3q-7 0 -8 3zM245 655q-3 3 -11 3q-9 0 -14 -4q-6 -3 -10 -7q-1 -4 -7 -4t-12 -3q-4 -2 -10 -8q-3 -3 -7 -3q-3 0 -7 -6q-7 -10 -7 -11q-1 -1 -2.5 -4
t-2.5 -4q0 -1 -3 -5t-5 -7q-5 -9 -5 -23v-23q0 -37 2 -40q4 -6 7 -9q4 -7 7 -13q1 -2 7 -12q4 -4 4 -8q0 -3 2 -5q3 -3 6 -3q5 0 8 -3q6 -4 9 -4l5.5 -2.5t9.5 -4.5q11 -6 11 -7q0 -3 4 -5q2 -1 21 -1q18 1 22 5t4 7q0 4 3 7q2 4 1 16q-1 7 -1 24q2 10 4 17q4 7 3 25
q-1 20 -4 24q-3 5 -4 24v41q0 16 -0.5 19t-4.5 7t-12 6q-9 2 -11 4zM285 805q6 6 8 6q3 0 7 -3t4.5 -5.5t-0.5 -12.5q-2 -14 -2 -23q-1 -9 3 -17t11 -11q2 -1 11 -5q2 -2 12 -2q9 0 13 -3q5 -4 11 -5q5 0 11 -4q6 -2 23 -2q18 -1 22 -4q6 -3 9 -3q4 0 12 -4q12 -9 18 -15
q11 -9 22 -22q12 -12 14 -13q4 -2 4 -5t8 -8q8 -8 12 -16q4 -9 3 -18q-1 -8 3 -12q5 -4 5 -22q-1 -18 -6 -23t-11 -5q-15 0 -27 -1q-17 0 -21 0.5t-11 5.5q-7 4 -13 10q-4 5 -4 15q0 9 -4 17q-5 7 -3 9q0 3 -3 6q-2 2 -5 8q0 1 -5 9q-4 4 -10 7q-6 4 -10 10q-4 8 -6 8
q-2 1 -8 1q-3 0 -9 3q-5 3 -17 3h-15q-28 0 -29 -1q-2 -2 -2 -9q0 -6 -4 -20q-3 -10 -2 -20v-15v-45v-56v-10v-14v-13q-2 -23 0 -27q0 -4 9 -13q11 -9 15 -9q6 -1 10 -8q3 -6 8 -6t11 -3q8 -4 15 -4q9 0 13 -3q6 -4 6 -5q0 -2 6 -6q8 -5 17 -6q11 0 15 -4q6 -3 7 -3
q4 0 8 -4t6 -4q3 0 7 -3q4 -4 7 -4q1 0 11 -6q9 -6 10 -13q3 -8 6 -9q8 -4 13 -7q10 -8 14 -12l4 -8q0 -1 6 -9q5 -7 7 -14q1 -2 2.5 -7.5t1.5 -7.5q3 -6 3 -20q0 -12 2 -18q2 -5 2 -6.5t-2 -4.5t-1 -24t-3 -24q-4 -4 -4 -10q0 -7 -4 -12q-4 -8 -4 -12q0 -5 -6 -13
q-5 -8 -5 -10q-2 -4 -5 -8q-2 -2 -6 -9t-4 -8q-2 -4 -9 -15q-6 -4 -8 -4t-6 -4q-5 -5 -12 -8l-10 -4q-2 0 -7 -5q-10 -5 -14 -6q-8 0 -12 -4q-3 -3 -9 -3q-5 0 -8 -3q-3 -4 -11 -3t-24 -7q-17 -8 -28 -7t-20 -4l-10 -10q-3 -4 -4 -38t-4 -35q-2 -2 -5 -2q-2 0 -10 4
q-6 3 -7 6t-2 20q-2 23 -3 26q0 2 -3 11q-1 6 -10 11q-8 5 -11 5q-4 0 -7 3q-6 4 -8 2q-4 -2 -14 0q-12 2 -15 5q-5 4 -15 4t-14 3q-4 4 -9 4q-4 0 -10 4q-5 3 -8 2q-5 0 -13 3q-2 1 -7 2.5t-6 2.5q-5 5 -6 7q-3 4 -6 6l-2.5 0.5t-4.5 0.5q-5 0 -10 5q-6 6 -6 9t-12 17
q-13 13 -13 17q0 5 -3 8q-4 6 -7 12l-6 15q-1 2 -3 7t-3 7q-3 6 -5 22q0 13 -2 15t-2 5q0 1 1 4q0 2 5 15q3 7 8 9q2 2 29 2q14 1 19 1q9 0 12 -3q6 -3 15 -21t9 -29q0 -10 3 -16q2 -6 2 -10l3 -9q3 -5 7 -14q3 -6 10 -13q6 -4 8 -4q3 0 9 -6t16 -10q7 -3 12 -3q2 0 6 -6
q3 -5 7 -5q6 0 15 -3t18 -3q8 0 17 9q10 10 11 16q1 4 1 77q-1 38 -1 74v6q0 6 1 34v19q0 15 -1 18q-4 4 -7 12q-5 9 -10 12q-5 1 -9 6q-4 2 -8 2q-3 0 -9 4q-3 3 -11 5q-9 2 -10 3q-1 2 -7 2q-5 0 -13 5q-8 4 -13 4q-6 0 -7 3q-4 2 -8 2t-7 6q-4 5 -5 4q-3 0 -11 5
q-3 1 -7 3l-4 2q-3 0 -9 8q-10 8 -11 8q-3 0 -7 2l-3.5 4t-5.5 6q-6 8 -6 11t-7 8q-4 3 -14 13q-7 6 -7 11q0 4 -4 14q-3 5 -8 22q-3 15 -3 45q0 32 3 35q3 4 3 7t4 9q1 2 3.5 8t4.5 9q4 12 4 13q0 3 5 10q3 4 8 14q4 8 12 16q7 9 14 11q3 0 9 3q3 3 3 5t6 7l12 8l16 8
q7 4 22 4q14 0 18 4q3 3 10 3q4 0 18 4q9 3 20 3q8 0 17 6q12 9 14 11q6 6 6 16v16q-1 14 -1 18q0 9 5 15z" />
    <glyph glyph-name="uni0025" unicode="%" horiz-adv-x="967" 
d="M728 311q-4 2 -15 2h-6q-5 0 -13 -3q-8 -5 -12 -5q-2 0 -6 -4q-3 -4 -11 -6q-5 0 -11 -3q-3 -3 -3 -5q0 -3 -11 -14q-10 -12 -10 -20q0 -7 -5 -15q-4 -5 -4 -11v-32v-39q0 -11 4 -20q1 -2 3.5 -8t3.5 -8q3 -6 3 -14q0 -7 8 -16q9 -10 15 -12q5 -4 14 -7l12 -6q5 -4 11 -5
q9 -3 13 -3q4 -1 5 -1q4 0 9 5q6 6 10 6q7 0 12 4q9 5 11 11q4 7 9 10q8 3 10 6q5 3 5 6q0 4 5 7q6 6 5 16q0 12 4 16q4 6 4 10t-4 16q-4 11 -1 18q3 5 3 17q0 9 -4 15q-4 4 -3 19q0 16 -4 21l-2.5 5t-1.5 5q0 3 -6 7q-5 3 -7 8q0 6 -4 8q-2 2 -9 2q-4 -1 -8 6t-9 8
q-1 0 -4.5 1t-4.5 2zM698 351q4 1 20 1q13 0 16 -3q1 -2 10 -4q2 0 7 -1.5t7 -2.5q8 -4 10 -4q4 0 8 2t6 -2q1 -1 4.5 -5t5.5 -6q6 -6 12 -9q6 -2 15 -11q10 -10 14 -17q6 -9 5 -16v-13q1 -6 7 -9q3 -1 7 -5q2 -4 2 -60q-1 -58 -4 -63q-1 -2 -3 -5.5t-3 -5.5q-3 -3 -5 -11
q-2 -7 -8 -15t-11 -11q-3 -1 -5 -8q0 -1 -0.5 -4.5t-1.5 -4.5q0 -2 -8 -4q-7 -1 -7 -5q0 -3 -4 -9q-5 -5 -8 -5t-7 -2t-4 -5q0 -2 -2 -6q-6 -2 -34 -2q-9 0 -26 -0.5t-21 -0.5h-22q-6 0 -8 3q-4 4 -7 6q-10 5 -15 5q-10 1 -14 7q-3 5 -7 5q-2 0 -6 4t-7 4q-5 2 -6 5l-1.5 4
t-2.5 5q-2 6 -7 9q-5 2 -12 15q-7 12 -7 21q0 8 -6 21q-6 9 -6 15q0 4 3 9q4 7 3 14q-2 9 -4 11q-2 4 -2 14q0 14 3 24q4 14 4 17q0 4 2 8q3 3 3 7q0 1 1.5 4t1.5 4q4 4 4 6q2 4 4 7q5 5 4 11q-1 4 4 12q6 8 8 9q6 6 12 11q9 9 12 9t6 3q3 5 7 3q4 -1 8 1t6 7q2 4 4 4.5
t12 0.5q15 0 21 3q4 1 13 4zM291 660q-7 7 -11 7q-5 0 -9 -4q-7 -4 -17 -3q-13 0 -17 -4q-7 -5 -13 -5q-5 0 -6.5 -1t-3.5 -6q-4 -8 -8 -9q-5 -5 -6 -7q-6 -12 -8 -15q-7 -11 -6 -22q0 -3 -0.5 -12t-0.5 -14q0 -13 -3 -18q-4 -4 -4 -13q0 -5 1 -20q0 -22 1 -27t6 -16
q6 -11 9 -19q0 -4 5 -9q1 -3 9 -8q5 -1 11 -7q4 -5 14 -7q17 -5 19 -6q8 -2 17 -1q2 1 6 2t5 2t5 3q3 2 5 3q10 4 14 4q5 0 11 4q5 4 9 11q4 6 8 6t5 3q2 2 2 5q0 4 4 8q3 3 2 23t3 26q4 8 4 17q1 12 -2 17q-4 6 -1 14q3 7 3 9t-3 7q-3 4 -3 14q0 9 -3 12q-4 5 -5 11
q-3 9 -6 14q-4 8 -9 10q-5 1 -11 7t-11 6q-8 4 -11 8zM258 706q5 2 9 2h2t6.5 -1t9.5 -2q12 -4 21 -2h11q3 0 8 -7q7 -5 12 -7q2 0 11 -3q4 -3 11 -5q6 -2 14 -13q9 -13 9 -15t4 -6q3 -6 3 -8q0 -4 4 -8q2 -2 6 -12q2 -9 4 -11q3 -3 3 -12q0 -10 3 -13t3 -5q2 -2 0 -11
q-2 -8 2 -15q4 -8 4 -25q-2 -20 -3 -22q-3 -4 -3 -11t-4 -10q-3 -2 -5 -9q-3 -12 -3 -15q-1 -9 -6 -12q-6 -6 -10 -14q-6 -12 -8 -12q-2 -1 -6 -7q-1 -2 -8 -12q-6 -6 -8 -6q-3 0 -8 -3q-6 -2 -7 -2t-7 -6q-5 -5 -13 -7q-6 -2 -22 0q-16 1 -21 -3q-6 -3 -22 -3t-22 2
q-5 1 -6 -3q0 -3 -2 -3t-2 3t-7 8q-4 4 -9 4q-2 -1 -9 1q-7 5 -8 9q-3 5 -12 5q-6 0 -12 3q-3 3 -3 4q0 3 -7 12q-3 3 -6.5 8l-3.5 5l-2.5 2t-3.5 3q-5 5 -5 11q0 8 -2 10q-3 5 -3 22q0 18 -4 22q-5 5 -5 10q0 7 -3 12q-3 7 -3 19q0 10 4 20q4 8 4 12t4 10q3 6 3 11
q-1 3 1 12q3 5 5 15q1 9 7 12q4 2 10 14q7 12 11 12q2 0 10 6q5 5 5 9q0 3 5 5q3 1 15 9q8 6 17 6q6 0 12 4q5 3 14 3t17 4zM666 725q6 4 7 4q4 0 14 -3q13 -2 15 -4q1 -1 1 -2.5t-1 -2.5q-2 -4 -2 -8q0 -6 -5 -9q-1 -1 -4 -3.5t-4 -3.5q-3 -6 -3 -9q0 -6 -3 -12
q-4 -8 -7 -11q-4 -4 -4 -7q0 -6 -3 -10q-1 -2 -3.5 -6t-3.5 -6q-6 -6 -8 -12q-3 -5 -3 -10q0 -3 -5 -8q-5 -4 -6 -12q-2 -11 -4 -14q-1 -3 -8 -8q-3 -1 -8 -6q-2 -6 -2 -11t-8 -16q-8 -10 -10 -10t-2 -4q0 -6 -5 -9l-9 -9q-3 -3 -5 -10q-2 -9 -6 -14q-2 -4 -7 -15
q-4 -12 -8 -16q-5 -5 -5 -11q0 -5 -8 -12q-7 -7 -7 -11l-1 -5q0 -2 -5 -4q-6 -4 -5 -11q0 -9 -6 -16q-3 -4 -12 -13q-6 -4 -9 -13q-2 -8 -5 -11q-4 -3 -4 -10q0 -9 -2 -11q0 -1 -7 -6q-4 -1 -6 -5q0 -1 -3 -7q-3 -5 -3 -12q0 -8 -4 -11q-3 -5 -9 -7q-3 -3 -11 -15
q-6 -13 -5 -20q1 -9 -4 -14q-5 -4 -9 -11q-2 -2 -5 -7t-4 -6q-4 -7 -7 -9t-3 -6.5t-5 -7.5q-6 -4 -7 -12q-3 -8 -6 -9q-2 0 -9 -7q-5 -6 -5 -14q0 -7 -7 -13t-7 -10.5t-3 -5.5q-2 -2 -2 -5q0 -2 -6 -12q-5 -5 -8 -14q0 -6 -6 -12q-5 -8 -11 -18q-1 -2 -4 -10.5t-4 -10.5
q-1 -4 -1 -10q2 -2 -4 -6q-6 -6 -7 -8q-1 -4 -9 -6q-3 -1 -21 -1q-14 0 -18 2q-1 0 -1 5q0 6 4 13q3 6 11 16q5 4 13 17q5 8 5 13q0 3 3 6q2 4 2 7t9 12q10 8 11 10q3 1 3 8t2 13l7 14q1 1 3 4q5 7 6 8q3 3 5 13q1 8 8 15t8 10q2 3 5 12q1 6 7 12q5 3 5 8t7 12q8 10 8 15
q2 7 7 14q6 6 6 10q0 2 7 9q5 6 5 11q-2 3 3 8q5 3 5 6q0 1 4 7q4 4 8 14q2 7 3.5 8.5t6.5 2.5q7 2 8 5v2q1 8 1 13q0 12 4 15q3 3 9 3q4 0 6 2t2 6t3 7q3 5 4 11q0 6 8 16q6 8 6 11q0 4 7 13q6 12 6 13q0 4 3 7q5 7 6 11q3 6 9 9q7 5 8 8q2 4 2 6t3 7q3 3 5 15q1 10 6 15
q5 3 5 8q0 3 8 11q7 7 9 14l1 4t2 5q3 2 5 9q3 6 3 11q0 4 4 8q4 2 7 9q1 1 3.5 6t4.5 7q5 10 7 12q4 6 4 7q0 2 7 9t7 10q0 4 4 8q3 4 3 7q0 1 8 11q8 8 8 16q0 9 3 15l5 10q5 4 9 6z" />
    <glyph glyph-name="uni0026" unicode="&#x26;" horiz-adv-x="748" 
d="M290 352q-5 4 -8 5t-16 1q-5 0 -12 -0.5l-7 -0.5q-2 -3 -7 -4q-4 -4 -7 -4q-4 0 -22 -18q-17 -17 -19 -24t-9 -12q-9 -7 -14 -15q-6 -10 -5 -16q1 -8 -2 -11q-4 -6 -4 -12q0 -24 -1 -43q0 -36 3 -40q3 -3 3 -7q0 -3 5 -13q5 -11 9 -13q3 -3 6 -9q3 -7 8 -9q6 -2 9 -7
q4 -8 4 -13q1 -7 9 -11q7 -5 19 -5q11 0 19 -4q5 -3 21 -3q8 1 18 1l6.5 -0.5t10.5 -0.5q13 -2 17 -4t21 -2q17 1 26 6q3 2 8.5 4.5t6.5 2.5q5 0 9 4q5 4 6 3q4 0 10 3t11 3t11 8t12 8q7 0 8 3t6 5q4 0 4 4q0 1 4 7q3 3 3 7q0 1 3 7q3 3 5 10v4.5v6.5v8q-1 8 -1.5 10.5
t-2.5 4t-8 4.5q-11 5 -12 9q-2 5 -7 12q-2 2 -6 8t-6 8q-6 10 -15 15q-3 1 -8 4l-4 3q-4 4 -8 5q-4 0 -8 6q-1 1 -4.5 5.5t-5.5 6.5q-5 7 -8 7q-1 0 -8 9l-6 10q0 2 -13 13q-8 6 -19 17q-3 4 -12 10q-6 3 -13 10zM361 684l-20 4l-10 1q-9 -1 -20 -1q-19 0 -24 -3
q-3 -3 -9 -5l-12 -3q-8 -5 -18 -14q-10 -10 -16 -18t-8 -9t-4 -9q-2 -7 -5 -11q-3 -5 -3 -17q0 -14 5 -26q3 -8 8 -18q3 -4 2 -8q-1 -3 2 -11q3 -6 9 -10t9 -7q3 -5 7 -5q3 -1 15 -11q8 -8 12 -9t23 -2q18 0 22 0.5t10 5.5q10 6 11 6q3 0 6 5q5 5 8 5l14 12q11 11 11 15t5 9
q2 1 11 15q6 14 6 19q2 8 3 10q1 1 4 14q0 14 -2 21q-1 7 -6 14q0 1 -3 5t-4 6q-4 7 -10 12q-6 4 -8 8q-4 6 -6 6q-5 3 -15 4zM272 752q3 2 10 2q1 -1 51 -1q49 -1 53 -4q6 -3 7 -3q3 0 9 -4q4 -4 8 -4q1 0 9 -4q6 -3 10 -3t9 -5q3 -2 17 -8q11 -4 15 -8t4 -8q0 -3 1 -4
q2 0 6 -10q2 -3 5 -9.5t4 -8.5q3 -8 3 -18q0 -8 4 -15q4 -5 5 -21v-19q0 -8 -1 -11q-2 -8 -3 -9l-2.5 -6.5t-4.5 -11.5l-7 -17q0 -1 -5 -8q-2 -2 -10 -18q-5 -12 -20 -22q-11 -6 -20 -15q-4 -6 -4 -9t-6 -9q-7 -7 -15 -11q-6 -2 -14 -6q-6 -4 -7 -8q-2 -7 -4 -8
q-2 -5 -1 -11q0 -4 3 -13q3 -6 11 -16q8 -8 18 -22l25 -28q16 -16 20 -26q2 -3 5 -9l4 -8q4 -7 10 -6q5 1 11 -3q5 -3 9 -3q2 0 12 -12q12 -12 15 -14q9 -3 24 -3q20 -2 22 0q4 0 6 7q2 3 4 13q0 4 4 10q3 4 3 20q0 17 5 24q4 8 3 9q0 3 2 9q4 7 4 38q0 32 2 35q2 4 4 17
q2 16 5 22l6 8q1 0 13 4q14 5 16 6q3 3 9 3q7 -2 12 1q7 2 13 0q5 0 13 -6q6 -6 6 -20v-24q0 -38 -4 -50q-3 -9 -2 -24q1 -12 -4 -19q-4 -6 -4 -8t-4 -10q-5 -9 -6 -10q-2 -2 -2 -9q0 -1 -0.5 -6.5t-0.5 -7.5q-1 -5 -6 -17q-4 -10 -6 -10q-1 -1 -1 -7q0 -5 -7 -15
q-3 -4 -14 -23q-6 -10 -7 -14.5t-2 -23.5v-14q0 -11 9 -19q10 -7 10 -10t5 -6l4 -3t5 -5q5 -5 5 -8t4 -3q2 -1 25 -22q23 -23 30 -27q11 -7 12 -8q3 -3 6 -12q3 -6 3 -10q0 -1 -1 -3l-9 -9q-6 -5 -17 -5h-18q-15 0 -25 1q-17 0 -23 3q-4 3 -9 3q-1 0 -11 5q-7 6 -7 10
q0 6 -5 11q-4 6 -6 6t-8 6t-9 6q-2 0 -18 14q-14 13 -21 13h-6q-12 -2 -16 -4q-4 -4 -8 -4q-5 0 -9 -6q-7 -9 -12 -13q-4 -4 -14 -9q-10 -4 -13 -9q-5 -5 -12 -7q-4 -2 -13 -5q-4 -1 -11 -6q-6 -4 -10 -6q-1 0 -7.5 -3t-11.5 -5q-13 -6 -23 -6q-7 0 -17 -4q-7 -3 -16 -3
q-5 0 -12 -5q-5 -3 -9 -3h-3q-1 0 -6.5 0.5t-7.5 0.5q-1 0 -10 -0.5t-15 -0.5q-9 -1 -12 -1q-6 0 -11 4q-9 5 -32 5q-19 0 -23.5 1t-15.5 6q-12 6 -22 6q-8 -1 -14 6q-5 7 -10 7q-4 -1 -7 3q0 1 -11 9q-10 4 -18 12q-3 3 -8 7t-6 5q-1 0 -11 7q-5 3 -7 8q-3 9 -5 14
q-4 7 -9 19q-1 2 -4 6.5t-4 5.5q-3 3 -3 8q0 2 -3 11q-3 5 -4 28v25q0 9 1 17q0 7 1 15v2q1 0 -1 4q-1 4 3 10q5 7 5 10t2 7q3 3 3 11t3 11q4 4 4 9q1 3 9 13q7 9 7 13t5 11q4 6 8 6q2 -1 14 9q6 5 21 20q10 10 10 12q3 3 8 6l15 9q4 4 11 4q5 0 5 2q2 2 4 15q2 14 2 25
q0 13 -6 22q-8 12 -12 13q-3 2 -11 12q-3 7 -8 15q-4 3 -6 11q0 4 -3 7q-4 3 -5 8q-3 4 -3 9q0 6 -3 12q-1 7 -5 11q-1 1 -4 7q0 2 -2 6v3.5t-0.5 9t-0.5 10.5q-1 11 -1 28q0 5 2 17l3 15q0 5 6 9q4 2 6 7q3 3 1 8q0 5 3 6q6 4 12 10q8 8 11 14q4 9 7 10q5 3 7 3t12 10
q7 7 10.5 8.5t20.5 2.5q22 0 30 5q12 7 15 8z" />
    <glyph glyph-name="uni0027" unicode="'" horiz-adv-x="1091" 
d="M578 722q3 4 13 4q5 0 22 -1q32 -2 33 -3q2 -2 2 -14q-1 -13 -7 -22q-6 -12 -6 -13q0 -2 -29 -31l-34 -33q-2 -2 -5 -8q-2 -6 -12 -16q-10 -12 -14 -14q-4 -1 -6 -7q0 -5 -4 -9q0 -1 -3 -6t-4 -8q-6 -9 -9 -11q-5 -2 -8 -7t-8 -5q-2 0 -8 -2q-2 -2 -11 -4h-4q-4 0 -12 3
q-6 3 -15 9q-6 5 -6 14q0 10 4 13q4 4 5 4t7 13q8 16 14 22q2 2 5.5 7t4.5 6q3 5 4 11q0 7 5 10q2 1 5 4l1 2v3q0 5 3 6t3 6q0 3 2 7q0 3 6 7q6 6 11 15q4 6 8 14q0 4 2 4t5 3q4 6 4 10q0 6 4 9q2 1 16 3q12 1 16 5z" />
    <glyph glyph-name="uni0028" unicode="(" horiz-adv-x="320" 
d="M241 807h13q9 -1 13 -5q2 -4 2 -7q0 -10 -5 -21q-4 -9 -9 -18q-7 -14 -8 -19q-3 -15 -4 -22q-2 -14 -5 -20t-3 -11q0 -6 -4 -10q-4 -6 -4 -13q-2 -8 -5 -11q-3 -2 -3 -17q0 -14 -3 -17q-2 -2 -4 -17q0 -14 -4 -22t-3 -24q1 -17 -3 -21t-3 -12q1 -6 -7 -12q-7 -6 -7 -13
q0 -4 3 -10q3 -3 0 -10q-3 -5 -3 -60q0 -56 2 -59q3 -9 3 -14q2 -9 -2 -13q-4 -5 -4 -32q1 -28 5 -36q4 -12 4 -18q0 -8 4 -14q3 -6 2 -15q-1 -11 4 -20q6 -9 3 -11q0 -1 -0.5 -6t-0.5 -8q0 -10 3 -16q5 -6 6 -23q1 -3 2.5 -12t2.5 -11q3 -4 3 -12q0 -6 4 -12q3 -4 3 -8
t3 -7q3 -6 3 -9q0 -6 3 -12q4 -8 4 -13q0 -1 1 -6t2 -7q3 -8 2 -19q-2 -12 2 -16q5 -5 5 -10q-1 -3 2 -9q4 -4 4 -10q2 -8 5 -14q3 -5 3 -16q0 -13 -1 -15q-2 -3 -5 -5q-2 -1 -19 -1q-16 1 -18 5q-6 3 -7 3q-4 0 -6 2q-1 1 -2 6q-3 6 -4 9l-6 18l-6 9q-3 3 -3 8q0 3 -4 11
q0 1 -3.5 9t-5.5 12q-3 8 -7 20q-2 6 -7 16q-2 3 -5.5 10l-4.5 9q-5 8 -5 14l-1 5q-2 6 -3 8q-4 10 -4 14q0 7 -4 12q-4 8 -4 13l-3 15q-1 2 -3 8.5t-3 8.5q-4 8 -4 15q-2 9 -4 11q-3 3 -3 16t-3 20q-4 7 -3 20q0 13 -4 17q-4 5 -4 22q-1 19 -4 24q-3 4 -4 30q0 26 -2 30
q-2 6 -1 10q0 4 5 9q5 3 5 9q0 15 1 28v45q0 21 6 34q1 3 3 8t2 6q0 4 5 12q4 9 5 22q0 10 3 16q2 2 4 11q1 5 4 11q2 2 2 9q0 10 5 17q6 10 4 13q0 6 2 8q0 2 1.5 4t1.5 3q0 3 4 13q5 10 3 14q0 5 2 7l3 5q3 5 4 8q5 10 5 17t3 12q4 4 4 12t2 10q3 2 7 11q2 3 4 9t3 7
q2 8 4 10q3 2 3 6q0 5 12 17q16 14 20 15q10 2 11 3z" />
    <glyph glyph-name="uni0029" unicode=")" horiz-adv-x="300" 
d="M65 812q6 0 7 1q4 0 14 -5q9 -4 16 -11l4 -6l4 -8q4 -4 4 -8q-1 -1 3 -8q4 -4 4 -13q0 -8 4 -14q3 -6 3 -11t5 -12q2 -5 5 -14q0 -6 6 -14q5 -8 5 -14q0 -5 4 -11q4 -8 4 -12q0 -5 2 -9q3 -1 3 -7q0 -4 3 -7q3 -2 5 -13q3 -10 1 -14q0 -4 4 -9q4 -4 4 -11q-2 -6 1 -9
t3 -8t5 -13q5 -7 4 -17q-1 -7 2 -12q2 -2 4 -14q0 -9 4 -15q3 -3 3 -9q0 -5 4 -11q3 -6 2 -24q0 -20 4 -26q3 -7 1 -10q-2 -4 -2 -14q-1 -7 1 -14q3 -4 3 -18v-21q0 -9 -3 -13q-4 -5 -4 -13v-22q0 -15 -3 -29q-4 -14 -4 -23t-3 -12t-3 -17q-2 -15 -3 -19q-3 -6 -3 -11
q0 -4 -4 -12q-3 -8 -1 -11q0 -5 -1 -7q0 -1 -0.5 -4t-0.5 -4q0 -4 -4 -18t-9 -19q-5 -8 -4 -13q1 -7 -4 -13q-5 -5 -7 -11q-3 -4 -1 -15q1 -10 -3 -15q-4 -6 -4 -9q0 -4 -3 -10q-4 -6 -4 -11q0 -6 -3 -6q-4 -2 -5 -7q0 -4 -3 -7q-3 -2 -3 -6t-4 -8q-4 -3 -4 -11q0 -7 -3 -12
q-3 -6 -3 -9q-2 -5 -6 -7q-7 -5 -15 -14q-10 -12 -19 -12q-8 0 -16 10q-9 9 -9 13t4 8q3 3 3 9q0 7 4 11q2 3 6 11l6 12q4 8 4 14q0 8 2 14l7 14q1 3 3.5 9t2.5 7q0 11 -1 17q-2 12 2 15q5 4 5 13q2 14 4 17q3 6 3 13q0 5 4 15q4 9 3 16q0 8 2 10q2 4 4 10q1 4 1 19
q0 12 4 19q4 9 4 52q0 44 4 53q3 9 2 28v26q0 8 1 13q1 9 -3 15q-5 6 -4 23q0 20 -1 22q-1 3 1 14q1 9 -3 17q-5 7 -5 24q0 16 -3 22q-4 6 -4 23q-1 5 -4 33q-4 20 -6 23q-3 12 -3 14q-2 8 -4 10q-3 4 -4 15q0 13 -4 24q-5 12 -5 15t-3 6t-2 13q1 11 -3 15q-6 3 -6 11
q-1 2 -2 8t-1 8q-2 11 -6 16q-3 6 -3 14q0 5 -4 9q-3 3 -3 10t2 11q4 7 7 8z" />
    <glyph glyph-name="uni002A" unicode="*" horiz-adv-x="586" 
d="M356 721q4 2 7 2q5 0 8 -3q6 -4 10 -4q5 0 7 -2t2 -5q2 -3 7 -7q7 -4 8 -7q3 -5 1 -11q0 -7 -7 -16q-5 -9 -12 -14q-6 -4 -8 -11q-2 -4 -11 -13q-7 -6 -15 -17q-7 -13 -9 -21q-1 -5 -1 -13q2 -5 5 -7q4 -2 24 -2q21 0 25 -2q5 -1 10 4q6 4 31 5t30 -3q5 -3 7 -8
q2 -6 2 -22q0 -17 -5 -23q-5 -7 -10 -7q-6 -2 -10 -2q-5 -1 -17 3q-13 5 -18 3q-7 -2 -8 -1t-1 4q0 1 -3 4q-2 1 -25 1q-26 -2 -28 -2q-7 -1 -8 -7q-2 -6 0 -13q0 -7 4 -13q2 -3 5 -10q2 -5 10 -10q7 -6 7 -13q0 -8 2 -10q3 -3 9 -6q8 -4 10 -9t7 -12q6 -8 6 -9q0 -3 -3 -6
q-2 -5 -1 -6q0 -3 -1 -5q-2 -4 -7 -6q-4 -2 -10 -2q-5 0 -9 -2t-8 -2q-5 0 -10 8l-5 8q0 1 -5 8q-4 6 -4 9q0 4 -3 9l-5 15q-6 12 -8 14q-5 6 -4 11v7q-3 5 -9 10q-8 6 -17 7q-9 2 -13 -1q-4 -4 -9 -14q-4 -11 -9 -20q-4 -10 -4 -12q0 -1 -4 -9q-6 -12 -8 -18q-4 -13 -8 -18
q-5 -7 -12 -12q-6 -6 -8 -6q-1 0 -5 4q-1 3 -8 3q-5 0 -11 6q-4 3 -9 8q-3 6 -3 7t-0.5 4t-1.5 4q-2 2 13 18q14 17 15 22q2 6 9 10q8 7 10 13q1 8 4 10q1 1 3.5 2.5t3.5 2.5q3 1 3 15t-1 15q-2 2 -15 6q-12 3 -17 1t-23 -4q-19 0 -25 -2q-6 0 -10 -2t-11 -2t-13 2t-9 11
q-3 8 -7 12q-2 4 -2 10v7q2 14 4 16q3 3 9 5l11 1h20q22 0 31 -3q7 -4 27 -3q21 2 22 4q1 1 1 10q0 10 -3 18q-4 10 -7 14q-1 1 -3 4t-3 4q0 1 -2 5l-3 6q-1 1 -4 5.5t-4 5.5q-4 8 -5 11q-2 5 -5 10q-3 3 -9 11q-6 6 -6 8q0 1 8 9t17 11q10 2 16 2q7 0 8 -4q3 -6 6 -10
q5 -5 5 -8q0 -1 6 -9t6 -12t4 -8q5 -7 6 -13q4 -10 6 -12t6 -10q4 -7 7 -9q4 -3 16 -3q12 1 13 5q0 4 7 11q6 6 8 12q0 7 4 9q3 6 3 10q0 2 1 5v4q0 1 4 7q5 5 5 11t2 10q3 3 3 6t2 7q1 4 6 6z" />
    <glyph glyph-name="uni002B" unicode="+" horiz-adv-x="690" 
d="M341 570h13h5q6 0 9 -4q4 -2 8 -9q4 -4 6 -14q1 -7 0 -11q-2 -4 -2 -9t2 -11q1 -4 -3 -12t-5 -31q0 -17 0.5 -20.5t3.5 -5.5q5 -5 2 -12l-4 -20q-1 -13 1 -17q3 -3 3 -7t-3 -7q-3 -4 -2 -11q1 -5 0 -11q-2 -5 1 -13q5 -12 5 -14q3 -6 7 -6q7 -2 11 -5q4 -4 6 -4l6 3
q5 4 21 4t20 2q4 3 14 0q7 -1 14 -5q4 -2 21 -4q16 0 18 4q2 3 7 3.5t32 0.5q37 -2 40 -3q5 -2 7 -7q2 -2 2 -9q0 -4 -1 -11q-2 -18 -2 -20q-2 -3 -5 -5q-6 -2 -7 -2q-2 0 -8 -4t-49 -4q-40 0 -50 -2q-6 -2 -13 0q-10 2 -44 2q-38 0 -42 -2q-4 -1 -4 -8q0 -6 -2 -10t0 -9
q1 -1 1 -13t-1 -28v-43q1 -2 1 -36q-2 -32 -3 -33q-2 -4 -2 -7q0 -1 -2 -9q0 -8 1 -11v-13q0 -8 -5 -9q-5 -2 -10 -5q-6 -2 -20 -2h-8q-6 0 -11 3q-5 7 -6 12q-1 4 -4 13q-2 6 -2 21q-1 8 -1 19v11t0.5 29t0.5 35v38q0 32 -2 38q-1 5 -7 11t-10 7q-2 1 -5.5 3l-3.5 2
q-5 3 -28 3q-8 0 -22 -0.5t-18 -0.5h-33q-14 1 -17 0.5t-7 -4.5q-6 -5 -16 -3q-11 2 -15 6q-7 3 -14 2q-8 -1 -16 7t-10 17q-1 6 -1 7q0 3 3 5q2 2 5 8q1 5 11 6q10 2 16 4q6 3 36 4q27 0 31 2q3 0 9 -3t16 -5q12 0 14 1q4 3 9 -1q3 -2 28 -2q23 1 28 5q4 4 6 4t8 4q6 5 6 9
t3 7q4 4 4 83v86l-1 8v14q-1 15 1 22q3 6 11 8l7.5 2.5t5.5 1.5z" />
    <glyph glyph-name="uni002C" unicode="," horiz-adv-x="314" 
d="M164 115q6 2 7 2q4 -1 9 -2q6 -2 13 -6q6 -4 9 -4t3 -2q0 -1 2 -13v-6q0 -4 -6 -10q-7 -7 -8 -15q-1 -6 -5 -12q-5 -3 -5 -6q0 -2 2 -6t-1 -7q-4 -6 -9 -19q-5 -11 -7 -20q-4 -8 -7 -9q-4 -4 -4 -12t-4 -11q-3 -3 -3 -10q0 -2 -3 -11q-3 -3 -5 -7q0 -2 -6 -18
q-5 -15 -14 -22q-2 -2 -7 -6.5t-6 -5.5q-4 -4 -7 -4q-2 0 -7 1q-8 0 -18 5t-10 13q0 7 2 15q3 18 3 23q2 12 4 14q3 6 3 12q0 9 4 13q2 6 6 8q4 3 4 35q0 33 3 37q3 3 3 11q0 5 6 14q3 4 9 13q4 6 10 12q9 6 18 7q12 2 13 4q6 3 9 5z" />
    <glyph glyph-name="uni002D" unicode="-" horiz-adv-x="211" 
d="M169 307h3q5 0 8 -3q6 -4 8 -4q4 0 8 -9q5 -8 5 -19.5t-4 -20.5q-3 -8 -11 -12q-7 -5 -15 -5h-4q-4 0 -7 1q-3 2 -22 0q-8 -1 -25 -1q-18 0 -35 1h-21h-12h-9.5h-4.5q-3 -1 -5 -1q-3 0 -6 2q-5 3 -7 8q-3 8 -3 26t2 22q3 4 11 6q6 1 38 1h29q60 0 66 4q8 4 13 4z" />
    <glyph glyph-name="uni002E" unicode="." horiz-adv-x="400" 
d="M195 134h14q7 0 11 -4q3 -3 13 -3q3 0 8 -0.5l5 -0.5q1 -1 7 -13q5 -10 5 -44t-3 -39q-3 -6 -8 -8q-1 0 -7 -2.5t-9 -3.5q-7 -3 -11 -3q-2 0 -9 1q-14 2 -20 1q-11 0 -15 2q-1 1 -5 2t-5 1q-6 2 -10 6q-5 7 -6 12q-2 7 -5 10q-2 3 -2 5q0 1 1 4q1 6 0 25q-1 10 -1 15
q0 6 4 13q3 7 9 13q5 5 14 5t13 2t12 4z" />
    <glyph glyph-name="uni002F" unicode="/" horiz-adv-x="274" 
d="M275 787q2 3 3 3t7 -2q4 -2 8 -6q4 -3 4 -15q0 -11 -3 -14q-3 -2 -5 -12q-1 -9 -4 -14q-3 -4 -3 -10q0 -4 -7 -11q-6 -8 -6 -9q0 -4 -3 -9q-4 -8 -4 -13q0 -7 4 -11q3 -5 0 -8q-1 -1 -6 -14q-2 -6 -2 -13q2 -1 -5 -8t-7 -9q0 -1 -4 -9q-4 -7 -3 -10q2 -4 2 -6q0 -1 -4 -9
q-5 -5 -5 -17q0 -14 -3 -18q-4 -7 -3 -15t-2 -13q-4 -6 -4 -7q0 -2 -4 -6q-5 -3 -5 -8q0 -3 -3 -9q-3 -9 -3 -12q0 -8 -4 -12q-3 -4 -3 -13q1 -9 -1 -11q-3 -1 -3 -4q0 -1 -4 -7q-4 -4 -6 -12q-1 -7 -4 -12q-4 -5 -7 -14t-3 -15q1 -6 -5 -15l-6 -10q-2 -4 -5 -7
q-4 -8 -4 -19q0 -13 -3 -16q0 -1 -2 -5.5t-3 -6.5q-2 -8 -5 -14q-1 -4 -6 -11q-4 -6 -4 -8q0 -3 -4 -11q-3 -8 -2 -13q0 -7 -3 -10t-3 -11q0 -7 -5 -11q-4 -4 -4 -11q0 -6 -2 -8q-2 -1 -4 -10q-2 -10 -5 -15q-5 -5 -5 -8q0 -4 -3 -9q-3 -6 -6 -9q-3 -1 -3 -6l-3 -9
q-4 -5 -4 -17q0 -11 -3 -17q-3 -4 -5 -11q0 -3 -7 -19q-6 -12 -6 -20q1 -5 -2 -12q-4 -6 -4 -11q0 -7 -3 -10q-4 -4 -4 -7t-7 -12q-6 -6 -8 -14q0 -6 -4 -14q-3 -6 -9 -12q-2 -1 -6.5 -3.5t-6.5 -3.5q-4 -2 -5 -2q-2 0 -7 4q-6 3 -7 13q0 13 1 20q1 12 7 19q5 7 7 12
q2 8 2 12q0 6 3 12q4 7 3 13q-1 7 3 15q5 8 5 14t7 22q8 16 12 20q5 5 7 13q1 4 1 15q-1 9 2 12t5 12q3 12 3 13q1 4 7 10q5 3 4 13q-1 9 3 19q3 6 3 11q0 1 3 7q3 1 5 8q2 6 7 16q6 10 7 24q2 16 5 20q1 2 3.5 5t2.5 4q4 1 4 12t3 17q4 8 4 13q0 2 3 11q4 4 4 13q0 8 2 10
q2 0 6 10q4 12 3 14q-1 4 2 9q1 1 3.5 6t4.5 7q3 5 5 19q1 10 8 17q6 7 7 17v13q-1 2 3 15q4 12 9 17q4 4 7 10q1 3 1 12q0 7 4 11q3 5 5 12q1 4 4 13q1 2 5 11q4 4 4 7q0 2 5 9q5 6 4 14q-1 9 4 15q5 7 7 14q2 8 2 13q0 7 4 11q3 3 3 10q0 3 3 12t4 13q0 6 4 12q3 6 3 19
q0 14 3 17q2 3 5 3t10 7t11 7q3 0 7 2z" />
    <glyph glyph-name="uni0030" unicode="0" horiz-adv-x="615" 
d="M307 687q-4 -2 -18 -1t-21 -1q-15 -3 -18 -3q-10 -2 -12 -4q-4 -4 -6 -4q-3 0 -7 -2q-3 -1 -8 -8q-3 -4 -11 -12q-6 -3 -9 -9q-1 -5 -9 -12q-7 -5 -11 -13q-1 -1 -3.5 -4.5t-3.5 -4.5q-3 -2 -2 -11t-3 -17q-3 -9 -3 -21q-1 -13 -5 -18t-3 -24q1 -20 -3 -25q-3 -5 -3 -12
q0 -8 -4 -12q-4 -3 -5 -29q0 -26 3 -34q4 -8 4 -29q0 -16 2 -24q3 -6 2 -10q-2 -4 -2 -17q2 -12 -1 -17q-2 -4 -2 -11q0 -10 3 -22q2 -15 5 -18q4 -7 6 -13q3 -8 2 -19q-1 -12 2 -18q0 -1 2 -6t3 -7q1 -5 1 -12q-1 -3 5 -20q8 -18 11 -21l4 -8q1 -4 8 -11q4 -5 15 -14
q8 -8 8 -12q0 -3 6 -8q5 -4 13 -4q7 1 10 -3q4 -4 26 -4q20 0 28 2q7 1 11 -1t11 -2h9q16 1 21 4t16 5q11 1 17 8l14 14q8 6 8 10q3 6 12 15q11 16 13 20q5 9 6 15q3 15 3 16q1 8 6 13t5 14t3 14t3 24v25q-2 4 0 11q0 8 4 14q4 9 4 39v37q0 12 -1 21q0 10 -3 22q-2 5 -4 40
q0 12 -1 26v14q0 8 -3 12q-4 7 -3 27q0 23 -4 33q-5 10 -9 14q-3 3 -2 8q0 5 -9 23q-13 22 -19 29q-8 10 -19 15q-8 5 -22 6q-13 0 -17 4t-8 4q-6 0 -15 6q-9 7 -14 9q-7 0 -9 -1zM315 752q5 2 14 2q2 -1 8.5 -1.5t9.5 -0.5q12 0 16 -4q5 -3 9 -2q5 0 13 -8q7 -6 10 -7t13 0
q15 1 18 -2q4 -4 10 -6q6 -1 10 -7q2 -3 16 -15q13 -11 15 -11t8 -6q5 -7 7 -12q2 -6 5 -6q3 -2 5 -12q4 -12 6 -14q3 -3 3 -17q0 -10 1.5 -13t11.5 -12q12 -9 16 -18q1 -7 0 -18q-2 -14 -1 -20q0 -8 2 -14q1 -2 1 -8q-2 -5 2 -7q2 -4 2 -10q0 -8 5 -16q4 -7 4 -18v-14v-14
q0 -10 4 -15q3 -3 3 -7q0 -3 -1 -8v-8.5v-13.5v-16v-53q0 -23 -4 -31q-4 -7 -3 -15q1 -4 1 -15q0 -12 -1 -18q0 -9 -4 -15q-4 -3 -4 -13q0 -9 -2 -17q0 -2 -1 -7.5t-2 -7.5q0 -5 -5 -12q-4 -6 -4 -9q0 -4 -1 -5q-2 0 -2 -6l-3 -12q-6 -9 -9 -12q-7 -7 -10 -9q-5 -3 -7 -10
q-2 -5 -7 -14q-2 -4 -17 -21q-10 -10 -10 -13t-9 -8l-15 -12q-6 -6 -8 -4q-1 1 -7 -3q-4 -3 -15 -5q-8 0 -18 -6q-9 -5 -14 -7q-4 -2 -9 -1q-7 2 -12 1q-3 0 -13 -5q-4 -4 -8 -4q-1 0 -4 1q-10 3 -24 1q-19 0 -25 3q-7 4 -26 4q-18 0 -25 4q-4 4 -10 4q-5 0 -11 6
q-7 7 -11 7q-1 0 -10 3q-4 1 -10 4q-1 0 -5 2l-6 3q-1 0 -5.5 3t-5.5 4q-3 3 -7 3t-9 5q-6 4 -8 11q-4 8 -9 13q-6 6 -10 6q-3 1 -3 4q0 4 1 5q1 2 -2 7l-8 8q-6 8 -7 16q-4 11 -9 20q-7 12 -7 17q-3 9 -4 10q0 1 -3 11l-3 15q0 2 -1 7t-2 7q-2 4 -2 15v14v19q0 10 -4 16
q-3 4 -3 45q0 38 -2 50q-2 14 -3 16q-2 6 -2 29q0 8 0.5 19.5t0.5 12.5q0 2 2 6.5t2 6.5q2 6 -1 13q-4 9 0 17q5 10 4 21q0 13 4 20q4 10 4 17q0 9 2 13q3 3 3 14q0 12 4 17q5 5 5 8t3 10q4 8 6 10q2 1 6 12q3 9 8 14q5 3 5 6t5 8q5 7 5 8q0 3 11 12l21 20q11 9 14 9
q4 0 7 5q4 4 6 4q4 0 7 5q3 4 9 4q5 0 7 2q4 2 10 2q8 0 15 4q7 5 9 3q3 0 10 3q8 4 15 4h27q17 -2 26 0z" />
    <glyph glyph-name="uni0031" unicode="1" 
d="M315 724q6 4 8 4h2q6 -3 9 -4q5 -2 5 -5q3 -6 6 -8q4 -5 5 -42q0 -12 0.5 -31t0.5 -21q-1 -14 2 -19q3 -4 4 -30q0 -27 -4 -34t-3 -12q3 -10 4 -11q3 -7 3 -26v-10q0 -13 -1 -27q-2 -20 -5 -23q-2 -6 -2 -9t4 -7q4 -3 3 -23q0 -21 -4 -29q-3 -11 -3 -38v-32v-25
q1 -23 4 -26t3 -10v-105v-57q0 -30 -1.5 -37.5t-6.5 -12.5q-7 -6 -12 -6h-6q-7 0 -19 2q-18 3 -21 3q-12 2 -13 3q-2 2 -2 8t-2 10q-2 6 -2 33q-1 16 -1 38q0 10 -3 13t-3 14q-1 6 -1 16v113q1 107 4 111q3 3 4 28q0 24 -3 30q-4 6 -4 73l-2 71q-1 3 1 12q1 8 -1 15
q-1 5 -6 10q-3 1 -16 1q-11 -1 -15 -5q-6 -6 -9 -8q-6 -4 -8 -4q-1 0 -11 -8q-9 -9 -14 -11q-6 -2 -11 -7q-2 -1 -6 -4t-5 -4q-10 -5 -15 -7q-2 0 -7 -1.5t-6 -1.5q-4 0 -7 4t-3 26q1 17 2.5 21t10.5 12q10 10 16 12q5 0 7 5t6 7q4 1 8 7q3 6 14 11q12 5 18 13q7 7 10 7
q1 0 7 4q2 2 12 4q6 0 10 7l8 12q5 5 16 6q13 2 17 6q5 3 14 3q10 0 16 6z" />
    <glyph glyph-name="uni0032" unicode="2" horiz-adv-x="591" 
d="M287 746q4 1 14 1q6 -2 14 -2q9 -2 16 -5q8 -2 14 -2q9 0 13 3q6 4 9 4q5 0 16 -7q16 -6 19 -5q6 0 9 -3t5 -3q5 -4 11 -10q8 -8 18 -12q9 -4 13 -9q1 -1 3 -4q2 -2 2 -3t6 -7q7 -5 10 -10q3 -9 4 -13q4 -8 6 -9q1 -1 8 -12q4 -10 4 -12t4 -6q3 -3 3 -6v-15q0 -13 4 -18
q4 -3 4 -28q0 -24 -4 -31l-4 -12q0 -6 -2 -10q-2 -2 -4 -15q-3 -14 -4 -16t-4 -9t-4 -9q-5 -10 -9 -16q-2 -2 -7 -12q-3 -8 -5 -10q-3 -3 -3 -6q0 -5 -5 -10q-6 -8 -9 -14q-4 -7 -6 -7t-7 -7q-6 -6 -10 -14q-8 -13 -16 -20q-12 -14 -16 -18q-6 -6 -6 -9l-14 -16
q-12 -13 -17 -13q-6 0 -7 -3q-4 -2 -4 -8q-1 -4 -7 -10q-6 -8 -17 -19q-9 -10 -19 -18q-7 -5 -10 -5q-2 0 -6 -6q-6 -6 -11 -8t-10 -10q-5 -9 -9 -15q-6 -8 -13 -10q-8 -4 -8 -6q0 -1 -4 -1t-15 -11q-12 -10 -15 -10q-2 0 -14 -12q-3 -4 -8.5 -11t-6.5 -8q-5 -8 -4 -12
q0 -6 4 -10q3 -4 9 -6l15 -6q10 -2 15 -2q2 1 8.5 2t7.5 1q8 1 22 6q9 3 45 3h39q18 0 37 1t48 1q15 0 22 -4q4 -3 11 -3q4 0 10 4q5 4 10 1q1 0 4.5 -1t5.5 -2q9 -3 12 -3q7 -2 10 -9t-1 -14t-4 -19t-3 -13q-2 -2 -6 -2t-6 -4q-4 -4 -30 -4q-15 -1 -31 -1h-56h-55h-62h-79
q-5 0 -22 0.5t-25 0.5q-25 0 -33 3l-12 6q-5 2 -11 13q-5 11 -2 15q3 5 2 11q-2 8 -4 10t-2 17t4 19q3 3 9 5q4 0 9 5q1 2 5 6t5 6q8 8 12 8t4 3t2 5t5 2q2 0 9 5q2 1 8 7q0 3 20 23q20 21 26 21q6 1 10 10q3 7 8 9q6 3 10 7q7 7 9 12q2 4 8 8q2 1 13 9l13 13q3 7 10 10t7 5
q0 3 10 13q5 6 13 14q1 3 8 7q5 5 8 11q6 10 19 23q14 14 14 18t4 6q3 3 8 3q3 0 5 3q0 1 7 13q6 10 6 11q0 5 8 11q8 8 8 11q0 4 2 6q3 3 3 7q0 1 3 7q3 2 5 10q0 2 2 6.5t2 6.5q4 9 3 16q-1 8 3 14q4 8 4 27q-1 11 -1 31q-2 12 -3 14q-3 4 -1 8q3 6 4 10t1 11q-2 4 -11 11
t-9 9q0 1 -6 9q-5 5 -11 13q-1 1 -9 13q-2 7 -5 7q-2 1 -6 1q-3 0 -9 4q-8 4 -17 7q-11 3 -19 2q-7 -1 -14 3q-7 5 -14 6q-9 1 -14 -4q-6 -5 -12 -3q-5 1 -12 0q-3 -2 -10 -2q-4 0 -10 -4q-6 -3 -10 -3q-3 0 -9 -6q-7 -5 -9 -5t-9 -7q-2 -2 -8.5 -9t-9.5 -10
q-10 -14 -11 -19q-4 -11 -5 -13q-2 -3 -5 -12q-1 -3 -1 -13q1 -7 -7 -13q-6 -6 -14 -10q-2 0 -7 -2t-7 -2q-9 -3 -13 -3q-7 -1 -24 4q-18 6 -21 12q-5 5 -5 8q0 2 2 4t2 15q0 14 6 26q6 14 6 15q0 3 5 5q6 4 6 6q0 4 5 12t8 16q3 6 9 9q8 4 11 9q4 5 13 11q10 8 13 11
q4 4 9 4q4 0 9 5q4 4 8 4t6 4q1 3 9 3q6 0 12 4q4 3 24 2t24 3t21 4q21 0 26 1z" />
    <glyph glyph-name="uni0033" unicode="3" horiz-adv-x="586" 
d="M235 757q7 3 21 3q16 -1 23 -5q8 -3 19 -3h13q25 0 29 -3t17 -3t17 -3q3 -3 13 -5q9 -1 14 -7q6 -6 8 -6q1 0 13 -6q10 -6 18 -12q5 -4 17 -11q5 -2 10 -7q0 -3 4 -7t4 -7t2 -7q3 -3 3 -7t4 -8q5 -3 5 -7t3 -5q4 -4 4 -8t2 -8q2 -1 4 -16t3 -17q3 -3 3 -16q0 -11 -4 -15
q-3 -3 -3 -8t3 -10t0 -12q-3 -5 -3 -10t-5 -13q-4 -10 -6 -13q0 -1 -1 -4t-1 -5q-2 -7 -7 -12q-8 -5 -9 -5q-3 -2 -5 -7q-2 -6 -12 -12q-4 -2 -16 -10q-7 -7 -19 -12q-16 -9 -18 -12q-5 -5 -6 -16q0 -13 1 -15q2 -4 5 -4q2 0 8 -4q3 -5 7 -5q5 0 7 -3q4 -2 7 -2q5 0 8 -3
q6 -2 6 -5q2 -4 14 -10q13 -6 25 -18t12 -15q0 -4 6 -12t6 -10q0 -1 4 -7t4 -15q2 -13 3 -14q2 -1 4 -15q0 -4 0.5 -10.5t0.5 -7.5q0 -4 -2 -28q0 -20 -3 -26q-2 -4 -2 -7q0 -4 -4 -8q-3 -4 -3 -10t-4 -12q-4 -8 -7 -17q-6 -10 -12 -16q-7 -7 -7 -11q0 -1 -0.5 -3.5
t-0.5 -3.5q-4 -4 -8 -6q-7 -3 -7 -6l-8 -10q-8 -8 -11 -8q-1 0 -20 -13q-13 -9 -23 -14q-6 -3 -8 -5q-7 -5 -15 -6q-9 -3 -17 -3q-7 0 -10 -3q-6 -3 -22 -3h-9q-10 0 -16 1q-24 0 -45 -1q-26 -1 -29 -1q-9 0 -14 4q-6 5 -15 4q-9 0 -13 -2q-4 -1 -7 2q-5 5 -10 6q-9 2 -13 1
q-6 -1 -10 3q-5 5 -7 5q-3 0 -11 4q-10 6 -11 8q-1 0 -4.5 3t-6.5 5l-10 5q-3 0 -5 4t-2 7l-6 6q-5 7 -8 11q-14 14 -14 17t-5 8q-7 7 -10 15q-5 8 -5 11t-5 8q-5 8 -5 18v6q0 6 6 14q4 5 10 14q2 5 10 5q7 0 13 3q5 3 11 1q6 -3 12 -3q8 0 10 -1q6 -6 10 -11q8 -9 6 -11
q0 -3 4 -6t4 -10q0 -6 10 -20q2 -2 16 -21q8 -10 10 -11q4 -2 10 -8t10 -6q3 0 9 -4q9 -4 11 -3q6 0 14 -7q8 -6 16 -8q6 -1 13 3q8 4 30 4q12 1 33 1q9 0 11 2q4 2 8 3q7 2 7 5t2 5q1 1 12 3t14 5l12 4q6 2 18 12q12 14 12 15q0 4 3 7q4 6 4 7q0 4 3 7q4 6 4 14q2 12 2 16
q3 9 4 10q2 4 2 15q0 12 -4 17q-3 5 -5 10q-1 3 1 10q3 5 -2 12q-3 3 -8 15q-5 13 -6 16q-1 6 -9 14q-5 3 -11 12q-4 7 -9 9t-9 6q-1 2 -9 5q-3 0 -15 5q-8 4 -12 3q-6 0 -9 2q-9 6 -10 7q-4 4 -11 6q-6 2 -18 0q-12 -1 -16 2q-6 4 -10 4q-7 3 -12 10q-7 9 -7 20q0 12 5 18
q4 6 4 10q0 5 3 8q3 2 10 5q10 2 23 1q16 0 20 3q9 3 10 3t7 0.5t9 0.5q12 0 16 4q6 4 8 4l7 5q2 2 11 8q2 1 12 8q1 1 13 16q6 10 6 11q0 2 4 8t3 16q-2 10 -2 22v19v20q0 14 -3 20q-3 9 -4 13q0 2 -1.5 7.5t-2.5 7.5q-1 5 -8 16q-7 9 -11 10q-4 2 -7 2q-2 0 -12 6
q-9 7 -14 7q-4 0 -8 2q-4 4 -14 4q-12 2 -13 3q-5 3 -13 4q-10 3 -35 3q-30 -2 -33 -3q-9 -3 -17 -5q-5 0 -11 -4t-9 -4q-5 -2 -17 -15q-13 -13 -16 -21q-1 -2 -3.5 -6t-2.5 -5q-3 -3 -3 -8q0 -7 1 -10q3 -5 1 -8q0 -2 -4 -4q-3 0 -9 -6q-5 -5 -5 -8t-6 -5l-9 -6
q-3 -3 -13 -3q-3 0 -9 0.5t-7 0.5h-11q-6 0 -14 2q-9 3 -11 9q-3 6 -3 20q0 13 4 18q3 6 3 13q0 9 3 10q3 3 3 5q0 3 7 10q7 9 9 15q1 8 9 11q7 4 12 13q4 11 9 14q10 7 12 8q1 1 6.5 3.5t7.5 4.5q8 5 12 5q3 0 7 4q5 4 11 5q2 0 11 3q3 2 18 4q13 0 16 3q2 2 10 4q6 0 14 4
z" />
    <glyph glyph-name="uni0034" unicode="4" horiz-adv-x="565" 
d="M336 588q-2 2 -10 2q-7 0 -13 -2t-12 -10q-7 -9 -8 -13q-1 -2 -4.5 -8.5t-5.5 -9.5l-8 -12q0 -1 -5 -8q-5 -5 -5 -9t-3 -5q-3 -3 -4 -5q-2 -4 -2 -7q0 -5 -10 -11q-11 -8 -16 -18q-7 -12 -7 -16q0 -5 -4 -7q-2 -2 -8 -12l-5 -13q-1 -3 -6 -8q-6 -3 -6 -8t-10 -16
q-3 -3 -7.5 -8t-5.5 -6q0 -1 -3 -5.5t-4 -6.5l-6 -15q0 -6 -6 -12q-5 -5 -5 -9q0 -2 -8 -10q-8 -7 -8 -11t-10 -15q-11 -11 -11 -13q0 -3 -4 -7q-5 -3 -5 -7q0 -5 -3 -10t-3 -8q0 -1 1 -3q2 -4 5 -8t13 -6q5 -2 10 -2q4 0 7 1q4 1 30 1h21h72q28 0 31 2q6 3 9 4q5 0 13 2
q1 0 6.5 0.5t8.5 0.5q8 1 13 5q4 5 4 80q0 76 4 80q3 3 3 31q0 5 0.5 18.5t1.5 15.5q1 3 1 4q0 4 -5 9q-6 7 -5 13q2 9 4 11q3 3 2 13q-2 12 -3 13q-2 2 -2 27q-2 25 -4 27zM371 715q1 1 5 1q6 0 7 -3q4 -4 18 -3t16 -1q1 -1 1 -23t4 -26q3 -6 4 -47v-22v-17v-9v-16v-18v-20
q0 -11 -4 -14q-2 -4 -2 -5l-2 -11q-5 -13 -5 -19q-1 -8 3 -17q3 -8 2 -26q-1 -16 3 -28q4 -9 4 -59q-1 -27 -1 -54q2 -5 0 -14q0 -3 0.5 -7.5t0.5 -5.5q2 -5 12 -8q10 -5 18 -7q5 -1 11 1q5 3 20 3t20 -4q4 -4 9 -4t6 -3q1 -1 1 -5q-1 -3 4 -12l6 -10q0 -2 -4 -4
q-3 -3 -3 -8t-6 -10t-11 -4q-6 3 -10 7q-7 5 -8 5q-4 0 -10 -6q-9 -6 -12 -7q-6 -3 -17 -3q-10 0 -18 -8q-5 -6 -6 -9t-1 -14q-1 -15 2 -23q3 -6 5 -19v-14q0 -8 -1 -17v-16q0 -7 1 -12v-25q-2 -15 -8 -22q-7 -8 -17 -8q-4 -1 -6 -1q-5 0 -10 4q-5 5 -14 5t-14 3q-6 4 -10 4
q-5 0 -9 4q-5 5 -5 15q-2 12 -2 50v44q0 1 0.5 6t0.5 8q1 10 -4 21t-10 14l-6 3q-1 1 -2 1q-2 2 -19 2q-11 0 -46 -1h-73q-3 0 -14.5 0.5t-17.5 0.5q-18 0 -38 -2q-19 0 -19 1q-1 1 -9 1q-8 -2 -22 -2q-16 0 -19 4q-4 4 -4 6q0 3 -5 10q-5 8 -5 13q2 6 2 13q1 7 -2 14
q-4 7 -4 23t6 23q5 7 11 9q7 4 9 8q4 4 4 8q0 2 4 6q3 3 3 5q0 3 4 5q3 3 3 10q0 3 5 16q7 14 14 21q8 10 8 12t11 15q11 11 11 13q0 1 2 4t3 5q5 7 10 13q5 3 5 8q0 3 4 9q4 4 4 8q0 1 5 8q4 4 10 8q4 1 6 7q1 1 2.5 4.5t1.5 5.5q4 4 4 6t3 8t5 12q1 4 9 7q6 1 10 10
q2 2 5.5 10t5.5 11q9 16 10 17q5 7 6 11q2 8 7 13q4 8 8 9q3 3 7 11t7 11q3 2 9 11q3 8 8 13q4 2 12 17q7 15 6 17q0 3 17 20q13 13 16 14.5t7 0.5l7 -5q2 -2 8 -2q5 0 10 5q3 3 9 5t7 3z" />
    <glyph glyph-name="uni0035" unicode="5" horiz-adv-x="590" 
d="M251 736q9 4 11 4h2q4 -2 21 -2q5 0 12.5 -0.5t8.5 -0.5q8 0 11 1q7 0 9 -2q3 -3 8 -3q4 0 16 -2q9 -1 17 2q5 3 11 1q6 -3 37 -3q17 -1 23 -1q12 0 19 4q5 2 15 5q8 1 13 -2q6 -4 6 -6q2 -4 4 -6q1 -1 3 -13q1 -12 -4 -16q-6 -6 -6 -11q0 -7 -4 -10q-4 -2 -7 -2t-11 -4
q-5 -3 -11 -3t-10 3q-5 3 -20 5q-14 0 -18 -3q-4 -4 -6 -4q-2 2 -4 3q-4 3 -39 4q-36 0 -49 -4q-18 -4 -25 -4q-8 0 -20 5q-11 5 -17 3q-1 0 -11.5 -0.5t-17.5 -0.5h-13q-10 0 -19 -7q-6 -4 -14 -12q-3 -4 -5 -11q-1 -3 -1 -19q1 -13 -3 -19q-4 -8 -4 -27q0 -18 3 -23t3 -15
t-4 -17q-3 -6 -3 -18q0 -7 1 -32q0 -43 2 -45q2 -4 5 -4q2 -1 7 -1q3 2 7 9q4 8 9 10q1 0 4 0.5t5 0.5q2 1 12 8q7 7 11 7q3 0 8 3t19 3q16 0 20 3q8 4 19 4q12 1 17 5q5 3 39 3q35 -1 43 -5q10 -4 12 -5q2 -2 4 -2q4 0 13 -7q11 -7 15 -7q6 0 10 -3q1 -1 6 -3.5t7 -4.5
q7 -4 9 -9q10 -10 17 -18q13 -13 17 -19q2 -4 5 -8q3 -2 3 -7q0 -6 6 -12t6 -13q0 -4 3 -13q3 -7 5 -15q2 -7 5 -12q3 -4 3 -14t4 -14q3 -4 3 -11v-8q-1 -13 -5 -22q-4 -7 -3 -16q1 -11 -1 -14q-3 -3 -5 -16q-1 -7 -1 -20q1 -9 -2 -13q-4 -5 -4 -14q0 -10 -5 -17
q-5 -8 -5 -10t-4 -10q-4 -6 -8 -10q-6 -2 -6 -4q-2 -2 -2 -5q0 -4 -5 -11q-5 -8 -8 -8q-4 0 -14 -12q-11 -11 -13 -11q-1 0 -11 -8l-12 -12q-3 -5 -8 -5q-3 0 -7 -2q-2 -1 -4.5 -3t-3.5 -2q-2 -3 -9 -7q-6 -3 -12 -3q-4 0 -12 -4q-8 -5 -27 -4t-27 -4q-10 -6 -11 -6l-8 5
q-5 5 -17 5q-13 -2 -16 -3q-5 -3 -10 -3t-9 3q-4 4 -12 4t-12 2q-2 3 -10 3q-7 0 -11 4q-2 3 -13 2q-10 -1 -13 3l-8 8q-4 4 -7 4q-2 0 -11 9q-13 11 -16 12q-6 3 -12 5q-4 1 -6 7q-1 6 -8 10q-8 4 -9 5v4q-1 4 -1 6q0 9 -4 14q-5 5 -5 8q0 4 -3 7q-2 4 -2 6q0 3 -5 8
q-4 4 -4 7t-3 5q-3 3 -3 15q0 11 2 13q1 1 22 3q20 2 29 0q5 -1 19 -1q8 2 10 0.5t8 -8.5q9 -9 9 -17t2 -12q1 -1 3.5 -5t3.5 -6q5 -10 10 -14q10 -10 15 -16q8 -8 16 -12t9 -5q2 -2 10 -2q9 0 16 -4t32 -4q24 0 29 3q4 2 13 11q8 8 23 7t21 3q5 5 7 5t12 10q11 9 12 9
q2 3 4 7q4 8 6 8q4 2 7 8q4 7 8 9q4 1 7 4q1 1 1 7t3 8q3 3 3 22q0 18 4 22q3 4 3 36t-3 37t-3 16q-2 15 -5 20l-7 14q-4 8 -4 16q0 9 -6 12q-7 2 -9 8q-2 3 -12 11q-7 5 -10 7q-4 4 -5 6q-3 3 -9 3q-6 -1 -15 3q-9 5 -16 3q-2 0 -7 -0.5t-6 -0.5q-4 0 -18 2q-13 2 -17 4
q-5 3 -19 2q-10 -1 -15 -4q-2 -2 -11 -2q-12 -3 -16 -5q-6 -3 -11 -3q-4 0 -7 -3q-1 -2 -6 -7q-1 -1 -4 -3.5t-5 -4.5q-6 -3 -6 -8t-9 -14q-10 -10 -10 -14t-4 -8q-5 -4 -5 -10q0 -7 -1 -8q0 -3 -5 -3q-3 0 -9 -4q-6 -3 -29 -4q-23 0 -29 7q-8 8 -9 15q-3 8 -3 33q0 24 3 30
q0 1 1.5 6.5t2.5 8.5q1 6 -3 13q-5 5 -5 15t4 14q5 3 4 11q0 6 -4 12t-4 9q0 4 4 10q5 5 5 35q-1 31 -5 34q-4 6 -4 16q-1 8 1 19l5 10q2 4 2 31v15q0 12 3 17q4 6 4 13q1 9 -2 12q-4 4 -2 9q2 2 4 12q1 5 8 15q6 6 9.5 7t19.5 1q22 0 26 -3q5 -3 13 -3q10 0 13 3q1 0 4 1.5
t4 1.5q2 0 12 -6q7 -7 15 -7q8 -2 14 2q8 4 9 4q3 0 10 5z" />
    <glyph glyph-name="uni0036" unicode="6" horiz-adv-x="574" 
d="M290 415q-3 2 -15 4h-6q-5 0 -13 -3q-6 -3 -22 -9q-13 -5 -19 -5q-5 0 -14 -10l-10 -12q0 -3 -6 -6l-6 -6l-4 -6q-4 -4 -8 -10q-1 -3 -6 -8q-4 -4 -5 -17q-2 -11 -5 -18q-3 -3 -3 -8q0 -3 -4 -7q-3 -3 -3 -6t3 -9q2 -3 5 -12q2 -7 0 -16t0 -16q0 -6 4 -10q3 -5 2 -21
q-1 -17 3 -22q4 -4 4 -8q0 -5 3 -9q4 -7 6 -16q2 -10 4 -14t8 -10q5 -4 8 -12q4 -6 6 -7t10 -7t11 -6q4 0 11 -7q5 -5 7 -6t9 0t15 -4q4 -4 9 -4.5t30 -1.5q34 0 36 1q2 0 11 7q8 6 12 6q3 0 7 4q1 0 5 3t6 4q6 2 14 12q7 9 9 9q1 0 7 4q6 6 10 14q6 10 6 13q0 5 3 10
q3 6 3 21q-1 14 4 19q4 6 3 25q-1 20 3 24q4 3 4 6q0 6 -5 14q-3 6 -2 15q0 10 -4 14q-3 3 -3 19q0 14 -5 22l-7 14q0 1 -1.5 5.5t-1.5 5.5q-3 4 -8 4q-6 0 -9 3q-4 1 -4 4t-13 16q-12 14 -20 18q-10 5 -11 6q-4 2 -29 2q-22 -1 -29 1zM260 749q3 3 34 3q29 0 41 -2
q10 -2 16 -4t12 1q6 4 10 1q3 -1 7 -1q3 2 5 -4q3 -5 6 -6q1 -1 8 1q5 1 12 -5q6 -6 14 -6q7 0 9 -3q2 -2 4 -8q2 -5 4 -5q4 0 7 -3q2 -4 9 -6q5 -2 7 -5q0 -3 8 -11q7 -7 7 -11q0 -6 7 -13q7 -8 7 -14q0 -7 2 -9q3 -2 3 -8t4 -16q5 -7 5 -15q0 -6 -8 -14q-7 -7 -14 -9
q-3 0 -21 -2q-16 0 -21 4q-7 4 -13 3q-7 0 -13 7q-5 7 -5 10t-3 5q-2 2 -2 5q0 2 -4 8t-7 17t-7 17q-4 5 -13 11q-10 6 -13 9q-4 4 -10 7q-4 3 -9 3q-3 0 -7 4q-4 3 -14 3q-11 0 -13 -1q-5 -2 -18 0q-14 1 -29 -2q-4 -1 -12 -4t-10 -3q-3 -2 -13 -7q-6 -2 -11 -4
q-7 -5 -13 -12l-8 -10q0 -2 -5 -4q-4 -2 -11 -17q-7 -14 -14 -21l-9 -9q-3 -2 -3 -7q0 -4 -4 -10q-4 -7 -3 -15q1 -9 -2 -15q-3 -5 -5 -14q0 -8 -4 -14q-1 -4 -3 -21q0 -18 -3 -25q-3 -6 -4 -41q0 -32 2 -34q3 -3 13 -3t18 4q8 5 8 8q3 6 6 8q3 5 9 7q4 1 8 7q6 7 14 11
t19 15q2 2 6 5q4 4 5 4q3 0 6 3q5 3 12 5h21q12 0 17 3q9 3 10 3q3 0 15 4q10 5 13 3q3 -3 9 -5q6 -3 21 -2q15 2 20 -3q4 -4 12 -4q7 0 9 -2q3 -3 4 -6q3 -4 10 -6t10 -5q4 -2 6 -1h6q6 -2 11 -7q4 -3 10 -12q3 -7 6 -7t7 -4q5 -5 10 -15q7 -9 7 -13q0 -3 5 -8q6 -6 6 -11
l4 -8q4 -4 4 -10q1 -5 8 -16q5 -8 6 -11.5t1 -17.5q-1 -19 3 -26q4 -6 4 -40q-1 -35 -5 -41q-3 -5 -3 -20q1 -14 -2 -16q-4 -2 -4 -8q-2 -9 -4 -11q-2 -6 -2 -11q0 -7 -4 -11q-1 -3 -4 -9q-2 -5 -6 -7q-5 -5 -6 -10q-1 -3 -10 -14q-8 -8 -10 -14q0 -4 -5 -6q-4 -2 -22 -20
q-17 -17 -27 -22q-10 -4 -12 -4q-4 0 -9 -5q-4 -4 -7 -3q-6 0 -11 -2q-2 -1 -8 -3t-9 -2q-4 -1 -15 -1q-5 1 -25 1q-17 0 -21 -4q-5 -3 -15.5 -3t-15.5 4q-6 4 -15 4q-15 3 -17 4q-10 4 -11 6q-6 3 -10 3q-6 0 -14 4q-6 4 -10 4t-7 3q-4 2 -7 2q-5 0 -7 4q-2 2 -12 8
q-2 1 -7.5 3.5t-7.5 3.5q-7 4 -9 9q-1 2 -6 10q-5 5 -8 14q-4 10 -10 13q-4 1 -11 8q-6 6 -6 12q0 4 -4 16q-4 10 -9 13q-4 6 -4 9q0 5 -3 7q-2 2 -6 10q-3 7 -2 13q2 4 0 15q-1 7 -4 12q-1 2 -3 20q-2 16 -2 21q2 7 0 30q0 25 -3 29q-2 4 -3 40q0 35 4 39t4 8t-5 14
q-5 8 -5 13q0 2 1 7q1 10 6 15q3 3 2 10q-2 7 0 31q0 20 4 30q3 6 3 19q0 12 3 15q1 1 6 11q1 3 2 7l1 4q0 3 4 7q5 5 5 10q2 7 5 12q3 4 3 8q0 1 4 7q3 4 3 14q0 8 5 12q4 1 11 15q4 8 6 10t7 3q7 2 11 5q5 3 7 9t8 12q3 4 12 13q2 1 7 5.5t7 6.5q7 6 17 6t17 3q6 3 14 3
q7 2 15 5q10 4 12 4q3 0 6 3z" />
    <glyph glyph-name="uni0037" unicode="7" horiz-adv-x="543" 
d="M83 738h6.5h11.5h14q25 0 32 -5q8 -4 9 -4t5 2q2 2 15 2q9 0 33 -1q44 -1 51 -4q8 -3 33 -3h15q11 0 16 2q6 4 13 4t19 -4t26 -3q16 2 19 2t13 -2q6 -1 13 1q6 2 9 -2q3 -5 7 -5t7 -3q6 -4 7 -4q3 0 9 -6q3 -4 9 -10q4 -4 4 -13q2 -8 -1 -16q-2 -7 1 -12q1 -6 1 -12v-5
q0 -8 -3 -11q-2 -2 -4 -10q-1 -7 -4 -12q-3 -2 -3 -7q0 -4 -4 -8q-4 -6 -4 -15q-2 -13 -4 -16q-2 -4 -4 -15l-3 -15q0 -3 -5 -8q-4 -6 -4 -7q0 -2 -4 -8q-4 -9 -5 -11q-2 -8 -7 -13q-1 -2 -4.5 -6t-3.5 -5q-4 -7 -6 -16q-2 -8 -4 -13q-1 -2 -1 -7q0 -4 -5 -7q-4 -5 -3 -10
q0 -6 -3 -9q-4 -4 -6 -11q-1 -2 -2.5 -5.5t-1.5 -4.5q0 -3 -5 -8q-4 -4 -4 -10t-7 -20q-1 -3 -5 -11t-5 -11q-2 -3 -4.5 -9t-3.5 -8q-3 -4 -3 -9q0 -1 -4 -7q-3 -3 -3 -10q0 -8 -3 -12q-3 -6 -3 -11q-2 -8 -5 -11q-3 -4 -3 -10q0 -3 -6 -17q-2 -8 -9 -18q-5 -3 -5 -8
q0 -4 -2 -6q-3 -1 -10 -16q-8 -15 -9 -16q-2 -2 -2 -5q0 -5 -2 -7q-3 -3 -3 -8q0 -4 -4 -8q-4 -5 -4 -17q0 -11 -2 -15q0 -1 -3 -11q0 -5 -3 -11q-3 -5 -5 -17q-1 -6 -5 -18q-4 -8 -4 -9q0 -3 -4 -9q-5 -5 -23 -5h-24h-21q-14 0 -18 2q-4 4 -6 8q-4 5 -3 17q0 4 3 19
q5 10 8 12q4 6 4 9t3 6q2 4 2 11q0 8 7 14q7 7 7 14t3 9q3 3 2 7q0 4 4 8q5 3 5 8q0 4 4 10q3 3 5 10l4 12q3 9 5 12q3 6 3 9l8 18q8 14 10 25q2 12 3 13q0 4 5 9q4 4 4 7l3 9q4 6 4 12l5 15q5 13 9 18q6 10 6 11q0 5 6 15q5 10 8 14q2 2 2 9q0 6 2 10q3 3 3 7t3 7q4 4 4 8
q1 1 2.5 7.5t2.5 8.5q1 3 3.5 9t2.5 7q3 6 3 9q4 11 6 15q1 3 8 17q5 7 7 14q2 8 5 11q2 3 6 13q5 10 8 13q6 5 6 10q0 6 3 12q1 1 4 7.5t5 9.5q5 8 5 16q0 5 4 8q5 2 5 12q0 9 -3 15q-2 6 -5 6q-4 0 -12 5q-10 5 -12 5t-8 -4q-7 -4 -13 -3q-7 0 -17 4q-8 3 -19 3
q-10 0 -24 4q-11 3 -18 3q-5 0 -9 -4q-4 -5 -10 -4q-1 1 -5 2.5t-6 1.5q-6 3 -40 3l-38 2q-8 0 -17 -1q-16 -1 -23 2q-8 4 -15 4q-5 0 -13 2q-5 3 -9 3q-3 0 -7 4q-1 4 -7 6q-2 0 -5 3q0 2 -2 12v14q2 6 8 12q2 2 6.5 6t5.5 5q7 3 13 5z" />
    <glyph glyph-name="uni0038" unicode="8" horiz-adv-x="579" 
d="M286 357q-3 3 -9 3h-4q-4 0 -7 -1l-22 -2h-22l-4 -2t-6 -4q-6 -6 -17 -9q-9 -1 -16 -8q-10 -7 -12 -8q-3 -2 -7 -6v-6q-1 -3 -4 -5q-4 -6 -7 -9q-2 -6 -2 -10q0 -5 -7 -17q-8 -12 -8 -22q-2 -11 -5 -13q-3 -4 -3 -15q0 -12 4 -19q5 -8 6 -19q0 -11 4 -17q2 -8 1 -13
q0 -9 3 -14t3 -12q0 -6 7 -13t15 -10q6 -3 17 -11q8 -8 16 -11q7 -5 11 -5q3 0 8 -5q8 -4 12 -4q6 0 10 -2q6 -3 39 -3q14 -1 29 -1t21 1q16 0 20 4q6 3 7 3q4 0 7 3q6 4 7 4q3 0 7 4l11 7q6 2 17 15q12 11 17 20q6 10 9 16q2 5 5 15q1 2 2 9t1 9q0 10 4 16q2 6 2 14v10
q0 18 -2 26q-1 3 -4 15q0 8 -4 16q-3 6 -5 12q-2 2 -5 8l-4 8l-6 12q-5 9 -8 10q-6 0 -8 -1q-4 0 -6 3l-8 8q-8 4 -12 4t-8 4q-3 4 -15 5q-15 0 -20 4q-6 3 -11 3t-11 3q-4 2 -13 2q-5 -1 -10 1zM297 700q-6 2 -8 2q-3 0 -4 -1q-4 -1 -8 -1q-2 -1 -8.5 -2t-7.5 -1
q-2 0 -23 -3q-12 0 -24 -5t-20 -10l-18 -15q-11 -13 -12 -17q-4 -6 -6 -8q-4 -2 -5 -6q-1 -2 -7 -16q-5 -13 -7 -22t-5 -14q-3 -4 -2 -14q2 -9 4 -11q4 -4 3 -11t4 -17q3 -8 7 -12q2 -2 2 -8q0 -4 5 -11q2 -1 5.5 -5t4.5 -6q6 -9 7 -13q2 -8 3 -9q2 -2 9 -4q8 -2 11 -5t5 -7
q1 -4 13 -7q14 -4 15 -4q4 0 11 -3q6 -2 31 -6q24 -2 35 -2q13 -2 17 2q14 5 20 6q16 5 20 9q5 5 9 11q2 6 8 10q9 9 12 13q5 7 10 16q1 4 10 15q6 6 6 11q0 4 4 10q3 4 3 38q-1 33 -5 38t-2 7q0 2 -9 22q-13 24 -17 29q-9 9 -12 11q-4 2 -10 8q-4 6 -9 6q-2 0 -8 4t-14 3
h-23q-14 2 -20 5zM324 761q1 1 2.5 1t3.5 -1q5 0 15 -2t17 -5q6 -2 14 -2q4 0 22 -8q14 -6 19 -13q4 -6 9 -6t8 -3q4 -4 7 -4t10 -7t13 -10q6 -2 14 -10t8 -10q0 -4 3 -7q4 -4 6 -14q3 -8 3 -16q0 -7 4 -12q5 -3 5 -8q0 -2 6 -16q6 -13 5 -24q0 -4 -1 -10v-2q1 -1 1 -11
q1 -8 -2 -13q-4 -4 -4 -12t-4 -13t-4 -11q0 -1 -1.5 -5.5t-1.5 -5.5q-4 -8 -20 -24l-23 -23q-10 -10 -15 -14q-8 -6 -10 -6q-3 0 -15 -14q-13 -13 -13 -19q0 -4 4 -12q5 -8 10 -9q6 -2 9 -5t5 -3q1 0 7 -6q3 -6 8 -6t10 -5q6 -4 10 -4q3 0 5 -2t2 -4q0 -1 12 -15
q12 -12 14 -19q2 -6 2 -9l1 -2q5 -6 8 -9q9 -10 11 -17q1 -5 7 -14q5 -5 5 -8q0 -2 -1 -6t-1 -28q-1 -9 -0.5 -14t1 -9l0.5 -4q0 -2 -2 -7q-3 -5 -6 -23q-2 -19 -4 -21q-3 -2 -3 -7t-3 -8q-4 -2 -4 -6q0 -5 -6 -14q-4 -9 -10 -15q-3 -3 -3 -7t-5 -7q-5 -4 -9 -9
q-2 -6 -13 -13q-9 -7 -12 -7q-2 0 -10 -8t-10 -8q-4 0 -14 -5q-12 -5 -18 -5q-7 0 -11 -5q-4 -4 -15 -4q-10 0 -19 -3q-7 -4 -24 -4q-15 1 -19 -3q-3 -3 -38 -3q-36 0 -40 4t-15 4q-10 0 -14 2q-5 3 -17 3t-16 4q-3 3 -7 3q-5 0 -10 5q-6 4 -9 4q-2 0 -14 4q-10 6 -13 9
q-4 6 -4 8q0 5 -6 9q-5 5 -13 11q-7 5 -9 9q-1 1 -2 4t-1 4q0 6 -4 6q-5 2 -9 12q-1 2 -4 8.5t-4 8.5q-3 4 -7 15q-4 8 -4 16q0 6 -4 16q-3 8 -3 20t-2 16q-1 2 -1 5t1 8q2 11 5 16q3 8 3 19q-1 10 1 18q2 6 9 11q8 6 12 17q6 12 6 17l3 12q2 7 4 7q4 2 7 5q5 5 8 5
q1 0 12 9q4 5 16 13q6 3 17 14q10 12 10 15q0 1 -0.5 5t-0.5 5q0 4 -7 13l-17 17q-8 8 -18 13t-18 16q-10 12 -10 13q0 3 -7 10q-7 9 -7 11t-4 8q-5 5 -3 12t-2 20q-5 14 -4 24q0 3 0.5 7.5t0.5 5.5q0 10 -1 19q0 13 2 17q0 1 1 4.5t2 5.5q0 8 6 20q6 14 6 16q0 5 5 13
q6 10 20 24q17 17 20 19q6 5 14 5t10 3q3 4 6 4q4 0 10 6q11 8 21 12q9 5 21 8q4 1 23 1q14 -1 22 3q7 4 41 4z" />
    <glyph glyph-name="uni0039" unicode="9" horiz-adv-x="582" 
d="M314 678q-6 3 -39 3q-26 0 -32.5 -1t-19.5 -8q-16 -7 -22 -13q-7 -6 -11 -8q-3 -2 -12 -13l-8 -12q0 -2 -4 -6q-5 -5 -5 -9q0 -5 -3 -8q-4 -3 -4 -10t-3 -13q-4 -4 -4 -12t-5 -14q-4 -7 -4 -11v-5q2 -12 2 -16q2 -6 0 -17q0 -12 1 -14l1 -5v-7q0 -9 3 -14q3 -4 2 -11
q-2 -5 1 -10q1 -1 4 -5.5t4 -5.5q5 -8 5 -18q1 -11 15 -25q14 -12 17 -18q3 -4 8 -7q4 -2 8 -8t10 -9q6 -2 16 -2t15 -5q5 -4 12 -3q6 1 14 -2q7 -4 22 -4h8q8 0 15 3q10 4 12 4q5 0 11 3q9 2 12 7q8 5 10 6q6 3 15 12q8 8 12 10q3 2 11 15q7 12 7 19q0 6 3 9q2 2 5 8
q0 4 4 8q3 5 3 61q0 57 -3 62t-3 9q0 3 -4 9t-4 15q-2 11 -5 14q-3 4 -3 9q0 4 -5 11q-7 10 -14 15q-10 10 -13 14q-5 5 -10 5q-4 0 -13 7q-8 7 -20 7q-11 0 -15 4zM219 748q9 5 19 5q4 0 18 -1q22 0 34 -3q6 -3 11 -3q4 0 8 4q4 3 9 3q4 0 10 -4q8 -4 11 -4q6 0 14 -5
q9 -3 16 -10q5 -7 8 -7q5 0 14 -3q12 -3 23 -9l12 -5q1 0 14 -11q14 -12 16 -13q4 0 14 -14q11 -15 12 -15q3 -1 3 -8q0 -8 5 -16l8 -16q1 -2 3 -5t2 -4q2 -2 4 -10q1 -9 -1 -17q-2 -10 -2 -12q0 -5 6 -13q1 -2 4 -7.5t4 -7.5q4 -4 4 -9q0 -7 1 -7q2 -2 2 -10q0 -9 4 -13
q4 -7 5 -26v-30q-2 -9 1 -13q1 -3 1 -5t-1 -4q-2 -6 -2 -48q0 -8 -0.5 -29t-1.5 -24q0 -9 -2 -15q-2 -8 -2 -14t2 -16q1 -9 -1 -14q-3 -4 -3 -12q0 -7 -5 -15q-4 -10 -3 -18q1 -7 -2 -13t-3 -11q0 -7 -4 -9q-4 -4 -4 -7q0 -2 -4 -8q-3 -3 -3 -10q0 -4 -7 -18q-7 -10 -7 -15
q0 -2 -2 -4q-3 -3 -6 -10l-5 -15q-1 -5 -12 -14q-6 -4 -19 -17q-4 -5 -15 -16q-8 -8 -14 -8q-7 0 -12 -5q-1 0 -18 -13q-13 -8 -20 -8t-11 -5q-3 -4 -6 -5t-17 0q-21 1 -24 -1q-3 -3 -8 -3q-7 0 -14 3q-12 4 -21 3q-10 -1 -16 3q-5 4 -25 4q-22 2 -24 4q-4 2 -7 2
q-4 0 -11 5q-1 1 -5.5 4t-5.5 4q-3 2 -19 4q-11 1 -14.5 2.5t-10.5 8.5q-9 8 -15 19q-4 10 -4 13q0 2 -4 6q-3 3 -3 7q0 2 -6 10q-6 6 -8 14q0 3 -3 9q-3 2 -3 6q0 3 -4 11q-4 5 -4 20q1 13 5 19q3 6 7 8q3 0 17 2q12 2 17 0q3 -1 10 -1q4 0 10 -3t9 -3q6 -1 12 -8
q5 -6 7 -13l3 -9q3 -4 3 -7q0 -1 4 -7q5 -5 5 -9q1 -3 6 -13q1 -1 7.5 -8.5t10.5 -11.5q14 -14 18 -14t10 -3q7 -3 57 -3q38 0 45.5 1t15 5.5t14.5 10.5q5 5 11 5q6 1 7 8q3 9 15 19q13 13 13 15q0 3 7 13q1 3 4 7.5t3 5.5q0 3 2 7q3 3 3 10t3 11q4 5 5 18q0 12 4 16
q3 4 2 23v21q0 14 1 29q1 25 -1 29q-2 2 -12 4q-6 1 -9 -1t-13 -13q-13 -15 -19 -16q-5 0 -11 -6q-7 -5 -12 -7q-2 0 -6.5 -1t-6.5 -2q-7 -2 -11 -5q-6 -4 -9 -4q-4 0 -12 -4t-20 -4t-17 -4q-6 -4 -13 -3q-12 3 -14 4q-9 2 -26 4q-19 1 -23 4q-5 3 -8 3q-5 0 -15 5
q-12 5 -12 7q0 1 -4 5t-6 4h-7q-4 0 -10 6q-6 5 -13 7q-7 0 -9 4q-3 3 -5 9q0 7 -8 12q-8 6 -10 12l-9 18l-10 15q-5 5 -5 8l-3 6q-3 3 -3 11t-3 14q-4 8 -4 10q0 4 -4 8q-4 5 -4 16q0 17 -1 24q-2 13 -3 14q-2 2 -2 13v19q0 11 3 14q3 9 3 17q2 15 4 17q0 1 1 3q3 8 4 12
q1 2 4 15q0 8 3 12t7 19q5 14 8 16q2 1 9 10q5 8 5 11t7 12q4 5 11 12q3 5 8 5l12 4q7 4 9 8q1 4 12 10q7 4 19 9q12 4 18 4q8 0 12 2q1 1 6 4t7 4z" />
    <glyph glyph-name="uni003A" unicode=":" horiz-adv-x="376" 
d="M170 130q3 3 15 3t16 -2q1 0 5 -1t7 -1q12 -2 14 -4q5 -3 7 -11q3 -10 5 -14t2 -23q0 -15 -2 -21q-1 -1 -3 -3.5t-3 -3.5q-2 -2 -6 -10q-4 -7 -7 -9q-6 -3 -29 -3q-27 0 -33 3q-5 1 -13 9q-6 8 -5 11q0 3 2 19q1 14 -1 21q-1 3 -1 12q2 7 9 14q9 8 13 10q4 0 8 4z
M181 513q7 0 14.5 0.5t12.5 0.5h5q3 0 11 -6q10 -7 10 -15q1 -8 5 -15q3 -4 3 -6t-1 -6q-2 -7 -4 -9q-3 -3 -2 -14q0 -11 -5 -19q-5 -7 -12 -8q-5 -2 -30 -2q-22 1 -26 5q-5 5 -11 5q-6 2 -8 4q-2 4 -2 15q0 12 -3 18q-4 6 -4 12q0 7 4 11t4 8q0 6 1 8q0 4 4 8q5 5 34 5z
" />
    <glyph glyph-name="uni003B" unicode=";" horiz-adv-x="345" 
d="M202 117q9 3 22 3q15 0 17 -2q2 0 2 -7t-4 -15q-4 -16 -4 -18q-1 -10 -7 -17l-6 -8q0 -3 -7 -10q-7 -8 -7 -21t-7 -20t-7 -13t-3 -9q-3 -6 -3 -8q0 -6 -3 -9q-4 -4 -4 -7q0 -2 -4 -6q-5 -5 -5 -10t-2 -15q-3 -8 -10 -13q-7 -7 -7 -10q0 -4 -3 -7q-5 -5 -7 -6
q-4 -2 -13 -2q-10 0 -13 3q-6 3 -7 3q-4 0 -9 5q-4 6 -4 8q0 4 3 8q2 4 2 9t3 9q2 6 2 10q0 3 4 17q5 21 6 26q3 10 5 27q2 15 9 22t6 14q-1 8 3 17q4 7 4 16q0 8 4 11q3 2 3 7q0 6 4 10q3 4 21 4t26 4zM221 520q4 7 9 7q4 0 9 -5t5 -9q0 -1 3 -7q4 -9 4 -14q0 -4 -4 -11
t-3 -17q0 -7 4 -13q2 -5 0 -13q-1 -2 -3 -7t-2 -6q-3 -5 -14 -12t-17 -7q-8 0 -16 3t-23 5q-11 1 -13 2t-6 7q-5 7 -5 15q0 3 1 14q1 9 1 19t-1 15q0 14 1 16q3 4 8 3t12 3q6 5 16 5h19q10 0 15 7z" />
    <glyph glyph-name="uni003C" unicode="&#x3c;" horiz-adv-x="754" 
d="M602 558q11 3 18 3h6q8 0 11 -3q1 -1 0.5 -3.5t-1.5 -4.5q-2 -6 -2 -11q0 -4 -3 -7q-3 -2 -5 -9q-6 -9 -10 -12q-6 -6 -14 -8q-2 0 -6 -0.5t-5 -0.5q-7 0 -15 -5t-16 -13q-1 -1 -4 -4.5t-3 -4.5t-1.5 -2.5t-1.5 -2.5q-3 -3 -11 -3t-13 -5q-4 -6 -11 -5q-8 2 -12 2
q-6 0 -6 -3l-2 -2.5t-3 -3.5q-4 -4 -12 -4q-7 0 -13 -7q-5 -7 -9 -7t-9 -3q-9 -3 -11 -3q-2 -1 -14 -9q-10 -8 -11 -8q-3 0 -8 -5q-7 -5 -10 -5q-6 0 -14 -5q-10 -4 -15 -4t-11 -7q-7 -7 -14 -7q-2 0 -6 -0.5l-4 -0.5q-2 -1 -6 -7q-2 -5 -9 -7q-6 -4 -7 -6q0 -3 -8 -7
q-8 -6 -22 -6q-15 0 -20 -5q-1 -1 -5.5 -4t-5.5 -4q-4 -1 -17 -10q-11 -8 -15 -8q-1 0 -6 -5q-6 -7 -11 -8.5t-7 -3.5l-0.5 -2t-0.5 -4q0 -3 6 -11q5 -8 7 -8q1 0 4.5 -3t4.5 -4q7 -7 14 -7q6 0 11 -5q4 -4 10 -4t10 -4q3 -3 8 -3q2 0 7.5 -1.5t6.5 -1.5q8 -3 11 -6
q2 -4 13 -11q10 -8 18 -10q6 0 8 -5q4 -4 10 -4t11 -5q3 -5 7 -5t7 -5q4 -4 10 -3q5 1 11 -3t7 -4t3 -2t8 -6q4 -3 14 -8q2 -1 5.5 -2l3.5 -1q1 0 9 -6q6 -6 12 -6q5 0 13 -2q9 -5 10 -6q0 -2 8 -4q8 -3 16 -9q2 -1 7.5 -5.5t6.5 -5.5q3 -4 15 -10q10 -6 12 -6q4 0 10 -6
q8 -6 17 -7q9 0 14 -3q1 -1 3 -2q6 -5 9 -6t10 -4q3 -1 5 -2q7 -2 12 -5q3 -3 11 -5q6 -1 8 -3t7 -11q9 -14 14 -21t7 -12q0 -7 -1 -11q-2 -8 -7 -11q-5 -4 -12 -4h-8q-16 2 -18 3q-3 3 -6 10t-7 7q-2 0 -8 6q-2 2 -11 8q-6 2 -11 2t-18 8q-2 2 -7.5 6t-6.5 5q-2 2 -11 2
t-13 4q-2 1 -5.5 2.5t-4.5 1.5q-6 2 -11 8q-2 3 -14 15q-12 10 -16 10q-4 1 -12 1q-6 0 -13 5q-2 2 -6 5l-3 2q-3 2 -7 7q-2 6 -11 11q-9 6 -17 6q-10 0 -17 7q-8 7 -15 6q-9 -1 -13 2q-6 4 -9 4t-12 7q-9 9 -15 12q-5 3 -9 3q-2 -1 -5 2q-3 5 -8 7q-6 3 -12 11q-4 6 -6 7
t-11 0q-12 0 -14 3q-1 3 -8 7q-7 2 -14 7q-10 4 -15 4q-8 0 -19 12q-13 11 -14 11q-2 0 -11 9q-7 7 -13 10q-4 0 -8 2q-8 4 -13 7q-7 5 -11 5q-2 0 -10 8q-7 8 -12 8t-8 3q-4 4 -4 8q-1 4 1 10q1 1 3 3.5t3 3.5q3 3 14 7q9 2 21 13q8 10 12 10q2 0 6 2q2 1 13 4q9 2 14 5
l5 2l9 3q8 4 14 4q8 3 12 7q6 6 14 10q6 4 12 4q6 2 7 3q0 1 9 6q8 5 12 5q3 0 14 11q12 11 19 11q5 0 17 4l16 8q7 5 7 8q1 2 4 5q2 2 14 6q4 1 10.5 2.5t7.5 1.5q8 2 14 5q5 2 11 5q1 1 4.5 2.5t6.5 3.5l10 4q1 0 11 6q4 3 9 8l6 4q5 5 17 10q14 6 18 6q6 2 9 5q1 1 11 6
q10 2 19 4q10 0 15 7q2 5 12 12q9 7 10 11q2 5 5 7t11 0q10 -1 21 3z" />
    <glyph glyph-name="uni003D" unicode="=" horiz-adv-x="802" 
d="M229 223q1 1 4 1q2 0 8 -4q4 -4 12 -6q11 0 19 4q9 4 25 4q18 -2 21 -4q6 -3 19 -3t16 3t94 4h35.5t30.5 0.5t20.5 0.5h9.5q26 0 52 -1q12 0 24.5 0.5t20.5 0.5h9q6 2 11 -1q4 -2 9 -2q4 1 7 -2q2 -2 7 -2q4 0 12 -4l9 -6q1 -1 1 -2q0 -2 -2 -4q-1 -1 -4 -6q-1 -2 -2 -3
q-2 -4 -8 -11q-5 -8 -5 -13q0 -7 -6 -12t-22 -5h-47h-40q-15 0 -21 1h-45q-36 -2 -37 -2q-2 -1 -3 -1q-2 0 -5 3q-5 3 -11 4t-11 -2q-4 -3 -37 -3q-18 1 -36 1h-2q-8 -1 -12 -1q-13 -1 -16 2t-14 5q-8 1 -16 -3t-34 -4q-7 0 -14 0.5t-11 0.5h-4q0 2 -23 0q-21 -3 -27 0
q-8 2 -22 -1q-9 -2 -15 -2q-3 0 -5 1q-4 2 -15 2t-18 3q-8 4 -13 9t-5 8q0 1 1 4q2 8 2 17q0 10 5 16q3 4 12 9q15 3 17 3q8 1 13 -1q6 -3 15 -3q11 -2 14 1q4 4 28 4zM146 440q6 1 15 1q2 -1 11.5 -1.5t13.5 -0.5h24h33q16 -1 35 -1l12.5 0.5t33 0.5h39.5q43 1 82 1h120
q88 -1 103 -1.5t19 -4.5q5 -5 5 -10q0 -4 3 -7q2 -4 2 -7q0 -5 -2 -7q-3 -3 -3 -7q0 -5 -5 -13q-5 -9 -11 -9l-6 -3q-1 -1 -2 -1q-2 -2 -6 -2q-1 1 -4 2t-4 1q-3 3 -9 3q-5 0 -15 -2q-11 -2 -20 1q-10 3 -16 0q-5 -3 -10 -1q-3 2 -18 2q-12 0 -20 -2q-10 -2 -12 0l-4 0.5
t-11 1t-12 0.5h-32h-39q-17 1 -37 1q-2 1 -25 1t-54 -1q-74 0 -79 -3q-6 -4 -10 -4t-6 2t-9 4q-8 3 -11 1q-2 -1 -6 -1q-2 1 -11 -3q-8 -4 -14 -4q-7 0 -11 3q-5 4 -14 4q-10 0 -13 -3q-5 -3 -15 0q-10 4 -12 4q-3 2 -3 6q0 5 -3 8l-4 12q-1 4 -1 5q0 3 5 8q6 6 5 11
q-2 5 4 10q5 6 13 5h21z" />
    <glyph glyph-name="uni003E" unicode="&#x3e;" horiz-adv-x="746" 
d="M107 571q4 2 18 2q14 -2 16 -4q4 -2 7 -2q1 0 7 -6q3 -5 12 -7q2 -1 6.5 -3t5.5 -2q6 -2 12 -6q4 -3 17 -7q8 -2 23 -14q13 -12 20 -13q5 0 11 -3t11 -3q11 -2 16 -6q7 -3 9 -8q1 -2 4 -5q1 -1 9 -3q6 -1 15 -12q7 -9 11 -9q2 0 8 -4q5 -4 18 -3t23 -8q8 -9 21 -15
l20 -12q10 -6 14 -6q6 0 16 -9q10 -10 12 -10q1 0 11 -4q10 -6 11 -7q1 -3 12 -7q8 -5 12 -5q2 0 6 -4q3 -5 6 -5t6 -3q6 -4 8 -4q5 0 7 -2q3 -3 11 -3q7 0 10 -5t10 -4t13 -4q8 -8 12 -10q3 -3 12 -6q5 -1 9 -7q2 -5 13 -6q10 0 10 -2q0 -1 4 -9q4 -5 4 -9q0 -1 -10 -5
q-9 -4 -12 -9q-4 -6 -5 -7l-8 -3q-7 -2 -9 -5q-1 -2 -11 -10t-13 -8q-6 -2 -11 -7q-7 -7 -15 -10q-7 -3 -16 -5q-9 0 -14 -5q-1 -1 -6.5 -4t-8.5 -4q-8 -5 -11 -5q-1 0 -11 -8t-13 -8t-17 -6q-12 -6 -18 -8t-8 -5q-2 -4 -4 -6q-2 -3 -10 -2q-7 1 -13 -6q-5 -6 -18 -12
q-13 -4 -16 -7q-2 -2 -8 -5q-6 -2 -10 -9q-7 -8 -12 -8q-8 -2 -12 -2q-5 0 -8 -4q-4 -4 -7 -4q-4 0 -9 -7q-6 -7 -10 -7q-3 0 -11 -6q-6 -6 -18 -7q-13 -1 -15 -6l-4 -6q-1 -1 -13 -3q-7 0 -16 -3l-5 -4l-6 -6q-8 -7 -14 -7q-8 0 -9 -3q-2 -1 -12 -5q-10 -2 -12 -6
q-2 -2 -8 -4q-7 -2 -10 -6q-6 -4 -9 -4q-4 1 -10 -3l-12 -9q-7 -5 -11 -5h-2q-7 0 -10 8q-2 4 -5 17q0 8 5 13q4 4 6 10q1 5 5 8q3 3 10 3q7 2 8 4l3 6q2 4 6 4q5 0 9 4q6 4 11 4h5l3 1q2 0 10 6q5 6 12 6q5 0 11 4q4 4 12 8q7 3 15 5q8 1 17 10q10 9 16 9q8 0 13 4
q1 1 18 11q16 6 18 6q5 0 13 6t10 6t9 7q8 6 17 9q7 1 17 8q7 7 20 10q12 4 17 9q3 3 12 9q6 3 14 9t10 6t7 3q4 4 7 4q5 0 11 3q6 4 10 4t6 2q3 3 6 3t10 5q4 1 15 10q8 6 10 6q1 0 4 1.5t4 1.5q3 3 12 5q7 1 12 9q5 7 5 10q-1 3 -10 8q-4 3 -12 7q-2 0 -8 3q-5 2 -11 4
q-8 2 -13 7q-6 6 -10 6t-7 3q-3 2 -6 7q-2 3 -7 6q-5 0 -8 3q-2 2 -17 6q-13 4 -21 10q-9 7 -12 7q-6 3 -10 7q-2 1 -5.5 4t-4.5 4q-4 2 -7 4q-1 0 -5 2l-6 3q-13 5 -16 6t-8 3l-5 1q-4 0 -9 5q-3 5 -7 5q-1 0 -4 -0.5t-4 -0.5q-6 -1 -9 3q-3 3 -5 10q-1 5 -1.5 6t-5.5 1
t-13 4q-7 5 -12 5q-4 0 -14 4t-13 9t-9 5q-7 2 -8 4q-2 2 -5 2t-9 6q-7 5 -9 5q-4 0 -14 10q-11 10 -20 10q-3 0 -8.5 0.5t-6.5 0.5q-4 0 -13 9q-9 10 -14 11q-2 0 -7 2l-4 2q-4 4 -8 4q-3 0 -9 2q-4 1 -5 8q-3 10 -6 16q-4 9 -1 14q5 7 8 8z" />
    <glyph glyph-name="uni003F" unicode="?" horiz-adv-x="552" 
d="M216 118q8 3 20 3q11 0 23 -6q15 -12 17 -14q7 -7 6 -10q0 -3 2 -7q2 -2 4 -15v-6q0 -7 -2 -14q-5 -10 -10 -15q-8 -8 -10 -8t-6 -2q-4 -3 -27 -3q-12 -1 -15 -1q-8 0 -12 4q-6 4 -10 4t-9 3q-3 2 -5 9q0 4 -3 10t-3 10q-1 3 -1 5q0 4 3 7q4 6 3 14t7 17q8 8 15 10
q9 3 13 5zM241 763l4 2l2 1q2 0 6 -4q5 -3 18 -3q13 1 16 -3q3 -3 17 -3q12 1 20 -3t18 -4q11 0 15 -3q6 -4 7 -4q2 0 10 -6q4 -2 18 -8q7 -1 17 -11q11 -11 12 -14q3 -6 9 -10q8 -5 13 -16q7 -11 7 -18q0 -5 4 -9q3 -3 3 -7q-2 -3 2 -9q3 -3 5 -14q0 -10 3 -13t3 -14
t-4 -15q-3 -2 -3 -14q0 -10 2 -18t-6 -20q-4 -7 -10 -19q-2 -7 -6 -9q-1 -1 -5 -4.5t-7 -6.5q-6 -6 -10 -16q-2 -8 -6 -10q-5 -3 -8 -8q-7 -7 -9 -8q-4 -2 -6 -6q-1 -2 -7 -8q-5 -4 -13 -15q-6 -10 -11 -15q-3 -3 -9 -6q-3 0 -15 -10q-8 -8 -14 -16q-5 -7 -9 -7l-9 -3
q-4 -2 -4 -3q0 -3 -5 -8l-12 -15q-7 -8 -9 -13q-1 -2 -1 -46q0 -43 -3 -48q-3 -3 -3 -10q0 -5 -3 -8q-1 -1 -9 -5q-7 -4 -24 -4q-18 0 -28 6t-10 13q0 27 1 52q0 45 4 53q5 9 6 9q2 2 5 10q1 2 3.5 6.5t3.5 5.5q3 1 3 6t5 8q4 2 8 9l7 7q2 1 6 5q0 3 12 13t15 10q5 0 13 10
q10 8 10 11q0 2 5 5q4 1 10 11q13 17 19 24q9 12 16 22q2 7 5 8q2 2 4 9q3 9 4 10q2 2 4 14q2 13 5 15q3 4 3 9q0 4 -2 6q-1 3 0 9q2 8 2 12q0 5 -2 11q0 2 -1.5 5t-1.5 4q-2 2 -2 9q-2 10 -7 16q-1 2 -3 5t-2 4q-6 7 -13 14q-13 13 -15 17q-4 4 -8 4q-6 0 -10 4q-3 5 -11 5
q-3 0 -9 3q-3 3 -36 3q-33 -1 -37 -4q-4 -4 -25 -3q-12 1 -37 1q-15 -1 -19 3q-5 4 -7 12l-6 12q-4 4 -4 7q0 2 5 9q5 5 5 8t7 8q5 5 8 5t5 4q3 3 10 3q8 0 11 3t12 1q12 -3 18 -3q8 -1 14 3q6 3 16 3q9 0 15 3z" />
    <glyph glyph-name="uni0040" unicode="@" horiz-adv-x="987" 
d="M576 253q-6 3 -11 3t-9 -2q-3 -1 -35 -3q-31 0 -34 -4q-4 -3 -15 -3q-11 1 -14 -2q-2 -4 -16 -8q-14 -5 -15 -9q-3 -6 -6 -9q-2 -2 -11 -8q-5 -2 -5 -3l-6 -8q-5 -7 -5 -10q0 -2 -4 -6q-3 -3 -3 -10q0 -5 1 -21v-15q0 -13 -2 -18q-2 -6 -2 -7q0 -2 5 -4q5 -3 5 -7t6 -12
q7 -9 9 -9q1 0 6 -3q5 -5 7 -6q5 -2 7 -7q4 -6 8 -7q4 0 7 -3q2 -2 36 -2h38q7 0 8 5q2 4 8 7q7 3 9 8q2 4 14 9q11 5 12 9q0 3 4 11q3 8 7 12q4 6 6 15q1 3 3.5 10t3.5 9q4 11 4 46q0 37 -5 41q-5 5 -5 6t-2 7q-4 6 -9 8zM528 668q6 2 7 2l6 -4q5 -5 25 -6q23 0 26 -3
q6 -3 11 -3t13 -2q8 -4 13 -4q4 -1 22 -9q15 -7 23 -9t16 -6q10 -6 11 -7q2 -2 10 -6q5 -1 22 -14q16 -12 16 -14q3 -4 11 -8q7 -6 14 -8q5 -2 5 -5q0 -2 13 -13q15 -13 17 -16q3 -5 7 -5t7 -3q6 -6 7 -12q4 -7 7 -9q2 0 9 -7q9 -12 12 -18q7 -11 7 -16q0 -4 4 -10
q5 -7 5 -9q0 -5 6 -12q6 -10 7 -12q0 -3 3 -6q3 -2 3 -7t4 -13q5 -9 4 -13q0 -6 3 -9q2 -2 6 -10t4 -17q2 -10 4 -14q2 -3 6 -13q3 -15 5 -24q1 -13 1 -22v-7v-50q-1 -36 -4 -41q-2 -6 -4 -10q-1 -3 1 -12q1 -7 -4 -14q-5 -8 -5 -14t-3 -12q-4 -12 -5 -20q-4 -16 -7 -19
q-4 -5 -4 -9q1 -2 -1 -9q-1 -7 -7 -10q-6 -4 -6 -10q0 -4 -4 -8q-3 -1 -5 -9q0 -9 -8 -20q-1 -2 -4 -6q-5 -8 -6 -9l-19 -19q-4 -5 -12 -12.5t-9 -9.5q-8 -6 -10 -6q-4 0 -9 -5q-6 -5 -13 -8q-6 -2 -20 -1q-15 2 -20 0q-4 -1 -25 -1q-18 0 -26 4q-2 1 -7.5 3.5t-7.5 3.5
q-6 2 -13 2q-6 0 -13 7t-11 7q-2 0 -9 5q-4 4 -12 10q-6 6 -6 8q0 1 -4 7q-3 3 -3 10q0 5 -4 11q-1 1 -4 6.5t-4 8.5q-3 6 -3 15q1 7 -7 14q-7 7 -10 7q-4 0 -12 -10q-10 -10 -18 -13q-12 -9 -13 -10q-3 -4 -12 -11q-5 -4 -16 -6q-10 -2 -16 -6q-6 -6 -8 -4h-3.5t-8.5 0.5
t-12.5 0.5h-14.5l-40 2q-2 2 -9 4q-7 1 -10 8q-4 6 -13 7q-10 1 -16 8q-7 9 -7 13q-3 7 -3 8l-2 6q0 4 -6 8q-2 1 -9 8q-1 1 -2.5 6t-2.5 7q-5 12 -6 13q-5 9 -6 11q-4 8 -4 18q0 11 2 17q3 6 3 21t4 19q0 1 1.5 4t1.5 4q0 3 3 9q5 10 8 14q5 5 5 10q0 3 5 8q4 4 6 8
q4 4 7 6q4 1 17 10q11 9 12 11q1 4 7 4q4 0 14 4q1 1 5 3t5 3q0 2 8 2t15 4q6 5 17 4q12 -1 20 2q8 4 11 4q5 0 15 5t22 3q14 -2 25 -1q12 0 18 3q1 0 11 3q5 0 13 5q6 4 8 8q4 5 5 32q2 23 -1 31q-1 4 0 13q2 9 -2 15q-1 3 -6 9q-1 2 -2 3q-5 4 -4 11q0 5 -5 8q-5 2 -9 8
q-2 3 -10 9q-6 2 -13 2t-11 -2q-3 -2 -9 4q-4 7 -8 7t-9 -5q-5 -4 -9 -4.5t-21 -0.5q-25 0 -28 -1q-5 0 -7 -5q-2 -7 -10 -16q-8 -11 -12 -13q-2 0 -2 -4t-4 -8t-6 -11q-2 -6 -6 -9q-6 -2 -14 -2q-10 0 -16 -5q-5 -4 -15 -3q-12 1 -15 6q-5 4 -6 17q-1 11 2 16q1 3 4 9
q0 1 1.5 3.5t1.5 3.5q1 2 7 4q4 0 6 5q0 3 8 13q7 9 14 10q7 2 9 6q2 5 8 5q8 3 26 1q22 0 28 3q7 5 15 8q7 3 22 5q12 2 17 0q4 -2 9 -2t13 4q6 4 13 1q7 -4 24 -4q16 -1 20 -5q3 -3 10 -3t17 -4t13 -10q0 -1 1.5 -4t1.5 -4q0 -3 8 -11q9 -7 11 -7q3 0 5 -2q2 -4 2 -9
t4 -15q5 -7 5 -12q0 -4 -3 -7q-2 -4 -2 -6q0 -3 5 -6t5 -9v-5q0 -6 1 -27q0 -22 3 -31q1 -5 -1 -11q-2 -5 -2 -30q1 -25 4 -28q4 -4 4 -5q0 -2 -4 -4q-4 -4 -4 -15q-1 -11 2 -18q4 -8 4 -11q0 -6 -3 -13q-3 -9 -3 -23v-17q1 -17 1 -36v-30q-1 -13 -1 -17q0 -9 4 -14
q4 -8 4 -15q0 -8 4 -15q2 -4 4 -16q0 -8 1 -10t6 -5l10 -10q5 -5 10 -5q6 -2 16 -2q9 0 16 4q6 4 10 4q6 0 9 3q6 4 14 12q9 9 9 12q0 2 6 6q5 2 14 18q7 16 7 18q-2 2 4 6t6 11q0 8 6 19l10 21q4 9 3 12q-1 2 -1 12q0 8 2 10q3 3 8 13q5 12 5 16q0 11 1 17q0 2 -0.5 12.5
t-0.5 16.5q0 5 0.5 20t0.5 21q1 21 -2 25q-2 4 -4 20q0 13 -3 19q-3 3 -5 17q-2 13 -5 18q-3 6 -3 13t-2 11q-3 4 -3 7q0 1 -4 7q-3 2 -8 14q-4 12 -4 14t-6 8q-7 4 -8 13q-3 9 -9 12q-8 8 -10 12q-3 6 -8 11q-6 5 -7 10q-4 8 -11 13t-9 5q-3 0 -12 13q-12 14 -18 16
q-8 4 -13 9q-6 4 -9 4q-1 0 -11 6q-8 4 -8 8q-2 4 -4 5l-4.5 1t-7.5 2q-8 3 -12 7q-2 3 -9 7q-10 5 -14 6q-5 3 -24 9q-17 5 -22 5q-2 -1 -10 2q-8 4 -9 4q-2 0 -8 4q-5 4 -34 5h-33q-9 0 -14 -1q-8 -2 -12 -4q-6 -3 -35 -3q-31 0 -35 -3q-6 -4 -12 -4q-8 -2 -14 -8
q-7 -5 -10 -5t-9 -4l-10 -5q-5 -3 -8 -7q-1 -4 -12 -10q-7 -4 -19 -9l-12 -5q-2 -2 -9 -4q-2 0 -11 -3q-3 -2 -9 -10q-4 -7 -5 -7q-3 0 -13 -10q-4 -4 -9 -8.5l-5 -4.5q-4 -1 -14 -15q-10 -16 -10 -17q0 -5 -8 -10q-9 -6 -11 -9q-3 -6 -3 -12q-1 -10 -6 -12q-6 -3 -7 -5
q-3 -5 -3 -7t-6 -10q-5 -8 -5 -16q0 -9 -4 -12q-4 -4 -2 -7q1 -3 -6 -13q-6 -8 -8 -18q-1 -4 -4 -13q-3 -6 -3 -28q-2 -23 -3 -27q-3 -1 -5 -12q-1 -10 1 -15q4 -12 6 -19q4 -11 2 -15t-2 -35q0 -23 0.5 -27.5t4.5 -8.5q4 -6 4 -10t6 -14q6 -12 6 -14q0 -3 5 -10q6 -8 6 -9
q0 -5 6 -15l6 -14q0 -1 2 -3q1 0 8 -10q1 -3 5 -10t5 -9q3 -8 9 -14q4 -6 4 -7q0 -2 7 -9q4 -3 21 -22q14 -15 23 -19q10 -5 10 -8q1 -3 3 -3l10 -8q3 -2 8.5 -6t6.5 -5q6 -4 8 -6q1 -3 8 -5q1 0 6 -1t7 -2q5 0 17 -8q15 -8 17 -8q2 -1 8.5 -2t8.5 -1q10 0 15 -4q7 -5 11 -5
q4 -2 5 -3q0 -1 4 -1q2 0 6 -4q6 -4 8 -4h9q7 0 10 1h11h19q11 -1 18 2q7 5 8 8q5 5 10 6q8 2 11 5q3 5 8 5q3 0 9 4q5 4 15 4q11 -1 17 -5q6 -5 6 -9.5t3 -5.5l6 -9q4 -8 4 -12q0 -5 -5 -10q-4 -6 -4 -8q0 -3 -3 -7q-1 -1 -12 -8l-13 -8q-3 -3 -5 -3q-1 0 -9 -4
q-6 -4 -27 -5h-23h-45q-41 1 -43 3l-10 5q-7 3 -10 6q0 2 -7 2q-8 0 -12 3q-5 3 -18 7q-2 1 -8 3.5t-7 3.5q-4 2 -7 2q-2 0 -8 4q-5 5 -8 5q-4 0 -8 3q-4 4 -8 4q-7 0 -12 4q-2 1 -7 4t-7 4q-6 4 -6 8q0 1 -6 7l-8 4l-3 2t-5 3q-4 4 -10 7q-6 0 -6 4q-2 4 -4 4t-13 11
q-6 7 -17 18q-4 3 -12 11l-8 12q-2 8 -10 15q-8 5 -10 12q-3 7 -9 14q-8 8 -7 11t-3 7q-5 3 -5 9q0 5 -7 11q-7 7 -7 11q0 3 -6 15q-6 14 -6 15q0 2 -4 8q-3 6 -3 15q0 8 -4 15q-4 4 -7 21q-5 20 -8 26q-4 12 -4 33q0 23 1 24t-3 8t-4 23q1 16 3 21q2 4 4 25q2 22 4 25
q2 6 2 9q0 5 4 9q4 6 4 15q2 12 4 14q2 4 2 9q0 7 4 11q5 3 5 7q0 2 4 8t2 6l2 6l13 26q9 18 11 20q1 0 1 4q0 3 9 12q8 8 10 14q1 5 14 19q16 14 23 21q10 8 12 15q4 6 10 9q9 6 20 17q12 14 17 14q3 0 7 4q0 1 1.5 2.5t1.5 2.5q0 2 13 6q14 6 16 6q5 2 5 5q2 4 8 7
q5 1 11 7q4 4 6 4q1 0 15 6q12 5 17 5q6 0 10 4q5 5 11 5t9 3q3 2 16 2q10 0 22 3q12 4 21 4q11 2 14 4q4 4 16 4q6 0 25 -1q9 0 18.5 -0.5t15.5 -0.5h6q1 1 4.5 1.5t5.5 0.5z" />
    <glyph glyph-name="uni0041" unicode="A" horiz-adv-x="721" 
d="M367 634q-6 4 -11 4q-3 1 -4 1q-3 0 -7 -4q-3 -5 -6 -5q-2 0 -6 -4q-5 -6 -9 -16q-3 -9 -3 -14v-8q-2 -6 -9 -15t-7 -12t-4 -9q-3 -4 -3 -14q0 -7 -4 -17q-5 -10 -7 -13q-1 -4 -6 -9q-1 -2 -7 -20q-4 -16 -7 -19q-2 -2 -6 -13q-5 -15 -8 -19q-4 -8 -2 -14q2 -5 -3 -9
q-5 -5 -5 -10q0 -7 -3 -13l-6 -9q-1 -2 -2 -3q-3 -4 -7 -14q-4 -11 -7 -15q-3 -6 -3 -9q0 -6 -3 -12q-4 -5 -4 -18q0 -12 5 -17q3 -5 11 -7q10 -2 11 -2q4 0 12 -2q11 -3 12 -4q2 -1 11 -1l12 4q5 4 22 3q1 0 33.5 -0.5t56.5 -0.5q74 0 78 3q5 2 11 4q6 0 9 5q2 4 2 7
q0 2 -0.5 5t-0.5 7v11q2 8 -2 19q-3 9 -3 17q0 6 -5 10q-4 2 -6 9q-2 8 -4 8q-1 1 -1 5q0 3 -4 7t-4 12t-5 13q-6 6 -9 17q-5 10 -9 16q-4 4 -4 10l-3 9q-3 6 -3 9q0 6 -4 12t-3 15q0 9 -4 13q-6 9 -7 11q-2 7 -7 13q-6 7 -6 13q0 1 -1.5 6t-1.5 7q-4 10 -9 20q-3 7 -9 19
q-3 10 -5 15q-1 9 -7 12zM356 734q9 3 22 3q15 0 17 -2q3 -3 8 -3t10 -6q4 -8 4 -11q0 -5 8 -13t8 -12t3 -8q4 -8 5 -13l4 -16q3 -9 5 -12q4 -6 4 -9q0 -2 4 -10q1 -2 7 -11q3 -3 3 -11t3 -12q2 -4 2 -9q0 -6 5 -11q4 -8 4 -9t4 -9q3 -5 3 -10q0 -2 4 -12q6 -8 11 -20
q10 -15 11 -16q4 -4 4 -7q-1 -3 1 -7q3 -6 3 -7q0 -4 3 -8q4 -4 4 -12q1 -9 7 -16q7 -5 7 -9q0 -3 10 -23q13 -24 14 -25q4 -4 4 -13t3 -12q6 -10 11 -20q2 -4 5 -11t3 -8q0 -3 5 -10q3 -7 2 -15q-1 -9 4 -13q5 -3 7 -11q4 -10 7 -13q4 -6 4 -9t4 -13q5 -7 5 -14q0 -6 2 -10
q2 -6 6 -8q4 -4 4 -7q0 -4 3 -7q4 -4 4 -12t3 -14q4 -6 4 -11t4 -6q5 -3 5 -6q0 -5 3 -8q3 -5 3 -8q-1 -4 2 -9q1 -1 10 -17q6 -14 6 -16t4 -6q3 -3 3 -9q0 -3 4 -13q5 -10 7 -12q2 -3 4 -16q0 -8 -0.5 -10t-4.5 -3q-6 -2 -9 -5q-2 -2 -34 -3q-23 0 -27 1t-8 6q-3 4 -11 12
q-7 3 -9 12q-3 6 -3 10q0 3 -4 9q-3 4 -3 11q0 8 -7 19q-7 13 -8 19q-2 9 -5 13l-4 12q0 4 -4 12q-3 4 -7 17q-2 12 -5 15q-2 2 -2 6q0 3 -6 15q-8 11 -11 12q-3 0 -11 5q-7 5 -20 4q-13 -2 -22 0q-5 2 -18 2q-8 0 -21 -1q-18 -1 -23 -1q-7 0 -9 3q-4 4 -20 4t-20 -4
q-4 -3 -96 -3q-93 0 -100 -3q-4 -3 -9 -3q-3 0 -6 -3q-2 -2 -2 -5q0 -6 -3 -7q-3 -3 -7 -11q-3 -7 -2 -14q0 -7 -3 -10q-8 -11 -10 -17q-6 -10 -8 -24q-2 -11 -8 -22q-6 -14 -6 -15q0 -2 -4 -6q-3 -5 -3 -7q0 -1 -4 -7t-4 -13q-2 -8 -5 -11l-2 -3.5t-3 -5.5q-4 -8 -6 -10
l-3.5 -2t-5.5 -3q-1 0 -4.5 -2t-5.5 -3q-4 -3 -20 -3q-17 2 -25 6q-11 4 -11 7q-1 2 -1 8q0 5 3 13q1 3 4 10t4 10q1 2 3 8.5t3 8.5q2 6 11.5 25t10.5 19l0.5 1.5t0.5 2.5q0 3 5 8q4 6 3 8q0 3 -2 7q-2 3 4 6q3 1 9 15q4 14 4 15q0 2 7 13t7 16q0 4 4 14q2 4 6 15q2 9 6 13
q6 9 7 14q3 6 5 19q1 8 4 16q3 6 4 7q4 8 6 14q1 3 5 18q2 8 6 16q5 10 7 12q3 3 3 8q0 4 3 7q2 4 2 6q0 1 1 2l3 6q3 3 5 12q0 7 3 10t3 4q0 4 3 7t5 14q2 12 7 15q4 6 4 8q0 1 4 7q4 3 6 14q1 10 7 17t6 16q2 10 5 13q3 4 3 10q-1 5 0 6q3 3 7 10q3 7 5 16q1 6 5 11
q0 1 1.5 2.5t1.5 2.5q0 2 8 12q8 11 8 18q0 8 7 22t7 18q0 6 3 13q1 2 3.5 7.5t3.5 7.5q2 6 7 9q4 4 4 8q0 6 5 10q6 4 8 4q1 0 8 5q3 4 14 8q8 3 15 1q6 -2 15 2z" />
    <glyph glyph-name="uni0042" unicode="B" horiz-adv-x="705" 
d="M287 353q-4 3 -28 4q-17 0 -21.5 -1t-13.5 -5q-6 -2 -17 -10q-5 -5 -5 -8q0 -5 -3 -11q-3 -5 -3 -24q0 -4 0.5 -15t1.5 -15q0 -12 2 -18q3 -4 0 -10q-3 -5 -3 -14q0 -11 3 -15q3 -8 3 -40q0 -34 -3 -41t-2 -15q0 -9 2 -11q1 -1 2 -6t2 -8q2 -8 3.5 -10t8.5 -6
q10 -5 13 -5q1 0 7 4q3 3 11 3q6 0 10 -2q4 -3 39 -4h17q19 0 23 1q2 1 17 -1q13 -1 21 4q10 4 14 3q3 -1 19 -1q5 0 11 0.5l6 0.5q3 3 5 6q1 4 10 3q8 -1 20 4q13 6 15 11q3 6 8 6q6 2 16 12q9 8 15 20q1 3 8 17q4 8 3 14t3 12q5 6 5 25v11q0 9 -4 18q-4 8 -4 17q0 6 -3 12
t-3 7q0 4 -3 7t-5 8q0 5 -5 7q-6 4 -10 11q-7 9 -17 15q-11 4 -16 10q-4 4 -6 4t-9 5q-5 4 -14 4q-8 0 -14 3q-4 3 -17 3q-11 0 -16 4q-6 3 -21 3q-9 -1 -23 -1q-3 0 -12 -3q-3 -3 -22 -3q-18 0 -21 4zM259 668q-14 4 -26 4h-7q-6 0 -12 -3q-3 -4 -6 -4t-3 -4q-2 -6 -6 -10
q-3 -7 -3 -14v-9q0 -17 3 -23t4 -58q0 -53 -3 -59q-3 -8 -3 -21t2 -17t4 -16q1 -11 6 -16q4 -3 25 -4q11 -1 23 -1h6.5t14.5 0.5t20.5 0.5h24.5q60 0 66 3q3 3 21 3q13 0 16.5 1.5t12.5 12.5q14 13 22 15q10 3 12 10q2 8 9 17l10 10l5 5q2 2 2 9q0 5 2 11q2 4 2 31
q1 14 1 18q0 9 -4 14q-5 5 -5 11q0 7 -3 12q-3 6 -9 12q-5 5 -5 7q0 3 -7 10t-9 7q-1 0 -3 4q-2 5 -7 5t-7 2q-3 3 -13 8q-10 6 -27 7q-16 1 -21 4q-4 3 -24 3q-18 0 -27 4q-5 3 -12 3q-4 0 -13 -1q-15 0 -21 -3q-9 -3 -11 -3q-6 -2 -17 2zM286 732h16l24 -3q11 -3 14 -1
q6 2 18 2q27 0 43 -1q30 -1 34 -4q3 -2 9 -2q5 2 16 0q11 -3 15 -8q4 -6 8 -6q4 2 7 -3q5 -5 11 -5t10 -2q2 -3 6 -3q3 0 23 -18q14 -14 18 -18.5t8 -15.5q6 -15 10 -18l5 -3q1 0 1 -7q0 -8 3 -14q4 -6 5 -19q0 -11 4 -16q3 -5 2 -10q0 -5 -4 -11q-3 -4 -3 -22q0 -16 -4 -20
t-4 -10l-4 -12q-2 -4 -2 -7q0 -4 -4 -6q-3 -3 -3 -5t-7 -11q-5 -10 -14 -13q-9 -5 -15 -12q-8 -8 -11 -8q-4 0 -9 -3q-6 -4 -8 -4q-4 0 -7 -5q-4 -6 -9 -11q-5 -3 -5 -8q0 -3 4 -11q6 -8 7 -9q3 -3 10 -3q5 0 15 -4q7 -5 11 -5t16 -10q7 -6 19 -15q9 -5 12 -13q4 -9 9 -11
q4 -3 4 -6q-2 -5 7 -11q7 -6 7 -10t3 -7q3 -6 3 -10q0 -8 3 -12q4 -6 4 -10q0 -6 3 -12q4 -8 4 -14q0 -7 -2 -13q-2 -7 -4 -24q-1 -20 -6 -28q-4 -8 -4 -14t-2 -12q-5 -8 -6 -8l-3 -6q0 -4 -5 -14q-6 -10 -9 -13q-1 0 -4.5 -3.5l-9.5 -9.5t-11 -10q-14 -15 -18 -17.5
t-9 -2.5q-8 0 -12 -4q-8 -5 -10 -6q-4 0 -10 -4q-4 -4 -8 -4t-10 -2q-6 -3 -20 -2q-15 1 -22 -3q-9 -5 -19 -4q-10 0 -12 2q-5 0 -8 -1q-4 -2 -9 -6q-2 -4 -5 -4h-1q-2 2 -31 2q-15 1 -34 1q-6 0 -18 2q-12 1 -19 0q-8 -2 -15 1q-12 3 -20 3q-13 1 -17 -3q-4 -3 -45 -4
q-42 0 -48 3q-7 3 -15 10q-5 4 -6 6.5t0 10.5q0 12 -4 18t-4 8q0 3 5 8q4 6 4 26v22q0 4 -3 6q-1 0 -3 1.5t-3 2.5q-3 2 -3 5q0 1 1 5q3 12 3 39q0 7 0.5 23.5t1.5 19.5q0 12 3 18q4 6 3 20q0 4 -0.5 16.5t-0.5 17.5v34v18q0 1 -0.5 4.5t-0.5 5.5v33q1 16 1 48q-1 12 -1 30
q0 3 -0.5 9t-0.5 7q-2 7 0 27q3 36 3 39v24q0 21 -1 43v19t-0.5 16.5t-0.5 7.5q0 14 1 25q0 21 4 30q1 1 3 5t3 5t4 1.5t4 0.5q8 0 14 3q8 4 72 4q63 0 65 2z" />
    <glyph glyph-name="uni0043" unicode="C" horiz-adv-x="700" 
d="M366 749q3 1 10 1q6 0 15 -3q10 -4 14 -1q4 2 8 -1q5 -1 15 1q9 3 20 0q10 -4 14 -6q2 -2 14 -4q10 0 14 -2q9 -3 11 -3q5 0 10 -3q2 -3 11 -5q8 0 13 -6q5 -5 7 -5q1 0 7 -4q5 -5 9 -5t7 -3q2 -1 9 -10q4 -8 11 -13q2 -2 10 -6q2 0 7 -10q5 -11 10 -14q7 -4 8 -7
q2 -2 2 -6q0 -5 5 -10q4 -4 4 -7t3 -6q4 -6 4 -11q0 -6 3 -11q4 -4 4 -11q-2 -6 2 -10q4 -3 -1 -13q-6 -11 -10 -14q-6 -3 -7 -3q-4 0 -5 -3q-2 -2 -4 -2q-3 0 -6 3t-22 3h-20l-9 11q-6 10 -6 11q0 3 -3 6q-4 6 -4 11q0 7 -6 14q-5 9 -7 17t-5 13q-4 4 -8 12q-2 7 -7 12
q-4 4 -7 4t-10 7q-8 6 -11 6q-2 0 -8 4q-3 3 -13 5q-11 2 -15 5q-6 3 -59 3q-39 -1 -46.5 -1.5t-10.5 -3.5q-5 -3 -11 -3q-5 0 -19 -7q-14 -6 -16 -6t-10 -4q-5 -5 -9 -5t-10 -3q-10 -6 -16 -14q-10 -10 -10 -13q-5 -6 -10 -11q-11 -9 -9 -12q3 -3 -5 -9q-7 -9 -8 -13
t-6 -14t-7 -13q-3 -6 -3 -11q0 -4 -4 -14q-5 -8 -4 -14q1 -7 -4 -15q-4 -8 -3 -18q1 -9 -1 -15q-2 -2 -4 -14q-2 -14 -2 -72q0 -59 4 -66q3 -5 4 -22q0 -16 4 -21q3 -4 1 -11q-1 -7 0 -11q2 -6 2 -8t4 -10q3 -6 3 -11q0 -1 5 -16q4 -10 7 -13q2 -2 2 -6t2 -8t9 -11t9 -14
q2 -4 12 -12q8 -5 10 -9q0 -4 9 -11q7 -7 9 -7q1 0 3 -4q0 -1 9 -12q9 -9 11 -9q1 0 15 -6q9 -5 15 -6t35 -1h21q17 0 20 -3q4 -4 9 -4q5 -1 16 4q11 4 18 3q8 -1 14 4l8 4q2 0 7 3q8 2 11 2q4 -1 8 5q5 7 14 12q8 5 25 20l15 17q0 1 1.5 4t1.5 5l8 16q5 8 5 15q0 8 4 13
q5 7 4 11t1 9q2 4 9 6q5 3 25 3q6 0 15.5 -0.5t11.5 -0.5q12 -3 18 -9q9 -7 9 -10q2 -2 2 -20q0 -17 -3 -19q-3 -1 -3 -8t-7 -14q-7 -9 -7 -12t-4 -7q-3 -3 -5 -10q-3 -7 -11 -14t-11 -12t-6 -5q-1 1 -3 -1t-3 -5q-4 -6 -11 -13q-5 -4 -17 -11q-7 -3 -13 -9q-3 -4 -12 -9
q-2 0 -6.5 -1.5t-5.5 -1.5q-4 0 -7 -5q-4 -6 -6 -6q-5 0 -6 -3q-4 -4 -12 -4q-7 0 -11 -2q-1 -3 -10 -2q-10 0 -15 -3q-5 -4 -38 -4q-17 1 -22 1q-11 0 -23 -5q-10 -5 -16 -5q-3 0 -9 1q-15 2 -17 4q-3 3 -20 3q-15 0 -20 3q-4 2 -6 2q-1 0 -8 5q-8 6 -12 10q-5 5 -12 7
q-6 3 -11 3q-4 0 -7 3q-4 2 -6 2q-3 0 -7 4q-2 3 -15 10q-14 8 -22 19q-6 7 -12 13q-1 0 -7 6q-7 7 -10 8q-5 5 -5 8q0 6 -2 8l-3 2.5t-5 4.5q-7 3 -10 12l-6 12q-3 3 -3 7q0 3 -4 7q-4 2 -4 8q0 4 -6 8t-6 6q0 4 3 5q2 2 2 5t-3 6t-3 5q0 1 -6 13q-7 12 -7 17q0 1 -3 13
q-4 8 -4 10t-4 10q-4 9 -4 28q0 15 -0.5 18.5t-4.5 7.5t-4 6q0 1 1 3q3 3 0 8q-1 2 -1 3q0 2 4 9q5 7 5 58q0 50 3 56q3 3 3 23t4 29q5 8 5 12t4 8q3 4 3 11q0 5 6 17q6 10 6 15q0 4 5 9q4 8 4 11q0 5 6 10q4 3 8 11q2 6 9 13q8 8 11 16q5 7 5 11t4 6q3 3 6 3t16 13
q4 4 12 11t10 9q3 3 8 6.5t6 4.5q1 0 11 7q7 5 12 5q6 0 10 3q4 2 10 2q5 0 11 4q5 4 19 5q13 0 17 4t11 3q8 -1 14 2t17 5q3 1 17 4z" />
    <glyph glyph-name="uni0044" unicode="D" horiz-adv-x="763" 
d="M267 656q-8 3 -24 3q-17 0 -20 -3q-6 -3 -10 -3q-7 0 -13 -3q-9 -5 -12 -10q-5 -5 -5.5 -10.5t-0.5 -30.5q0 -35 4 -41q5 -8 3 -17q0 -11 -2 -11q-1 0 -3 -4t-2 -21t4 -22q3 -4 3 -47q0 -32 -0.5 -38t-3.5 -11q-4 -6 -4 -13q0 -4 1 -24q1 -16 1 -49q0 -20 4 -26
q3 -5 4 -24v-31v-30v-23q0 -1 -0.5 -8.5t-0.5 -18.5v-21q-1 -22 -1 -28q0 -14 5 -19t8 -5t7 -6q4 -4 8 -4h5q5 1 18 1q5 -1 14 -1q3 1 13 1q4 -1 14 -1q8 0 12 4t15 4q5 0 23 -1q41 0 50 1q15 2 17 0t10 -2q7 0 13 5q5 5 12 7q5 3 23 3t19 3q2 1 16 15q13 13 23 19
q9 4 17 16q6 10 13 14q3 1 10 10q5 7 5 13q0 5 2 7q2 0 6 10q4 11 10 18q5 8 5 17t4 14q3 6 2 18q-1 11 3 15q3 4 4 26t4 26t3 41q0 36 -3 43q-4 6 -4 32q0 24 -7 39q-8 16 -8 17t-4 17q-2 9 -7 19q-3 3 -3 7q0 3 -3 6q-4 4 -4 6t-10 16q-11 13 -18 18q-8 6 -8 10l-2 4
q-2 0 -11 7q-10 8 -12 8q-1 0 -10 7q-4 4 -18 11q-12 4 -20 4q-5 0 -13 4q-4 4 -13 4t-23 7q-15 7 -71 7q-57 0 -63 3zM171 719q0 1 2.5 1t4.5 -1q1 0 8.5 -0.5t22.5 -1t25 -0.5q51 0 55 -3q5 -2 13 -4q3 0 8 -0.5t6 -0.5h46h62q20 -2 26 -3q6 -3 15 -3q8 0 16 -4t12 -8
q4 -3 10 -1t9 -2q3 -3 13 -7q10 -3 16 -9q5 -5 8 -5q4 0 9 -5l5.5 -4t7.5 -5q6 -4 17 -15q3 -3 7.5 -8t5.5 -6l3 -2.5t4 -3.5q5 -5 9 -7t6 -7l5 -10l4 -8q1 -3 2 -4q4 -8 7 -11q3 -1 8 -8q3 -4 3 -10q0 -4 7 -16q4 -7 8 -19q2 -8 5 -11q3 -4 3 -9q0 -3 3 -6q3 -1 3 -12
q0 -10 4 -24q2 -13 6 -22t4 -56q1 -26 1 -34q0 -16 -4 -26q-4 -8 -4 -25q0 -16 -4 -20q-4 -5 -3 -18q0 -13 -3 -19q-3 -3 -3 -12q0 -8 -4 -15q-4 -6 -6 -12q0 -2 -7 -16q-6 -12 -6 -14t-2 -6q-1 -1 -4 -6q0 -1 -0.5 -3l-0.5 -2q0 -3 -6 -9q-5 -6 -7 -15q-3 -7 -19 -24
q-21 -21 -27 -26q-10 -12 -18 -15q-6 -3 -14 -9q-3 -4 -11 -8q-6 -2 -9 -2q-2 0 -12 -4q-4 -3 -22 -12q-15 -7 -24 -6q-10 0 -19 -6q-10 -7 -16 -7q-5 0 -11 -2q-5 -2 -16 0q-12 2 -16 -2t-44 -4q-22 -1 -45 -1q-15 0 -27 1q-7 0 -19 0.5t-14 0.5q-6 -1 -33 -1q-21 0 -33 2
q-8 1 -16 -4q-10 -5 -12 -5h-4q-3 0 -7 2q-3 3 -16 5q-12 2 -13 3q-4 4 -7 12q-4 8 -4.5 14.5t-0.5 38.5q1 42 5 47q4 7 4 18q-1 13 -4 18q-4 8 -5 26q-1 10 -1 20t1 16q2 15 0 20t0 8q2 4 2 23q0 5 -0.5 18.5t-1.5 17.5q0 15 -4 19q-3 2 -3 35q1 33 4 39q4 5 4 33v21l1 11
q1 4 -2 11q-4 6 -1 19q2 8 2 26q0 12 -1 44q0 19 -0.5 44t-0.5 26q0 15 1 16q3 5 1 29q0 23 2 29q1 2 6 7q3 3 6 3l2.5 1.5t4.5 1.5q4 3 24 3t22 2z" />
    <glyph glyph-name="uni0045" unicode="E" horiz-adv-x="673" 
d="M146 734h37q25 0 30 -4t14 -4q5 0 18 1q28 1 30 3q4 4 12 4q7 1 12 -1q3 -3 13 -2q9 0 21 2q11 1 17 -2q8 -3 26 -4q22 -1 26 3t18 5h8q6 0 12 -3q5 -5 17 -5q13 0 16 3t9.5 3.5t42.5 0.5q49 0 51 -2q3 -2 9 -15q6 -14 6 -16q0 -4 -2 -12q-1 -3 -2.5 -8t-1.5 -6
q-1 -4 -9 -8t-20 -4q-21 0 -32 -1h-10t-8.5 -0.5l-3.5 -0.5q-2 1 -27 1l-26 2q-15 0 -29 -1q-26 0 -32 -2q-5 -1 -11 1q-5 4 -12 1q-1 0 -11 -0.5t-16 -0.5q-21 1 -26 -2q-5 -4 -22 -4q-17 -1 -23 3q-5 4 -20 4q-16 0 -22 -4q-7 -4 -13 -12q-4 -5 -4.5 -13t-0.5 -49
q0 -13 -0.5 -27t-0.5 -23v-9v-6.5t0.5 -17t0.5 -20.5q2 -40 4 -42q1 -1 7 -11t6 -12q4 -4 12 -8q8 -5 13.5 -5.5t29.5 -0.5q31 0 35 2l7 7q3 3 7 5q2 2 8 -2q7 -5 30 -5q17 0 20.5 1t7.5 5q5 5 9 3q2 -2 10 -6q5 -2 24 -2q16 2 20 4q4 3 14 0q9 -3 13 -5q2 -2 8 -4
q9 -3 15 -3q5 0 14 3q6 3 9 3t13 -4q8 -3 15 -2q4 2 12 0q4 -2 4.5 -2.5t-0.5 -4.5q0 -4 -2 -26q-1 -19 -5 -22q-2 -1 -8 -5q-4 -3 -20 -3q-14 0 -22 -4q-7 -3 -37 -4q-27 0 -42 4q-10 4 -32 4q-23 0 -27 -1q-6 -1 -11 -4q-4 -3 -11 -2q-3 1 -11 1q-4 -2 -12 2q-9 3 -59 3
q-39 0 -46 -0.5t-11 -5.5q-1 -1 -4 -5t-4 -6q-3 -6 -3 -28v-29v-35q1 -16 1 -34v-29q-1 -13 -1 -44q0 -20 3 -26q1 -2 3 -6.5t2 -5.5q2 -6 8 -9q7 -3 30 1q22 5 31 5q8 0 20 -4q9 -5 25 -5q7 0 31 1q46 0 51 4l6 3q1 -1 10 1q8 1 19 0q9 -2 14 -4q1 0 6 -1.5t7 -1.5
q9 -3 21 -1q6 1 15 1q3 -1 21 -1h15h21q12 0 18 -6q1 -2 5.5 -7t6.5 -7q6 -8 6 -10t-4 -6q-5 -3 -7 -10t-8 -13q-7 -6 -31 -6t-27 -2t-16 -4q-12 0 -14 -2q-2 -1 -3 -1q-2 0 -5 4q-4 4 -14 4q-11 0 -17 -3q-6 -2 -16 -2q-11 0 -11 2q-1 1 -5 3q-4 1 -13 -2q-11 -4 -48 -4
q-22 -1 -44 -1q-14 0 -27 1t-27 1q-1 0 -8 -0.5t-18.5 -0.5h-22.5h-22h-18l-6 -1q-7 0 -13 2q-12 2 -17 5q-8 4 -11 4t-5 2q-3 6 -3 16q0 4 -0.5 11t-0.5 8v60q1 29 1 37q0 17 -4 24q-4 10 -3 16q1 4 1 11q0 20 -1 39v45v18v14v9q0 9 -0.5 23.5t-0.5 27.5v59q0 1 0.5 7
t0.5 15.5v18.5q0 35 4 41q4 5 2 9q-1 1 -1 10q0 7 -2 11q-3 6 -3 13l-1 9q-1 1 1 6q2 3 2 6q-2 0 -2 51v53v19q2 19 4 21l4 3q1 0 7 4q5 3 17 5z" />
    <glyph glyph-name="uni0046" unicode="F" horiz-adv-x="627" 
d="M142 732q3 1 5 1h3l70 -2q67 0 72 -3q5 -2 22 -2q15 0 21 3q4 3 10 3q3 0 13 -4q5 -4 14 -4q7 0 15 3q7 4 47 5h44h39q26 -1 31 -2t10 -6l7 -12q0 -2 2 -18v-10q0 -6 -5 -11q-8 -6 -13 -6q-7 -2 -10 -6q-4 -4 -12 -3q-9 1 -14 5q-5 5 -17 3q-11 -3 -20 0q-8 2 -9.5 1.5
t-5.5 -4.5q-5 -4 -13 -4q-4 1 -38 1h-68h-21h-21.5h-15.5q-9 1 -20 1t-18 -1q-17 -1 -23 -6q-8 -6 -14 -12t-7 -9.5t-1 -17.5q-1 -10 -1 -21v-8.5t0.5 -22.5t0.5 -27q0 -54 -3 -59q-3 -2 -3 -20q0 -16 3 -21q3 -6 3 -8q0 -5 1 -7q2 -4 8 -4q4 -1 10 -4q3 -3 15 -5t18 0
q3 2 9 2l34 -2q33 0 39 2q2 1 7.5 2.5l5.5 1.5q9 0 13 -3q5 -3 27 -2q20 0 24 4q4 2 26 2h30q12 0 25 -0.5t21 -0.5h7q2 -2 4 -9q3 -8 11 -14q9 -7 10 -16q1 -4 1.5 -8.5t-0.5 -5.5q0 -5 -4 -9q-5 -5 -9 -5q-6 -2 -10 -4q-2 -2 -7 -2q-2 2 -55 2q-53 1 -57 4q-6 3 -17 3
q-12 2 -18 -3q-4 -5 -23 -5q-5 0 -21.5 0.5t-23.5 0.5q-8 0 -24 -0.5t-20 -0.5q-20 -2 -21 -3q-2 -2 -8 -2q-5 0 -13 -4q-6 -5 -10 -12q-4 -8 -4 -15v-17q1 -17 1 -30q0 -45 -1 -53v-46v-57q0 -30 1 -36q0 -17 -1 -20v-14q-1 -5 -1 -12q0 -3 -5 -8q-4 -4 -20 -4t-23 -4
q-6 -3 -10 -3t-6 2q-1 3 -5 3q-3 0 -7 2q-5 2 -7 6q-3 3 -3 23v34v16v14v51q1 23 1 46v31q-2 30 -2 40t-3 16q-3 3 -3 27q0 12 1 50v82q0 1 -0.5 18.5t-0.5 29.5t0.5 30t0.5 20q0 30 -1 52v21v18l-1 7v10v18v20q1 9 5 14q4 3 4 9q0 5 3 8t5 3t7 5q6 6 6 3q3 0 5 1z" />
    <glyph glyph-name="uni0047" unicode="G" horiz-adv-x="794" 
d="M415 747q0 2 4 2t7 -4q4 -3 34 -4q28 0 34 -3t21 -3q19 -2 22 -4q3 -1 7 -5q2 -2 13 -4q13 -3 14 -4q3 -3 9 -5q5 0 8 -3q2 -3 5 -3t10 -5q6 -4 10 -8q5 -4 7 -10q3 -7 9 -9q8 -4 8 -6q3 -6 4 -9q3 -6 13 -16q9 -10 10 -18q3 -11 4 -13l5 -15q4 -9 2 -14q-4 -6 -11 -8
q-9 -2 -30 -4q-10 -1 -13 -1q-9 0 -25 14q-18 18 -22 26q-4 7 -13 18q-12 12 -18 16q-4 4 -19 13q-8 4 -14 4q-5 0 -9 2q-1 0 -7 3l-10 5q-11 5 -41 5q-16 1 -42 1q-10 0 -18 -2q-5 -3 -19 -1q-12 1 -17 -2q-10 -4 -13 -4q-10 -4 -14 -8q-7 -5 -12 -5q-6 0 -10 -4
q-5 -5 -5 -3q-2 0 -7 -3q-6 -4 -8 -4q-4 0 -6 -2q-2 -1 -6 -7q-3 -5 -9 -6q-7 -2 -9 -6t-7 -6q-5 -5 -5 -7q-1 -3 -4 -9q-1 -1 -4.5 -6t-5.5 -7q-6 -12 -6 -13q0 -3 -4 -7q-6 -12 -7 -15q-4 -12 -8 -15q-4 -2 -4 -6q0 -1 -3 -10q-4 -8 -7 -17q-3 -15 -3 -20q0 -4 0.5 -9
l0.5 -5q1 -3 -3 -9q-4 -5 -5 -31q0 -25 -5 -34q-4 -8 -1 -22q3 -16 1 -23q-2 -5 -2 -19q0 -8 4 -18q4 -9 3 -28q-1 -20 3 -25q3 -9 3 -12q0 -8 3 -11q3 -4 5 -15q0 -8 5 -20q5 -10 14 -19q11 -11 12 -15q3 -5 3 -9q0 -6 6 -10q8 -6 11 -6t10 -5q6 -6 12 -9q7 -4 7 -6t9 -13
q7 -9 20 -17q8 -4 16 -12q3 -5 6.5 -5.5t22.5 -0.5q18 0 21.5 -0.5t5.5 -3.5q2 -4 5 -4.5t16 0.5q18 1 27 -4q9 -4 15 -2q6 1 9 0q2 -1 33 -1q29 0 35 3q1 0 3 1l9 3l12 3q1 1 11 4l8 4q3 5 7 3q4 -1 20 7q11 5 13 7t3 10q1 3 2 13t1 12q2 18 2 91q0 56 -0.5 66t-3.5 14
q-5 5 -5 7q-1 1 -11 6q-8 5 -23 5q-7 0 -29 -1q-32 0 -38 -0.5t-11 -3.5q-4 -4 -5.5 -4t-6.5 3q-1 0 -5.5 2.5t-6.5 3.5q-6 4 -6 6t-5 10q-3 7 -3 9.5t3 10.5q2 6 6 14q3 3 11 5t43 2q37 0 39 -1q7 0 10 1q5 2 7 6q4 4 6 4q3 0 9 -6q5 -5 17 -4q12 2 17 5q8 3 33 3
q29 -1 31 -3q3 -3 9 -15q4 -14 4 -20v-13q-1 -3 1 -27q1 -6 1.5 -14.5l0.5 -8.5q0 -11 -1 -23q-1 -10 -1 -14q0 -9 5 -19q4 -13 3 -18q0 -2 -5 -12q-4 -7 -3 -30q0 -5 0.5 -11t1 -10t0.5 -5q2 -2 2 -6q0 -3 -2 -5q-1 -1 -3 -17v-39q0 -19 -0.5 -23t-5.5 -9q-6 -6 -8 -6
q-3 0 -13 -10q-7 -8 -12 -9t-26 -1q-28 0 -36 -4q-6 -4 -25 -5q-14 0 -20 -2q-4 -2 -12 -2t-12 -4q-3 -3 -11 -3t-20 -4q-4 -1 -12.5 -3l-8.5 -2q-5 -1 -11 -1q-3 1 -3 2.5t-3 3.5q-6 3 -16 3q-10 1 -19 -1q-6 -2 -11 0q-8 3 -19 2q-14 -2 -31 -2q-18 0 -24 4q-5 5 -8 5
q-4 0 -12 5q-10 5 -12 7t-8 2q-5 0 -11 2t-10 2q-5 2 -10 5q-9 6 -15 7q-10 3 -15 9q-4 6 -13 10q-10 4 -12 8q-6 6 -15 12q-9 5 -21 17q-8 10 -8 12t-4 8q-6 9 -9 14q-5 12 -5 13q0 4 -5 11q-1 2 -5.5 7t-6.5 7q-5 6 -5 13q0 6 -4 10q-3 4 -3 7q0 1 -4 9l-8 12q-3 3 -3 7
q0 1 -0.5 4.5t-1.5 5.5q-1 4 -4 10q-3 9 -3 11q0 10 1 14q0 8 -3 11q-3 6 -3 29q0 24 -4 29q-3 5 -3 29q0 27 -1 30q-1 4 -1 6t2 4t5 8q2 2 2 27v30l5 15q2 4 5 13q3 5 3 9q0 3 4 15l6 10q3 0 3 7q3 9 4 13t4 13q2 4 7 9t5 7q0 3 5 6q6 4 6 9q0 6 6 12q5 7 7 12q0 4 6 10
q5 3 5 6q0 1 6 9q5 5 9 11q1 3 15 13q13 8 23 18q10 9 15 9q3 0 8 5q2 5 13 8q12 4 13 6q2 2 6 2q5 0 7 3q4 2 7 2q4 0 9 5q4 4 9 4q3 0 9 4q5 3 13 3q7 0 15 4q7 3 23 4q14 0 28 -2q13 -1 19 1q5 2 7 5z" />
    <glyph glyph-name="uni0048" unicode="H" horiz-adv-x="791" 
d="M626 737q14 2 15 2q3 -2 5 -4q4 -4 10 -4q4 0 10 -2q4 -1 4 -6q0 -1 3 -7q3 -3 3 -13q0 -3 1 -11t2 -11q2 -12 0 -17q-1 -1 -3 -14q0 -3 -0.5 -9t-0.5 -8q0 -7 4 -13q3 -6 3 -52q1 -26 1 -52l-0.5 -7t-0.5 -18v-21t-0.5 -32t-1.5 -27q0 -16 -2 -20l-3 -12q-1 -7 3 -16
q3 -7 4 -76q1 -38 1 -78q-1 -5 -1 -22v-25v-10v-17v-19q-1 -19 -1 -42q0 -14 1 -24q1 -17 -3 -21q-4 -3 -4 -10q0 -5 -6 -9q-7 -3 -19 -3h-15q-21 0 -25.5 0.5t-9.5 5.5q-9 9 -9 10q-4 5 -2 10q0 8 -1 12q-3 8 1 17q3 9 1 15q0 1 -0.5 5.5t-0.5 6.5q0 9 -5 16q-4 9 -2 23
q0 14 3 17q2 2 2 13q2 11 -1 17q-4 8 -4 20q-1 11 2 17q2 4 0 14t-2 53q-1 43 -4 47l-7 7q-4 3 -103 4h-107q-37 0 -74 -1h-67q-3 -2 -6 -6q-3 -6 -7 -10q-3 -6 -3 -108v-58q0 -45 3 -53q3 -4 3 -11q0 -10 1 -16q0 -13 -3 -18t-1 -11q2 -5 0 -16q0 -9 -3 -15q-1 -2 -5 -6
q-2 -1 -12 -1t-14 -3q-3 -3 -9 -5h-4q-4 0 -11 1q-9 1 -20 12q-8 8 -9.5 17.5t-1.5 56.5q0 21 -0.5 49t-0.5 29q0 15 -4 19q-4 5 -4 8q0 1 0.5 3.5t1 9t0.5 16.5q0 20 3 26q2 4 4 17q1 11 -3 17q-3 4 -3 17q0 12 -2 22q-2 4 -2 7.5t2 8.5q2 8 2 18q0 1 -0.5 16.5t-0.5 26.5
q-1 18 -1 37q0 8 1 14q3 10 1 31q-2 11 -2 25q0 46 1 95q0 91 3 101q3 12 10 19q6 7 9 6q6 0 9 2q9 3 14 4q8 2 12 -1q5 -3 14 -5q8 0 12 -2q4 0 7 -5q3 -6 3 -17q1 -7 1 -31q0 -5 -0.5 -20t-0.5 -22q-1 -13 -1 -29v-87q0 -61 1 -72.5t6 -20.5q6 -13 9 -14q3 -3 10 -2
q9 2 10 4q4 2 15 2q11 1 15 -3q5 -5 17 -5q14 0 18 3q6 2 13 2q5 0 33 2q20 1 27 1h7q9 -2 14 1q5 2 9 -1q6 -2 7 -2q1 1 69 1q67 1 79 6q12 7 15 11q4 6 4 10q0 6 4 10q4 5 4 81q0 75 -3 81q-2 5 -4 11q-2 8 -2 13q0 4 2 26v15l1 9q0 5 2 9q3 3 2 10q-1 6 3 16q3 5 6 14
q0 5 8 6q2 0 10 1t12 1z" />
    <glyph glyph-name="uni0049" unicode="I" horiz-adv-x="441" 
d="M194 725q8 4 11 4q1 0 5 -2q1 -2 15 -2q12 1 18 -4q7 -5 10 -5q5 0 8 -3q4 -4 4 -14q1 -10 4 -15q3 -3 3 -16q1 -13 -4 -16q-4 -3 -3 -21q2 -18 2 -23q0 -2 -2 -26q0 -7 -1 -16v-9q0 -30 1 -64q0 -61 4 -65t4 -13q0 -8 -4 -20q-4 -16 -4 -29v-30v-33q0 -22 -4 -28t-4 -12
q0 -7 3 -14l4 -12q2 -4 2 -9t-2 -9q-1 -4 1 -10q2 -7 0 -20q-2 -14 -1 -17q1 -2 1 -47q0 -11 -0.5 -22t-0.5 -18v-7q-2 -5 1 -8q2 -4 1 -8q-1 -2 -1 -16q0 -12 -2 -16q-1 -2 -8 -9q-5 -5 -6 -12q0 -6 -3 -9h-4q-4 0 -10.5 -0.5t-13.5 -0.5q-29 2 -31 3q-6 2 -6 5q-1 3 -1 24
q0 18 -2 22q-2 2 -4 12q-2 8 -2 20q0 13 3 15q4 3 4 23q1 18 -5 30q-4 8 -4 11q0 2 1 6q2 8 2 10t4 16q3 11 -1 17q-3 6 -4 39q0 10 0.5 30.5t0.5 26.5q1 25 0 29q-3 4 0 7q2 2 4 10q2 5 2 73v26t-0.5 21.5t-0.5 14.5v6v6q0 7 0.5 15.5t0.5 22.5v27q0 70 -1 72q-1 1 -1 8
q2 6 2 33l2 30q3 3 3 7q1 4 10 8z" />
    <glyph glyph-name="uni004A" unicode="J" horiz-adv-x="499" 
d="M381 734q5 3 8 3h1q2 0 7 -6q6 -4 6 -9l-0.5 -7.5t-0.5 -20v-24.5q0 -37 0.5 -43.5t3.5 -11.5q4 -6 4 -7t-1.5 -2.5t-1.5 -2.5q-3 -1 -5 -10q-1 -7 4 -19q6 -12 6 -14q0 -3 -4 -5q-5 -2 -5 -4q-1 0 -1 -144q0 -143 3 -148q3 -4 3 -13t-2 -13q-2 -2 -4 -22
q0 -5 -0.5 -15.5t-0.5 -13.5q0 -22 1 -33q1 -20 -2 -23q-5 -5 -8 -16q-4 -14 -7 -20q-5 -10 -8 -13q-4 -6 -4 -8q0 -4 -16 -20q-14 -15 -25 -22q-10 -5 -13 -10q-7 -5 -9 -5q-3 0 -9 -4q-3 -3 -13 -8q-10 -2 -11 -1q-9 0 -15 -1q-13 -2 -17 1q-6 1 -13 -2l-12 -6h-2.5h-2.5
h-3q-4 2 -9 2q-7 0 -10 3q-6 3 -31 3q-24 0 -29 3q-1 3 -7 3q-4 0 -6 3q-2 2 -9 4q-8 2 -11 5t-9 2q-6 0 -16 12q-11 16 -11 17q-5 8 -11 12q-9 9 -11 13q-6 9 -9 11q-4 4 -5 18q0 14 -4 24q-1 9 -7 16q-4 6 -4 8t8 10q7 6 10 7t16 2q19 2 21 3q5 3 12 4q9 0 14 -2
q7 -4 11 -11q3 -12 3 -14q0 -6 2 -10q2 -1 4 -9q0 -2 4 -10q3 -3 5 -10t4 -8q3 0 5 -7q2 -6 7 -9q3 -3 13 -5q8 0 13 -6q4 -4 6.5 -4.5t12.5 0.5q15 1 19 -3t7 -4.5t18 -0.5q21 0 26 4q8 5 9 5q7 3 14 12q11 11 17 13q5 2 8 8q0 5 3 8q1 1 3 13q2 11 6 19q3 6 3 19
q0 8 -1 33q-1 24 -1 55v23v30q0 5 0.5 19.5t0.5 20.5q0 5 0.5 24.5t0.5 29.5v25v37v39q0 53 -0.5 62t-5.5 13q-5 5 -3 12q1 4 1 34v29q0 57 4 65q5 8 11 9q5 0 11 4q4 3 23 3q20 2 23 3z" />
    <glyph glyph-name="uni004B" unicode="K" horiz-adv-x="735" 
d="M177 730q2 1 4.5 1t3.5 -1q2 -1 5 -4t7 -3q5 0 9 -6q5 -5 5 -9l3 -6q3 -6 3 -71t3 -71q2 -4 1 -7q-2 -2 -2 -21t-2 -21q-2 -4 0 -18t0 -21q-1 -5 4 -10q5 -3 3 -8l-0.5 -6.5t-0.5 -10.5q1 -14 4 -15q2 -3 8 -3q5 0 10 5q1 1 3 4t3 4q3 3 7 3q5 0 12 7t10 7q2 0 10 6
l12 12q1 1 5 3.5t5 3.5q6 3 10 7t12 6q6 2 11 10q6 9 14 13q10 5 16 11q9 12 11 15q4 9 8 10q4 2 7 2q5 0 8 6q7 10 13 12q7 5 7 7q2 3 5 5q5 5 7 5q3 0 9 6t8 6q1 0 5 8l6 12q2 1 10 7q8 4 14 10q11 11 18 17q13 11 16 11q2 1 10 6q5 7 5 9q0 3 4 9q6 6 12 9q8 3 9 10t9 12
q9 7 11 7q3 0 7 3t11 5q9 0 15 -4q7 -4 9.5 -4t9.5 2q4 1 10.5 3t7.5 2q7 1 13 0q6 -4 7 -6q1 -3 0 -9q-2 -6 -2 -11q0 -6 -5 -11q-5 -4 -10 -11q-7 -7 -14 -10l-9 -5q0 -1 -6 -9q-5 -8 -9 -12q-2 -5 -9 -7q-5 -2 -22 -13l-19 -15q-3 -6 -5 -9q-4 -6 -11 -7q-11 -4 -14 -6
q-6 -4 -11 -12q-3 -8 -7 -12q-8 -8 -14 -12q-10 -8 -12 -13q-4 -5 -7 -7q-4 -2 -7 -2t-9 -4q-1 -1 -6 -4.5t-8 -5.5q-8 -5 -12 -14q-4 -7 -10 -12q-5 -1 -29 -25q-20 -20 -26 -23q-9 -3 -12 -3q-7 -1 -10 -8q-4 -7 -4 -29q0 -15 1 -19t9 -11q9 -11 11 -11q5 -3 9 -8
q10 -10 11 -14q2 -6 8 -10q4 -5 12 -7q6 0 11 -5q6 -6 7 -11q3 -8 10 -12t9 -7q1 -4 8 -6q8 -5 9 -7q4 -4 4 -7q0 -4 3 -8q4 -4 4 -8q0 -3 2 -5q1 0 4.5 -2.5t5.5 -3.5q10 -6 18 -10q7 -5 16 -13q7 -7 11 -7t6 -2t2 -6q0 -5 4 -5q5 -2 18 -14q5 -4 18 -17q3 -6 14 -14
q12 -10 12 -12t13 -15q14 -14 18 -14q6 -1 7 -7q1 -5 10 -13q9 -7 10 -7q3 0 11 -8q3 -2 10.5 -8.5t9.5 -8.5q12 -12 15 -18q5 -7 5 -10q0 -2 3 -5t3 -7q0 -5 -8 -10q-6 -5 -17 -5q-5 -1 -17 -1q-17 0 -29 1q-19 0 -23 -2q-4 0 -9 5q-10 8 -16 10q-10 6 -13 13l-4 8t-5 8
q-4 6 -5 6t-9 6q-9 7 -9 11q0 3 -5 3q-3 0 -6 4q-4 6 -8 7t-8 10q-3 7 -10 10l-7 5q0 2 -11 13q-13 13 -18 14q-6 3 -11 3q-6 0 -7 3q-2 2 -2 6q-2 6 -7 11t-5 9q0 1 -8 11q-5 5 -14 11q-9 4 -22 18q-13 15 -13 16q0 3 -2 6q-2 4 -8 6q-3 1 -12 7q-5 4 -11 14q-2 7 -10 13
t-11 12q-4 8 -8 12q-5 5 -6 5q-3 0 -11 10q-10 8 -10 12q0 5 -10 13q-11 9 -12 9q-2 0 -6 6q-5 6 -8.5 6t-12.5 11q-7 9 -9.5 10.5t-11.5 1.5q-11 0 -16 -3q-3 -3 -5 -12q-2 -5 -2 -16q0 -5 2 -17q2 -10 -1 -14q-3 -5 -5 -18q-1 -11 2 -17q3 -4 5 -13l2 -10l-4 -6
q-5 -5 -5 -12q-1 -8 2 -16q4 -8 5 -69v-67v-23v-29q0 -14 -1 -17q-3 -6 -10 -10q-6 -4 -32 -4q-25 0 -29 2q-5 2 -8 7q-4 3 -7 20q-2 16 0 21q2 3 0 28q0 7 -0.5 21.5t-0.5 17.5q1 8 1 28q0 14 -4 18q-4 5 -3 14t-1 14t1 11q3 7 2 8l-2 45v86v47q-1 3 -1 13q0 1 0.5 13
t0.5 20q1 25 -2 29q-1 2 -1 3.5t1 4.5q3 3 3 21q0 9 -1 35q0 12 -0.5 25.5t-0.5 22v9.5q0 16 1 29q0 23 2 25q3 6 4 13q2 14 1 21q0 11 -4 15q-3 5 -3 8q0 4 3 7q4 6 4 8t6 10q6 6 17 5q14 0 16 1z" />
    <glyph glyph-name="uni004C" unicode="L" horiz-adv-x="637" 
d="M127 728q1 3 4 3q1 0 5 -1q5 -1 15 -1q11 0 16 1h6q5 0 11 -5q5 -5 5 -12q0 -6 4 -14t7 -11t3 -14q0 -10 4 -15q4 -7 4 -17q0 -12 -3 -16q-3 -6 -3 -11t2 -13q2 -10 3 -11q1 -3 -6 -8q-6 -4 -9 -13q-1 -2 -2.5 -7t-1.5 -6q-1 -5 2 -11t3 -14q0 -9 6 -14q5 -5 4 -10
q0 -7 2 -9q3 -9 3 -32q1 -18 1 -22q0 -6 -3 -10q-4 -3 -4.5 -8.5t-0.5 -33.5q0 -39 3 -42t4 -33q0 -30 -4 -36q-4 -7 -3 -12q2 -8 2 -11q0 -4 4 -10q3 -7 1 -17q-2 -13 -1 -14v-2q1 -7 1 -11q1 -6 1 -21v-58v-30q0 -17 5 -22q4 -4 7.5 -4.5t17.5 -0.5q19 0 27 4q6 3 80 4
q54 0 63.5 0.5t14.5 3.5q5 4 11 3q8 -2 10 -3q2 -2 21 -4q16 -1 22 -4q4 -4 9 -4q3 0 9 4q6 3 15 3q10 0 15 5q4 4 6 4q3 0 10 -5q9 -4 16.5 -3t14.5 -2q6 -2 6 -4t6 -8q5 -5 6 -7.5t1 -13.5v-8q0 -7 -2 -12q-2 -6 -4 -6t-3 -3q-2 -3 -9 -7q-8 -4 -12 -4t-7 -4q-2 -2 -3 -2
t-3 1t-8 1q-4 -1 -9 2q-6 3 -21 3q-14 1 -19 -2q-4 -4 -6 -4h-2q-3 0 -9 1q-2 0 -7.5 2t-7.5 3q-7 3 -23 3h-19h-8t-19 -0.5t-28 -0.5h-33q-46 -1 -92 -1h-35h-38q-8 0 -18 5q-10 4 -12 3q-6 0 -9 2q-5 2 -10 8t-4 21t-2 23q-3 6 -1 11q2 6 2 9q0 1 5 13q4 7 4 9t-3 7
q-4 6 -4 24v29q-2 14 -3 16q0 1 -3 11q-1 6 2 13t4 36q0 31 -3 37q-4 6 -4 11q0 4 4 10q3 6 3 19v17q2 4 -4 14q-5 8 -5 12q0 3 4 9q3 5 5 16q0 11 -3 15q-4 5 -4 41t-3 42q-1 3 -1 5t2 6q2 6 1 11q0 6 3 9q3 2 3 15t-4 22q-4 10 -2 17q2 10 5 15q3 7 2 10l-4 8q-4 3 -4 12
q0 10 3 16q0 2 1 7.5t2 7.5v30q2 24 2 34q2 12 2 16z" />
    <glyph glyph-name="uni004D" unicode="M" horiz-adv-x="882" 
d="M698 721q3 3 6 3h2q3 0 9 -4q4 -3 32 -3q27 1 29 -2l0.5 -2.5t0.5 -3.5q0 -3 2 -9q3 -5 5 -14q1 -8 -3 -13q-4 -4 -5 -18q-1 -12 2 -25q2 -7 4 -43t2 -43q-1 -6 2 -15q3 -6 0 -11q-2 -5 -3 -27v-27v-18q0 -15 -2 -21q-1 -6 5 -12q6 -5 6 -8q0 -1 -4 -9q-4 -5 -4.5 -16
t-0.5 -73q0 -63 0.5 -74.5t3.5 -15.5q4 -6 2 -26q-2 -19 0 -22.5t0 -15.5q-2 -14 -3 -15q-2 -4 -2 -28q-1 -13 -1 -27l0.5 -6t0.5 -10q2 -14 4 -16q0 -1 1.5 -4t1.5 -4q0 -5 -5 -10q-4 -6 -4 -8t-6 -8q-3 -7 -14 -11q-9 -5 -14 -7q-4 -2 -8 -2h-3q-7 2 -11 5q-5 5 -8 3
q-5 0 -6 3q-2 4 -2 12q0 10 -3 13q-3 4 -3 57q0 54 3 59q3 4 3 15q0 9 -4 12q-3 3 -3 29q1 25 4 28t3 16t2 19q1 4 0 7q-3 2 0 5t3 4q0 2 -3 7q-4 5 -3 12q1 6 -1 12q-3 5 0 11q2 6 2 12q0 9 -4 14q-3 4 -3 11q0 8 3 20q2 16 0 22q-2 10 -2 71v25t0.5 21.5t0.5 15v6.5
q-1 3 -1 44q0 40 -2 42t-11 1q-9 0 -15 -2q-3 -2 -2 -8q0 -7 -6 -11q-6 -5 -5 -10q1 -4 -3 -13q-5 -8 -5 -15q0 -3 -3 -12q-4 -8 -4 -12q0 -6 -2 -10q-3 -9 -3 -12q-3 -8 -5 -10q-4 -4 -3 -12q1 -10 -2 -14q-2 -2 -5 -8q-1 -1 -6 -11l-6 -9q-3 -3 -2 -15q1 -14 -2 -18
q-2 -3 -7 -13q-4 -8 -3 -13q1 -6 -3 -9q-5 -2 -6 -14q-2 -13 -5 -16q-1 -2 -2 -4.5l-1 -2.5q0 -5 -3 -9q-2 -4 -4 -14q-1 -4 -2.5 -11t-1.5 -8q-2 -5 -6 -13q-2 -6 -2 -15q0 -10 -4 -14q-4 -6 -4 -11q0 -8 -7 -18q-6 -11 -6 -17t-6 -18q-5 -15 -4 -18.5t-6 -18.5
q-7 -16 -7 -19t-4 -7q-3 -3 -2 -14q0 -12 -1 -15q-1 -2 -8 -12q-6 -8 -6 -12q0 -5 -4 -11q-3 -5 -3 -11q0 -5 -4 -11q-3 -5 -3 -13q0 -7 -4 -15q0 -1 -2 -6.5t-2 -7.5q-2 -7 -13 -12q-12 -6 -32 -7q-21 0 -22 1q-3 3 -11 6q-7 4 -9 6.5t-5 9.5q-1 3 -3.5 9t-2.5 7
q-3 6 -2 14q1 6 -1.5 11t-3.5 14t-6 14q-4 3 -4 10q0 6 -3 9q-2 4 -2 11q0 8 -6 16q-5 8 -7 18q-5 14 -6 16q-3 5 -1 14q0 11 -3 16l-12 25q-11 22 -12 30q0 1 -2 7.5t-3 7.5q-3 6 -3 12q-2 10 -2 16q0 8 -3 10q-1 1 -3 10q0 4 -5 12q-3 6 -2 13q1 9 -6 15q-7 7 -8 15
q-2 10 -4 12q-1 2 -3 14q0 11 -4 15t-4 10q0 7 -3 9q-2 6 -2 15q0 10 -3 13q-2 2 -11 20q-9 19 -8 26t-2 12q-3 2 -5 10q-1 7 -5 9q-3 3 -3 10t-3 12q-2 1 -5 9q-3 6 -5 12q-3 7 -5 10q-3 4 -3 11q0 5 -4 13q-3 9 -3 10q0 3 -4 7t-11 4q-6 0 -9 -3t-2 -27q1 -14 1 -27
q0 -11 -1 -22q0 -15 -3 -27q-4 -7 1 -25q4 -19 2 -24q0 -8 1 -11q3 -5 1 -9q-1 -1 -1 -12q1 -9 -4 -17q-5 -6 -5 -14q0 -5 4 -11q3 -4 4 -25t-2 -25q-3 -3 -5 -10q0 -6 3 -12q4 -7 4 -45q0 -9 -0.5 -19t-0.5 -16.5v-7.5q0 -28 1 -57q0 -52 3 -57q4 -5 4 -16q0 -10 -3 -13
t-3 -13q-2 -11 2 -18q3 -7 4 -30q1 -25 -2 -29q-4 -6 -9 -8q-6 -2 -10 -6q-3 -3 -10 -2q-9 0 -12 -1t-5 -1q-3 0 -6 2l-9 6q-4 2 -8 9q-3 6 -2 14q2 10 2 62q-1 54 -4 57q-3 4 -3 16v32v23v24q1 20 4 23q3 7 2 12q0 2 -3 14q-3 5 -3 56v26q0 22 3 27q3 9 3 12q0 7 -3 9l-3 6
q0 4 3 7q3 6 3 10q0 9 1 12q3 5 0 19q-5 16 -5 17q-2 2 -2 7q0 1 3 7q3 3 3 9q0 3 -3 12q-3 5 -3 62v32q0 23 2 34q4 10 4 13t-4 5l-4 4q-1 3 1 7q4 6 17 19q10 10 13.5 11.5t13.5 2.5h25q7 1 40 1q14 1 18 1q10 0 16 -5q2 -2 5.5 -5t4.5 -4q5 -3 5 -8t3 -9q4 -4 4 -8t2 -10
q3 -6 3 -13q0 -5 5 -13q6 -8 4 -15q-2 -8 1 -11q3 -1 5 -10q0 -7 4 -11q4 -6 4 -11q0 -6 4 -10q1 -1 3 -5t3 -5q2 -8 2 -13q0 -6 6 -15q5 -7 3 -18q-1 -10 2 -15q3 -3 3 -6q0 -2 5 -7q4 -5 3 -14q-1 -6 3 -13q3 -5 3 -11q0 -7 4 -11q4 -6 5 -15q0 -9 3 -15q2 -5 1 -6
q0 -3 5 -11q5 -12 5 -17q0 -8 6 -13q4 -2 7 -9l3 -12q3 -12 4 -18l6 -18q2 -3 5 -12q3 -12 3 -13q2 -6 7 -19q6 -9 6 -13q0 -1 4 -13t4 -30q-1 -17 3 -24q4 -8 4 -17q2 -11 5 -14q2 -3 2 -17q0 -13 7 -19q8 -6 9 -6q2 0 10 6q7 5 6 13q-1 6 2 11q1 1 6 8q2 4 2 9q0 7 6 14
q6 10 6 21q0 10 4 15q5 3 5 9q0 5 3 8q4 3 3 9q-1 7 3 11q3 9 3 11l3 12q3 5 5 21q2 18 4 20q2 4 2 11t3 9q0 1 1 3q5 7 7 12l6 13q-2 2 2 7t4 16q0 10 2 12q3 3 5 17q2 15 6 21q4 5 4 11q0 3 4 7q4 3 5 8q3 3 1 13q-1 9 3 14q4 6 4 13q2 7 5 10q3 1 3 6t3 8q2 2 2 6
q0 2 4 6q3 3 4 19q2 14 4 21q4 6 4 14q3 15 4 22q2 12 6 16q2 6 2 10q0 6 5 11q5 4 4 12t2 11q3 1 5 10q0 5 4 11q3 3 3 5q-1 1 1 6q3 5 6 6q4 2 12 2q13 3 21 6q14 3 20 2t11 4z" />
    <glyph glyph-name="uni004E" unicode="N" horiz-adv-x="779" 
d="M128 731h30q18 0 23 -4q4 -3 16 -3q11 0 19 -4q8 -3 11 -3q2 1 6 0q5 0 10 -9q6 -6 6 -13q0 -5 11 -25q10 -18 10 -23q0 -3 6 -9q4 -4 8 -12q1 -2 3.5 -5.5t2.5 -4.5q3 -2 3 -4.5t5 -5.5l3 -4t4 -6l6 -9q3 -3 3 -10q-1 -4 0 -6.5t9 -10.5q11 -12 11 -17t4 -11t4 -8
q0 -1 7 -8t7 -10t4 -7q3 -4 3 -14q0 -7 1 -9.5t8 -8.5q9 -9 10 -14q0 -7 8 -13q7 -8 7 -13q0 -8 3 -11l2 -2l5 -5q4 -4 4 -6q0 -3 8 -13q9 -14 15 -24q7 -13 7 -19q-1 -2 0 -7v-2q2 -4 7 -7q6 -2 11 -16q4 -12 11 -19q8 -6 14 -17q6 -12 6 -14q0 -4 3 -5q2 -2 2 -7
q0 -4 5 -7q4 -3 4 -7q0 -5 3 -8q3 -2 7 -13q4 -12 7 -15q4 -6 4 -7q0 -2 4 -6q4 -5 2 -7q0 -4 1 -6q2 -2 6 -4q5 -2 6 -8q5 -10 6 -11q3 -3 3 -5q0 -1 6 -13q8 -12 10 -12q4 -2 12 -2q4 0 13 3q5 4 6 17q2 12 0 23q-1 5 -1 13v54q1 28 1 36q0 16 -3 19q-3 4 0 12t2 15
q-1 6 0 10q2 3 2 15q-1 6 -1 63v20.5t0.5 17t0.5 11.5v5v2q-1 8 -1 13q0 14 -3 18.5t-3 15.5q0 10 4 18q3 8 -1 14q-3 7 -1 14q3 8 1 11q-3 4 -4 29q-1 24 -5 28q-4 3 -3 14q0 1 0.5 19t0.5 30q-1 20 -1 26q0 12 5 15q6 3 10 3q6 0 10 2q6 3 16 3q6 1 9 1q4 0 10 -4
q2 -1 5 -3t4 -2q3 0 12 -9q8 -7 8.5 -9.5t-0.5 -11.5q-2 -14 -2 -94v-41q0 -42 1 -46l3 -5q2 0 2 -10t2 -12q1 -1 1 -3.5t-1 -6.5q0 -7 -4 -11q-4 -3 -4 -34q0 -30 3 -36q3 -4 3 -9q0 -4 -4 -8q-3 -4 -3 -20q0 -17 3 -20q4 -4 4 -12q0 -6 -4 -9q-3 -2 -3 -9q0 -9 3 -15
q4 -8 5 -40q1 -17 1 -22q0 -12 -5 -20q-4 -9 -3 -30v-24v-51q0 -47 -3 -52q-3 -9 -3 -18q-2 -13 -4 -15q-4 -4 -4 -10q-2 -6 -4 -8q-2 -3 -41 -3q-22 1 -47 1q-6 1 -10 6q-1 2 -13 16q-9 10 -9 16q0 4 -5 9t-10 17q-4 12 -3 13q0 2 -11 13q-12 12 -12 14q0 3 -5 10
q-7 7 -7 14q-3 7 -5 10q-4 4 -9 14t-7 12q-1 1 0 4q0 2 -7 13q-6 10 -8 14q0 1 -5 13q-7 12 -11 14q-6 6 -6 10q0 5 -1 6t-5 3q-3 0 -6 5q-2 4 -2 11q0 8 -5 14q-5 7 -5 9t-6 8q-5 5 -5 9q0 5 -2 13q-3 9 -12 16q-10 8 -12 12t-2 11t-5 11q-6 3 -11 16q-2 3 -5 8.5t-3 6.5
q-3 3 -8 15q-3 8 -10 18q-7 7 -7 12q0 3 -7 10q-7 5 -9 12t-5 11q-2 2 -7 14q-5 11 -11 16q-8 8 -9 12q0 1 -1 5t-1 6q-2 6 -8 12q-5 5 -9 11q-2 6 -2 10q0 7 -6 17q-5 12 -16 21q-9 11 -9 12t-3 4q-2 2 -2 10q1 8 -4 13t-12 5q-8 0 -8 -1q-2 -2 -2 -12q-2 -10 -5 -15
q-3 -4 -3 -26v-64q1 -17 1 -34.5t-1 -24.5q0 -5 0.5 -16t0.5 -14q2 -13 4 -17q3 -2 3 -108q0 -105 2 -113q1 -5 -2 -20q-3 -14 -1 -21q3 -6 2 -17q-1 -6 -1 -62q0 -53 -2 -57t-8 -11q-5 -5 -15 -6q-3 0 -9.5 -0.5t-8.5 -0.5h-4q-3 0 -7 2q-1 1 -10 9q-3 7 -8 9q-3 0 -5 6
q-2 4 -2 49q0 13 0.5 34.5t0.5 23.5q-1 8 -1 134q-1 66 -1 127q0 12 1 18q0 1 0.5 21.5t0.5 34.5v22.5v18.5l-1 7q-1 2 3 12q5 8 5 14q0 4 -5 9q-4 4 -4 17v65q1 28 1 60q0 3 -0.5 7.5t-0.5 5.5q-2 5 7 16t21 12z" />
    <glyph glyph-name="uni004F" unicode="O" horiz-adv-x="792" 
d="M371 684q-3 -1 -11 -1q-2 0 -6 0.5t-6 0.5q-6 2 -6 0q-3 -3 -9 -1q-9 1 -15 -6q-7 -7 -10 -7q-1 0 -4 -1.5t-4 -1.5q-5 -3 -11 -4q-7 -3 -10 -7q-2 -4 -6 -6q-6 -2 -9 -2q-5 0 -7 -6t-9 -6t-12 -6q-3 -4 -10 -9q-5 -3 -9 -11q-3 -8 -7 -12t-11 -20q-7 -17 -11 -18
q-6 -4 -6 -7q-1 -2 -1 -8q0 -5 -3 -7q-3 -3 -3 -10q0 -8 -3 -12q-4 -5 -5 -18q0 -12 -3 -17q-3 -2 -3 -20q-2 -20 -4 -23l-2 -7l-1 -3q0 -3 -0.5 -8t-0.5 -10q0 -21 1 -25q2 -6 2 -17q0 -15 -1 -22q-2 -12 -3 -13q0 -5 4 -10q4 -9 4 -24q2 -12 -1 -20q-1 -5 3 -12
q5 -8 5 -13q0 -3 4 -15q4 -8 4 -18q0 -7 3 -13q3 -3 3 -7q0 -5 3 -11q1 -2 3 -6.5t2 -5.5q1 -2 8 -12q5 -10 5 -11q0 -4 4 -10q5 -7 5 -10q3 -7 7 -9q5 -5 11 -9q5 -5 5 -7q0 -3 9 -10q3 -2 7 -4l3 -3q5 -3 9 -7l15 -10q7 -2 9 -4t9 -4q9 -2 13 -5q9 -3 12 -3q7 0 7 -2
q1 -1 8 -1q8 0 8 -2q2 -2 5 -2q1 0 4.5 -1.5t5.5 -1.5q8 -4 14 -4q7 0 13 3q5 4 26 5q17 0 25 4q4 3 22 3q15 0 22 4q5 4 14 4q7 0 16 10q9 9 14 9q4 0 6 2q1 2 1 6q-1 4 9 9q11 5 12 11q2 3 7 8q1 1 13 10q9 9 9 11q0 3 7 10q6 7 6 15q2 9 5 12q3 6 2 10q0 8 1 12q2 5 8 11
t6 14q2 8 4 15q1 4 6 14q4 8 4 20q0 16 -1 19q-2 7 0 12q1 3 1 27q0 25 1 29v10l-1 8v14q-1 18 -4 22q-3 3 -4 31q0 28 -3 32q-3 3 -3 15q0 11 -4 20q-5 7 -7 17q-4 11 -7 16q-5 8 -4 14q1 7 -2 8l-2 1q-2 1 -3 2q-3 0 -5 4q0 1 -2.5 5t-3.5 6q-4 8 -11 13q-7 7 -6 13
q2 6 0 10q0 3 -6 5q-5 3 -7 6q-1 4 -7 6q-5 1 -12 11q-6 10 -8 12q-3 3 -21 4q-16 0 -25 5q-8 5 -11 4q-5 -2 -10 -1q-6 0 -14 4q-8 3 -14 3h-7q-7 -1 -26 -1h-20zM333 746q8 2 10 2q2 1 13 -3q10 -3 24 -3q15 0 19 3q6 4 12 4t12 -4q4 -3 10 -3q6 2 10 0q6 -3 10 0
q5 1 16 0q2 -1 22 -4q10 -1 14 -6q3 -4 9 -4q7 0 13 -3q9 -2 13 -6t10 -4q4 0 12 -4q4 -3 15 -7q9 -4 14 -7q4 -4 4 -5q0 -3 17 -18q21 -19 25 -24q6 -6 9 -12q0 -5 7 -10q6 -6 6 -10t4 -10l4 -8q0 -2 7 -9q6 -10 9 -16q4 -8 4 -12q0 -3 4 -13q6 -10 8 -14q3 -4 3 -13
q0 -8 2 -12q3 -3 7 -14q4 -12 4 -18q0 -1 0.5 -10t0.5 -15q1 -19 5 -23q3 -4 3 -9q0 -4 -1 -19q0 -6 -0.5 -23.5t-0.5 -24.5v-29q-2 -4 1 -12q1 -6 1 -8t-2 -7q-3 -7 -5 -23q-2 -20 -2 -24q0 -5 -4 -11q-3 -3 -3 -11q0 -6 -4 -16q-3 -9 -3 -14q1 -2 -7 -12q-7 -8 -7 -14
q0 -3 -6 -17q-7 -12 -9 -14q-4 -5 -6 -9q-6 -9 -7 -10q-4 -2 -4 -7q0 -1 -3 -7q-4 -4 -4 -7q0 -4 -8 -12q-5 -4 -16 -15q-2 -2 -8.5 -9t-10.5 -11q-12 -12 -16 -12q-3 0 -9 -4q-5 -5 -11 -7q-5 -1 -9 -5q-2 -3 -6 -3q-2 0 -10 -6q-6 -7 -14 -8q-8 -2 -11 -5t-10 -2
q-8 0 -12 -4q-5 -3 -12 -3t-13 -4q-6 -3 -11 -3q-8 0 -14 -1t-14 -1h-6q-6 0 -15.5 0.5t-17.5 0.5q-39 1 -46 4q-8 3 -25 3q-12 -1 -19 1l-4 2q-3 2 -8 4.5l-9 4.5q-17 10 -28 10q-13 2 -20 6q-10 4 -11 4t-12 9q-6 6 -16 11q-7 2 -7 5q-2 3 -12 12q-11 9 -12 9q-2 0 -7 7
q-1 2 -4 6.5t-3 5.5q-1 5 -6 9q-4 4 -6 10q-5 8 -7 9q-3 2 -7 9q-1 2 -3.5 6.5t-3.5 6.5q-2 6 -10 12q-6 6 -6 12t-5 13q-4 8 -6 19q-1 9 -6 16q-4 4 -4 6q2 2 -2 8q-2 7 0 13q2 8 2 12q0 5 -5 10l-4 4l-2 3q-1 4 2 9q3 6 3 12q0 8 -3 12q-4 7 -4 20v78q1 64 3 67q4 6 4 19
q2 16 3 17q3 1 3 9q0 7 4 12q1 1 7 10q3 6 3 9t4 9q5 6 4 15q-1 7 2 12q2 4 2 7q0 4 4 8l5 5q0 4 8 12q7 11 9 18q0 1 3.5 6.5t5.5 7.5l6 6l3 4l14 14q13 13 16 13q5 0 15 10q8 10 17 12l14 7q6 4 10 4t18 4q14 3 18 8q5 5 8 7q6 2 14 2q9 0 14 5q6 5 11 3q5 0 13 2z" />
    <glyph glyph-name="uni0050" unicode="P" horiz-adv-x="588" 
d="M269 672q-4 2 -15 2q-9 0 -15 -3q-5 -4 -25 -4t-22 -2q-3 -3 -3 -9q0 -5 -5 -10q-5 -6 -5 -16q1 -6 1 -22q0 -25 -1 -41t-1 -20q0 -10 5 -13q4 -4 4 -14q0 -17 -1 -23q-2 -13 -5 -16q-3 -6 -3 -9q0 -4 2 -12q3 -9 5 -12q2 -9 1 -15v-25q1 -15 7 -21q5 -6 11 -6q5 0 15 -4
q8 -5 16 -5q7 0 12 5q5 4 19 4h22h20q12 0 16 3q9 3 19 3q14 0 19 4q4 4 6 4t8 4l12 3q6 0 13 7q2 2 7 5.5t6 4.5q9 6 12 9q7 7 7 9t5 5q5 2 5 11q0 8 4 14q2 3 4 15q0 8 2 10q3 3 3 7q0 5 3 8q4 6 4 9t-4 9q-4 5 -2 8q2 4 2 24q-1 20 -4 25q0 2 -1.5 5t-1.5 4q0 2 -4 8
q-5 7 -6 11q-2 8 -8 13q-5 7 -15 13l-11 6q-3 3 -9 6q-5 3 -11 3q-1 0 -4.5 1.5t-5.5 2.5q-2 2 -11 8q-5 3 -42 4q-41 0 -45 1q-6 2 -11 4zM126 725q4 4 9 5t24 1h42q66 0 75 -3q8 -3 22 -3q16 0 20 3q9 3 20 3h8q7 0 14 -2q9 -5 15 -6q6 -3 22 -5q8 -1 28 -1q14 2 19 -1
q5 -1 5 -6t2 -7q3 0 5 -6q2 -5 6 -6q6 -2 8 -2q2 -2 4 -6q1 -1 4.5 -5.5t5.5 -6.5q5 -7 12 -10q6 -2 12 -8q6 -5 11 -12q3 -6 3 -9q0 -4 5 -7q4 -2 4 -5q0 -1 3 -7q3 -3 3 -11q2 -8 5 -11t2 -10q-1 -6 4 -11q4 -5 4 -26q0 -22 2 -24q1 -2 1 -3q0 -3 -2 -6q-3 -7 -2 -22
q0 -17 -3 -27q-2 -7 -6 -15q-4 -4 -4 -6q0 -3 -6 -9q-6 -8 -6 -11t-4 -7q-3 -5 -7 -5q-3 0 -7 -6q-5 -5 -5 -9q0 -5 -5 -8q-2 -2 -10 -8q-7 -2 -7 -5l-9 -9q-8 -6 -11 -6q-2 0 -12 -6q-8 -6 -11 -6t-5 -5q-2 -6 -7 -9q-4 -4 -13 -4q-11 0 -15 -5q-5 -5 -12 -3q-4 2 -32 2
q-15 -1 -32 -1q-10 0 -18 1q-14 1 -23 -3q-8 -5 -13 -5q-4 0 -6 4q-3 3 -11 3q-9 0 -14 -3q-9 -3 -19 -3q-15 0 -16 -1q-2 -2 -4 -6q-4 -6 -4 -10q0 -3 -4 -9q-3 -4 -2 -17q0 -4 0.5 -13t0.5 -12q0 -12 -2 -18t2 -14q5 -8 5 -16q0 -19 -1 -35q0 -28 -2 -30q-1 -2 -3 -15
q-1 -13 1 -15q3 -5 4 -17q1 -8 1 -19q0 -10 -1 -17q0 -11 -3 -17q-3 -3 -3 -7q0 -1 -2 -7q-2 -4 -9 -9t-26 -5q-13 0 -17 1.5t-13 11.5q-9 9 -10.5 12.5t-2.5 16.5q0 16 -3 20l-6 9q-2 2 -2 4q0 1 1 3q2 4 2 13q0 12 3 19q3 10 1 21q-3 18 -3 24q-2 13 0 18q2 4 1 26
q-2 10 -2 25q0 9 1 18q1 12 1 29q-2 6 -2 19v53v45l1 6v15v17q1 19 1 38q0 13 -1 24v27v56v56v8v13v16q0 30 3 33q3 6 5 9q2 6 6 6q5 0 12 7z" />
    <glyph glyph-name="uni0051" unicode="Q" horiz-adv-x="819" 
d="M455 664q-7 5 -10 5l-22 -2q-12 -1 -28 -1h-24q-18 0 -30 -3q-13 -4 -18 -7t-11 -3t-23 -9q-16 -9 -20 -15q-3 -6 -9 -8q-5 0 -14 -11q-9 -9 -13 -9q-3 0 -7 -6q-3 -5 -5 -12q-3 -11 -4 -11q-1 -2 -4 -7l-3 -3q-6 -3 -4 -8q1 -4 -5 -15q-7 -11 -7 -13q0 -1 -4 -7
q-4 -5 -4 -16q0 -10 -4 -14q-4 -3 -7 -8q-2 -4 -2 -8q0 -7 3 -8q2 -2 2 -5q0 -4 -3 -10q-4 -8 -4 -16q0 -9 -4 -16t-3 -11v-7q0 -7 0.5 -18t0.5 -21q1 -42 4 -45t3 -26q0 -22 3 -28q3 -4 3 -13q0 -7 5 -15q4 -7 4 -17t7 -18q8 -9 7 -16q-2 -7 1 -10q2 -4 12 -14
q13 -13 16 -15q4 -3 6 -9q0 -5 6 -9q5 -3 5 -6q0 -2 4 -6q1 -1 4.5 -4t5.5 -4q6 -6 8 -6q1 0 9 -6l14 -11q8 -6 14 -9q8 -4 15 -4q9 0 17 -3q5 -2 58 -3q49 0 53 4q5 4 19 3t22 7q7 8 14 8q8 0 12 3q4 4 7 3q4 0 5 1q3 0 8 7q4 7 7 7q4 0 7 5q5 5 11 7q10 5 14 9q7 5 9 11
q1 1 3 5t3 5q3 5 3 13q0 7 2 9q1 1 1 5q0 1 5 6q6 4 9 12q4 10 4 14q0 6 3 11t0 12q-3 6 4 14q7 7 7 23q0 17 3 20q3 4 3 17q0 5 0.5 13t0.5 9q0 26 -1 46q0 37 -4 41t-3 27q0 22 -5 28q-5 5 -2 11q4 6 1 11q-1 3 -1 10q2 4 -3 10q-5 5 -5 11q0 4 -6 8q-5 4 -10 16
q-7 16 -8 17q-4 5 -6 9l-7 14q-5 8 -5 12q0 3 -8 6q-8 4 -14 10q-4 4 -10 12q-4 5 -12 7q-4 1 -14 6q-8 6 -13 6q-4 2 -10 8q-5 7 -16 7q-10 -1 -18 4zM357 728q10 4 39 4q28 0 35 -4q5 -3 32 -3q26 -1 31 -5q6 -4 12 -4t11 -3q2 -4 6 -4q3 0 8 -3t17 -3q14 0 16 -3
q6 -3 8 -3q3 0 12 -7q7 -8 10 -15q2 -5 8 -9t16 -9q9 -6 28 -23q18 -18 18 -21q2 -4 6 -10q4 -4 10 -14l4 -12q0 -2 4 -8q3 -5 5 -12q0 -8 4 -10q3 -3 3 -7q0 -5 2 -5q2 -2 9 -16q5 -13 8 -16q1 0 1 -25v-13q0 -12 3 -19q3 -5 4 -41q1 -18 1 -35q0 -9 -1 -17q0 -8 -3 -26
q-2 -4 -4 -32q-1 -21 -4 -24q-4 -3 -4 -14q0 -12 -6 -26q-9 -18 -11 -23q-3 -9 -9 -12q-5 -3 -5 -6q0 -2 -4 -8q-2 -2 -4 -6l-2 -3q0 -3 -2 -11q-3 -8 -6 -9q-5 -1 -6 -9q0 -6 -5 -9q-2 -1 -15 -14q-12 -14 -16 -15q-5 -3 -5 -6q0 -4 -4 -8q-5 -5 -7 -17q-3 -10 -3 -14t4 -4
q4 -2 19 2q11 3 36 5q23 0 29 2q10 2 15 5q8 2 15 1q6 -2 12 -2q4 0 16 -4q10 -4 13 -6t3 -5q0 -1 0.5 -4.5t0.5 -5.5q0 -7 6 -9t6 -4q0 -3 -3 -6q-2 -4 -4 -6h-19q-16 1 -23 -3q-6 -5 -32 -5h-30h-29h-49h-39q-13 0 -16 -3q-5 -4 -19 -3q-19 2 -22 4q-10 2 -13 1
q-6 0 -10 -4q-6 -4 -10 -4q-3 0 -7 -2q-2 -3 -14 -3q-14 0 -15 -1q-2 0 -5 4q-5 5 -7 5q-4 1 -11 -3q-6 -4 -18 -3h-29q-19 -1 -28 2q-10 4 -20 4q-12 0 -15 3q-5 3 -15 4q-11 2 -12 7q0 4 -4 6q-1 1 -7 1t-9 3q-5 3 -11 3q-7 0 -10 3t-3 5q0 4 -9 9q-6 4 -12 10q-5 5 -13 8
q-11 6 -18 17q-6 12 -13 13q-6 2 -10 7q-2 6 -2 7q1 0 -1 4q-1 3 -4 3q-2 0 -6 4q-6 4 -7 11q-1 4 -4 10q-4 4 -5 8q-3 6 -5 14q0 1 -1 6t-2 7q0 3 -5 11q-4 4 -3 8q0 4 -3 12q-4 10 -7 13q-2 6 -2 14q0 9 -4 16t-4 30q1 22 -2 24q-2 2 -2 6t2 6q2 4 2 18q0 16 -4 20t-4 7
q-1 2 4 9q5 6 5 47q0 43 3 49q2 8 2 16q0 9 5 14q4 4 4 11q0 5 4 11q3 3 3 7q0 3 4 9q5 7 5 10q0 2 2 10q1 5 6 12q1 1 4.5 6t5.5 8q7 12 7 14q3 6 8 11q7 7 9 13t6 6q4 2 8 9q4 8 10 12t6 5q0 3 5 8q5 6 13 8q6 1 17 8q10 6 13 6t3 5q2 5 9 9q7 5 12 5q4 0 9 5q5 4 18 4
t17 4q5 3 13 3q8 -1 16 4q7 5 13 3q5 -2 17 3z" />
    <glyph glyph-name="uni0052" unicode="R" horiz-adv-x="706" 
d="M397 659q-18 2 -23 2q-8 0 -9 -1q-3 0 -7 -4q-8 -3 -20 -4q-16 -2 -19 2t-5 2q-1 -1 -8 1q-7 3 -34 3q-28 0 -33 -4q-3 -3 -13 -3q-8 0 -18 -8q-11 -11 -12 -14q-2 -6 0 -13v-11v-60q-1 -57 -4 -62q-3 -8 -4 -17v-7q0 -6 3 -13q4 -8 4 -22q0 -16 1 -17q0 -3 10 -2
q8 0 12 4q3 3 10 3q8 0 12 -3t28 -3q13 -1 29 -1l11 1h18h18l9 1q21 0 43 -1q40 0 45 -4q6 -4 11 -4q4 0 12 4q6 4 10 8q4 3 8 3q3 -1 13 10q10 12 16 15t9 9q2 5 10 8q6 2 8 5q0 8 -1 13q0 11 3 15q3 3 5 13q1 5 1 19q0 8 -2 28q-1 16 -7 28q-4 6 -10 18q-4 8 -4 9
q0 3 -12 13q-13 11 -14 11q-2 0 -4 4q-1 2 -6 7l-15 5q-10 4 -12 5q-2 2 -19 1t-22 3t-22 5zM168 723q6 2 67 2q60 0 64 -3q4 -4 12 -4h21q15 0 19 -4q3 -5 8 -5q4 0 8 4q7 2 17 4q14 3 16 4q5 3 14 0q12 -5 13 -6t9 -4h17q13 0 16 3q4 2 9 2t10 -3q6 -4 11 -4t8 -3
q3 -5 6 -7q3 -3 5 -3q1 1 9 -3q8 -5 12 -5t8 -2q1 -3 6 -3q4 0 15 -11q11 -8 14 -14q6 -6 11 -10q9 -8 9 -13q0 -3 5 -10q5 -3 11 -17q7 -10 9 -22q2 -5 4 -32q2 -22 4 -24q2 -4 2 -8q0 -3 -6 -17q-6 -12 -6 -15q0 -2 -5 -7q-4 -3 -3 -10q0 -6 -3 -9q-3 -1 -5 -10
q-2 -6 -6 -13q-6 -6 -12 -9q-7 -4 -8 -11q-2 -8 -7 -11q-3 -4 -6 -4q-2 0 -10 -4q-8 -3 -13 -3q-4 0 -16 -12q-10 -9 -11.5 -12t-1.5 -13q0 -12 2 -14t7 -2t10 -3q4 -2 9 -7q4 -4 6 -4q3 0 8 -5q6 -6 9 -6q3 -1 5 -6q1 -4 6 -9q3 -3 7 -13q2 -9 5 -12t4 -20q0 -18 3 -21
q3 -6 3 -11q3 -9 5 -12q4 -4 3 -15q-2 -10 -2 -13q-1 -3 4 -10q5 -5 5 -16q0 -5 -1 -21q0 -23 0.5 -28.5t4.5 -11.5q4 -10 3 -15q0 -7 3 -10q4 -3 5 -16q0 -12 2 -20q1 -3 2 -10q1 -3 1 -5q1 -4 1 -6t-2 -4q-2 -3 -7 -3q-5 2 -22 -2q-15 -2 -22 -4q-6 -2 -16 3q-10 6 -11 9
q0 2 -3 8q-3 3 -3 13q0 8 -2 18q0 8 -4 14q-3 6 -2 12q3 6 0 14q-1 5 -1 15q2 7 -1 10q-2 2 -4 16q-2 9 -4 14q-3 3 -3 20q0 3 -0.5 11.5t-1.5 10.5q0 4 -2 8t-2 10q0 5 -4 11q-4 4 -4 11q0 8 -3 11q-3 5 -3 6t-4 7q-4 4 -6 12t-11 17q-9 11 -9 15t-3 5q-1 0 -4 0.5t-5 0.5
q-6 0 -12 6q-7 7 -12 7q-7 2 -10 0q-5 0 -6 1t-5.5 3.5t-6.5 3.5q-11 5 -20 2q-8 -2 -14 -1q-9 3 -10 3q-4 1 -10 -2q-5 -4 -19 -3q-17 2 -22 4q-8 3 -36 3q-16 1 -42 1q-18 0 -24 -1q-11 0 -15 -3q-3 -4 -3 -23q0 -20 -2 -22q-2 -4 -2 -14v-16q0 -5 2 -11q2 -7 2 -25v-19
q0 -35 -3 -41q-2 -7 -4 -17q-2 -14 -4 -17q-4 -4 -4 -8q0 -3 8 -11q7 -7 7 -16v-14q0 -6 -0.5 -20.5t-0.5 -19.5q-2 -20 -4 -24q-3 -7 -7 -9q-5 -3 -14 -1q-10 2 -15 -2q-6 -3 -14 -3h-4q-6 0 -10 4q-3 3 -9 6q-5 2 -5 4l-1 3v5q0 1 -0.5 6t-1 13t-0.5 14v14.5v12.5l-1 4
q-2 2 0 5q2 4 2 8v33q-1 16 -1 22q0 10 3 14q3 6 3 11t-2 15q-3 9 -3 18q0 8 3 11q1 1 3 17q0 15 -4 19q-3 4 -3 47q1 42 4 46q2 4 2 7t-3 8q-4 6 -4 9t4 7q3 5 5 14q1 9 -1 17q-1 2 -3 7t-2 6q-2 3 -2 32q1 16 1 33v23q0 20 -4 24t-4 61q1 57 4 61q2 4 2 10q0 5 -3 10
q-3 4 -3 6q0 1 2 5q1 4 10 13q8 6 10 6l8 4q6 3 12 3t8 2q3 3 9 3z" />
    <glyph glyph-name="uni0053" unicode="S" horiz-adv-x="628" 
d="M275 755h8q1 0 21 -2q5 0 12 -1h8h4q3 0 9 0.5t11 0.5q12 1 16 1q8 0 16 -4q13 -7 13 -8q3 -1 13 -3q10 0 21 -6q12 -7 28 -8q17 -1 25 -7q9 -9 10 -13q1 -5 9 -10q3 -3 12 -9q5 -6 7 -13q1 -3 3 -8.5t2 -7.5q2 -6 6 -10t4 -11q0 -6 3 -8q2 -2 2 -9q0 -2 3 -14
q5 -7 6 -11q3 -5 1 -10q-3 -4 -3 -9l-1 -4l-26 -2q-24 0 -30 -2q-7 0 -12 3q-6 3 -9 3t-6 7q-1 5 -6 10q-4 5 -5 11q0 2 -1 7t-2 7q-1 7 -9 16q-7 7 -13 17q-6 8 -7 8q-2 0 -6 4q-3 3 -8 2q-4 -2 -10 2q-9 7 -13 8q-5 3 -12 3q-3 0 -12 3q-5 3 -37 4h-44q-13 0 -22 -4
q-7 -4 -12 -4q-4 0 -14 -5q-10 -4 -13 -7q-2 -3 -11 -7q-3 -1 -18 -14q-11 -10 -12 -18q-3 -11 -4 -12q-3 -6 -3 -9q-1 -6 -4 -11q-3 -4 -3 -26q0 -19 3 -27q4 -5 2 -10q-1 -4 4 -12q6 -10 6 -13q0 -4 4 -16q5 -9 10 -12q6 -2 10 -4q5 -2 7 -7q1 -4 7 -6q5 0 16 -7
q14 -6 18 -6q5 0 13 -6q10 -6 11 -6q3 0 13 -5q8 -5 17 -5q7 0 17 -4q8 -4 16 -4q6 0 14 -2q8 -3 13 -3t10 -3q4 -4 10 -4t9 -4l9 -6q2 -1 12 -7q6 -6 13 -9q8 -4 14 -4q6 2 10 -2l8 -4q4 -4 18 -11q8 -5 18 -10q6 -2 8 -3q3 -3 6 -9q4 -8 6 -8q1 -1 3.5 -2t3.5 -1q4 0 6 -5
q3 -7 12 -14q10 -10 10 -18q0 -7 3 -10q2 -4 2 -11q0 -6 3 -12q4 -6 7 -15q5 -10 5 -33l2 -28q1 -5 -3 -8q-5 -4 -6 -16t-5 -17q-3 -6 -2 -11q1 -8 -3 -12q-4 -6 -4 -14q-2 -9 -4 -11q-3 -3 -5 -3l-10 -8q-8 -10 -11 -16q-4 -8 -11 -15q-6 -8 -11 -8q-4 0 -9 -3
q-6 -2 -13 -9q-10 -6 -11 -6q-3 0 -11 -5t-18 -7q-9 0 -13 -4q-5 -3 -12 -3q-8 0 -8 -2q0 -3 -4 -4q-4 -2 -27 -2q-22 0 -27 -3q-4 -2 -17 -4q-3 0 -15.5 -0.5t-19.5 -0.5q-20 0 -30 2q-2 1 -7.5 2t-7.5 1q-7 2 -10 5q-6 4 -9 4q-4 0 -10 4q-5 3 -22 4t-24 8t-10 7t-6 3
q-2 2 -6 2q-3 0 -15 10q-3 3 -11.5 10.5t-11.5 10.5q-13 15 -14 17q-6 8 -8 10q-3 5 -5 12q0 3 -5 15q-4 8 -4 18q0 9 -4 12q-3 3 -2 13q1 9 -4 15q-4 4 -4 5q0 2 6 11q8 12 8 13l2 4q2 2 30 2q22 0 26.5 -1t12.5 -8q11 -9 13 -13q3 -3 3 -13q0 -7 2 -19q1 -5 6 -20
q5 -8 5 -12q0 -2 3 -5q4 -4 6 -9q5 -7 11 -11q9 -5 9 -8q3 -3 4 -5q3 -3 10 -3q8 0 16 -5t22 -7t17 -5q6 -2 34 -2q13 -1 24 -1t14 1q7 0 13 2q4 3 13 3q7 0 11 2t4 5q0 4 4 5q5 3 12 4q8 0 16 4q7 4 10 8q2 5 7 7q3 1 12 10q8 8 6 11q0 4 3 8q5 5 7 5q3 2 5 7q3 6 1 11
q0 8 3 11q4 5 4 19q-2 17 -3 22q-3 6 -3 13q0 8 -5 16q-4 12 -4 15q0 5 -9 14q-10 8 -18 16q-8 10 -8 12q0 3 -3 5q-5 0 -8 5q-3 2 -12 5q-5 0 -15 6q-9 7 -9 4q-2 0 -12 5q-12 5 -14 4t-7 -1q-4 0 -11 5q-10 4 -12 4q-4 0 -8 4q-2 1 -5 2l-2 1q-2 0 -7 3q-2 2 -11 2
q-8 -1 -10 3q-1 4 -6 4q-3 0 -9 4q-3 2 -10 5q-5 3 -10 0q-4 -1 -7 1q-1 1 -11 7q-8 4 -12 4q-5 0 -10 5q-6 4 -10 4q-3 0 -11 4q-4 2 -10 7q-6 6 -21 12q-16 8 -31 23q-14 14 -14 16q0 3 -5 15q-5 13 -9 19t-2 9q0 5 -4 9q-5 5 -5 19q-1 14 -4 22q-4 8 -4 32t2 26q5 2 8 11
q5 9 5 18q0 8 5 18q1 1 4.5 6.5t5.5 7.5q5 7 5 8q0 2 6 10q8 8 11 16q2 5 12 15q7 7 11 9q3 0 13 5l12 6q1 3 7 3q2 0 11 3q9 6 10 7q5 4 14 4q7 0 15 4q7 4 18 3t17 3q5 3 10 5z" />
    <glyph glyph-name="uni0054" unicode="T" horiz-adv-x="652" 
d="M588 733q3 0 6 -1q5 -2 11 0q6 0 10 -3q1 -1 5 -4t5 -5q4 -4 4 -7q0 -4 4 -10q3 -5 3 -10q0 -4 -2 -8q-3 -5 -3 -11t-3 -9q-2 -2 -12 -6q-8 -2 -25 -1q-15 2 -19 0q-4 0 -6 -4q-3 -3 -4 -3t-3.5 2t-3.5 3q-6 4 -18 4q-4 0 -13 -1t-12 -2q-14 -1 -16 1q-4 2 -39 2
q-26 -1 -31 -1.5t-7 -3.5q-3 -4 -16 -3q-13 2 -15 0q-2 0 -6 -9q-4 -7 -6 -7q-3 0 -5 -4q-1 -1 -1 -38t1 -39q2 -5 0 -15q-2 -9 0 -14q2 -4 0 -16q-2 -14 -2 -16v-59v-59v-13t0.5 -34.5t0.5 -42.5q1 -47 1 -93q0 -9 3 -10q2 -4 2 -6q0 -5 -3 -9q-3 -7 -3 -37q0 -32 4 -38
q4 -8 4 -10q0 -16 -1 -30q0 -29 -3 -33q-1 -3 -12 -14q-8 -7 -13 -7h-5q-17 0 -26 1q-14 0 -17 1t-8 7q-6 6 -7 8.5t-1 10.5q0 11 -3 19q-2 8 0 19q3 11 3 36q0 24 2 25l3 8q2 8 2 14q0 8 -3 13q-4 5 -5 20q0 5 -0.5 11.5l-0.5 6.5q0 9 1 16q0 12 -4 23t-3 20q2 10 4 14
q3 4 3 13q0 5 -1 21q-2 30 -2 32q0 3 2 17q2 16 2 29t-3 18q-3 6 -3 7q-2 2 3 7q3 5 2 17q0 4 -0.5 10l-0.5 6q-1 1 -2 3.5t-1 3.5q-3 4 -3 28q0 26 1 28v19q-2 10 -1.5 12.5t4.5 6.5t4 8q0 16 -1 33v15t-0.5 13.5l-0.5 5.5q0 4 -4 10q-6 6 -8 6q-3 0 -13 5t-28 6
q-21 1 -24 -1q-1 -1 -4.5 -3t-5.5 -3q-5 -2 -9 2q-3 5 -20 6q-17 0 -25 -4q-8 -5 -23 -4q-17 2 -19 4q-5 3 -39 3q-25 0 -30.5 1.5t-9.5 9.5q-5 9 -5 16q0 4 1 13q1 17 5 25q4 6 12 6q6 0 12 4q4 4 8 4q1 0 4 -1.5t4 -1.5q3 -3 31 -3t31 2q2 2 14 4q11 1 15 -3q5 -3 16 -3
h15h38q11 1 18 -3q6 -3 16 -5q7 -1 13 3t32 4q30 2 34 3q11 2 13 0q4 -1 46 -3q22 -1 28 -1q15 0 21 5q5 4 14 4q4 0 18 -1q26 0 31 -4q4 -4 9 -4q4 0 8 4t35 5z" />
    <glyph glyph-name="uni0055" unicode="U" horiz-adv-x="804" 
d="M648 738q1 0 3.5 0.5l2.5 0.5q1 0 9 -2q7 -4 9 -7q2 -5 3 -5q3 0 5 -1q3 0 8 -5q5 -8 6 -10q0 -1 0.5 -5.5t0.5 -6.5q0 -41 -1 -83q0 -78 -2 -80q-2 -1 2 -19q2 -14 2 -17t-1 -5q-2 -6 -2 -44q0 -28 -0.5 -33t-4.5 -8q-4 -4 -2 -9q2 -4 2 -13q0 -10 3 -15q2 -7 2 -38v-40
q0 -73 -3 -76q-3 -6 -3 -13q-2 -10 -5 -17q-3 -6 -3 -13q0 -5 -4 -13q-2 -7 -11 -14q-3 -2 -6.5 -5t-4.5 -3q-2 -1 -1 -12q2 -8 0.5 -11t-9.5 -11q-12 -10 -12 -14q0 -3 -2 -5l-10 -10l-10 -6q-2 0 -7 -5q-7 -7 -14 -10t-14 -10q-5 -5 -7 -5q-3 0 -10 -3q-2 -1 -5 -3t-4 -2
q0 -2 -10 -6q-7 -4 -19 -6q-11 -2 -13 -4q-6 -2 -8 -2t-8 -4q-5 -5 -15 -5q-10 -1 -12 1q-5 3 -14 1q-13 -2 -15 -1q-6 0 -12 -3t-17 -3q-8 0 -16 -2q-2 -1 -7 -1t-11 1q-12 1 -17 5q-6 4 -10 4q-5 0 -9 -4t-11 -3q-8 0 -13 3q-6 2 -10 2q-6 0 -11 5q-7 4 -11 3t-7 3
q-5 5 -6 7q-3 3 -8 3q-4 0 -14 11q-12 10 -14 10q-1 0 -15 8q-13 9 -13 12q0 1 -0.5 4t-0.5 5q-1 6 -6 6q-4 0 -10 4q-3 2 -10 5q-5 4 -11 11q-7 9 -7 10t-6 9t-6 19t-6 15q-6 3 -9 10q-1 8 0 12q2 5 0 8q0 2 -4 4q-4 1 -3 15t-2 19q-3 7 -5 15q-1 8 1 13q1 4 -1 13t-1 28
q1 10 1 21q-3 6 -5 8q-3 3 -3 11q0 6 2 8q1 0 5 8q3 8 2 16q-2 10 -2 21t-3 16q-3 3 1 13q3 10 1 16t-4 6q-2 2 -1 10q1 2 2.5 7.5t1.5 7.5q2 4 4 27q0 21 1 23q0 7 -1 12q-2 8 -5 11q-2 4 1 8q4 5 3 19q-1 8 -1 19q0 26 1 50q0 45 -4 51q-4 5 -2 11q2 5 5 10q4 4 4 6t5 7
t5 8q0 4 4 6q5 3 22 3q19 0 23 -5q7 -7 11 -8q5 -2 5.5 -6.5t0.5 -29.5q0 -33 3 -37q3 -3 2 -6l-4 -8q-2 -7 -1 -25q1 -9 1 -19t-1 -15v-25q1 -7 1 -21q0 -19 -1 -32q0 -25 1 -27q1 -1 3 -13q0 -10 -2 -12q-2 -4 -2 -20q-1 -17 3 -22q3 -5 3 -64q0 -58 2 -66q1 -4 1 -13
t-1 -21q-1 -16 -1 -21q0 -7 3 -11t3 -11t4 -11t4 -7t4 -9q2 -4 2 -7q0 -2 6 -14q8 -14 24 -30q20 -20 24 -21q5 0 9 -4q5 -5 13 -8q10 -4 14 -4q1 0 6.5 -1.5t7.5 -1.5q10 -3 30 -5q23 -2 26 -2q7 0 8 -1t11 1q9 3 37 3q30 1 36 5q2 1 8 7q2 5 6 5q3 1 17 3q9 0 18 3
q5 3 12 5q6 4 7 7q1 4 5 6q3 0 7 2q4 0 9 9q3 7 9 13q5 5 8 14q2 7 4 15q0 5 4 9q6 5 7 13q3 6 3 11t5 10q5 9 4 23q0 15 4 28q5 12 5 19v86q0 77 -3 85q-3 5 2 15q4 6 7 16q0 8 -4 12q-4 6 -4 17q0 10 2 16t-1 11q-2 4 -2 12q-1 4 -1 9q0 1 2 21q3 23 3 25q0 9 -5 15
q-5 5 -5 23v38q1 22 6 24q6 2 7 13q2 10 5 13q2 2 9 2q6 -1 8 1q4 4 6 5z" />
    <glyph glyph-name="uni0056" unicode="V" horiz-adv-x="663" 
d="M593 715q2 0 4.5 0.5l2.5 0.5q3 0 6 -3q6 -3 22 -2q16 0 24 -2q5 -1 5 -6t-2 -9l-4 -8l-6 -12q-4 -9 -3 -13q0 -7 -3 -11q0 -2 -1.5 -5t-1.5 -4q-2 -2 -7 -2t-7 -2q-2 -5 -1 -20q0 -17 -5 -22q-4 -5 -7 -12t-2 -16t-2 -12l-2.5 -5.5t-4.5 -9.5q-5 -15 -7 -19
q-4 -6 -4 -13t-7 -14t-7 -10q0 -4 -4 -12q-5 -7 -5 -18q0 -8 -3 -13q-4 -6 -4 -8q0 -3 -7 -10q-6 -6 -9 -14q-1 -5 -1 -14q0 -6 -5 -11t-5 -13q1 -8 -4 -13q-4 -6 -4 -8q0 -1 -6 -7t-9 -6q-4 -1 -4 -10q-2 -10 -5 -15q-4 -5 -4 -13.5t-3 -13.5q-2 -4 -2 -9q0 -3 -4 -9
q-4 -3 -4 -15q0 -11 -4 -15q-3 -4 -4 -15q0 -10 -3 -13q-2 -2 -2 -6q0 -5 -2 -5q-3 -4 -8 -14q-6 -14 -6 -17q0 -5 -7 -17t-6 -19q1 -6 -4 -13l-9 -18q-1 -3 -3.5 -9.5t-2.5 -7.5q-4 -5 -2 -7q0 -3 -1 -6q-5 -7 -8 -8q-5 -3 -6 -9q0 -7 -4 -11q-4 -6 -4 -11q0 -7 -3 -16
q-1 -2 -2 -5q-3 -8 -4 -10q-2 -6 -6 -6q-1 -1 -9 -1q-6 0 -12 -2q-2 -1 -4 -1q-5 0 -17 4q-14 5 -31 5q-14 -1 -20 5q-6 7 -6 15q0 6 -4 20q-1 2 -5 11t-6 13q-5 11 -10 13q-4 1 -6 5q-2 6 -2 19q1 10 0 13t-9 11q-9 9 -11 15q-3 6 -5 8q-4 4 -4 27t-4 25q-2 1 -10 9
q-7 9 -7 13q-2 6 -7 17q-6 9 -6 14q0 2 -4 6l-4 12q-2 9 -5 12q-3 4 -3 7q0 4 -3 7q-2 4 -2 7q0 4 -5 7q-4 4 -4 6q0 3 -4 9q-1 5 -5 9l-2 4t-4 6q-4 10 -4 12q0 1 -2 9t-3 14q-6 21 -8 22q-2 2 -2 9q0 8 -6 12q-5 3 -8 12l-9 18q-6 9 -6 16q0 3 -3 9t-3 13q0 10 -3 14
q-4 6 -4 11q0 7 -3 11q-2 2 -5 10q0 4 -4 10q-3 5 -7 14q-3 9 -8 14q-4 4 -4 7q0 2 -4 12t-5 12q-1 1 -5 12q-2 6 -5 18q-3 6 0 14q2 6 -2 13q-4 6 -8 14q-3 7 -7 11q-5 2 -5 4q-2 2 2 7q4 4 6 4q3 0 7 4q5 4 29 4q27 -2 29 -3l6 -3l3 -1q2 0 4 -4q0 -3 4 -9t4 -13
q2 -5 0 -9t6 -11q7 -7 7 -10q0 -4 5 -11q2 -5 7 -15q3 -12 3 -13q0 -5 4 -15q5 -9 7 -14q3 -6 3 -9q2 -6 4 -8q3 -4 3 -14q-1 -10 8 -18q9 -9 9 -14t4 -13l6 -12q2 -2 2 -8q-1 -4 2 -10q4 -6 4 -9q0 -5 3 -10l5 -10q0 -4 4 -8q4 -6 4 -8q0 -5 2 -7q3 -3 3 -7q0 -5 8 -15
q8 -11 8 -21q0 -8 3 -13q4 -4 4 -14q1 -8 4 -15q0 -1 2 -5.5t3 -6.5q5 -10 6 -14q1 -2 3.5 -7.5t3.5 -7.5q5 -8 5 -20q2 -11 5 -16q0 -1 1.5 -4t1.5 -4q0 -3 3 -6q4 -4 4 -6q0 -4 3 -7q4 -5 5 -11q2 -2 4 -17q0 -10 4 -14q3 -4 3 -7q0 -1 4 -7q4 -3 6 -11q3 -9 4 -10
q2 -5 1 -7q0 -4 3 -8q4 -4 3 -11q-2 -8 1 -12q3 -9 6 -12q2 -4 8 -10q5 -4 15 -4t14 2q5 3 11 16q7 13 7 23t4 15l4 7q-1 2 2 12q6 13 7 13q2 3 5 3q1 0 2 1q2 2 3 2q2 4 2 9q0 2 0.5 7.5t0.5 7.5l2 10q1 1 3 13q1 11 7 18q5 5 5 9q0 3 4 7q5 5 5 9q0 2 4 8q5 5 5 15t-2 16
t2 11q5 5 5 7q0 1 8 11q8 8 7 14q-1 5 2 8q4 8 5 14q1 3 2.5 8.5t1.5 6.5q3 9 5 14q1 5 5 13q2 6 1 7l6 12q6 12 6 14q0 1 0.5 5t0.5 6q0 10 5 18q4 10 6 12l5 10q3 7 5 17q2 11 4 13q3 6 3 10q2 8 5 14q2 6 6 13q4 4 4 12q0 7 8 19q1 2 5 8.5t5 8.5q2 4 2 18q1 14 7 20
q7 7 10 16t3 16q0 4 6 14q6 8 11 11z" />
    <glyph glyph-name="uni0057" unicode="W" horiz-adv-x="847" 
d="M45 727q10 1 21 1q7 -2 12 -6q8 -6 15 -13q7 -6 8 -8.5t0 -10.5q-1 -12 1 -18q3 -6 3 -10q0 -1 0.5 -5t0.5 -6q2 -8 6 -11q4 -4 3 -14q-1 -8 3 -17q4 -7 4 -29t6 -35q7 -12 7 -16q0 -3 4 -11q5 -9 5 -21v-25q0 -12 3 -14q4 -4 4 -7q0 -4 2 -6q2 -5 4 -16q4 -16 5 -19
q3 -7 2 -16q0 -12 3 -15q3 -5 3 -10t3 -9q3 -6 3 -12t2 -22q1 -14 5 -15q3 -2 2 -19q0 -18 4 -22q4 -5 4 -15t3 -13q3 -4 3 -17.5t3 -18.5q2 -3 4 -17q0 -10 3 -16q2 -2 4 -12q2 -9 4 -11q2 -4 6 -4t10 -2t9 2q3 5 6 5q2 0 7 5t5 17q-1 10 1 17q2 3 0 12q-2 8 2 10q4 4 4 7
q0 6 4 10q3 4 4 28q1 23 4 28t3 15t7 17q5 4 5.5 6.5t-0.5 15.5q-1 16 3 22q5 7 5 12q0 4 4 12q4 5 4 10q-2 5 3 13q5 10 5 12q0 9 -1 15q-1 12 2 16q4 4 4 14t4 15t4 19q-1 13 3 27q4 10 4 26t4 22q4 8 4 18q0 9 2 13q3 5 4 11q0 6 4 10t3 17q-1 15 2 19q1 2 4 7t4 7
q5 8 5 16q0 5 2 11q3 3 3 9q0 4 3 7q2 1 12 1q10 -1 15 3q6 4 7 4q3 0 7 -4q5 -3 26 -3h10t8.5 0.5l3.5 0.5q1 1 6 -2q4 -2 4 -7q0 -1 3 -10q4 -7 3 -19q-1 -10 0 -12.5t5 -7.5q5 -5 7 -15q1 -10 6 -13q4 -3 4 -16q0 -15 3 -19q2 -8 2 -19q0 -13 4 -16q3 -3 7 -11
q4 -7 4 -24q0 -18 4 -23q3 -5 3 -17q1 -12 5 -17q3 -4 3 -8q-2 -2 2 -9q1 -2 4 -14q2 -7 5 -8q3 -3 4 -25q0 -15 3 -30q4 -10 7 -12q3 -3 3 -22q-1 -14 -0.5 -16.5t4.5 -7.5q5 -7 3 -14q-2 -6 2 -14q4 -7 4 -27q0 -19 4 -23q3 -9 3 -12q0 -8 3 -14q5 -6 7 -11q4 -4 4 -22
q1 -19 4 -23q3 -5 3 -15t2 -14q1 -4 11 -4q9 0 11 2q2 3 3 9q3 4 5 13q2 8 5 11q3 1 3 7q0 3 4 9q4 4 4 21t3 21q3 3 5 15v20q0 11 2 14q3 3 3 7q0 3 4 11q4 7 4 13q-1 3 4 12q4 8 3 30q-1 12 -1 15q0 8 4 20q2 4 4.5 10.5t2.5 7.5q1 1 4 11q1 5 -1 9q-2 2 0 7v12q0 6 3 10
q4 4 9 14q4 11 4 23q0 13 3 19t3 24q0 17 3 21q4 4 7 12q2 6 4 28q2 20 5 25t2 22q-1 13 -0.5 15.5t4.5 6.5q4 6 3 7q0 3 3 9q4 5 4 16q0 7 6 21q6 12 11 15q4 3 22 3q17 0 20 -3q2 -2 11 -4q6 -1 7 -3t1 -14q0 -16 2 -18q2 -3 -3 -9q-5 -5 -5 -12q0 -4 -4 -12
q-4 -10 -4 -17q0 -11 -3 -17q-3 -5 -2 -24q1 -13 0.5 -16.5t-4.5 -5.5q-5 -4 -5 -11q0 -6 -2 -12q-3 -3 -3 -10q0 -5 -4 -11q-5 -5 -5 -15q0 -8 -3 -14q-4 -6 -4 -14q0 -10 -3 -14q-3 -9 -3 -13q0 -5 -4 -15q-4 -9 -3 -23q0 -13 -3 -18q-3 -3 -3 -8q0 -2 -3 -11
q-4 -8 -4 -10q0 -4 -4 -16q-4 -13 -4 -24q1 -12 -2 -15q-4 -3 -4 -10t-4 -11q-4 -6 -4 -13q0 -2 0.5 -7.5t0.5 -7.5q1 -7 -4 -13t-4 -14q1 -6 -1 -17q0 -2 -1.5 -9t-2.5 -9q-1 -1 -3 -6t-3 -7q-2 -6 -2 -21q0 -17 -4 -21q-3 -6 -2 -15q1 -8 0.5 -9.5t-5.5 -5.5q-7 -5 -7 -9
t-5 -19q-6 -17 -6 -35q0 -19 -3 -22q-1 -1 -2 -6q-1 -2 -1 -3q0 -6 -5 -11q-2 -2 -15 -10q-7 -5 -12 -5h-3q-6 0 -10 4q-4 3 -30 3q-28 2 -31 3q-5 2 -7 5q-1 2 -1 7q0 4 -5 9q-4 6 -3 11q0 6 -3 12q-4 8 -4 13q0 7 -3 13q-4 5 -4 15q0 12 -3 16q-4 8 -4 18q-2 15 -5 21
q-3 7 -3 17q1 6 -2 14q-4 7 -7 19q-4 14 -4 18q0 6 -3 12q-4 7 -4 22t-2 21l-4 6l-6 8q-4 9 -3 20q1 12 -2 16q-4 6 -5 29q0 20 -3 29q-2 5 -7 12q-4 7 -4 19t-2 18q0 1 -5 19q-2 16 -5 21q-2 5 -1 15q1 9 -4 14q-4 5 -4 22q-1 20 -3 21q-3 3 -3 7q0 3 -7 17l-5 12.5t-3 8.5
q-1 4 -12 8q-9 4 -12 1q-3 -1 -3 -16t-3 -18q-2 -4 -2 -6t-4 -8q-3 -3 -3 -9q0 -4 -4 -10q-3 -5 -3 -20q0 -13 -2 -25q0 -11 -4 -15q-2 -4 -2 -20q0 -17 -4 -22q-4 -3 -4 -16q0 -12 -3 -15q-3 -9 -3 -19q-2 -20 -4 -23t-4 -25q0 -16 -3 -19l-3 -9l-4 -12q-1 -1 -4 -6.5
t-4 -7.5q-4 -11 -3 -27q0 -19 -3 -22q-3 -6 -4 -10q0 -6 -2 -10q-2 -5 -4 -16q-5 -16 -5 -17q-3 -9 -3 -18q0 -15 -4 -22q-3 -7 -3 -17q0 -7 -4 -19q-4 -10 -7 -16t-3 -26q0 -19 -3 -22q-4 -4 -5 -4t-7 -4q-3 -5 -7 -5t-4 -5q-2 -4 -5 -7q-5 -2 -16 -1q-9 1 -16 -3
q-6 -3 -21 -3q-16 0 -25 6q-10 6 -13 12q-5 5 -5 8q0 2 -3 7q-3 3 -5 12q0 8 -4 12q-3 4 -2 23q0 19 -4 24q-4 8 -3 13q0 7 -4 17q-3 7 -3 16q0 8 -4 13q-4 4 -4 16q0 13 -4 17l-6 12q-2 3 -4 20q-2 15 -4 17q-3 3 -3 18t-4 17q-4 3 -3 12q2 10 -1 11q-2 0 -2 5t-2 5
q-1 1 0 9q0 8 -4 14q-4 7 -4 17q-1 12 -5 18t-4 12t-5 9q-4 4 -2 11q1 8 -2 12q-4 7 -3 20q1 15 -4 21q-5 5 -4 17t-3 18t-4 13q0 6 -3 11q-4 5 -4 17t-4 17q-3 5 -3 13t-4 13q-4 3 -4 7q-1 2 1 11q1 6 -5 12q-5 5 -4 7q0 3 2 11q1 7 -3 14q-5 6 -4 24q0 17 -7 24t-7 11
q0 5 7 12q6 8 7 10q0 3 4 5l7 1q7 1 12 1z" />
    <glyph glyph-name="uni0058" unicode="X" horiz-adv-x="633" 
d="M82 711q1 1 2 1q2 0 5 -4q6 -4 8 -4q4 0 10 -2q6 -4 9 -7q4 -3 2 -6t2 -6q4 -2 15 -13t11 -14q2 -5 9 -14t9 -14q4 -8 8 -14q8 -10 9 -11t5 -9q5 -8 19 -22t18 -23q7 -10 13 -15q10 -6 14 -6q8 -2 11 -6q4 -5 4 -15q0 -11 6 -23q5 -12 11 -20q6 -6 6 -9q0 -1 4 -5
q4 -2 8 -11q3 -6 6 -7t17 -1q18 0 21 6q4 6 4 10q0 1 3 10q2 5 9 8t6 9q-1 7 2 10q2 2 4 2q1 0 6 5q4 4 4 8t4 8q3 1 3 6q0 1 11 14q11 11 11 13q0 4 4 8q5 8 8 15q5 7 10 13q6 4 6 7q0 2 4 12l12 16q6 7 6 11l3 3q2 3 4 5q6 5 13 20q8 16 18 26l19 19q7 5 7 8t5 6q6 2 9 2
q4 0 8 -4q3 -4 21 -4q6 0 14 -1h7q6 -3 10 -10q4 -6 3.5 -8t-6.5 -8q-7 -7 -13 -15t-6 -9q0 -2 -6 -8q-3 -3 -15 -12q-9 -5 -9 -8v-6q0 -7 -2 -13q-1 -10 -10 -18q-9 -9 -9 -15q-2 -6 -4 -11q-2 -2 -10 -6q-6 -2 -10 -6q-2 -3 -5 -10t-7 -10q-6 -2 -7 -10q-1 -7 -10 -16
q-10 -8 -10 -13q0 -3 -6 -11q-7 -7 -10 -7t-6 -6q-4 -7 -8 -13q-6 -6 -5 -12v-19q0 -11 -2 -17q-2 -7 -10 -13q-9 -9 -10 -15q0 -7 -4 -13q-3 -4 -3 -22q-1 -18 2 -22q1 -3 5 -7q3 -3 3 -6q0 -4 7 -11q5 -5 11 -14q2 -7 18 -21q14 -16 16 -21q0 -5 9 -12q7 -9 7 -11t8 -8
l10 -10q1 -4 13 -16q11 -11 11 -14q0 -2 10 -12q7 -8 16 -22q8 -12 12 -14q3 -1 9 -11q7 -11 14 -20q10 -12 10 -14q0 -4 6 -9q6 -6 6 -11t2 -9q2 -5 7 -7q3 -2 9 -11q5 -13 5 -15q0 -4 -6 -10q-5 -4 -23 -4q-17 -2 -26 0q-8 0 -11 3q-4 2 -10 2t-8 2t-6 10q-3 6 -3 11
q0 3 -6 7q-4 1 -11 8q-6 6 -8 6q-3 3 -4 6l-5 7q-2 2 -7 12q-6 10 -7 10l-8 10q-4 8 -7 15q0 3 -7 12q-6 7 -8 11q-5 8 -7 9q-3 3 -9 5q-6 3 -6 7t-6 10q-8 7 -9 15q-4 9 -9 18q-6 7 -6 13q0 4 -7 8q-7 5 -8 8q-1 2 -4 9q0 4 -14 15q-14 10 -18 18q-3 8 -13 18q-7 8 -25 9
q-13 1 -16 0t-7 -8q-10 -13 -11 -14q-4 -4 -4 -6q0 -3 -5 -6t-9 -13q-7 -13 -11 -16q-3 -3 -12 -15q-5 -6 -7 -15q-4 -8 -6 -9q-4 -2 -14 -12q-9 -9 -8 -12q0 -4 -4 -8q-5 -5 -11 -13q-6 -6 -8 -14q-2 -6 -2 -11q-2 -5 -8 -10q-5 -5 -11 -15q-5 -7 -5 -13q0 -3 -6 -11
q-6 -6 -11 -6q-3 0 -8 -7t-5 -10q0 -4 -3 -9q-4 -6 -16 -18q-10 -12 -20 -19q-7 -5 -28 -5q-23 2 -25 3q-4 4 -12 4q-8 2 -10 3q-2 2 -2 3l6 8q1 2 3 5t2 4q0 2 4 8q5 7 8 15q6 10 17 18q12 10 17 19q5 10 18 23q4 4 9 10l6 7q1 3 6 5q3 0 8 9q5 10 5 16q0 8 8 16q7 7 11 7
q1 0 7 3q2 4 2 10q0 7 10 16q11 11 12 15q4 6 6 7q4 2 4 5q0 4 5 9q6 6 6 8v5q1 1 1 3q0 1 7 10q6 5 8 13q2 6 4 6q4 4 7 8q3 7 8 9t8 6q2 4 10 8t9 9q0 2 0.5 6t0.5 5q0 7 3 14t2 14q-2 8 -3 9q-2 2 -2 5t-4 7q-4 6 -4 10t-4 6t-11 9q-6 8 -8 8q-3 0 -10 11q-8 9 -8 16
q0 8 -3 9q-1 3 -7 3t-10 4q-3 4 -3 11q0 2 -1 5v3q-2 4 -9 9t-20 20q-12 14 -12 17q0 2 -6 8q-1 1 -3.5 6t-3.5 6q-2 8 -9 13l-9 12q-1 3 -14 18q-12 12 -12 14t-6 10q-6 6 -10 17q-4 10 -11 14q-6 5 -6 9q0 2 -2 8q-3 6 -7 10q-5 6 -5 12q2 5 9 8q10 5 14 5q9 2 11 4
q4 2 8 2q5 0 7 2z" />
    <glyph glyph-name="uni0059" unicode="Y" horiz-adv-x="673" 
d="M601 729q2 3 13 3q9 -2 18 -5q8 -4 19 -4q10 0 12 -2q2 -4 1 -9q0 -6 -6 -14t-6 -10q0 -5 -19 -22q-14 -14 -16.5 -18t-2.5 -13q0 -11 -3 -14l-8 -4q-3 0 -10 -5q-6 -6 -6 -8t-2 -6q-3 -3 -3 -8t-2 -5q-1 0 -10 -9q-8 -7 -10 -15q0 -5 -3 -8q-2 0 -10 -8t-13 -21
q-6 -14 -12 -19t-8 -10q0 -6 -6 -12q-1 -2 -5.5 -7.5t-6.5 -7.5q-5 -8 -15 -18t-14 -18q-4 -10 -4 -11q0 -2 -7 -9q-6 -6 -10 -6t-8 -8t-8 -11q-5 -3 -5 -7q-2 -6 -5 -12t-9 -14q-6 -4 -6 -10q0 -3 -7 -10q-7 -9 -7 -12q0 -4 -4 -8q-3 -4 -3 -13t-6 -14q-5 -5 -4 -11l2 -22
q0 -18 4 -22q4 -6 4 -8q0 -4 -5 -7q-4 -4 -4 -23q0 -10 1 -46q0 -63 3 -71q3 -5 3 -18t-4 -18q-3 -3 -3 -8q0 -4 -3 -7t-5 -3l-6 -6q-3 -5 -7 -5t-7 -3q-4 -3 -14 -3q-9 0 -18 8q-9 7 -11 7q-3 0 -6 5q-2 6 -2 8t-3 8q-3 3 -3 32q0 28 2 30t2 5q0 1 -4 5q-3 2 -2 7l2 66
q0 59 4 68q4 10 4 17q0 9 -4 13q-4 5 -4 23q0 13 -2 16.5t-12 13.5q-13 13 -13 23t-4 14q-1 4 -13 12q-10 6 -13 6q-6 0 -9 3q-4 4 -5 10q-2 8 -6 10q-1 1 -6.5 5t-7.5 6q-9 8 -9 15q0 10 -10 20q-11 13 -11 14q0 3 -2 5t-5 2q-2 0 -7 3q-3 3 -5 12q-2 12 -5 16q-4 8 -15 19
q-10 11 -14 20l-3 6t-2 5q-2 1 -4 8q-2 6 -8 10q-7 5 -7 7q0 3 -10 15q-10 13 -14 13q-1 1 -5 2t-5 1q-4 1 -7 10q-3 6 -3 12q0 3 -6 9q-6 8 -6 10q0 3 -4 7q-3 3 -3 7q0 5 -7 6q-7 2 -9 5q-2 2 -4 15q0 12 1 14q1 1 10 1q8 0 14 4q4 2 21 4q16 1 27 -7q8 -6 16 -9
q5 0 11 -6q5 -5 5 -11q0 -7 8 -12q5 -6 9 -6q2 0 4 -7q4 -8 8 -12q1 -1 4.5 -5.5t4.5 -6.5q5 -5 5 -10q0 -4 6 -16l7 -14q3 -3 3 -7q3 -7 10 -12q6 -8 11 -10q3 0 5 -5q1 -2 8 -7q7 -3 14 -14q6 -10 8 -10t4 -10q5 -13 10 -18q7 -5 9 -13q1 -5 6 -12q4 -4 4 -8q0 -2 7 -5
t7 -9q1 -6 5 -11q5 -5 5 -9q-1 -4 5 -10q7 -5 12 -7q3 0 8 -5q3 -4 8 -3h8q4 -4 6 -8q3 -7 11 -7q6 0 14 2q7 2 8 6q2 4 15 17q3 4 8.5 11t6.5 8q0 1 3 6t4 8q3 5 11 13q7 3 7 6q0 1 6 9q7 5 15 23q10 18 11 19l2 4q2 3 3 5q3 5 8 8q6 3 7 11q3 9 7 11q6 4 6 7q0 4 3 5
q1 2 7 5q3 1 8 6q2 4 6 16q2 7 7 17q4 6 4 12q0 7 6 13q4 4 7 10q0 5 4 7q2 2 7 2t6 3l7 7q4 4 6 11q0 5 5 10q6 9 8 13q5 8 9 10q2 2 7 2q4 0 8 4z" />
    <glyph glyph-name="uni005A" unicode="Z" horiz-adv-x="660" 
d="M274 720q5 3 14 3t15 -2t27 -4q19 0 25 2q6 1 12 -1q6 -3 15 -2q7 1 51 1h37q81 0 86 2q8 2 8 3q1 1 10 1q8 0 13 -4t10 -15q4 -10 4 -14t4 -14t4 -13t-6 -15q-5 -10 -10 -15q-3 -6 -4 -10q-2 -8 -7 -15q-5 -8 -9 -10q-1 0 -7 -8q-4 -8 -11 -10q-4 -2 -12 -10
q-6 -10 -10 -18q-2 -5 -7 -13q-2 -2 -2 -3q-4 -4 -8 -4t-8 -4q-2 -2 -5 -8q0 -2 -3 -8q-3 -5 -5 -5q-2 -2 -3 -4t-4 -7t-4 -7q-3 -5 -10 -12q-3 -3 -3 -7t-6 -8q-5 -3 -5 -7q0 -1 -6 -5q-6 -1 -8 -6q-2 -4 -9 -9q-5 -4 -10 -11q-2 -6 -7 -9q-6 -2 -8 -7q-6 -6 -9 -8
q-6 -2 -6 -8q0 -5 -8 -12q-6 -4 -13 -13q-4 -6 -9 -8l-12 -6q-6 -6 -7 -14t-15 -22q-13 -15 -19 -17q-6 -3 -9 -9q-6 -8 -6 -14q-2 -7 -3 -8q-2 -2 -4 -2q-1 0 -18 -17q-15 -15 -17 -21q-2 -7 -4 -8q-2 -4 -8 -4q-5 -1 -8 -9q-3 -6 -9 -12q-6 -4 -17 -15t-11 -15t-12 -16
q-13 -13 -13 -16q0 -4 -8 -10q-6 -6 -7 -9t-1 -16q-1 -17 3 -19q4 -3 31 -3h15q12 0 16 -3q4 -4 9 -4q6 0 16 5q11 5 15 7t13 2q5 1 14 -2q7 -4 23 -4q17 0 23 3q5 2 12 0q8 -3 92 -3t90 -3q3 -3 12 -3q8 0 21 5q17 7 20 8q8 1 13 -2q3 -4 9 -7q5 -4 7 -7q2 -6 2 -14
q0 -10 -4 -14q-3 -5 -3 -7t-6 -12q-4 -7 -8.5 -8t-26.5 -1q-27 0 -35 4q-6 4 -38 4h-37h-17q-11 0 -14 -3q-2 -2 -4 -2t-8 2q-5 3 -15 0q-9 -4 -29 -5q-22 0 -24 1t-11 -1q-8 -3 -14 -1t-9 2q-2 0 -6 -4q-3 -3 -11 -3t-11 3t-18 3q-14 0 -24 -2q-1 -1 -15 -4q-9 0 -13 3
q-8 4 -70 4h-33h-16.5h-13.5h-5q-4 0 -10 6t-7 19q-2 16 -4 18q-3 7 -6 16t-3 11q0 3 5 8q4 4 10 12t6 9q0 3 5 10q4 5 6 12q2 4 9 12q7 7 9 7t4 7t12 16q3 3 9 8.5t7 6.5q5 4 14 15q6 7 11 15q1 4 7 10q5 3 5 7q0 5 5 10q2 4 14 16q15 12 17 14q7 5 14 15q5 8 13 13
q6 1 7 9q2 7 21 26q20 20 20 23q0 5 1 8q2 5 10 8q9 4 11 9q3 5 8 8q3 0 10 13q7 12 12 17q6 4 6 8q3 6 6 7q4 4 4 6t3 5q3 0 7 6q3 3 11 13q9 7 9 11t5 7q6 4 6 8q1 2 8 7q7 4 9 7q2 4 9 11q1 2 7.5 8t8.5 9q11 9 11 13q2 3 7 7q7 3 7 7q2 6 4 8q3 3 5 3q1 0 2.5 1.5
t2.5 1.5q1 2 9 8q7 5 7 7q2 4 6 7q5 3 5 7t5 11q4 8 4 18q-2 10 -4 11q-1 1 -11 5q-11 3 -33 3q-23 1 -28 -3q-5 -3 -59 -3h-57h-59q-62 0 -71 1q-18 2 -20 4q-4 2 -11 -2t-18 -3q-13 0 -19 3q-6 4 -16 4l-16 4q-6 4 -11 13q-5 10 -3 15q0 5 4 11q7 6 14 9q8 4 14.5 4.5
t38.5 1.5h47h45h23q17 0 22 2z" />
    <glyph glyph-name="uni005B" unicode="[" horiz-adv-x="390" 
d="M213 805q14 2 34 2q24 -1 28 -4q4 -2 7 -2q4 0 12 -8q6 -7 6 -15q-2 -6 -4 -11q-2 -4 -28 -4q-31 0 -35 -1q-10 -2 -12 -4l-5 -0.5t-9 -0.5q-10 0 -13 -3t-3 -4q0 -2 -3 -7q-3 -3 -3 -16q0 -6 1 -28v-43q0 -7 -1 -12q0 -2 -0.5 -6l-0.5 -4q0 -1 0.5 -5t0.5 -6q1 -5 1 -18
q0 -6 -2 -30t-2 -25t0.5 -9t0.5 -14q1 -14 1 -50v-30v-66v-39q0 -33 3 -42q3 -5 5 -15q1 -4 1 -11v-71q-1 -68 -4 -73q-4 -5 -2 -10q0 -1 1 -3q3 -7 5 -10q4 -10 2 -15q-1 -3 -3 -37q0 -30 -2 -36q0 -6 4 -15q4 -10 1 -20q-3 -8 -3 -10.5t4 -7.5t4 -14q0 -6 4 -9q2 -1 11 -1
q6 1 11 -1q6 -3 7 -3q4 0 10 -2q7 -3 10 -2q6 3 8 5q5 5 9 5h12q9 0 19 -9q10 -8 10 -10q1 -1 1 -3.5t-1 -4.5q-2 -4 -6 -8t-12 -7q-9 -3 -59 -3q-29 -1 -55 -1h-16q-10 1 -12.5 2t-7.5 6q-8 6 -8 9v4.5t-0.5 11.5t-0.5 16.5v21.5v24v24v21.5t-0.5 16.5t-0.5 11.5v4.5l2 21
q0 20 -4 31q-5 13 -4 21q2 9 1 12v20q0 16 4 24q4 9 3 11q0 21 -1 41q0 40 -1 43v12q0 6 2 10q2 5 0 20q-1 15 -6 24q-4 6 -4 7.5t3 5.5q4 6 4 10q0 8 -3 12q-2 6 -2 53t-2 51q-2 6 0 12q2 4 2 76t-3 76q-4 6 -4 19q-1 7 -1 9q0 6 4 10q3 3 3 15q0 11 -3 15q-2 4 -2 10
q0 7 3 13q4 8 4 23q0 14 2 16q2 3 13 5q14 2 25 1q19 0 25 1q18 3 20 4z" />
    <glyph glyph-name="uni005C" unicode="\" horiz-adv-x="242" 
d="M-27 820q1 1 7 1q8 -3 17 -12q11 -11 11 -13q0 -3 2 -5q3 -3 7 -11q5 -8 5 -16q0 -6 4 -10q3 -2 2 -11t4 -19q6 -10 8 -12q3 -3 3 -20q0 -19 5 -28q6 -11 8 -20l6 -18q2 -10 1 -14q-1 -6 4 -11t4 -11q-2 -7 1 -11q4 -3 4 -8t6 -8q5 -3 5 -6q0 -2 2 -6q4 -4 2 -9
q-1 -6 2 -13q2 -7 1 -8q0 -2 2 -4l6 -12q0 -2 1.5 -6.5t1.5 -6.5q0 -3 3 -6q3 -6 3 -17q1 -15 6 -17t7 -6l1 -7q1 -7 1 -12q1 -14 5 -18q3 -2 2 -10t6 -21q8 -15 8 -24q2 -8 6 -19q8 -13 10 -16q6 -6 6 -12q0 -4 4 -8t3 -16t2 -19q3 -3 3 -10q-1 -5 4 -10q4 -5 4 -18t4 -19
q5 -10 5 -11q0 -4 2 -10q3 -3 3 -11t3 -11q4 -6 4 -8t4 -6q5 -3 5 -7q0 -5 4 -8q4 -4 2 -10t3 -17q5 -12 5 -14q0 -5 7 -12q7 -8 7 -13q0 -7 3 -10q4 -4 4 -8q0 -5 2 -7t4 -10q0 -9 4 -11q4 -1 4 -9t3 -12q2 -2 7 -14l4 -9q0 -1 -2 -3l-6 -6q-9 -9 -11 -10q-1 0 -11 -3
q-11 0 -17 2q-8 4 -10 6q0 2 -2 8q-2 5 -7 11q-6 7 -6 20q-1 13 -6 18q-4 7 -3 12q0 8 -3 10q-3 4 -4 17q0 14 -4 21q-3 6 -2 15q2 9 -1 9q-1 0 -5 7q-4 9 -6 9q-1 1 -1 5q0 5 -5 13q-4 9 -3 10q-1 6 -4 11q-4 10 -4 17t-8 15q-8 9 -7 16q0 10 -3 18q-3 7 -3 19q0 9 -3 15
q-5 5 -3 15q0 12 1 14q1 6 -7 14q-9 8 -9 13q0 1 -1.5 6t-1.5 7q-1 2 -7 17q-4 10 -4 14q0 5 -2 5q-3 3 -6 11q-5 10 -5 23q-1 13 -7 20q-6 10 -7 21q-4 14 -7 17q-3 4 -3 8t-2 6q-2 1 -2 8t-4 12l-5 10q-2 4 -4 6q-3 3 -3 8q0 7 -3 13q-3 4 -5 15q0 8 -2 12q-2 2 -2 17
q-1 15 -8 22q-6 8 -9 14q-3 12 -4 19q-2 14 -5 20q-4 10 -4 15q0 9 -4 16t-4 12q1 4 -2 12q-4 6 -4 9q0 4 -6 8q-5 5 -7 12v15q1 8 -6 23q-7 14 -9 20q-1 3 -1 4q0 3 4 7q3 6 5 12q0 1 1 3.5t2 3.5z" />
    <glyph glyph-name="uni005D" unicode="]" horiz-adv-x="387" 
d="M88 807q4 6 10 7t36 1q40 -1 51 -6q12 -6 15 -6q3 -1 11 2q6 4 18 3q10 -2 17 -4q4 -3 8 -12q3 -7 2 -15q-2 -10 -1 -11q1 -2 1 -59q-1 -31 -1 -40q0 -16 3 -22q4 -6 4 -12q0 -4 -4 -12q-3 -8 -2 -12q0 -4 4 -6q4 -1 3 -17q-2 -18 -4 -21q-1 -3 -2 -10q-1 -3 -1 -5
q-1 -8 2 -15q4 -7 5 -23q1 -18 -2 -19q-3 0 -3 -4q-2 -4 -2 -17q-1 -13 3 -18q3 -4 3.5 -10t0.5 -37q0 -41 -2 -45q-3 -2 -3 -12t4 -14q3 -6 3 -10q0 -7 -4 -11t-5 -17t4 -22t3 -19t1 -28q2 -18 -1 -24q-3 -5 -1 -10q1 -2 1 -29q1 -14 1 -50v-31v-49v-24q0 -19 2 -25
q3 -4 3 -10t-3 -12q-2 -8 -2 -20q0 -15 1 -16q2 -2 0 -6t-4 -10q0 -5 -8 -13q-5 -5 -11.5 -6t-40.5 -2h-53q-17 0 -29 1q-15 1 -18.5 2t-8.5 6q-6 8 -6 10q0 6 -1 9q-1 6 4 11t12 7q6 3 14 5q6 3 12 3q5 0 12 -5t10 -5q1 0 17 4q12 5 21 5q6 0 7.5 1.5t5.5 9.5q6 13 5 21
q-1 5 -1 12v28v29q0 21 1 43q0 12 -0.5 31.5t-0.5 21.5q-2 13 -4 18q-3 5 -3 25q0 21 4 27q5 8 5 15q0 5 -2 13q-2 6 -4 14q-1 10 2 15q4 8 4 14l-3 21q-1 5 -4 28q0 16 3 19q3 4 3 58v21t-0.5 18t-0.5 12v5q-2 3 -3 5q-4 4 -3 12q0 3 3 18q3 10 0 16q-3 4 -3.5 16.5
t-0.5 77.5v113q-1 25 -5 28q-5 3 -10 5q-9 2 -22 1q-9 -1 -23 -1t-24 1q-18 0 -22 4t-6 10q-3 9 -5 14q-2 7 -2 8t1 3q3 3 9 11z" />
    <glyph glyph-name="uni005E" unicode="^" horiz-adv-x="485" 
d="M221 738h18q16 -2 18 -3q3 -3 8 -3q4 0 10 -4t8 -9q4 -5 2 -12q-1 -6 2 -9q5 -5 8 -7t3 -13q0 -10 7 -19q8 -8 8 -13l1 -4q2 -4 3 -5l4 -12q2 -7 8 -10q5 -3 6 -5t-1 -11q-1 -11 4 -20q4 -9 3 -11q0 -5 2 -7q3 -6 3 -7q0 -3 4 -11q5 -5 5 -10q0 -2 5 -7q6 -6 9 -16
q6 -12 7 -12q2 -2 4 -7q3 -9 3 -15q2 -10 8 -16q6 -9 7 -15q0 -5 3 -11t4 -10q0 -5 3 -8q3 -2 3 -8q0 -4 4 -12q6 -8 6 -11q2 -3 0 -8q-2 -4 4 -14q7 -9 7 -13t-3 -6q-2 -2 -14 -1q-13 0 -16 -1q-4 -1 -16 0q-13 4 -13 5q-4 5 -5 6q-3 3 -3 16q0 11 -7 18t-10 14q-5 8 -5 19
q0 10 -7 16q-7 7 -7 10q0 4 -4 12q-5 8 -5 16t-4 15q-5 8 -9 11q-4 2 -6 9q-3 6 -2 13q2 7 -1 13q-4 6 -4 13q0 9 -4 14q-4 6 -6 12q-3 4 -5 13q0 7 -4 11q-5 5 -8 13q-6 15 -7 17q-2 2 -4 6l-2 3q-6 0 -11 -2q-8 -1 -11 -5q-3 -6 -5 -8q-3 -3 -10 -21q-7 -17 -7 -24
q0 -6 -4 -12q0 -1 -1.5 -5.5t-1.5 -5.5q0 -3 -2 -7q-2 -2 -4 -11q-1 -2 -2 -7t-1 -6q-1 -4 -10 -17q-8 -12 -7 -20t-7 -24t-8 -23q-2 -10 -4 -12q-2 -4 -2 -7q0 -4 -5 -7q-4 -6 -4 -7t-3 -4t-2 -9t-1 -13q-1 -2 -3 -4.5t-2 -3.5q-3 -2 -3 -7t-5 -10q-3 -5 -11 -9
q-5 -4 -16 -4q-12 0 -16 -2q-3 -3 -9 -3q-3 0 -11 4q-6 5 -8 8q0 3 4 11q3 3 8 15q1 3 5 12q3 6 3 11q0 7 6 13q7 7 7 14q0 6 6 15q7 8 7 15t3 10q2 3 5 9t4 9q4 4 4 15q2 11 6 18l6 12q2 4 2 13q0 8 5 13q5 6 7 10l3.5 7t3.5 6q5 7 5 12t5 12q3 5 5 15q2 6 4 10q2 1 5 9
q1 2 4 17q2 13 6 17q5 7 7 14q2 10 6 12q4 3 3 11q0 8 4 11q1 1 4 3.5t4 3.5q4 4 2 7q0 3 1 4q6 3 7 3z" />
    <glyph glyph-name="uni005F" unicode="_" 
d="M516 -9q6 4 23 4q18 -1 22 -4q5 -3 11 -3q7 0 8 -7q2 -6 6 -10q3 -4 3 -7q0 -4 -6 -7q-6 -6 -6 -7q0 -3 -5 -5q-4 -3 -17 -3t-17 -3q-3 -3 -58 -4h-57q-4 0 -7 1q-5 1 -11 -4q-4 -6 -8 -6t-11 5q-8 5 -22 5q-4 0 -16 -0.5t-16 -0.5q-15 -2 -20 1q-5 1 -14 -2q-9 -2 -14 0
q-4 2 -37 2q-18 -1 -35 -1q-16 0 -32 1h-14.5h-12.5l-5 1l-10 -1h-17q-12 -1 -33 -1q-11 0 -14 -3q-6 -3 -9 -3q-7 -1 -10 3t-19 4q-14 0 -20 3l-9 6q-3 2 -5 7q0 5 -2 7q-1 2 4 11q4 6 13 9q7 2 8 5q3 3 19 3t21 4q4 4 23 3q15 -1 23 -4q2 -2 9 -2q8 0 12 3q7 4 13 3
q10 -3 16 -6q8 -4 13 -3q4 2 26 2q24 0 27 2q5 4 25 4h14h18h17q30 -1 35 -5q5 -2 30 -1q22 1 25 3q1 3 17 3q15 0 19 -3q3 -3 43 -3q39 0 46 4z" />
    <glyph glyph-name="uni0060" unicode="`" horiz-adv-x="340" 
d="M61 752q0 2 7 0q2 0 5.5 -0.5l3.5 -0.5q2 0 14 2q12 0 15 -3q6 -4 8 -4q5 0 13 -8q9 -8 11 -14q4 -8 5 -9q3 -3 3 -6q0 -4 6 -10q6 -7 8 -11q0 -1 8 -11q6 -8 5 -9l4 -10q9 -12 11 -14q6 -8 6 -11q0 -2 3 -8q2 -2 6 -10t4 -11q0 -5 5 -12q3 -4 11 -12q5 -5 5 -9
q0 -5 4 -9q2 -3 2 -4.5t-2 -5.5q-2 -6 -8 -8q-3 -2 -22 -4q-9 -1 -12 -1q-6 0 -14 5q-8 6 -10 6q-1 0 -7 4q-4 6 -5 8l-5 7q-5 7 -9 12q-2 2 -21 26q-9 11 -10 15q-6 9 -10 13q-9 11 -12 13l-12 12l-13 13q-7 7 -13 17q-6 11 -9 13q-6 4 -10 11q-5 7 -5 12q0 4 5 9
q6 7 17 10q12 5 14 7z" />
    <glyph glyph-name="uni0061" unicode="a" horiz-adv-x="469" 
d="M309 252q-3 4 -7.5 5t-29.5 1q-33 0 -40 -5q-7 -4 -23 -3q-14 1 -19 -2q-6 -4 -12 -7q-10 -4 -14 -4q-6 0 -10 -2q-2 -1 -9 -8q-3 -7 -10 -11t-7 -7q0 -1 -3 -7q-3 -4 -3 -7q1 -1 -3 -8q-5 -5 -5 -8v-10q0 -8 -2 -10q-1 -1 -1 -12q1 -3 1.5 -11t0.5 -11q0 -10 4 -22
q9 -15 14 -20q10 -12 14 -16q5 -6 19 -6t18 -4t7 -4q2 0 5 1q8 2 17 2q8 -2 14 2q6 3 14 3q10 2 15 5l6 2q1 0 5 2t4 5q0 4 5 7q6 2 10 8q1 1 5.5 6t6.5 7q8 8 7 12q0 5 5 13t5 19q0 9 4 15q2 4 4 20q1 8 1 38q0 22 -3 25q-2 2 -4 2q-1 0 -6 5zM222 506h3h3h3q3 -1 33 -1
q31 -1 34 -4q9 -3 10 -3q5 0 8 -3q6 -4 8 -4q5 0 9 -6q3 -5 10 -7q6 -3 8 -5q1 -3 8 -10q6 -4 6 -8q0 -2 7 -9t7 -11q0 -3 5 -10q4 -6 4 -10q0 -1 3 -10q4 -4 4 -18q0 -7 -1 -27q0 -40 3 -44q3 -5 3 -8q0 -5 -3 -8q-3 -6 -2 -24v-25q0 -26 -1 -73v-35q0 -31 1 -41
q1 -2 4 -13q2 -4 2 -25q0 -5 0.5 -11t1 -9.5t0.5 -4.5q0 -8 -1 -14q0 -12 -4 -13q-1 0 -19 -5q-17 -4 -28 -3q-14 1 -17 6q-4 4 -4 14q-3 13 -4 15q-1 4 -7 6q-1 0 -6.5 0.5t-8.5 0.5q-8 0 -16 -5q-7 -3 -9 -8q-2 -2 -10 -8q-8 -4 -9 -4q-2 0 -6 -6q-5 -5 -9 -5q-2 0 -4 -2
q0 -2 -6 -4q-1 -1 -5 -3t-5 -3q-4 -3 -8 -3q-3 0 -8 1q-10 1 -23 1h-13q-12 -1 -16 -1q-9 0 -15 4q-2 1 -16 4q-10 0 -14 4q-2 2 -12 7q-4 2 -10 8q-2 4 -10 10t-10 11t-11 14q-9 11 -13 18q-4 10 -4 11q0 2 -4 10q-4 7 -4 38q0 30 2 34q2 2 4 11q0 8 4 14q3 5 3 8q0 2 4 6
t4 8q-1 4 3 6q6 4 7 8l11 16q6 9 23 18q18 8 21 8q5 0 11 4q5 5 10 5t5 1q2 2 9 4q9 2 10 5q6 3 15 3q12 0 16 3q3 3 15 3q10 0 17 4q7 3 44 4q37 0 43 5q5 5 6 10t1 31q0 35 -4 43l-5 15q0 2 -3 8q-3 2 -3 6q0 5 2 7q2 3 -1 6t-5 3q-1 0 -8 5q-6 6 -8 6l-10 4q-8 3 -12 7
q-3 4 -13 4q-10 1 -17 -3q-10 -4 -26 -4q-10 -1 -20 -1q-1 0 -6 -5q-4 -4 -12 -3q-7 1 -17 -9q-9 -11 -12 -20q-4 -10 -6 -14q-4 -6 -9 -11q-8 -8 -12 -10q-7 -4 -16 -4q-10 2 -15 -1q-7 0 -10 1q-6 2 -8 6q-4 4 -4 13q-1 9 5 19q6 9 4 11v3q1 1 7 5q5 2 5 6q1 5 3 6
q1 1 8 1q5 0 17 4q11 4 14 7t4 7q3 6 5 8q3 4 6 4l9 3l14 7q11 4 20 4q9 -1 17 2q6 4 12 4t10 2z" />
    <glyph glyph-name="uni0062" unicode="b" horiz-adv-x="575" 
d="M308 450q-3 3 -5 3q-3 0 -5 -1q-5 -3 -14 -1q-10 1 -21 -3q-9 -3 -15 -3q-3 0 -9 -3q-4 -3 -11 -3q-8 0 -12 -5q-3 -5 -7 -5q-1 0 -11 -8t-12 -10q-2 -1 -10 -11q-6 -10 -6 -11q-2 -6 -5 -12q-2 -6 -8 -18q-4 -8 -2 -10q0 -4 -3 -7q-4 -5 -4 -23t-4 -23q-3 -6 -4 -43v-41
q0 -10 1 -18q0 -8 3 -20q2 -3 4 -14q0 -7 4 -13t4 -9q0 -4 3 -10t3 -13q-2 -6 1 -11q2 -4 4 -4q3 0 9 -6q1 -1 8 -7t11 -9q10 -7 15 -12q2 -3 9 -5q4 0 11 -5q2 -4 9 -8q4 -2 15 -2q10 0 15 -3q4 -2 28 -2q23 0 25 2q6 3 10 4q4 0 12 5q6 3 11 2q6 -1 10 3q5 5 6 5l10 6
q8 6 11 6q5 2 9 11q7 11 8 15q6 9 8 11q0 1 3 5.5t4 5.5q3 9 3 12q-1 4 3 11q2 5 4 22q1 14 4 22q3 5 3 57q0 53 -4 63t-4 14q0 6 -3 18q-4 13 -9 27q-5 8 -8 18q-3 9 -3 10q-2 5 -8 8q-7 4 -9 7q-4 4 -11 7q-8 6 -9 11q-2 6 -6 8q-2 2 -21 1q-18 -1 -23 3q-6 4 -9 4
q-5 2 -6 5zM97 718q8 4 10 4t6 -4q1 -4 5 -4q2 1 8 -1q5 -3 5 -5t5 -7t5 -39t4 -41q4 -8 0 -16q-4 -9 -4 -29q-1 -21 4 -30q4 -8 0 -20q-5 -10 -5 -20q0 -4 1 -15q0 -22 3 -28q4 -7 8 -9q6 -4 10 -4q5 0 17 4q14 5 24 12q13 9 14 9q2 0 4 2q3 3 15 8q3 1 10 3t8 2q2 0 15 5
q10 4 11 4q4 0 10 3q8 2 18 2q8 -1 17 1q6 1 16 -3q8 -4 18 -4q1 0 7 -0.5t9 -0.5q9 -2 11 -4q2 -3 5 -3q5 0 9 -4q10 -5 15 -7q9 -2 18 -9q10 -8 11 -12q2 -5 7 -5q5 -1 18 -14q12 -12 12 -16q1 -4 9 -10t9 -13t5 -11q4 -2 6 -7q2 -4 2 -15t5 -19q4 -10 4 -16q0 -8 3 -11
q4 -3 4 -22q0 -9 -1 -42q-1 -61 -6 -70q-4 -9 -2 -17q2 -7 0 -16q0 -7 -4 -17q-1 -4 -6 -14q-4 -6 -4 -9t-6 -8q-5 -7 -7 -12q-2 -7 -6 -13q-3 -7 -8 -9q-4 -2 -4 -4q0 -1 -13 -16q-15 -13 -17 -13q-3 0 -10 -5q-6 -6 -9 -6t-9 -6q-8 -6 -9 -6q-3 0 -10 -5q-8 -6 -15 -6
q-10 -3 -15 -5q-6 -3 -40 -4q-32 0 -36 -2q-3 -1 -4 -1q-3 0 -7 5q-6 6 -15 7q-6 0 -15 3q-6 3 -11 3t-11 6q-9 6 -15 9q-9 4 -9 6l-1 2q-1 2 -2 2q-1 1 -7 1q-5 0 -11 7q-6 6 -19 7q-10 1 -12 0t-4 -6q-3 -7 -5 -15t-8 -14q-6 -8 -10 -10t-14 -2q-14 0 -18 1q-9 2 -14 5
q-5 5 -7 9q-3 4 -3 85q-1 45 -1 88v46v46q0 29 1 59q0 17 0.5 43.5t0.5 29.5q0 20 -2 24q-1 2 -1 5t1 5q1 3 1 72q-1 36 -1 71v10q1 10 1 17q0 6 -0.5 19t-0.5 17q0 19 1 27q0 15 3 20q2 6 4 8q0 2 7 2t14 5z" />
    <glyph glyph-name="uni0063" unicode="c" horiz-adv-x="486" 
d="M244 505q3 0 8 0.5t6 0.5q7 0 13 -3q7 -4 37 -4q23 -1 28 -2t13 -6q11 -7 17 -6q6 0 8 -1l4 -4l1 -1q0 -2 9 -9q10 -6 11 -6q2 0 8 -6q5 -5 11 -9t7 -10q0 -5 6 -11q5 -3 8 -13q2 -9 6 -15q3 -5 2 -26q-1 -16 -2 -19t-8 -7q-8 -5 -27 -6t-25 2q-3 1 -8 6q-2 6 -2 8
q0 3 -7 12q-6 10 -6 13q0 4 -2 10q-3 6 -7 12q-5 7 -5 9q0 4 -8 6q-9 4 -14 11q-6 8 -15 9q-6 1 -11 4q-6 3 -15 3q-12 2 -14 4q-3 3 -13 2q-8 0 -20 -6q-17 -5 -20 -5q-8 0 -15 -4q-2 -2 -11 -6q-5 -2 -6 -7q-3 -6 -8 -7q-4 0 -12 -8q-7 -9 -7 -12t-3 -6q-3 -2 -3 -6
q0 -5 -4 -9q-4 -6 -4 -12q0 -8 -3 -11q-3 -4 -4 -17q0 -16 -3 -23.5t-3 -28.5v-27v-39q0 -31 4 -38q3 -5 3 -17q0 -13 4 -17q3 -9 4 -14q0 -1 1 -4q1 -7 2 -8q0 -1 3 -6.5t5 -8.5q2 -4 11 -19q6 -10 9 -10q2 -1 8 -7q3 -5 12 -11q9 -4 10 -3t7 -3q5 -3 12 -5q6 0 10 -4
q3 -3 19 -2q5 0 12 0.5l7 0.5h14q13 0 19 3q2 0 11 5q1 1 10 7q7 4 16 16q13 15 14 18q2 2 4.5 5.5t2.5 4.5q4 4 4 7q2 5 7 12q7 9 13 13q8 7 16 7q11 0 21 -3q4 -1 9 -2t6 -1q4 -4 5 -7q2 -5 2 -10l-4 -18q-4 -8 -4 -16q0 -10 -5 -13q-5 -2 -11 -11q-6 -6 -6 -11
q0 -3 -8 -7q-12 -9 -13 -10q-5 -5 -8 -5q-2 0 -6 -4q-4 -3 -8 -3q-3 0 -9 -8q-7 -8 -13 -8q-7 0 -13 -3q-7 -3 -19 -5q-15 -2 -17 -3q-3 -1 -40 -3h-41h-11q-7 0 -15 5q-11 4 -12 7q-2 3 -10 3q-8 -1 -10 1q-4 4 -12 7q-10 3 -13 10q-4 6 -9 8q-3 2 -8 7q-3 5 -12 10
q-8 6 -10 8q-3 6 -4 9q-2 6 -9 12q-7 7 -9 11q0 5 -4 9q-4 6 -4 8t-4 6t-4 12q1 6 -2 16q-4 10 -4 13q0 5 -3 11q-4 6 -4 10q0 5 -3 8q-3 6 -3 65q-1 32 -1 41q0 21 5 28q4 6 3 17q0 11 2 13t4 8q0 5 5 12q4 4 3 13q-1 6 3 9q3 3 6 9q4 9 6 9q5 3 8 7q5 5 5 10t5 10q6 4 7 4
t3 5q0 4 6 8l9 6l8 5q8 6 14 10q20 14 24 14q8 0 11 1q6 2 6 5q1 2 11 2t12 3q7 4 14 5z" />
    <glyph glyph-name="uni0064" unicode="d" horiz-adv-x="582" 
d="M312 452q-4 3 -24 3q-8 1 -16.5 1t-12.5 -1q-12 -2 -14 -4q-3 -3 -10 -3q-6 1 -9 -3q-6 -6 -12 -7q-9 -2 -17 -7q-11 -3 -18 -11q-7 -9 -7 -11q-4 -8 -8 -12q-7 -7 -7 -11q0 -1 -4 -9q-5 -5 -5 -11t-3 -9q-4 -4 -5 -13q0 -5 -3 -17q-4 -5 -2 -18q0 -23 -1 -37
q0 -24 3 -37q3 -10 1 -15q-2 -4 -2 -16q0 -14 2 -16q1 -4 3 -27q1 -24 4 -27q4 -4 4 -9q0 -2 0.5 -4.5l0.5 -2.5q0 -4 8 -10q8 -8 11 -16t10 -13q8 -4 10 -8q2 -5 15 -12q13 -8 19 -8q5 0 9 -4q4 -2 15 -4q12 -2 18 -5q4 -3 9 -3q3 0 7 1q9 0 13 4q8 2 17 2q18 0 25 1
q12 1 15 4q4 4 7 4q4 0 13 9q6 9 10 9q2 -2 8 2q5 2 11 10q8 10 10 16q4 8 4 9q0 3 3 6q3 4 3 8q3 5 4 6q2 1 4 10q2 10 3 11q2 1 4 15q2 16 1 22v20q0 18 1 28q0 13 -2 25q-2 8 1 17q2 6 2 9t-1 6q-2 8 -2 12t-3 7t-3 9v14q0 6 -3 12q-4 4 -4 10q0 4 -4 12q-5 5 -5 8
q0 5 -6 9q-7 10 -8 13q-1 4 -7 8q-2 1 -10 9q-6 8 -10 8q-6 2 -14 10q-9 9 -12 9q-4 0 -9 3q-7 4 -13 6q-7 1 -12 4zM491 717l1.5 0.5t2.5 0.5q3 0 8 -6q5 -5 5 -11v-19q0 -12 4 -24q2 -8 2 -18v-10q0 -20 -3 -24q-4 -4 -4 -23q0 -9 1 -40v-61v-50q0 -47 3 -51q3 -6 3 -9
q0 -1 -3 -7q-3 -3 -3 -49v-54v-106v-57q-1 -29 -1 -37q0 -16 4 -21t4 -10q0 -2 -1 -7q-1 -10 -5 -14q-5 -3 -12 -5t-9 -4q-4 -2 -14 -2q-12 0 -17 3q-4 1 -13 10q-5 5 -8 16q-2 10 -6 13q-2 2 -12 7q-5 2 -17 -3q-2 -1 -7 -4t-6 -4q-2 -3 -7 -3q-1 0 -3 -0.5l-2 -0.5
q-1 0 -3 -4q-2 -5 -5 -5q-6 0 -10 -6q-6 -6 -13 -6q-4 0 -10 -4l-15 -10q-10 -5 -20 -5q-12 0 -19 -5q-8 -4 -10 -4t-8 4q-5 4 -29 4q-22 -1 -29 3q-6 4 -8 2q-3 0 -7 4q-3 3 -10 5q-1 0 -6.5 1.5t-7.5 2.5q-6 1 -10 5q-2 3 -9 5t-12 8q-5 5 -7 11q-4 8 -10 14q-8 10 -13 10
q-4 1 -12 15q-7 11 -15 22q-9 9 -9 11q0 3 -3 6q-4 4 -4 13t-2 13q-3 6 -3 15q-2 10 -5 14q-4 5 -4 18q0 2 0.5 22t0.5 33q1 43 5 50q3 7 2 22q-3 14 0 26q2 9 3 11.5t5 3.5q6 4 6 7q1 3 5 9q3 4 3 13t4 13q3 6 3 8q0 5 7 10q7 7 7 9q0 3 5 10q6 10 6 11q0 2 7 7q6 3 12 3
q3 0 6 5q2 6 10 10l9 4.5t10 5.5q10 5 12 7q0 2 9 2t12 4t21 3q19 0 21 -1q5 0 9 4q5 3 16 5q14 2 15 2q2 0 9 -5q5 -5 17 -5t18 -5q6 -4 10 -4q5 0 11 -3q7 -2 8 -5q3 -3 7 -3q5 0 8 -4l3 -6q0 -5 3 -6q2 -1 6 -9q4 -7 15 -19q9 -9 12 -10.5t12 -1.5q12 -2 15 1q1 1 3 11
q0 11 -1 14q-2 5 0 8.5t0 21.5q-2 17 0 19v28q0 26 -4 37q-4 9 -4 21l4 24q0 2 1.5 9.5t1.5 9.5q1 7 -4 15q-4 8 -3 26q1 13 1.5 16t4.5 5q4 3 4 9t9 13q8 5 26 5q16 -2 19 1z" />
    <glyph glyph-name="uni0065" unicode="e" horiz-adv-x="479" 
d="M288 450q-6 3 -49 4q-31 0 -37.5 -1t-11.5 -6q-7 -7 -13 -9q-6 -3 -19 -16q-14 -14 -14 -17q0 -2 -4 -8q-4 -5 -3 -10q1 -6 -3 -10q-5 -4 -5 -16q0 -13 -3 -17q-4 -4 -4 -15t3 -14q2 -4 2 -7t4 -9q3 -4 30 -5q15 -1 36 -1h38q15 1 19 1q11 0 21 -5q7 -4 11 -4q2 0 3 1
q4 2 26 2q23 -2 25 0q3 0 6 5q2 4 6 10q3 8 3 25q0 18 -4 25q-3 7 -5 18q-2 13 -5 19l-3 9q0 2 -2 4l-6 10q-3 5 -6 14q-1 6 -15 13q-4 2 -21 10zM239 501q8 4 11 4q6 0 7 -3q3 -4 24 -4q20 0 24 -3q6 -4 13 -4q8 0 8 -2t3 -5q1 -3 8 -3q5 0 10 -5q6 -6 8 -6t15 -9
q12 -10 12 -13q0 -1 6 -7t9 -12t9 -14q6 -7 6 -14t3 -11q4 -2 4 -5q0 -5 3 -6q3 -5 3 -17t3 -16q3 -3 5 -12q1 -4 1 -7.5t-1 -5.5q-3 -5 -1 -19t0 -28q-1 -13 -7 -20q-7 -7 -13 -10t-7 -7q0 -4 -7 -3q-6 2 -38 2t-37 3q-5 4 -24 4t-22 -4q-2 -4 -13 -3q-13 2 -15 4
q-5 3 -34 3h-15t-13.5 0.5l-5.5 0.5h-19q-15 0 -26 -5q-9 -6 -11 -13q-2 -11 -1 -22q2 -13 0 -18q-2 -4 -2 -15q0 -12 5 -18q4 -7 3 -24q-1 -12 -0.5 -14.5t4.5 -4.5t7 -7q1 -4 7 -8q4 -2 4 -5t5 -8q3 -5 7 -5q3 0 5 -5q0 -4 7 -11q5 -5 10 -5q4 0 6 -2q0 -1 8 -5t9 -5
q2 -2 9 -2q9 0 13 -4q3 -3 10 -3h12h13q9 2 20 7q12 7 15 7t8 7q7 8 14 12q7 3 11 10q2 4 8 10q3 4 3 12t4 13l10 7q4 4 23 5t22 -2q4 -4 5 -8q2 -2 2 -8q-2 -6 -4 -8q-3 -3 -3 -11q-2 -11 -6 -16q-5 -8 -5 -11t-5 -6q-3 -2 -6 -7q-2 -5 -9 -8q-7 -2 -19 -12
q-13 -11 -14 -11t-9 -6t-11 -6q-6 0 -13 -3q-10 -2 -24 -4q-16 -2 -19 -5t-27 -3q-12 -1 -16 -1q-9 0 -14 4q-1 0 -4 1.5t-4 1.5q-3 0 -15 7q-15 6 -25 7q-12 0 -16 5q-4 4 -7 4q-2 0 -7 5q-4 6 -9 8q-7 2 -10 7q-4 6 -4 8q0 3 -7 10q-7 5 -13 16q-1 1 -4.5 6.5t-5.5 7.5
q-4 4 -6 10q0 2 -5 12q-4 5 -6 17q-2 7 -4.5 14.5t-3.5 21.5q-3 16 0 22q1 6 -2 9q-4 5 -5 30q-1 15 -1 19q0 8 4 11t4 14t-4 19q-4 6 -4 8t4 6t3 12q-1 3 -1 8l4 16q3 14 8 19q5 7 4 9q-1 4 6 11q8 8 11 17q6 12 12 18q9 9 9 10t5 8q5 8 5 13q0 2 3 11q3 6 7 10q2 0 5 2
l2 1q3 0 7 4t12 6q6 2 12 6q4 4 12 8q6 2 10 2q5 0 8 3q2 1 23 3q19 1 25 4z" />
    <glyph glyph-name="uni0066" unicode="f" horiz-adv-x="380" 
d="M274 726q1 1 17 1l24 -3q4 -1 13 -4q5 -4 7 -7q2 -4 5 -7q4 -4 4 -6q0 -1 -6 -9q-8 -6 -10 -6q-4 0 -8 -3q-6 -4 -27 -4t-25 -3q-6 -4 -12 -4q-7 -3 -11 -6q-6 -4 -7 -4q-2 0 -6 -6q-6 -9 -9 -13q-5 -5 -5 -10q0 -2 -5 -14q-4 -9 -4 -15q0 -4 1 -18q3 -22 1 -26t-2 -16
q0 -14 3 -21t7 -11q2 -2 16 -8q13 -6 32 -6q17 0 28 -4q8 -4 16 -4q6 0 9 3t4.5 3t7.5 -3q9 -2 9 -5q2 -2 2 -16q0 -11 -1 -13.5t-5 -6.5l-14 -10q-7 -4 -11 -3h-28q-24 2 -27 3q-5 2 -15 0q-9 -2 -16 -6q-6 -4 -8 -8q-2 -5 -1 -12q2 -8 1 -10q0 -1 -5 -11q-3 -6 -3 -22v-20
v-20q2 -19 4 -24q4 -8 4 -13q0 -3 -5 -13q-5 -8 -3 -12q0 -1 0.5 -5.5t0.5 -7.5q-1 -9 3 -16q3 -5 3 -18q0 -7 -1 -29q0 -41 -1 -42q-2 -2 2 -9q2 -7 1 -10q-1 -2 -1 -18q0 -4 0.5 -11l0.5 -7v-6t-0.5 -14.5t-0.5 -16.5q-2 -33 -3 -38l-5 -10q-1 -3 -6 -3q-2 0 -8 -4
q-3 -4 -5 -4q-1 0 -3 1q-1 0 -5 0.5t-6 0.5q-8 0 -14 6q-7 5 -11 11q-3 3 -5 17q0 2 -0.5 14t-0.5 18v10q0 13 1 24q1 16 -1 20q-2 5 -1 14q2 9 -2 18q-4 8 -4 36q0 27 4 31q3 3 3 17q0 13 -3 21q-4 8 -4 15q0 4 3 10q2 2 5 21q1 13 0.5 16t-4.5 7q-5 5 -5 16q0 6 1 24
q0 36 -3 40q-4 6 -4 11q0 6 -4 10q-5 5 -10 7q-4 2 -36 2q-13 -1 -21 -1q-13 0 -16 2q-6 1 -11 11t-7 18q-1 4 -1 6q0 4 3 8q4 8 9 10q6 4 16 4q14 0 18 1q5 0 21 -2q15 -1 24 5q11 6 13 9l6 9q3 4 2 13q-3 9 0 21q1 6 1 17q-1 4 1 17t-1 22q-1 12 1 15q5 9 7 20q5 15 5 20
t18 22q19 18 23 20q4 0 11 5q6 3 17 3h15q27 0 31 5q6 6 8 7z" />
    <glyph glyph-name="uni0067" unicode="g" horiz-adv-x="493" 
d="M271 418q-3 2 -16 4q-13 0 -15 -1l-9 -3q-12 -4 -20 -5l-25 -5q-9 -2 -20 -13t-10 -15q0 -5 -6 -12q-9 -7 -10 -15q-4 -10 -5 -11q-2 0 -2 -7q0 -8 -4 -12q-4 -5 -4 -31q0 -25 -3 -31q-3 -5 -4 -43q-1 -21 -1 -27q0 -13 4 -22q4 -10 3 -21v-17q0 -5 6 -11q7 -5 9 -11
q5 -5 7 -6q4 -2 6 -4t4 -9q2 -6 8 -12t10 -5q3 1 8 -4q4 -4 10 -6q4 0 9 -5q4 -6 11 -6q4 -1 15 -1l16 4q7 4 20 3q14 -1 20 3q7 5 9 5q3 0 8 5q6 4 8 11l13 19q8 10 15 23q6 10 8 18q4 10 4 27q1 19 5 23q3 4 3 40q0 33 -4 40q-5 5 -2 9q1 3 0 19q-1 9 -1 23q0 7 -4 11
q-3 6 -3 8q0 4 -5 12q-5 6 -7 15q-2 7 -6 11t-4 7q0 1 -5 6q-2 2 -11 8q-7 2 -11 8q-5 6 -12 6q-4 0 -10 3zM185 475q4 5 18 4q12 0 20 -4q5 -3 24 -3q19 1 25 -3q4 -4 9 -4q1 0 7 -4q1 0 2 -1l12 -6q10 -4 13 -7q1 -1 5 -3t5 -3q6 -2 16 -1q10 3 11 4q3 2 9 15q5 9 7 11
t9 3q9 2 14 4q2 1 15 3q11 0 16 -4q3 -4 6 -17q1 -7 4 -25q3 -15 2 -22q-2 -9 0 -18q1 -5 1 -24q0 -16 -2 -19q-3 -3 -3 -10t3 -13q2 -10 2 -48q-1 -41 -4 -44t-4 -76v-28.5t-0.5 -24.5t-0.5 -17v-7l0.5 -10t0.5 -25v-29v-81q-1 -25 -4 -28q-3 -4 -3 -10q0 -4 -4 -12
q-3 -4 -3 -13q0 -5 -7 -12q-6 -6 -6 -9q0 -5 -6 -11q-4 -4 -7 -10q-1 -3 -12 -9q-12 -8 -18 -11q-6 -4 -15 -9q-2 0 -6 -2t-5 -2q-3 -1 -17 -5q-3 0 -7 -1t-8 -2.5t-5 -1.5q-4 -1 -50 -1q-22 1 -30 1q-15 0 -20 -3q-4 -2 -7 -2q-2 0 -5 1q-9 3 -17 3q-14 2 -18 5
q-10 5 -25 14q-17 11 -20 16q-6 6 -9 8q-5 2 -5 7q1 4 -6 8q-5 3 -9 11q-4 6 -4 13q-1 5 -6 10q-3 3 -3 4.5t3 7.5q3 8 9 10q4 2 25 2q20 0 28 -2q11 -3 14 -7l7 -7q3 -1 3 -7q0 -4 4 -14q6 -10 12 -12q5 -1 8 -4q0 -3 11 -7q8 -4 12 -8q3 -3 5 -3q3 0 8 -5q5 -4 14 -3
q13 3 15 4q5 3 19 3t14 1q2 2 6 2q7 0 13 3q8 3 10 3q1 -1 14 10q15 15 16 17q6 6 8 10q3 3 3 12q2 9 4 11q3 4 4 18q0 11 3 20q2 2 4 18q0 5 0.5 11.5l0.5 6.5v11q-1 11 -1 20q-1 25 -4 29q-1 1 -4 7q-2 5 -9 5t-11 -2q-3 -2 -3 -3t-8 -9q-7 -7 -10 -7t-6 -3q-4 -2 -6 -2
q-4 0 -8 -4q-5 -5 -8 -5q-2 0 -6 -2q-2 -2 -11 -4q-1 -1 -5 -2.5t-6 -1.5q-4 -3 -39 -3h-20q-15 0 -22 2q-4 2 -13 5q-5 0 -9 6q-3 4 -16 7q-12 2 -14 8q-1 3 -10 12q-9 7 -10 10q0 1 -1 4l-1 3q-2 3 -9 7q-8 4 -12 12q-5 10 -9 14q-5 5 -5 11t-3 9q-4 6 -4 12t-3 11
q-4 4 -4 11q0 9 -3 18q-4 9 -4 57t4 56q3 7 2 19q-1 11 3 25q4 15 7 19q4 8 4 10q0 6 3 13q4 10 4 20q1 9 4 14q3 6 3 9q2 6 4 8q3 3 6 3q2 0 6 7t9 9q8 6 10 8q5 6 7 6t10 6q7 7 10 7q2 0 8 4q4 4 9 4q3 -2 10 2q6 4 12 3q5 -1 10 4z" />
    <glyph glyph-name="uni0068" unicode="h" horiz-adv-x="607" 
d="M136 729q6 3 12 3t13 -6q8 -7 10 -13q1 -4 3 -56q1 -27 1 -65v-31q0 -15 -4 -20q-5 -5 -5 -12q0 -5 4 -11q2 -3 4 -15q0 -10 1 -14q1 -3 6 -13q6 -8 11 -9q6 -1 10 0l6 3q0 2 6 2q2 0 11 3q9 6 11 8q5 5 8 3q3 -1 13 3q15 5 16 5q5 2 14 7q7 6 11 6q3 0 9 -4t11 -4
q6 0 11 3t16 5q4 0 9 1h5q2 -1 10 -1q4 -1 29 -1q16 0 20.5 -1.5t13.5 -11.5q14 -13 26 -17q13 -4 14 -7q4 -4 5 -7q4 -6 11 -20q7 -12 10 -22q0 -6 4 -12q3 -5 2 -8q0 -4 3 -9q4 -6 4 -71q1 -64 5 -68q4 -3 4 -4q0 -2 -2 -84q0 -89 -1 -98q0 -19 -3 -25q0 -2 -1 -12t-2 -12
q-2 -8 -3 -9q0 -1 -7 -3q-2 -1 -8 -1.5t-9 -0.5t-7 -1h-4h-12q-10 0 -16 5q-5 5 -6 75v72v91q0 19 -0.5 38.5t-0.5 32.5v12l-3 9q-2 2 -2 20q1 17 -3 21q-1 1 -10 17l-11 19q-4 6 -4 7q0 3 -8 11q-5 7 -12 10q-2 0 -8 4q-3 3 -21 3t-20 3q-6 3 -7 3t-4 -1.5t-5 -1.5
q-6 -3 -27 -3t-28 -4q-4 -4 -7 -4q-1 0 -7 -6q-4 -5 -14 -7q-9 -2 -13 -6q-6 -6 -9 -6q-4 -4 -8 -12q-5 -12 -11 -20q-5 -8 -5 -12q0 -2 -5 -7q-4 -5 -5 -21q0 -18 -3 -25q-4 -12 -4 -26v-20v-12q0 -7 -4 -17q-3 -9 -2 -17q0 -10 4 -16q2 -5 2 -42v-50q0 -87 -3 -91
q-1 -1 -2 -4q-1 -2 -1 -3q0 -3 -8 -11q-10 -9 -17 -10q-5 -2 -7.5 -2t-6.5 2l-12 3q-4 0 -7 6q-2 5 -5 7q-5 2 -6 8q-3 5 -4 79v38v28v13t-0.5 13.5t-0.5 33v39.5v85q1 3 1 46q0 40 -3 45q-4 8 -4 43v70v47q0 16 -1 18l1 10v19q1 23 5 31q3 4 3 13q-2 6 0 8q0 2 15 13
q14 9 16 9q1 0 9 4z" />
    <glyph glyph-name="uni0069" unicode="i" horiz-adv-x="324" 
d="M148 496q7 6 10 6t10 -3q8 -4 11 -4q6 0 8 -1q4 -2 6 -7q3 -9 3 -19q1 -13 -2 -18q-1 -1 -4 -9q-1 -6 2 -13q3 -5 5 -22q3 -12 3 -23q2 -9 3 -10t1 -9q-4 -12 -5 -14q-2 -7 -2 -35q0 -8 0.5 -20t0.5 -13q3 -13 4 -15q0 -1 1.5 -5.5t1.5 -5.5q0 -5 -5 -8q-4 -4 -4 -16
q2 -15 4 -17q3 -6 3 -16q0 -11 -3 -16q-3 -6 -3 -34q-1 -9 -1 -19l-1 -11q-1 -1 1 -5q3 -6 5 -7q3 -5 2 -14q0 -11 -3 -15q-3 -2 -3 -34q0 -31 -3 -34t-10 -5q-10 -2 -16 -2q-9 0 -18 5q-10 5 -15 14q-4 9 -4 25v19q0 9 1 16q1 12 -2 20q-2 4 -2 6t2 5t2 40q-1 20 -1 42
q0 14 1 23q1 18 -2 22q-3 3 -3 5t2 7q2 6 2 41v42v20v23v55q1 44 4 46q1 1 2 3.5t2 3.5q0 3 9 10zM179 725q6 2 9 2q4 0 7 -3q4 -4 8 -4t8 -6q2 -6 2 -11v-5q-2 -12 -2 -16q0 -1 0.5 -6t0.5 -8q0 -7 -4 -12q-5 -5 -5 -9q0 -3 -9 -8q-12 -5 -17 -6q-9 0 -15 4q-8 4 -20 3
q-9 -1 -11.5 0t-6.5 6q-7 6 -7 16q0 8 -4 16q-2 6 -2 8q0 1 1 4q4 2 6 11q3 7 16 13q11 5 20 5t15 2q4 2 10 4z" />
    <glyph glyph-name="uni006A" unicode="j" horiz-adv-x="298" 
d="M139 525q4 4 7 4h2l12 -3q8 -2 11 -5q4 -4 4 -8q0 -5 -2 -11q-1 -7 3 -13q4 -7 3 -10q0 -4 -4 -8t-1 -9q2 -5 0 -9q0 -3 2 -9t0 -9q-3 -3 -3 -13t3 -14q2 -6 2 -8q-2 -2 1 -5q1 -2 1 -46q0 -43 -2 -47q-3 -5 -4 -11q0 -8 3 -13q3 -6 3 -14t-2 -12t-4 -21q0 -19 1 -21
q2 -4 0 -14q-1 -11 2 -18q3 -6 3 -16t-3 -15q-3 -7 -3 -52q0 -47 4 -53q4 -5 4 -10q0 -2 -1 -6q-2 -11 -4 -12q-2 -3 -2 -25q0 -26 -1 -32q-3 -9 -1 -15q2 -7 1 -14q-2 -11 -4 -13q-2 -4 -2 -6q0 -3 -8 -13t-14 -13q-8 -5 -9 -8l-7 -7q-3 -3 -16 -7q-14 -5 -16 -7
q-3 -3 -11 -3q-4 0 -15 1t-36 1q-15 -1 -20 3q-4 6 -4 9q0 1 -3 7q-4 2 -4 5q-1 1 -1 3q0 3 2 5q0 2 2 5.5t2 4.5q1 5 10 10q10 5 21 5q12 0 16 2q5 2 8 5t3 7q0 6 3 9q2 4 12 8q10 6 10 8q1 1 3 12q1 8 0 15t0 16q2 9 3 10q3 3 1 18q0 5 -0.5 13.5t-0.5 10.5t-0.5 6.5
t-1.5 6.5q0 7 1 9l-2 22q-2 19 2 29q3 8 3 27q0 16 -3 23q-3 6 -2 13q1 6 0 13q-2 8 1 9q3 4 5 8q3 4 3 15q0 8 -2 16t-2 10q0 22 1 46v25q0 17 -2 25q-3 6 -5 14q0 8 2 10q3 1 5 6t1 30q-1 24 -5 35q-4 8 -4 20q-1 12 3 14q5 2 5 7q2 4 2 7l4 16q2 10 4 11.5t11 1.5
q11 1 16 6zM122 740q2 1 4 1t3 -1q1 0 6 -1t8 -2q11 -2 18 1q6 2 8 2t7 -1q10 -4 11 -5q2 -2 2 -9q0 -8 3 -14q4 -8 4 -10q0 -4 -5 -9q-5 -7 -3 -16q3 -7 3 -12q0 -3 -3 -6q-4 -2 -9 -2q-2 0 -7.5 -1.5t-6.5 -1.5q-8 -3 -16 -3q-3 0 -12 3q-6 3 -18 3q-14 2 -15 3
q-4 2 -10 8q-5 5 -5.5 9t-0.5 23q0 20 1 24t7 8q7 7 14 7q8 0 12 2z" />
    <glyph glyph-name="uni006B" unicode="k" horiz-adv-x="555" 
d="M147 733q4 2 7 2q6 0 10 -3q8 -4 11 -9q4 -4 6 -19q2 -14 2 -29v-19v-26v-28v-10v-19v-25q0 -54 -1 -62v-53q1 -38 4 -40q3 -3 3 -28t2 -29q0 -3 8 -7q10 -4 14 -4q6 -1 11 3l10 7q2 1 12 8q6 6 14 9q7 4 7 7t12 12q12 8 14 14q4 5 11 11q6 6 13 8q4 0 6 4t4 4q1 0 11 6
q8 6 8 11q0 3 7 10q10 10 14 19q7 12 16 14q10 5 14 9q5 7 12 9q9 6 14 11q10 8 17 11q8 4 14 4q1 0 11 -0.5t16 -0.5q21 -1 23 -6q2 -4 0 -10q-3 -4 -3 -7q0 -1 -24 -25q-23 -23 -25 -23q-3 -3 -7 -10q-7 -9 -10 -9q-5 -2 -12 -10q-9 -9 -10 -11q-5 -4 -12 -9
q-10 -4 -10 -7q-4 -4 -7 -6q-6 -3 -8 -8q-2 -4 -8 -7q-8 -6 -10 -8q-2 -4 -13 -10q-6 -2 -17 -9q-6 -3 -18 -13q-10 -9 -10 -20q0 -9 5 -21q1 -3 3.5 -9t2.5 -7q3 -7 10 -9q8 -4 9 -10q3 -8 7 -9q6 -4 25 -23q19 -21 21 -21q1 0 12 -11q3 -3 8.5 -9t6.5 -7q6 -8 10 -9
q5 -3 5 -5l3 -6q5 -5 8 -7q4 -1 12 -11l23 -23q15 -16 20 -17q6 -6 8 -9q4 -8 12 -16q10 -10 14 -11q5 0 7 -5q3 -6 5 -8q4 -3 4 -8q0 -2 -1 -8q-2 -12 -3 -13h-21q-20 0 -28 -5q-6 -5 -7.5 -5t-3.5 4q-3 3 -11 5q-10 3 -11 4q-6 2 -8 2q-4 0 -18 14q-14 12 -14 16t-5 7
q-1 1 -13 10q-9 12 -11 15q-4 9 -11 14q-14 14 -23 22q-15 13 -15 16t-5 6q-5 5 -5 9q0 3 -9 12t-13 15q-6 8 -7 10q-3 3 -4 3q-2 0 -6 7q-3 6 -3 9q0 2 -4 6q-4 2 -7 2t-17 14t-18 20q-5 7 -5 8q0 3 -12 6q-10 3 -19 3q-10 -2 -11 -4q-3 -3 -3 -89v-44q0 -43 1 -51
q2 -8 -4 -19q-5 -10 -5 -24q1 -14 -2 -17q-1 -3 -5 -3q-3 0 -6 -3q-2 -3 -10 -3h-8q-16 0 -19 3q-2 3 -7 5q-6 3 -9 9q-4 5 -4.5 9.5t-0.5 24.5q0 25 -4 32q-3 7 -1 9q1 3 0 12q-2 10 -2 94q0 86 -2 90q-3 4 0 7q3 6 3 9q0 7 3 13q4 8 4 14t-5 13q-4 7 -4 15v19
q0 3 0.5 11.5t0.5 12.5q0 18 -1 24v26q2 14 0 27q0 22 1 35q0 24 -4 31q-3 6 -3 7.5t3 5.5q4 7 4 17q0 3 -0.5 13t-0.5 14q0 17 -4 22q-2 4 -2 10v6q0 11 4 14q3 3 3 23q0 19 2 27q1 6 9 14q8 7 18 7q13 0 15 1z" />
    <glyph glyph-name="uni006C" unicode="l" horiz-adv-x="304" 
d="M139 735q10 2 18 2q11 0 13 -1q1 -1 5 -4.5t6 -5.5q6 -7 4 -15q-1 -9 0 -31q0 -7 0.5 -18t0.5 -13q0 -1 -0.5 -15t-0.5 -24q0 -30 3 -36q3 -4 3 -24q1 -17 -3 -22q-4 -4 -4 -12t2 -10q1 -1 0 -7q-2 -8 -2 -15q0 -10 4 -13q4 -5 3 -14q0 -13 1 -18q2 -5 2 -8q0 -2 -1 -3
t-1 -29v-24q0 -51 -4 -57q-5 -8 -4 -19q2 -15 4 -18q3 -5 3 -70v-102q0 -39 1 -41q0 -9 -1 -16q-2 -14 0 -19q2 -3 -1 -13q-4 -8 -11 -15q-6 -6 -8 -6t-7 3q-8 4 -16 4q-11 2 -16 7q-2 1 -10 9q-2 4 -2 23q0 17 -5 23q-3 4 -3 11q2 5 5 10t3 19q0 16 -2 19q-3 4 0 12
q2 6 2 13q0 6 -3 8q-2 2 -4 14q-1 10 3 18q5 6 1 22t-4 22q-1 7 2 14q4 7 4 63q0 55 -3 60q-3 6 -3 12t4 14q3 7 2 25q-1 14 -4 27q-1 7 -3 81v35v29l-1 11q0 2 2 24q0 24 -1 27q-2 5 0 26q2 25 4 29q1 6 8 13q6 5 15 9z" />
    <glyph glyph-name="uni006D" unicode="m" horiz-adv-x="877" 
d="M301 501h13q4 0 12 -0.5t11 -0.5q10 0 14 -4q3 -3 11 -7q6 -3 15 -3q2 0 7 -0.5t7 -0.5q2 -1 12 -8q5 -5 11 -7q4 -1 15 -11q10 -14 12 -19q2 -8 6 -10q2 -2 17 0q11 1 15 3.5t18 16.5q18 18 25 20q8 2 12 7q5 5 12 7q4 1 11 6q5 3 11 3q1 0 13 3q5 3 49 4q43 0 50 -4
t16 -4q8 0 10 -2q1 -1 7 -3q5 0 10 -5q2 -1 6.5 -3.5t6.5 -3.5q4 -1 13 -10q7 -7 7 -10q0 -2 6 -6q6 -6 8 -11q2 -8 1 -13q-1 -6 4 -11q4 -4 3 -14q-1 -9 4 -20q2 -8 10 -21q5 -8 7 -18q1 -6 1 -24v-43q-1 -12 -1 -22.5t1 -12.5q0 -17 -1 -30q0 -23 -2 -27t-4 -15
q-1 -7 -1 -24q0 -12 4 -20q3 -9 3 -56q-1 -38 -2 -44.5t-5 -11.5q-6 -6 -7 -6t-6 -3q-3 -3 -19 -3q-14 0 -22 4l-10 6v8q0 6 -4 10q-3 3 -3 15v18v14v12q0 9 -1 14t-1 19q0 3 0.5 10t0.5 10q1 5 1 32q0 23 2 25q3 5 3 19q1 15 -3 22q-4 8 -4 29q0 7 0.5 19.5t0.5 14.5
q0 11 -4 14q-3 4 -3 28t-3 29q-2 4 -4 12q-1 9 -7 14l-13 13q-6 6 -8 6q-1 0 -9 8q-7 8 -14 8q-8 0 -12 4q-4 5 -40 5t-48 -6q-14 -8 -17 -11q-4 -4 -7 -4t-11 -5q-8 -3 -15 -10q-5 -6 -7 -11q-2 -6 -2 -10q0 -6 -3 -10q-3 -3 -5 -9q0 -4 -4 -8q-4 -5 -3 -6q2 -2 -2 -7
q-1 -3 -3 -37q-1 -31 -3 -36q-3 -4 -3 -23q0 -20 3 -22q3 -3 3 -72q0 -68 2 -72q0 -6 -1 -9q-2 -6 -2 -20t2 -18q3 -3 0 -12q-2 -10 -5 -11q-3 -3 -5 -3q-3 0 -5 -6q-4 -5 -23 -4t-27 9t-9 8q-2 0 -2 2v8q2 8 2 27v26q0 8 1 13q1 10 -3 16q-3 6 -3 94v99q0 8 -4 18
q-3 6 -3 12q0 1 -0.5 6.5t-0.5 8.5q-2 11 -6 15q-4 8 -4 11q0 4 -4 14q-3 4 -7 12q-3 5 -7 11q-5 7 -6 7t-7 4q-4 4 -10 6l-12 4q-5 4 -19 4q-19 0 -27 1q-12 1 -22 -4q-10 -4 -14 -4t-8 -4q-3 -3 -8 -3q-4 0 -10 -4q-5 -4 -12 -4q-4 1 -12 -5q-6 -5 -6 -10t-3 -10
q-2 -6 -6 -8t-6 -9t-5 -12q-3 -3 -3 -8q0 -4 -3 -8q-3 -3 -3 -28q0 -22 -4 -30q-3 -5 -3 -29q0 -22 3 -28q3 -4 4 -77q1 -39 1 -77q0 -13 -1 -23q0 -21 1 -24q1 -8 -2 -11q-4 -4 -4 -9q0 -6 -6 -7l-12 -4q-7 -3 -19 -3q-13 2 -21 5q-9 5 -10 8q0 3 -2 7q-2 2 -4 12
q-2 11 -1 16t1 70q0 60 -3 66q-3 5 -5 17q0 17 2 27q4 14 1 19t-3 19q2 12 5 21q3 8 2 14q-2 7 -4 15q-1 4 -1 25q0 14 4 26q3 8 -1 14q-4 7 -4 45v21q0 16 3 25q5 7 5 10q0 1 6 9q10 7 13 8q5 2 20 1q14 -1 19 -6q5 -4 5 -13t4 -16q5 -5 5 -7q0 -3 4 -6q4 -5 14 -6
q12 0 14 2q3 3 6 10q4 8 11 15q11 11 15 14q8 6 14 6q8 0 11 3q6 4 12 7q9 4 27 5q8 0 17 1h2z" />
    <glyph glyph-name="uni006E" unicode="n" horiz-adv-x="596" 
d="M344 509q7 2 10 2h2q2 -1 14 -3t14 -3q3 -3 11 -7q8 -5 14 -5q3 0 11 -4q8 -5 12 -5q6 -1 10 -7q4 -7 12 -10q8 -5 13 -14q5 -10 11 -16t6 -9q0 -1 0.5 -3.5l0.5 -2.5l2 -8q3 -9 3 -15q1 -4 4 -13q4 -4 6 -11q3 -6 5 -27q0 -20 3 -24q3 -3 3 -41q0 -37 -3 -44
q-4 -8 -4 -61q0 -55 -4 -63q-4 -10 -2 -21t4 -16q1 -1 1 -13q0 -11 -3 -18q-4 -7 -3 -14v-16q-1 -9 -9 -12t-14 -2q-6 2 -11 2q-8 0 -17 3q-10 1 -12 6q-2 3 -2 13q1 6 -2 21q-1 4 -2.5 9l-1.5 5q-1 1 -1 29q1 15 1 41q0 14 -2 20q-1 6 0 12q1 4 1 43v38q0 76 -2 78q0 3 1 6
q1 4 -2 9q-3 6 -3 15q0 13 -1 17q-3 10 -4 11q-2 6 -2 10q0 5 -4 9q-5 5 -5 7q0 3 -6 8q-5 5 -7 9q-2 3 -10 3q-7 0 -14 4q-8 5 -16 8q-10 3 -17 2q-6 -1 -13 3q-6 5 -23 5q-19 0 -22 -3q-5 -2 -5 -4q-4 -2 -8 -3q-6 -2 -15 -6q-9 -5 -11 -8q-4 -4 -6 -4q-4 0 -6 -3
q-3 -2 -3 -5q0 -2 -8 -6q-2 -1 -17 -10q-9 -8 -9 -12t-2 -8q-1 -3 -5 -3q-3 0 -5 -4q-2 -5 -1 -12q1 -10 -3 -15q-4 -6 -4 -40t-4 -40t-2 -19q0 -4 2 -12v-2q2 -2 0 -16q-3 -24 -3 -26q-1 -10 3 -25q4 -13 4 -73q0 -44 -0.5 -52.5t-4.5 -15.5q-1 -3 -11 -16q-5 -4 -8.5 -5
t-19.5 -2q-11 -1 -14 -1q-6 0 -10 4q-5 5 -5 9q0 3 -4 9q-3 4 -2 12q1 4 1 36v21v27v28v59q0 10 -5 20q-3 7 -3 13q0 2 1 18q2 24 2 26q0 1 -0.5 5.5t-0.5 7.5q-1 10 2 17q4 8 4 15q0 6 -4 14q-4 6 -4 65q0 60 3 67l5 10q0 1 13 5q13 2 24 5q12 4 14 4q3 0 5 -4l3 -5
q1 -1 7 -11t6 -12q0 -3 4 -9q7 -9 9 -10q3 -3 10 -3q8 0 13 4q8 4 8 6l3 4l6 6q5 7 17 13q10 5 24 11q4 2 11 6l8 4q8 5 15 5q4 0 13 3q4 3 20 3t22 3z" />
    <glyph glyph-name="uni006F" unicode="o" horiz-adv-x="577" 
d="M321 459q-16 4 -19 4q-5 0 -11 -2q-5 -2 -34 -4q-27 -2 -37 -6q-12 -8 -13 -8q-4 -4 -7 -4q-4 0 -4 -2q-6 -6 -12 -11l-14 -12q-3 -2 -3 -6q0 -6 -7 -13q-8 -9 -8 -14q0 -6 -7 -20q-7 -15 -6 -18q0 -4 -4 -8q-4 -5 -4 -37q1 -18 1 -35v-25q0 -23 3 -27q4 -5 4 -25
q0 -21 4 -26q5 -5 5 -11t2 -8q2 0 2 -9q0 -8 3 -13q4 -4 4 -8q3 -6 10 -10q2 -2 7.5 -7t6.5 -6q7 -6 11 -8q6 -2 11 -9q5 -6 9 -6q2 0 8 -3q3 -2 17 -4q11 0 23 -5q10 -4 17 -4q9 0 12 4q5 3 12 3t17 4q8 4 24 4t22 3q8 4 16 15q11 13 12 15q3 3 5 3q3 0 4 6q1 4 10 13t9 12
t5 10q6 7 6 13q0 7 3 13q4 7 3 24q-1 18 3 25q3 11 3 27q0 20 1 24q0 1 0.5 9t0.5 13q0 15 -5 20q-4 5 -3 17t-3 16q-5 4 -5 12q0 7 -2 9q-2 0 -6 10q-3 7 -8 12t-6 9q-4 6 -7 12l-7 11q-2 3 -9 10q-5 5 -13 9q-2 1 -6 3.5t-5 2.5q-4 4 -11 6q-6 2 -11 4q-3 1 -19 7z
M269 507q4 5 8 6t21 1q23 0 28 -4q8 -4 20 -4q18 -2 24 -5q3 -1 7 -2.5t5 -1.5q3 -3 7 -4q1 -1 3.5 -2t3.5 -1q3 -3 7 -4l3.5 -2t5.5 -3q4 -3 7 -3q2 2 6 -2q6 -4 10 -4q6 0 10 -5q1 -2 5.5 -7.5l4.5 -5.5q6 -6 7 -6q2 0 10 -10q9 -12 13 -19q6 -10 6 -12q0 -4 3 -5
q3 -5 7 -11q4 -10 4 -14q0 -5 3 -9q3 -6 3 -11q-1 -5 2 -11q4 -4 4 -12q0 -7 4 -10q5 -4 7 -21q0 -4 1 -16.5t2 -17.5q1 -10 1 -13q0 -5 -3 -9t-4 -33q0 -28 -3 -35q-3 -4 -3 -9q0 -4 -5 -9q-4 -4 -3 -12q0 -8 -2 -11q-3 -4 -5 -13q-1 -5 -8 -12q-5 -5 -5 -9q0 -3 -6 -11
q-7 -5 -7 -8q0 -4 -10 -14q-11 -13 -14 -13q-2 -1 -6 -5q-2 -2 -10 -6q-10 -5 -12 -8q-8 -5 -18 -11q-14 -7 -17 -7q-2 0 -9 -5q-6 -6 -8 -6q-1 0 -5 -2q-2 -3 -9 -2q-8 0 -17 -4q-11 -4 -32 -4h-28h-21q-15 2 -20 4q-8 4 -16 4t-14 4t-10 4q-6 0 -9 3q-4 2 -12 2
q-9 0 -15 5q-6 4 -9 4q-4 0 -9 5q-7 3 -9 10q-5 5 -8 6q-4 2 -7 8q-5 7 -7 7q-3 2 -14 14q-14 16 -16 19q-6 8 -6 13q-2 7 -5 8q-3 3 -3 8q0 6 -3 12q0 2 -1.5 5.5t-1.5 4.5q0 4 -3 10q-4 8 -4 11q0 5 -3 10q-4 8 -4 14q0 10 -4 15q-3 7 -3 44v46q0 8 4 12q3 3 3 19
q0 18 4 23q3 4 3 12q0 5 4 9q3 3 3 6l3 6q2 2 2 8q-1 5 6 11q7 7 7 10q0 1 19 22q20 22 20 23l4 4q2 1 12 9q7 5 12 8h6q1 0 7 2l12 4q2 0 6 0.5t5 0.5q4 0 8 4q3 3 13 7t12 6q4 4 9 -1q4 -4 7 -4q2 1 14 1q11 0 18 7z" />
    <glyph glyph-name="uni0070" unicode="p" horiz-adv-x="591" 
d="M348 438q-7 3 -40 4q-33 0 -38 -3q-4 -4 -11 -4q-6 -2 -15 -9q-8 -8 -12 -8q-3 0 -6 -3q-4 -2 -7 -2q-4 0 -7 -6q-4 -6 -8 -7q-5 -2 -11 -14q-7 -11 -9 -18q-1 -5 -7 -11q-5 -3 -7 -9q0 -2 -1 -6.5t-2 -6.5q-2 -8 -7 -11q-5 -6 -5 -16q0 -12 -3 -16q-4 -4 -4 -36
q0 -30 3 -35q3 -9 3 -10q1 -2 1.5 -6.5t0.5 -6.5q2 -9 4 -11q2 -4 2 -8q0 -5 -3 -8q-4 -6 -4 -8t4 -8q5 -3 5 -7q0 -5 3 -8q2 -6 2 -7q0 -2 5 -7q6 -6 6 -8q0 -4 3 -9q6 -8 8 -11q5 -3 7 -11q2 -7 11 -9t16 -7q5 -5 11 -9q2 -2 20 -12q14 -7 32 -7h25q41 1 45 4q6 3 9 3
q4 0 11 7q6 6 16 12q11 5 11 8q2 4 9 11l11 11q4 4 4 8q0 5 4 11t2 9q-2 4 3 7q4 4 4 30q0 25 4 33q3 7 3 42q0 34 -4 41q-4 8 -3 30q0 24 -2 26t-6 13t-6 19q-1 7 -6 16q-5 8 -16 14q-12 6 -13 10q-2 4 -2 7q0 5 -5 8q-4 4 -6 4q-4 0 -7 3q-6 4 -11 4q-9 0 -14 4zM313 499
q2 1 12 1q1 0 5 -1l8 -2t7 -2q14 -4 24 -3q11 1 18 -2q9 -4 16 -3q8 1 17 -7q8 -7 13 -9q1 0 13 -7q10 -6 11 -6q2 0 4 -4q1 -1 6 -8q2 -3 3 -4q7 -7 15 -13q8 -8 8 -11q2 -4 4 -12q3 -6 7 -13q4 -4 4 -8q0 -5 5 -10q6 -7 7 -16q0 -10 4 -14l3 -5l4 -8q4 -5 4 -18
q2 -15 4 -19q3 -9 3 -21q1 -8 1 -11q0 -6 -3 -11q-4 -7 -4 -32q0 -29 1 -33q1 -7 -3 -12q-5 -5 -5 -11q0 -3 -4 -13q-5 -7 -3 -9q2 -4 2 -6q0 -4 -5 -9q-5 -4 -5 -8q1 -1 -3 -12q-6 -10 -8 -11q-4 -2 -6 -9q-4 -7 -10 -12q-5 -4 -8 -10q0 -5 -2 -9q-2 -5 -9 -6t-15 -11
q-10 -10 -15 -11q-7 -2 -9 -4q-1 -3 -5 -3t-9 -5q-4 -4 -8 -4q-3 0 -14 -7q-13 -7 -19 -6q-4 1 -12 1l-6.5 -0.5t-10.5 -0.5q-10 -2 -15 -4q-3 -3 -27 -3h-16q-11 0 -18 6q-5 4 -13 8q-1 0 -5 1t-5 2q-1 0 -3 1q-8 3 -12 4q-10 4 -16 7t-11 8q-3 6 -10 7q-9 0 -10 -1
q-3 -3 -7 -1q-4 0 -8 -2q-3 -3 -5 -12q0 -2 -2 -8l-3 -9q-3 -8 -3 -28v-23q1 -25 1 -50v-35q0 -29 -3 -35q-3 -4 -3 -9q-2 -4 -4 -5q-3 -3 -6 -3q-4 0 -7 -3q-4 -3 -14 -3t-14 -2q-6 0 -8 4q-2 6 -7 8q-5 5 -6 10q-2 8 -2 23q1 13 -2 21q-4 7 -4 34q0 26 4 38q4 11 3 19
q-2 10 -5 13q-3 6 -1 12v13q-1 3 -1 52q0 47 -3 51q-3 2 -5 13q0 11 4 15q4 5 4 16q0 5 -1 22q0 36 -1 42q0 3 0.5 9t0.5 7q3 4 0 10q-2 3 1 14q2 9 -1 19q-1 3 -2.5 8t-2.5 6q0 4 2 10q3 4 3 14q0 8 -2 12l-3 9q0 37 -1 75q0 71 4 75q3 3 9 5q3 0 9 4q3 3 21 2q17 -1 24 -6
q8 -6 8 -7q1 -1 3 -13q1 -10 4 -15q2 -1 5 -7q2 -5 4 -5t14 4q9 3 13 8q2 5 8 7q4 1 11 6q7 6 14 11q10 6 11 6q2 0 6 6q5 6 21 6q13 -1 23 1q6 1 13 0q6 -3 11 1q6 3 7 4z" />
    <glyph glyph-name="uni0071" unicode="q" horiz-adv-x="598" 
d="M295 459q-3 2 -22 4q-17 0 -19 -1q-1 0 -3.5 -0.5t-3.5 -0.5q-5 -3 -8 -7q-4 -6 -11 -10q-6 -3 -12 -3q-4 0 -6 -2q-2 0 -6 -8t-8 -9q-6 -3 -7 -7q-1 -1 -4 -4.5t-4 -5.5q-5 -4 -5 -11q0 -6 -6 -10q-5 -4 -9 -13q-3 -8 -5 -19q-2 -14 -3 -16q-3 -9 -3 -19q-1 -8 -1 -61
v-55q0 -9 4 -13q3 -3 3 -15q0 -9 5 -21q4 -10 8 -12q4 -3 6 -11q4 -9 7 -10q4 -4 4 -6q0 -1 5 -9q5 -5 9 -11q4 -7 14 -10t14 -7q5 -5 9 -5l15 -5q9 -3 17 -3q5 0 16 1q12 1 30 1q7 0 13 2q4 3 8 3q3 0 11 4q2 1 5 2l4 1q4 0 17 10q16 10 16 11q2 2 5 2t5 4q4 7 11 19
q9 13 11 22q0 2 1 5l1 4q1 0 7 10q4 8 5 38q0 29 4 34q3 5 3 46q0 40 -4 46q-4 7 -5 13q-2 7 -3 7q0 1 -1 4q-2 3 -2 4q-1 5 1 9q2 6 1 11q0 4 -3 10q-3 3 -3 7t-4 6q-3 2 -10 9q-5 5 -5 8l-6 6q-9 6 -17 14q-13 10 -16 9q-4 -1 -11 5t-30 6q-22 0 -29 3zM260 526q3 3 13 3
q11 0 18 -6q5 -5 10 -5q6 0 12 -3q8 -2 16 -2q6 0 16 -4q9 -7 11 -11q5 -6 14 -11q10 -4 12 -8t11 -8q10 -6 10 -7q2 -4 7 -7q8 -5 12 -5q6 -2 11 0q4 0 6 6t2 15q-1 6 1 20q2 12 4 14q4 2 12 0q4 -1 14 -1q8 2 11 5q2 2 12 4h16q7 -1 9 -7q2 -7 5 -10t3 -50q0 -45 -4 -53
q-3 -5 -3 -26q1 -11 1 -26v-7.5t-0.5 -16t-0.5 -18.5q-1 -21 -1 -27q0 -11 3 -14q4 -5 4 -13q0 -9 -3 -14q-2 -8 -3 -36q0 -30 4 -34q4 -6 4 -9q0 -5 -5 -15q-4 -8 -3 -22q0 -13 -4 -20q-4 -8 -3 -18q0 -11 3 -17q0 -1 4 -15q0 -17 -1 -28q-2 -19 0 -29t2 -21q2 -15 4 -18
q0 -1 1.5 -4t1.5 -4q0 -3 -5 -6q-4 -4 -4 -19q0 -14 2 -20q2 -7 -1 -15q-1 -10 2 -19q3 -10 1 -12t-2 -6q0 -3 -3 -6q-4 -4 -6 -4q-5 0 -8 -3q-6 -4 -7 -4q-2 0 -8 -2q-2 -1 -14 -4q-5 -1 -6 -1q-3 0 -9 6l-11 11q-4 4 -9 4q-3 0 -5 3v5q0 5 -0.5 14t-0.5 17q0 33 2 39t2 10
q0 13 1 24q0 19 2 23q2 2 1 11q-2 11 -1 20q0 13 -1 16q-2 6 0 11t0 14q-1 9 -8 10q-8 2 -14 2q-8 1 -10 -4l-8 -8l-11 -7q-6 -4 -15 -13t-21 -9t-19 -8q-8 -8 -17 -7q-9 2 -13 -2l-5 -2l-9 -3q-11 -2 -16 -1q-11 2 -19 1q-11 0 -19 4q-9 4 -15 3q-5 -1 -18 5q-10 6 -15 6
q-1 0 -9 6q-9 6 -17 10l-18 9q-8 4 -13 9t-9 5q-3 0 -9 6q-4 4 -10 14q-3 8 -6 11t-3 4q0 3 -5 10q-6 10 -6 12q0 4 -1 6l-11 21q-2 6 -6 14.5t-4 9.5q0 4 -4 10q-3 4 -3 23v22q0 12 1 22q0 21 -2 28q-4 8 -4 17v5q0 6 2 11q3 9 3 17q0 14 4 19q4 8 4 12q0 8 3 12q2 7 7 10
q4 4 4 14t4 14q4 6 3 13t3 14q3 6 9 20l6 14q3 3 7 3q5 2 12 7q8 5 13 12q11 9 23 15q16 8 20 8q7 0 11 5l14 7q12 3 26 3q5 0 14 0.5t10 0.5q6 2 8 4z" />
    <glyph glyph-name="uni0072" unicode="r" horiz-adv-x="382" 
d="M310 527q6 1 22 1q15 -2 18 -4q5 -1 7 -7q1 -3 3 -15q2 -6 2 -8.5t-2 -6.5t-2 -12q0 -7 -4 -13q-3 -5 -10 -10t-9 -3q-3 0 -6 -3q-4 -4 -28 -4q-22 0 -29 -4q-4 -4 -7 -4q-1 0 -8 -5q-6 -4 -14 -3q-7 1 -12 -2q-6 -3 -9 -3q-4 -1 -9 -8q-1 -2 -5 -7.5t-5 -7.5
q-6 -8 -10 -17q-1 -3 -2 -8t-1 -6q-2 -5 -5 -7q-6 -11 -7 -16q-4 -12 -4 -34q1 -12 1 -27v-20q0 -14 -3 -23q-4 -8 -1 -18q2 -12 2 -27q0 -19 -1 -22q0 -5 -3 -11q-3 -3 -3 -6q0 -2 4 -8q4 -5 4 -51q0 -15 -0.5 -36.5t-0.5 -23.5q0 -15 -7 -23q-8 -8 -17 -8q-4 -1 -6 -1
q-6 0 -11 4q-8 4 -15 4q-8 0 -12 9q-5 8 -10 10q-6 4 -7 5t-1 29q0 41 1 56q0 29 3 32t3 15t-3 14q-4 2 -4 4q2 3 5 6q4 8 4 12t-4 14q-4 7 -4 24q2 13 -1 21q-1 3 -1 5.5t1 4.5q2 6 2 41q0 34 3 40q3 5 3 24q0 15 -4 25q-3 7 -3 60q0 40 1 47t6 9q6 4 7 5q2 2 10 2
q10 0 15 -4q4 -3 16 -2q11 1 17 -5q5 -6 6 -18v-19q0 -6 2 -14q2 -10 7 -13q3 -4 9 -7q5 -4 10 -2q5 0 8 6q8 12 14 19q10 13 24 26q13 13 18 13q3 0 7 4q3 3 6 3q1 0 4 3q1 3 7 3t12 3z" />
    <glyph glyph-name="uni0073" unicode="s" horiz-adv-x="396" 
d="M183 516l6 4q2 -1 3 -3q3 -3 6 -3q5 0 12 -3q8 -4 36 -4q27 -1 31 -4q2 -2 8 -5q2 -1 7 -6q4 -6 12 -8q7 -4 9 -7q0 -3 6 -9q5 -5 10 -18q4 -14 4 -22q1 -10 -6 -16q-6 -5 -26 -6q-16 0 -19.5 1t-8.5 5q-7 7 -13 9q-3 0 -9 3q-3 6 -3 8q0 7 -1 9q-2 5 -7 8q-7 5 -11 5
t-10 4q-5 5 -19 5q-10 0 -26 -4q-13 -5 -18 -10l-12 -12l-10 -15q-4 -11 -4 -33q0 -21 3 -29q3 -4 3 -9q0 -3 3 -6q4 -2 16 -14q16 -16 21 -20q7 -7 11 -7t5 -3q3 -3 9 -3q8 -2 11 -5t8 -3t16 -11q10 -10 13 -10q2 0 12 -6l14 -7q3 -3 8 -3q3 0 11 -4q8 -3 13 -8q7 -7 12 -8
q8 -2 11 -6q4 -3 4 -8t5 -10q4 -6 7 -19q2 -14 5 -17q3 -4 3 -13q0 -10 -3 -14t-4 -25q0 -21 -3 -28q-2 -8 -6 -14q-4 -8 -4 -10t-18 -22q-22 -22 -28 -27q-6 -7 -8.5 -8.5t-7.5 -0.5t-10 -2q-5 -4 -19 -7q-20 -5 -27 -6q-3 0 -34 -3q-22 0 -28 3q-7 4 -14 3q-8 0 -12 4
q-6 4 -8 4q-4 0 -9 5q-7 5 -10 5q-2 0 -8 6q-4 5 -15 13q-11 7 -12 13q-1 4 -8 13t-7 15q-1 8 -7 14q-7 7 -7 12q0 3 2 7q5 3 5 10q1 6 9 7q3 1 15 1q19 0 32 -1q22 0 25 -3q4 -4 4 -5t4 -7t4 -15q1 -9 5 -13q5 -3 5 -8q0 -4 3 -6q4 -2 6 -7t9 -5t8 -3q1 -1 3 -2.5t3 -1.5
q4 -2 25 -2q19 0 26 4q6 6 8 7l4 4q4 5 6 7q7 11 7 14t3 6t3 7t3 7q4 3 5 24q1 22 -3 27q-4 6 -4 9q0 1 -4 13q-7 10 -16 18q-12 10 -22 15q-10 6 -14 6q-2 -2 -6 2q-4 3 -11 5q-6 4 -10 8q-5 5 -7 5l-2 1q-3 2 -5 2q-4 4 -8 4t-12 5q-8 4 -12 8q-2 1 -5.5 3t-5.5 2
q-8 2 -14 8q-9 7 -13 8q-7 2 -13 8t-6 9q0 4 -5 9q-6 6 -9 14q-5 9 -3 14q0 5 -4 13q-4 6 -4 37v15q0 15 2 17q0 1 2.5 5t3.5 6q3 4 6 13q0 6 7 13q5 7 23 26q16 16 20 16t7 5t7 3q4 0 10 3t11 8q4 4 10 3q4 0 12 -2q8 0 11 3z" />
    <glyph glyph-name="uni0074" unicode="t" horiz-adv-x="389" 
d="M198 636q9 3 10 3q6 -3 7 -5q4 -5 4 -20q0 -13 -2 -27q-2 -11 0 -18q2 -8 2 -26q0 -21 3 -26q5 -7 10 -8q2 -1 17 -3q9 -1 16 3t36 5q28 0 34 -2q5 -3 6 -10q2 -8 2 -11q0 -1 0.5 -5.5t0.5 -7.5q0 -11 -4 -17q-6 -8 -12 -10q-8 -2 -43 -2q-21 -1 -46 -1q-10 0 -14 -4
t-4.5 -16.5t-1.5 -84.5v-101v-31q-1 -27 -4 -31q-3 -6 -3 -17q0 -13 4 -25q5 -15 5 -24q-1 -10 3 -14q4 -6 4 -8q0 -4 4 -11l5 -9q1 -1 52 -1q38 0 45.5 -0.5t12.5 -5.5q5 -4 7 -10q0 -8 0.5 -12t0.5 -7q0 -4 -5 -15q-8 -12 -11 -13q-4 -2 -22 -2q-20 -2 -26 -3
q-6 -3 -25 -3h-9q-12 0 -20 1q-11 2 -16 7q-8 4 -13 4t-13 5q-11 8 -20 16q-13 9 -17 16q-4 4 -8 14q-2 3 -5 9.5t-3 7.5q-2 8 -2 16t-4 16t1 16q4 8 4 49t-4 47t-3 17q0 10 4 18q3 5 2 13q-1 3 -1 12q1 2 1 50v23v19l-1 8l1 9v16q1 22 -6 29q-9 9 -10 11q-4 5 -18 5
q-8 1 -25 1h-15q-3 -1 -12 1q-8 0 -14 4q-6 3 -9 10q-4 8 -4 15v13q0 4 5 6t9 6q4 3 41 3q38 1 42 4q5 2 11 12q7 10 6 29q-1 10 -1 23v15q1 11 5 13q1 1 6 4.5t7 5.5q8 8 11 7t7 3t10 4q6 -1 12 3z" />
    <glyph glyph-name="uni0075" unicode="u" horiz-adv-x="625" 
d="M115 519q8 6 12 6q3 0 8 -5q4 -5 19 -4q15 2 20 0q5 0 10 -8q5 -6 5 -15q0 -8 2 -10q2 -3 0 -26q-1 -22 -5 -27q-3 -6 -3 -44t4 -45q3 -5 2 -13q-2 -8 -4 -13q-3 -6 -2 -14q0 -15 -1 -22q-1 -10 -0.5 -12t4.5 -6q4 -3 4.5 -5.5t-0.5 -13.5q0 -5 -0.5 -11.5l-0.5 -6.5v-39
q0 -28 0.5 -33.5t5.5 -10.5l5 -9t7 -14q6 -14 17 -26q10 -10 23 -15q11 -4 36 -4h36q10 0 22 4q7 3 15 3q4 0 14 6q14 7 19 9q6 2 16 10q7 7 7 14q0 9 3 12q2 5 6 5q5 1 5 7q0 1 1 3.5t2 3.5q3 6 4 10q0 7 2 17q2 11 4 13t3 93q0 89 -2 109q-1 9 -1 18q0 13 2 26
q2 17 1.5 20.5t-4.5 8.5t-3 13q0 6 3 12t3 8q0 3 2 9q3 5 7 7q3 1 36 3q24 0 29 -1t11 -6q6 -6 7 -10.5t1 -24.5v-35v-6.5v-12v-12.5q2 -22 -2 -26q-3 -3 -3.5 -10.5t-0.5 -49.5q0 -57 3 -60q2 -2 3 -27v-26v-50q1 -45 4 -51q3 -5 3 -41q0 -38 -1 -40q-3 -6 -12 -12
q-12 -8 -16 -7t-10 -3t-13 0t-16 4q-7 -1 -19 3q-7 3 -9 5t-5 9q-5 8 -5 12q0 3 -2 3q-2 2 -17 2q-16 0 -20 -3q-4 -2 -11 -8l-6 -6q-3 0 -6 -3q-6 -4 -11 -4q-9 0 -15 -3q-9 -5 -14 -11t-8 -6q-1 0 -4 1q-3 2 -14 2q-7 0 -21 -1q-17 -1 -21 -1q-9 0 -13 4q-4 5 -14 4
q-12 0 -16 1q-6 1 -13 8q-6 6 -8 6t-8 -2q-7 -1 -15 4q-10 8 -11 9q-3 3 -6 3q-4 0 -12 6q-6 6 -9 6q-2 0 -4 4q-2 5 -4 11q-2 7 -8 12q-7 5 -7 8q0 5 -3 8q-4 5 -3 11q1 5 -2 10q-4 4 -4 14q-2 12 -4 13q-2 4 -2 13q0 2 -0.5 9.5t-1 20.5t-0.5 22v23.5v20.5v15v32
q0 19 -1 23q0 1 0.5 13t0.5 21q1 15 1 34v15v10q0 12 -1 22q0 17 -4 27q-3 6 -3 15q3 9 5 13q3 5 3 11q0 5 4 9q3 3 13 9z" />
    <glyph glyph-name="uni0076" unicode="v" horiz-adv-x="430" 
d="M360 497q4 3 23 3l20 -2q2 -1 10 -9q5 -7 5 -9q0 -1 -2 -6q-3 -8 -3 -14q1 -6 -7 -19q-8 -14 -8 -18q0 -5 -3 -9q-2 -4 -2 -13q0 -10 -4 -14q-3 -4 -2 -11q1 -6 -4 -10q-5 -5 -6 -13l-3 -15q-2 -8 -6 -11q-5 -5 -5 -14t-3 -11q-1 -1 -3 -20q-1 -18 -4 -25q-4 -5 -4 -11
q0 -2 -4 -10q-3 -5 -2 -17q1 -10 -3 -14q-3 -3 -3 -8q0 -6 -4 -8q-4 -4 -4 -6q0 -3 -4 -10q-3 -6 -7 -12q-3 -5 -2 -11q1 -4 -1 -13q-3 -9 -5 -13q-4 -7 -3 -15q1 -6 -2 -14q-4 -8 -4 -11q-1 -1 -2 -5t-1 -5q-2 -7 -5 -12q-2 -4 -2 -7q0 -4 -3 -7q-2 -4 -2 -11t-6 -14
q-6 -6 -8 -14q-3 -8 -6 -8q-1 -1 -5 -1.5t-5 -0.5q-3 0 -11 -5q-6 -3 -11 -2q-4 1 -13 -1q-4 -1 -5 -1q-3 0 -8 5t-14 5q-10 0 -12 2q-2 3 -7 3t-8 3q-2 1 -11 12q-6 11 -5 15q0 6 -2 9q-4 4 -4 16q-2 13 -8 23q-6 14 -6 17q0 6 -3 10l-8 16q-5 10 -5 15q1 3 -2 11
q-3 5 -3 10t-5 10q-4 6 -3 10q1 2 -1 11q-1 4 -6 11q-4 3 -8 18q-4 11 -4 21q0 8 2 10q0 3 -4 6q-5 5 -5 11q-2 6 -2 10q-1 2 -5 8q-4 4 -2 7q0 6 -2 9q-3 8 -7 12q-4 5 -4 15q0 9 -4 14q-4 3 -3 16q1 11 -6 24q-6 14 -9 17q-3 9 -4 16q-3 10 -6 15q-4 4 -4 15q1 11 -3 18
q-3 6 -3 11q2 4 9 9q7 6 25 7q19 0 26 -3q8 -4 14 -10q7 -7 6 -13t2 -9q1 -1 5 -4l4 -4q6 -4 7 -22q0 -17 3 -22t5 -15q0 -8 3 -14q3 -1 3 -5q0 -2 7 -11q7 -11 7 -17q0 -4 4 -12q4 -5 4 -10q-2 -4 1 -9q2 -5 5 -7q2 0 1 -15q-1 -13 2 -21q3 -4 5 -16q0 -11 4 -15
q5 -7 6 -12q3 -6 3 -11q0 -3 4 -11q0 -2 3 -9.5t4 -11.5q3 -11 3 -18q0 -5 4 -9q3 -4 3 -11t5 -14q4 -9 12 -13q7 -3 14 -2q7 2 12 7q5 6 6 14q2 10 4 12l6 12q4 10 2 16q0 8 4 12q4 5 5 21q2 15 5 20q0 1 1.5 4t1.5 4t2 9q3 6 3 15q0 8 4 13q5 5 5 11q0 5 2 9q2 1 4 13
q0 8 4 18q4 8 4 14q0 5 2 13q3 12 4 17q0 9 3 15q3 3 3 8t4 11q3 5 3 15q0 9 3 13q4 2 5 15q2 15 4 18q4 4 4 7t5 10q5 8 11 9q6 2 9 5z" />
    <glyph glyph-name="uni0077" unicode="w" horiz-adv-x="762" 
d="M21 502q6 6 10 6h4q6 0 24 -2q12 -1 15.5 -2t8.5 -6q7 -4 14 -16q6 -10 8 -11q2 -2 2 -15q0 -12 4 -20q6 -9 7 -15q2 -2 4 -17q0 -11 4 -19q3 -15 3 -22q0 -13 4 -17q4 -6 7 -12t3 -21t4 -17q4 -4 4 -7t4 -9q0 -1 2 -6t3 -7q3 -15 3 -19q1 -10 5 -15q2 -2 5 -8q2 -5 5 -7
t2 -16t5 -25q7 -14 7 -19q0 -9 6 -17q7 -13 10 -15q3 -5 12 -6q8 -1 11 2t2 9q-1 7 3 10q5 5 5 18t2 17q3 3 3 9t4 12q5 7 5 11q0 5 3 11q4 7 3 17q-1 11 3 18q3 6 3 15q0 8 5 14q4 6 4 10q0 5 3 10q2 8 1 13q-1 7 4 21q2 10 9 23q3 7 3 11q-1 2 1 13q2 13 5 20q1 7 6 16
q3 6 3 12q0 7 4 10q3 3 2 12q-1 8 4 16q4 8 4 10t3 5q4 2 4 7q2 6 4 7q1 1 14 5q11 3 22 0q11 -4 30 -4q14 1 17 0t7 -5q4 -6 4 -9q0 -4 4 -8q3 -2 3 -7q0 -4 5 -7t5 -10q-1 -5 3 -11q5 -7 6 -12q1 -3 4 -16q0 -6 3 -12t3 -13q2 -11 7 -27q7 -18 7 -23q0 -6 3 -12
q4 -8 4 -14q0 -7 4 -12q4 -6 4 -7l3 -6q2 -4 4 -17q0 -16 -1 -20q-2 -8 1 -13q3 -6 4 -7q3 -3 3 -11q0 -9 4 -17q1 -3 2.5 -8t1.5 -6q0 -6 3 -15q4 -10 4 -13q0 -2 2 -6t4 -14q0 -9 4 -15t4 -12q0 -8 1 -10q1 -1 3.5 -3t3.5 -3q9 -3 12 -3q5 0 8 3t3 9q0 2 0.5 6t1.5 5
q1 4 -1 8q-1 3 3 6q3 3 5 11q0 5 3 11q2 6 2 14q0 10 5 21q4 11 3 21q0 10 2 14q4 4 6 10l4 16q1 2 3 8.5t3 8.5t3.5 7.5t3.5 7.5q4 8 4 20t4 16q3 4 3 15q0 10 2 10l3 5q2 4 2 18q-1 12 2 14q3 1 3 12q0 9 5 15q4 5 4 13q0 9 4 13q3 4 3 13t3 11q3 5 4 12q2 8 4 10t2 9
q0 8 4 12q5 5 9 5q5 2 9 -2q5 -3 12 -5t11 2q5 5 14 6q10 1 16 -4q5 -5 5 -8q0 -5 -3 -9q-4 -6 -4 -15q-2 -11 -8 -20q-7 -10 -6 -23q0 -15 -3 -21q-4 -6 -4 -14t-2 -12q-1 -1 -3.5 -5.5t-3.5 -6.5l-6 -15q-1 -2 -2.5 -7t-1.5 -7q-2 -3 -5 -9q-3 -3 -3 -14q0 -8 -4 -18
q-4 -7 -6 -20q0 -11 -4 -17q-3 -6 -3 -8q0 -5 -3 -11q-4 -8 -4 -11q0 -5 -3 -8q-4 -4 -4 -8q0 -5 -3 -11q-4 -6 -4 -13q0 -6 -2 -10q-4 -2 -4 -9q0 -4 -4 -14q-4 -8 -4 -14q0 -7 -3 -14q-2 -8 -4 -8q-1 0 -5 -9q-5 -10 -6 -13q-3 -5 -3 -12t-5 -19q-6 -12 -6 -14q1 -2 -4 -7
q-4 -3 -4 -10t-8 -14q-10 -10 -13 -14q-5 -5 -17 -5h-21q-24 1 -28.5 1.5t-6.5 3.5q-5 5 -8 5q-4 0 -5 1t-6 10q-3 7 -3 13q0 4 -3 9q-2 4 -4 17q-2 14 -5 24q-1 3 -3.5 9.5t-2.5 7.5q-4 6 -4 11q2 5 -2 9q-1 2 -3 21q-1 18 -4 21q-4 4 -4 15q0 10 -4 13q-3 1 -3 11t-3 16
q-3 9 -3 10q0 4 -3 10q-3 4 -5 18q0 13 -4 20q-3 6 -3 12q0 5 -4 9q-3 3 -2 9q2 7 -3 15q-4 8 -4 18q-2 15 -4 17q-3 4 -3 12q0 5 -3 10q-5 3 -5 12q-2 8 0 15q1 6 -1 8t-11 2t-11 -2q-1 -1 -3 -9q-3 -11 -8 -20q-7 -12 -7 -19q0 -2 -0.5 -4.5l-0.5 -2.5q-3 0 -3 -8
q-1 -4 -1 -13q0 -7 -4 -11q-3 -4 -5 -13q-3 -12 -4 -17q-3 -8 -3 -17t-3 -13q-4 -7 -2 -12q2 -6 -2 -11l-5 -10q-2 -6 -2 -16q0 -12 -3 -16q-2 -6 -2 -10q1 -4 -4 -11q-5 -8 -5 -11q0 -5 -3 -8q-3 -5 -3 -12q2 -8 -3 -14q-3 -5 -3 -12q0 -6 -5 -13q-4 -7 -4 -18.5t-3 -18.5
l-7 -14q-4 -8 -4 -13q0 -4 -2 -12q-1 -2 -2 -6t-2 -5q-2 -5 -9 -13q-8 -8 -8 -9t-12 -3q-11 0 -15 -4q-2 -2 -6.5 -2t-14.5 2q-18 0 -24 4q-7 2 -13 8t-5 9q0 3 -3 6q-1 1 -4 3.5t-4 3.5q-4 4 -4 26q0 20 -3 25q-3 6 -3 10q-2 8 -6 11t-3 9q1 4 -1 9q-1 3 -5 13q-1 5 -1 11
q1 1 -2 10l-6 12q-3 5 -5 10q0 2 -3 8q-3 3 -3 11q-2 8 -4 12q-2 5 -4 14q0 10 -7 21q-6 14 -6 17q0 6 -3 12q-1 2 -5 14q-2 10 -4 12q-1 2 -3 5.5l-2 3.5q-3 3 -5 11q-2 9 -1 12q0 6 -3 9q-4 5 -4 14q0 10 -6 21q-7 13 -7 23q-1 6 -1 14q0 3 -4 7q-3 6 -3 10q0 6 -6 18
q-7 13 -7 29v11q0 7 6 13z" />
    <glyph glyph-name="uni0078" unicode="x" horiz-adv-x="515" 
d="M418 518q3 3 11 3q9 0 13 -3q8 -4 15 -4t15 -6q7 -7 7 -14t-4 -10q-3 -3 -3 -6t-7 -10q-2 -3 -7.5 -9.5t-6.5 -7.5q-7 -7 -7 -10q0 -2 -6 -8q-9 -12 -10 -14q-3 -7 -8 -10q-4 -2 -7 -2q-2 0 -5 -3q-2 -2 -4 -9q-2 -3 -9 -13q-7 -5 -7 -9q0 -3 -5 -10q-3 -6 -15 -18
q-6 -5 -13 -12q-3 -1 -10 -14q-7 -11 -7 -16t-8 -13t-7 -13q1 -1 3 -19q1 -9 3 -12.5t15 -16.5q18 -16 21 -19q1 -1 7 -9q2 -7 5 -12q4 -4 4 -7t4 -6q4 -2 6 -9q1 -5 10 -14q2 -2 6.5 -7t5.5 -7q7 -9 10 -10q4 -3 7 -9q2 -8 11 -17l16 -16q4 -6 7 -11q0 -3 4 -5t12 -10
q9 -9 13 -17q5 -7 5 -10q0 -1 -4 -13q-4 -9 -10 -9q-5 0 -8 -3q-4 -4 -6 -3q-4 0 -10 -3q-5 -2 -7 -2t-6 2q-5 3 -26 4q-14 1 -18.5 3t-17.5 14l-20 21q-2 2 -2 8q0 4 -5 11q-5 5 -7 12q-2 6 -9 10q-4 1 -11 6q-5 3 -5 7q0 5 -9 14q-8 9 -8 16q0 6 -9 15q-8 8 -7 15
q2 6 -4 11q-6 4 -11 9q-4 4 -18 12q-16 6 -18 6q-4 0 -10 -2q-6 -3 -7 -8q-4 -6 -12 -14q-8 -10 -8 -11q0 -2 -8 -10q-7 -7 -7 -12q2 -3 -2 -7q-4 -5 -6 -9q-4 -6 -7 -7q-6 -6 -12 -18q-8 -17 -10 -17t-7 -5l-13 -13q-7 -5 -7 -15q0 -8 -13 -20q-12 -12 -17 -12
q-1 -1 -13 -3q-8 -1 -13 -6t-7 -4q-4 2 -16 2q-12 1 -21 11q-9 9 -8 12l1 5q1 4 2 7q4 10 8 14q5 5 5 10q0 3 3 9q3 3 5 3q1 0 9 6q9 7 14 9q7 2 10 7q5 3 7 8q2 4 2 10q0 8 6 15q9 9 11 10q6 6 7 10q4 8 14 18q11 13 13 14q3 2 4 7q3 7 6 11q3 5 7 5t7 7l9 15q4 7 9 11
q3 2 3 5q-2 4 5 13q6 11 5 18t-7 11q-6 5 -6 7t-12 16q-11 15 -25 27l-10 10l-5 6q0 3 -5 5q-4 3 -6 9q-4 8 -8 12q-7 5 -8 5q-2 0 -7 9q-6 6 -18 20q-12 12 -12 16q0 5 -4 7q-3 3 -3 8q0 3 -4 7q-3 3 -7 9q-3 3 -3 8q0 3 -6 9q-7 5 -7 12q0 8 8 16q5 5 8.5 6.5t15.5 1.5h22
q37 0 43 -2q7 -5 15 -14q10 -12 10 -21t4 -16q6 -9 23 -26q21 -21 21 -25q3 -7 4 -7l4 -8q0 -4 7 -9q7 -2 9 -8q2 -3 5 -9q1 -1 4 -5.5t4 -5.5q5 -8 13 -11q11 -2 15 -1q8 2 11 6q4 4 8 6q2 1 6 7q2 7 7 14q4 7 11 10q7 4 7 6t9 11q10 7 12 13q2 7 1 9q0 5 7 11l9 12
q2 6 8 12q7 7 7 12q0 4 5 11q9 9 13 14q8 8 14 11l12 4q7 0 9 4z" />
    <glyph glyph-name="uni0079" unicode="y" horiz-adv-x="508" 
d="M455 532q5 5 16 5q10 0 13 -3t5 -10q2 -6 2 -23v-10q0 -8 -3 -15q-4 -7 -4 -15t-7 -14t-7 -10q0 -5 -4 -15t-7 -14q-3 -3 -3 -10t-8 -18q-7 -14 -7 -19q0 -6 -2 -8q-3 -6 -6 -15q-6 -17 -12 -27q-8 -18 -8 -24q-2 -8 -3 -11q-1 -1 -5 -13t-4 -16q0 -5 -5 -15t-7 -16
q0 -5 -4 -9q-3 -1 -3 -7q0 -4 -5 -9q-5 -6 -4 -14q0 -7 -4 -14q-5 -5 -5 -10q0 -7 -3 -12q-5 -8 -3 -11q2 -5 -3 -8q-3 -6 -3 -8q0 -3 -3 -6q-3 0 -9 -15q-5 -13 -10 -18q-1 -1 -6 -8q-2 -8 -2 -13q0 -7 -3 -10q-4 -4 -4 -6q0 -3 -3 -6q-2 -4 -2 -8t-5 -7q-5 -4 -2 -9
q1 -2 1 -8q-2 -5 -6 -6q-4 -2 -3 -6t-4 -14q-4 -10 -4 -12q0 -3 -4 -7q-3 -5 -3 -10t-6 -15q-6 -9 -6 -13t-5 -9q-4 -7 -4 -14q0 -6 -2 -10q-4 -4 -4 -8l-7 -14q-2 -4 -14 -19q-10 -9 -15 -9q-7 0 -10 -1q-1 0 -13 -3q-4 -3 -12 -3q-4 0 -8 4q-4 3 -11 3t-13 7q-5 8 -2 13
q4 8 4 11q0 7 3 11t5 13q5 10 6 11q3 3 9 11q3 5 6 15q2 11 4 13q4 6 4 12q0 9 3 13q3 6 7 12q4 4 2 6q0 2 3 6q3 2 5 16q0 3 0.5 13t0.5 14q1 15 -4 21q-5 5 -4 15q1 9 -5 14q-5 2 -8 9q0 5 -4 9q-2 3 -8 15q-4 8 -4 18t-3 11q-2 2 -4 6q0 4 -8 10q-6 8 -6 11q0 5 -5 8
q-4 4 -3 10t-2 11q-3 6 -3 7q0 2 -4 8q-4 4 -4 7l-3 6q-3 3 -3 8q0 4 -2 12l-7 14q-4 6 -10 21q-6 14 -9 17t-2 6q0 3 -3 7q-4 4 -4 11q-3 9 -5 14l-4.5 9t-5.5 10q-6 10 -6 14t-6 8q-6 8 -7 10l-4 8q-4 4 -4 14t-3 17q-3 6 -9 12q-3 3 -3 6q2 2 -4 8q-5 5 -7 9q-2 6 -2 13
q0 9 -4 13q-5 8 -5 12q-1 4 -1 7t1 4q0 2 4 4q1 1 10 3q1 0 20 3q12 2 19 -1q4 -2 24 -22t20 -24t3 -6l5 -5q3 0 5 -9q4 -8 6 -10q3 -2 5 -9q2 -6 2 -13q0 -6 7 -17t7 -16q0 -3 5 -11q1 -2 4 -5.5t4 -4.5q3 -2 3 -13q0 -10 4 -15q5 -5 8 -17q2 -9 5 -16q3 -4 3 -10t1 -8
q2 -2 8 -10q6 -7 5 -15q0 -8 3 -13q5 -10 7 -15q4 -10 4 -13q0 -6 1 -7q3 -3 5 -4q4 -2 11 -17q8 -15 11 -17q3 -3 3 -7q0 -5 3 -8q2 -6 2 -9q0 -4 4 -10t12 -6q8 -1 12 1t6 8q3 9 4 14q5 10 6 11q2 4 2 11t3 12q2 6 2 13q0 6 6 13l5 7l1 4q1 3 2 5q4 8 4 10q0 3 3 8
q2 4 2 11q0 6 3 12q4 3 4 7q0 1 4 5q3 3 3 9q0 5 6 19q7 12 7 15q0 1 4 7q5 7 5 16q2 11 3 12q2 0 6 10q4 8 4 17q0 5 7 22l8 16q0 3 3 4q4 4 4 10q2 8 4 9q3 3 5 15q4 14 7 17q5 7 6 12q2 5 7 12q6 4 6 11q0 5 3 7q4 2 12 -1q10 -1 14 3z" />
    <glyph glyph-name="uni007A" unicode="z" horiz-adv-x="474" 
d="M87 509q1 1 4 1t6 -1q5 0 9 -4q3 -2 56 -3q52 0 57 -4q3 -3 9 -2q5 0 13 4q7 3 19 3t15 -4q2 -4 15 -4q4 0 9 1h5q2 2 11 -1q9 -2 18 2q8 5 25 6q16 1 21 -4q4 -4 17 -3q14 0 17 -2q5 -3 7 -8q3 -5 3 -17q-2 -10 -4 -17q-3 -6 -2 -14q0 -9 -6 -15t-13 -8q-6 -2 -9 -5
q-3 -2 -7 -15q0 -2 -1.5 -7t-1.5 -6t-6 -7q-8 -6 -9 -10q-1 -1 -4.5 -6t-5.5 -8q-8 -8 -8 -12q0 -3 -5 -8q-4 -5 -3 -12t-2 -9l-5 -1h-5q-3 0 -9 -10q-5 -10 -8 -10q-1 0 -7 -11q-1 -2 -4 -7.5t-4 -6.5l-6 -3q-3 0 -5 -4q-1 -2 -1 -8q1 -3 -4 -6q-3 -1 -14 -10
q-7 -7 -11 -15t-5 -8q-3 0 -6 -5q-3 -2 -6 -10q-4 -8 -12 -16q-11 -13 -11 -15t-9 -11l-12 -15q-6 -6 -8 -6q-6 -3 -12 -13q-9 -13 -9 -16t-4 -11q-5 -7 -4 -14q2 -8 6 -9q3 -3 15 -7q11 -3 24 -3q14 0 18 5q4 4 18 3q15 -2 17 -4q3 -3 62 -3q58 0 63 3q5 4 23 4
q17 -1 23 -6t7 -19v-9q0 -5 -6 -11q-6 -5 -18 -5q-13 1 -18 -3q-7 -5 -24.5 -5t-24.5 -4q-6 -2 -11 -1q-4 2 -8 2q-3 0 -9 -2q-6 -1 -15 2q-10 3 -31 3h-26q-35 0 -41.5 -0.5t-8.5 -3.5q-2 -4 -4 -4q-1 0 -11 4q-11 5 -39 5h-15h-16h-1h-10q-10 0 -15 -5q-5 -4 -13 -1
t-14 10q-5 7 -4 20t-2 17q-3 3 -3 8q0 8 6 12q5 3 5 6q0 2 6 10q5 7 9 9q5 2 5 4q0 1 2 9q2 6 6 12q5 5 7 11q2 4 7 6q9 6 11 8q8 6 9 7l6 6q3 9 4 13q2 8 8 14t6 11q0 4 4 10q1 1 5.5 6t6.5 7q8 10 8 12q2 4 11 14l13 17q4 8 16 20q11 11 13 18q4 8 9 12q6 6 6 18t2 14
q3 3 15 3q13 2 14 3q2 2 4 8q2 8 7 9q6 2 9 7q4 4 4 10q2 9 6 14q7 9 10 11q5 7 5 13q0 7 -2 11q-2 2 -8 4q-6 0 -12 4q-6 3 -14 3q-9 0 -11 -2q-5 -1 -9 0q-4 3 -10 0q-7 -3 -10 -1q-4 2 -12 2h-38q-35 0 -41 -1q-5 -1 -25 -1q-17 -2 -18 -3q-2 -2 -14 -1q-15 2 -20 5
q-7 4 -7 16q-1 12 3 18q3 5 3 9q0 3 2 7q2 5 10 10z" />
    <glyph glyph-name="uni007B" unicode="{" horiz-adv-x="414" 
d="M335 713q3 1 6.5 2l3.5 1q1 0 13 -2l10 -4q0 -3 -1 -5q-1 -1 -3 -14q-4 -10 -8 -15q-6 -6 -17 -7q-9 -1 -14 -4q-3 -3 -8 -3t-6 -3q-2 -2 -9 -4q-5 -1 -9 -7q-7 -10 -17 -19q-13 -13 -13 -15q0 -1 -4 -7q-4 -3 -4 -14q0 -6 -3 -15q-3 -7 -3 -46q-2 -44 -2 -47
q-1 -4 -4 -10q-2 -6 -2 -15q2 -15 3 -16q2 -5 1 -14q-2 -8 -2 -22q0 -15 -4 -19t-4 -11q-2 -7 -11 -16q-10 -12 -12 -14q-5 -3 -7 -8l-8 -8q-5 -2 -9 -8q-3 -5 -12 -11q-6 -2 -13 -7q-6 -3 -8 -3q-4 0 -5 -4q-1 -3 1 -10q2 -5 6 -7q2 -2 11 -2q8 1 11 -2q5 -5 7 -6
q4 -1 11 -8l21 -22q11 -11 13 -14.5t3 -12.5q2 -12 4 -15q3 -3 3 -15q0 -11 4 -15q4 -5 4 -24v-25v-53q0 -46 3 -49t3 -25q-1 -16 0 -19t7 -7t9 -11q2 -8 6 -8q2 -1 6 -5q2 -2 7 -2t9 -4q3 -3 6 -3q3 -2 5 -4q6 -4 9 -4q4 0 7 -3q4 -4 15 -3q10 1 18 -2q8 -2 9 -3q2 0 2 -2
q0 -1 -1 -4q-2 -4 -2 -17q0 -12 -4 -15q-1 -1 -3 -1t-5 2q-2 1 -15 4q-13 2 -16 4q-6 3 -21 3q-17 2 -19 3q-3 3 -7 3q-1 0 -11 4q-7 4 -16 11q-7 7 -11 9q-4 1 -6 7q-1 6 -9 8t-13 10q-4 8 -5 9l-5 9q-3 8 -3 26q-2 17 -3 20t-4 3q-1 0 -5 4q-2 3 -2 39q0 34 3 40q2 3 1 10
q-2 7 -4 23q-1 9 -1 23v22q0 11 -1 13.5t-6 9.5q-7 8 -7 14q0 4 -8 15q-8 8 -8 11t-6 5q-6 4 -10 8q-2 3 -8 6q-6 0 -15 7q-12 7 -16 7q-4 1 -14 -1q-7 -2 -11 2q-1 1 -10 7q-6 2 -6 13v5q0 5 5 12l10 10q2 2 12 1q9 -1 14 5q4 5 14 4q9 -1 18 7q10 8 12 8q4 0 12 10
q9 9 9 15q0 4 6 14q6 7 8 16q3 12 4 18q1 10 3 76q0 65 3 78q2 12 2 17q0 4 2 14q1 10 8 16q6 6 6 12t8 13q9 9 10 15t10 15q8 8 15 8q5 0 13 6l14 11q6 4 14 3q7 -1 13 5q8 5 16 5q9 0 17 4z" />
    <glyph glyph-name="uni007C" unicode="|" horiz-adv-x="244" 
d="M107 688q6 4 8 4q5 0 15 -3q12 -1 15 -6q4 -4 4 -9q0 -24 1 -47v-55q0 -2 -0.5 -18t-0.5 -26q-1 -17 -1 -22q0 -10 4 -13q3 -4 3 -12q0 -7 -2 -15q-3 -4 -3 -13q0 -7 -4 -11q-5 -4 -5 -17q0 -14 5 -23q4 -9 4 -22q0 -7 -1 -30q-1 -41 -3 -51q-3 -7 -3 -19q0 -10 4 -15
q3 -4 2 -14q0 -8 -4 -14q-3 -6 -3 -64q0 -63 1 -66q2 -7 0 -16q-2 -8 0 -19q2 -14 2 -15q0 -11 -1 -19q-2 -19 -3 -21q-1 -3 -9 -9q-1 0 -5.5 -1.5t-5.5 -1.5q-5 0 -8 5q-6 9 -11 19q-7 15 -5 20q3 5 -2 13q-5 10 -3 17q1 4 1 9l-2 48q0 11 -0.5 23.5t-0.5 21v9.5q0 13 1 18
l5 15q3 7 2 27q0 21 -4 24q-4 6 -4 9q0 1 3 10q1 1 4 11q0 9 1 14q0 10 -3 14q-3 2 -3 28v15q0 10 3 17q5 6 3 18q0 10 -3 16q-3 4 -3 43q-1 12 -2 27v15q-1 1 -1 3.5t1 4.5q2 7 6 11q5 5 3 20q-1 15 -5 17q-3 3 -3 46q1 44 4 48q2 2 2 6q-2 2 2 7q4 6 4 8t4 6z" />
    <glyph glyph-name="uni007D" unicode="}" horiz-adv-x="423" 
d="M52 703q4 5 7 5h2q3 0 17 -2q13 -1 19 -7q4 -4 7 -5t17 -2q18 -1 23 -6q6 -6 14 -9q10 -6 19 -12q9 -5 11 -10q2 -4 11 -8q9 -5 9 -7q2 -4 2 -9q0 -6 6 -10q6 -3 7 -12q0 -2 3 -17q4 -9 1 -12q-2 -4 -2 -10q0 -5 4 -11q3 -3 3 -8q0 -2 4 -6q3 -3 3 -13q0 -5 -1 -24
q0 -33 -2 -41q-1 -3 -2.5 -8.5t-1.5 -6.5q-2 -6 0 -8v-7q1 -7 1 -12q-1 -15 3 -20q1 -2 2 -5l2 -4q0 -4 2 -8q3 -9 3 -14q0 -9 5 -13q5 -2 9 -8q3 -6 8 -6t14 -9q7 -10 11 -10t18 -7q16 -8 26 -8q12 0 19 -4q7 -3 9 -8t1 -10q0 -8 -7 -17q-6 -10 -11 -12q-4 -2 -10 0
q-7 0 -19 -6q-19 -11 -20 -12q-8 -4 -15 -3q-8 1 -10 -5q-1 -4 -7 -10l-7 -7q-3 -5 -4 -11q-2 -10 -5 -13q-4 -6 -4 -8q0 -4 -4 -10q-4 -5 -4 -13q0 -6 -3 -11q-2 -3 -2 -23q0 -5 -0.5 -15t-0.5 -12q-1 -11 3 -15q4 -5 5 -16q0 -16 -1 -22q-2 -10 -5 -13q-2 -2 -2 -15
q0 -12 -5 -17q-4 -5 -4 -14q0 -8 -6 -17q-5 -9 -7 -18q-2 -11 -7 -14q-6 -9 -8 -13q-5 -8 -5 -12q0 -1 -6 -7q-6 -4 -8 -4t-10 -8q-8 -9 -16 -8q-7 1 -16 -4q-10 -4 -17 -3q-8 1 -13 -4q-3 -4 -15 -4q-10 0 -15 -5q-4 -4 -7 -4q-4 0 -8 6q-4 8 -5 20q-1 14 3 18q1 1 10 4
q2 0 6.5 -0.5t6.5 -0.5q6 -1 10 3t6 4q1 0 4 3q6 3 15 3q12 1 17 5q4 4 4 8q0 5 5 8q2 1 12 14q7 11 7 14q0 2 4 10q3 6 3 13q0 2 1.5 8.5t1.5 9.5q3 8 3 43v38v40q1 36 5 43q3 9 3 13q-2 6 1 11q1 7 7 8q5 2 5 10t3 13q2 4 12 8q9 4 14 12q7 7 9 8t9 1q7 -2 9 2q4 3 11 5
q8 0 11 6q3 2 6 8q2 5 -1 11q-2 6 -5 6h-7q-5 0 -13 6q-7 4 -17 11q-10 4 -15 4q-6 0 -10 4q-2 5 -1 7q1 3 -5 6q-7 5 -8 9q0 4 -2 8q-3 6 -7 10q-5 7 -5 10l-2 3q-1 4 -2 6q-4 8 -4 42v43v27q0 19 -4 24q-3 4 -4 31q0 23 -3 28q-3 1 -3 12q1 9 -7 17q-7 7 -8 14t-9 16
q-7 7 -18 10q-9 1 -14 6q-4 5 -21 6q-17 2 -18 3q-2 0 -11 9t-8 15q0 8 6 14z" />
    <glyph glyph-name="uni007E" unicode="~" horiz-adv-x="657" 
d="M227 374q2 1 3.5 1t1.5 -1h8q5 0 13 -4q1 -1 5 -4t6 -4q5 -4 14 -4t13 -2q3 -3 5 -3q3 0 8 -5q5 -4 15 -4t17 -4q7 -2 10 -7q1 -3 7 -3q1 0 6.5 -1.5t8.5 -1.5q12 -4 13 -4q2 0 10 -4q2 -1 5.5 -2l3.5 -1l3.5 -1t5.5 -2q8 -3 21 -3h15q28 0 32 2t10 2q5 0 11 4q5 4 7 7
q0 2 7 7q5 3 7 9q4 8 6 9q5 4 5 8q-1 4 4 9q5 6 14 7h16q6 0 10 -2t4 -5t-7 -12t-7 -19q0 -11 -4 -16q-2 -4 -8 -13q-5 -7 -9 -6q-5 0 -6 -3q-1 -2 -1 -8q0 -5 -3 -11q-4 -6 -7 -9q-2 -3 -8 -3q-4 0 -11 -5q-6 -4 -8 -4q-1 0 -5 -4q-5 -5 -8 -5q-3 -1 -11 1q-3 2 -12 2
q-2 0 -7 -1t-7 -2q-7 -2 -9 -4q-1 0 -2.5 -0.5l-1.5 -0.5q-3 0 -7 3q-4 4 -15 4q-10 0 -18 2q-4 3 -18 5q-12 3 -21 9q-8 7 -16 7q-6 -2 -15 0q-8 0 -16 7q-7 7 -17 7q-10 -1 -15 4q-6 4 -12 7q-2 1 -6.5 3t-5.5 3q-6 3 -18 3q-7 1 -27 1q-6 -1 -15.5 -1t-16.5 1
q-12 0 -15.5 -1t-10.5 -9q-10 -12 -15 -22q-7 -14 -7 -18q-1 -5 -6 -12q-4 -5 -10 -8q-3 -2 -7 -2q-2 0 -5 1q-6 3 -12 0q-4 -1 -5.5 -1t-3.5 1q-1 2 2 12q1 2 3.5 8t3.5 7q2 4 2 16q0 11 3 14t3 9q1 7 12 19q5 6 14 15q3 3 3 6t7 8q6 6 9 6q4 0 7 5q4 4 7 4q4 0 8 3
q5 2 17 2h15q25 0 31 2z" />
    <glyph glyph-name="uni00A0" unicode="&#xa0;" horiz-adv-x="278" 
 />
    <glyph glyph-name="uni00A1" unicode="&#xa1;" horiz-adv-x="449" 
d="M203 533q6 8 14 8h11q7 0 15 -1h8q5 -2 6 -5q3 -5 1 -14q-2 -13 -4 -15l-4 -12q-3 -7 2 -13q5 -3 5 -7q0 -2 -4 -10q-3 -6 -3 -12q0 -5 5 -15q5 -13 4 -22q-2 -12 -5 -15q-4 -6 -4 -7q0 -2 2 -6q2 -2 4 -12q1 -6 -1 -11q-3 -3 1 -11q2 -12 2 -40q0 -33 3 -36t4 -49
q0 -44 -3 -57q-4 -12 -4 -19q-1 -9 2 -15q4 -5 4 -19v-17v-25q1 -22 5 -26t4 -7q0 -2 -4 -6q-4 -3 -3 -12q1 -10 -4 -12t-26 -2q-11 1 -26 1h-15q-10 -1 -14 3q-3 3 -2 12v17q0 5 3 14q3 7 2 12q0 1 -3 19q-1 14 1 18q3 5 3 11q0 2 -1.5 9t-1.5 8l-4 20v5q0 4 5 14
q7 11 8 20q2 12 -1 17q-4 4 -4 24q-1 17 1 24q2 4 2 13l-3 9q-2 3 3 6q4 3 4 98q0 100 2 111q2 18 2 22q0 6 6 15zM191 705q0 3 4 3q1 0 7 -3q5 -3 18 -2q14 0 29 -4q14 -4 15 -8q0 -1 2 -7l3 -9q4 -13 3 -18q-3 -5 -1 -16q0 -12 -3 -18q-4 -7 -8 -7q-4 -2 -14 0t-16 2
q-8 0 -11 3q-4 2 -6 2t-12 -4t-11 -4q-2 0 -2 2q-2 4 -2 19q0 25 -1 36t-1 15q0 7 2 11q4 6 5 7z" />
    <glyph glyph-name="uni00A2" unicode="&#xa2;" horiz-adv-x="528" 
d="M291 447q-5 0 -31 2q-25 0 -32 -3q-3 -2 -18 -14q-9 -11 -11 -11q-3 0 -13 -10q-11 -13 -12 -16q0 -5 -7 -12q-4 -4 -7 -10q-2 -4 -2 -10q0 -5 -3 -11q-3 -4 -3 -17v-28q1 -13 -2 -24q-3 -9 -1 -19q2 -11 1 -12q0 -1 -1.5 -4.5t-1.5 -5.5q-2 -4 -2 -6t2 -5q3 -6 3 -28
q1 -23 5 -25l6 -12q3 -6 5 -22q0 -14 3 -19q2 -7 9 -16q6 -7 8 -16q1 -5 2.5 -6t11.5 -2q6 -1 10.5 -1t5.5 1q3 0 3 5t5 10q4 7 3 12q0 7 3 10q4 5 5 14q0 6 3 12q2 4 2 11t8 26t8 28t2 11t4 14q0 10 5 18q5 7 5 10q0 2 4 8q5 5 4 11q-1 3 -1 8l4 18q3 12 6 18q2 6 2 12
q0 8 3 11q2 4 2 7t3 8q2 7 4 17q5 16 9 24q6 14 5 20q0 9 -1 10q0 3 -9 5zM383 618q2 2 5 2t7 -2q3 -2 2 -17t-9 -32q-7 -15 -9 -24q0 -6 -5 -11q-5 -4 -5 -27l2 -26l6 -6q9 -3 11 -3q5 0 8 -4q5 -7 14 -18q6 -8 15 -17q4 -3 6 -8q3 -6 8 -11q7 -6 7 -13t4 -11q5 -5 5 -9
q0 -6 3 -9q4 -6 4 -8q0 -4 -5 -11q-4 -6 -6 -8q-1 0 -4 -0.5t-5 -0.5q-7 0 -11 2q-5 2 -13 4q-9 3 -15 1q-7 -3 -12 1q-6 2 -12 16q-5 12 -5 17t-3 10q-2 8 -3 8q-1 1 -10 3q-7 1 -13 -2q-5 -2 -9 -8q0 -1 -1.5 -5t-1.5 -6q0 -4 -2 -10q-3 -6 -3 -12q0 -5 -2 -9
q-2 -2 -7 -14q-2 -6 -5 -18q-2 -8 -5 -14q-4 -7 -4 -18q0 -12 -1 -13t-7 -11q-4 -8 -4 -23q0 -13 -3 -22q-1 -6 -5 -10q-3 -6 -3 -7q0 -6 -2 -8q-3 -4 -3 -15t-3 -17q-1 -2 -3.5 -7.5t-3.5 -7.5q-4 -10 -4 -14q0 -7 -3 -11q-2 -8 -2 -11q0 -1 -5 -11q-6 -10 -6 -17
q0 -8 4 -16t6 -9t22 -3q20 -1 27 2q10 4 12 4q4 0 8 4l4 2t3 1l6 4q6 3 8 3t8 6q2 3 13 14q8 8 7 14q-1 4 3 13q5 7 5 11q0 3 3 6q4 4 4 11t1 8t8 0h13h12l9 2q2 2 9 -2q6 -4 9 -4q2 0 5 -3q4 -4 4 -8t-3 -7t-3 -11t-6 -16q-2 -3 -6 -8l-3 -5q-5 -8 -6 -10q-2 -4 -8 -14
q-6 -8 -8 -12q-2 -3 -9 -7q-9 -4 -20 -14q-12 -12 -24 -17t-16 -4q-6 0 -14 -3q-12 -5 -14 -6q-7 -2 -17 -4h-10h-13h-14q-26 0 -28 -3q-1 -2 -8 -9t-10 -14q-5 -8 -5 -20q0 -11 -3 -17l-7 -14q-3 -8 -3 -14q0 -4 -4 -8q-4 -2 -6 -13q-4 -11 -5 -12q-1 -3 -8 -3q-6 0 -9 3
q-2 2 0 11q2 13 1 22q-1 12 1 16q3 4 3 6q0 3 5 8q3 6 5 16q0 3 1.5 9t2.5 9q3 8 2 23q0 15 -6 18q-7 5 -7 7q-2 4 -6 5q-6 0 -10 7q-8 8 -13 11q-10 8 -14 15q-5 9 -12 12q-3 2 -7 6q0 4 -8 10q-8 7 -8 12q0 4 -4 8q-3 4 -3 18q0 13 -3 16q-2 1 -8 7q-5 4 -4 12q1 6 -2 13
q-2 7 -5 15q-2 8 0 16t2 15q0 9 -4 14q-2 5 -2 6.5t2 5.5q0 1 1.5 4t1.5 4q0 3 3 6q4 6 4 10q0 2 -3 14q-3 15 -3 17q0 6 3 12q3 4 4 20q0 16 5 25q3 8 6 11q2 2 2 4t4 8q5 3 5 7q0 2 5 9q5 5 9 7q5 1 5 9t6 15q6 8 10 10l12 6q8 3 11 6l3 8q1 6 9 7q11 3 20 8q12 7 16 7
q2 0 14 4q12 3 19 7q7 3 26 3h26h20q12 0 18 2q6 1 8 11q4 10 5 11t3 13q0 9 3 12l1 3q1 3 1 5l4 12q4 6 4 18q2 13 4 16q2 6 10 9q9 4 9 6z" />
    <glyph glyph-name="uni00A3" unicode="&#xa3;" horiz-adv-x="545" 
d="M336 705h9q9 0 15 -2q7 0 15 -4q4 -3 16 -3q9 0 19 -6q11 -6 18 -7q10 -2 11 -3q1 0 11 -10q7 -10 13 -10q2 0 5 -0.5t4 -0.5q3 -2 5 -7t10 -11t8 -11q3 -9 5 -13q4 -8 4 -9q0 -2 6 -10q7 -12 7 -16t-5 -8q-3 -3 -12 -9q-7 -3 -12 0q-5 4 -27 2q-23 -2 -25 0q-3 5 -4 12
q-3 6 -3 15q-2 6 1 9q2 2 2 4q0 3 -7 10q-4 3 -10 12q-3 6 -7 8q-2 1 -10 1q-6 -1 -9 3q-3 3 -6 3q-2 0 -11 9q-8 6 -11 7t-13 0q-14 -1 -22 1q-8 3 -18 0q-12 -2 -15 -2q-6 2 -6 0q-3 -2 -10 -7q-3 -1 -6.5 -2.5t-7.5 -4t-6 -3.5q-12 -6 -15 -6q-5 0 -13 -10q-9 -9 -12 -17
q-2 -8 -4 -12q-2 -5 -5 -7q-2 -2 -4 -9q0 -7 -4 -11q-3 -4 -3 -24q-1 -11 -1 -35q0 -22 -1 -31q-5 -21 -5 -22q-3 -7 -1 -22q1 -15 6 -20q5 -7 12 -8h41q18 1 41 1q14 0 20 -1q11 -1 16 -6q3 -6 3 -9v-16q0 -9 -2 -13q-1 -3 -6 -5q-5 0 -11 3q-7 3 -17 2q-8 0 -13 -5
q-4 -4 -10 -4t-13 5q-7 4 -25 4q-17 0 -22 -4q-6 -4 -8 -4q-3 0 -6 -3q-4 -8 -5 -13q-2 -6 -2 -24q1 -15 6 -19q4 -4 4 -6q0 -3 -3 -14q-2 -14 -2 -18q1 -3 3 -53q1 -25 1 -32q0 -16 -5 -20q-5 -5 -5 -19q0 -15 4 -22q3 -7 3 -19q0 -13 3 -15q2 -2 8 -2q7 0 15 -3
q8 -2 18 -2q9 0 19 4q11 3 19 2q13 -2 17 -4t33 -2q27 0 34 4l12 3q6 0 10 -4q1 -1 13 -7q5 -1 13 -1q6 3 10 6q4 4 9 4.5t29 0.5q33 0 35 -2q1 0 5 -6q2 -5 1 -25q0 -20 -2 -22q-1 -1 -17 -3q-8 -1 -11 -1q-5 0 -8 4t-31 4q-15 1 -19 1q-11 0 -20 -5q-7 -3 -10 -3
q-2 0 -4 1q-6 3 -9 5t-16 -1q-12 -4 -16 -1q-4 4 -15 4q-12 0 -16 -3q-5 -2 -12 -1q-8 2 -10 2q-5 0 -8 -4q-3 -2 -5 -2t-12 4t-23 4q-11 -2 -16 -4q-3 -3 -26 -3t-29 3q-8 2 -21 2q-14 0 -20 -2q-6 -1 -12 1q-11 2 -25 1q-16 0 -25 3q-8 4 -10 6q-1 1 -3 18q0 17 1 19t11 6
q9 2 16 1q8 -2 19 -2q10 1 12 2t6 8q5 7 5.5 22t0.5 101t-0.5 101t-4.5 19q-4 6 -4 13t-3 10t-12 3q-9 -1 -16 2q-4 3 -16 5q-7 0 -13 3q-3 4 -3 15t5 21q4 9 9 11q3 2 8 0q8 -3 16 -4q12 -2 19 -2q8 0 12 2q3 1 3 7v9q0 16 -1 31q0 8 -0.5 21t-0.5 15v21q0 12 5 18
q4 6 3 16q-1 9 4 19q4 8 4 18t2 10q1 1 7 11q6 11 11 13q7 5 9 13q4 11 8 14l6 3q2 0 7 5t5 7t2 6q1 1 6 4q3 0 10 7q6 6 11 5q4 -1 19 6q12 7 22 7q7 0 13 4q3 3 35 4z" />
    <glyph glyph-name="uni00A4" unicode="&#xa4;" horiz-adv-x="479" 
d="M240 513h-24q-2 1 -3 1q-2 0 -4 -3q-1 -3 -11 -8q-7 -1 -14 -8q-4 -7 -16 -9q-10 -2 -15 -6q-4 -4 -8 -4q-3 0 -8 -5q-4 -4 -7 -15q-1 -9 -13 -20q-9 -7 -10.5 -14.5t-1.5 -41.5q0 -45 3 -50q3 -4 3 -14q0 -8 4 -20q4 -10 9 -15q4 -4 12 -8q7 -2 16 -13q9 -9 15 -12
q6 -2 12 -5q8 -4 11 -4q1 0 15 -8q13 -7 21 -6q9 1 15 -2q7 -4 16 -4q11 0 16 6t19 7q13 1 18 6q4 4 6 4l7 5q6 6 11 7q4 0 11 5q5 5 10 13q7 9 7 10l4 8q2 8 4 15q0 10 4 18t4 14q0 4 3 10q4 5 4 24q0 18 -4 22q-5 5 -4 16q0 12 -6 20q-7 9 -13 20q-13 17 -14 19l-6 6
q-2 0 -12 7t-12 11q-6 6 -8 7q-7 4 -23 6q-15 1 -20 4q-5 4 -23 4zM52 580l6 3l7 -5q6 -6 11 -6t12 -7q5 -6 8 -13q4 -9 6 -11q4 -4 7 -4.5t18 -0.5q16 0 19.5 0.5t10.5 5.5q10 6 13 6q2 0 12 4q12 7 13 8q3 3 41 4h48q10 0 15 -3q5 -2 7 -6q4 -4 7 -5q4 -2 9 -2q6 0 14 -8
q11 -9 15 -10q3 -1 12 -1q6 1 11 5q6 6 11 7q7 4 9 8q3 3 3 10q0 5 7 11q6 6 18 6t17 -4q4 -6 4 -9q0 -4 6 -7q7 -2 7 -6q1 -4 -1 -8q-3 -5 -9 -5q-4 0 -8 -5q-1 -2 -9 -13q-7 -5 -7 -8q0 -2 -3 -3q-3 0 -11 -8q-9 -8 -9 -14q0 -7 3 -11q4 -6 10 -12q7 -9 11 -16q4 -8 4 -14
q0 -5 4 -9t4 -28q1 -13 1 -26q0 -14 -1 -28q-1 -19 -2 -23t-5 -8q-6 -8 -7 -14q-2 -8 -5 -11q-3 -6 -3 -10q0 -7 -3 -11q-3 -8 -3 -21q0 -15 5 -20q2 -4 9 -8q6 -2 12 -8q1 -1 6 -5t7 -5q6 -6 6 -9q0 -4 -6 -16q-8 -14 -10 -16q-3 -3 -12 -2q-9 0 -15 7q-6 6 -10 12
q-2 4 -10 13q-7 7 -17 7h-13q-23 0 -27 -4t-10 -6q-8 -2 -18 -2q-9 0 -11 -0.5t-3 -4.5q-3 -5 -6 -7q-6 -2 -7 -2l-3.5 1t-5.5 2q-6 3 -19 0q-12 -3 -21 0q-15 3 -19 3q-10 0 -17 3q-8 4 -11 4q-4 0 -8 4q-5 5 -7 5q-4 0 -8 3q-6 4 -14 4q-12 2 -13 3q-2 2 -8 2t-11 -5
q-6 -4 -6 -7q0 -2 -10 -12q-7 -7 -13 -10l-3 -2.5t-5 -4.5l-4 -3t-6 -4q-3 -1 -4 -1q-3 0 -5 2q-3 1 -11 16q-6 14 -5 22q0 6 3 9q2 2 5 2q4 0 9 5t7 5q3 3 5 7q5 7 8 9q4 4 4 12t2 14t-4 12q-7 6 -7 11q0 7 -8 16q-9 11 -9 13v2q-1 8 -1 14q0 13 -2 33q-1 5 -2 13.5
t-2 10.5t-1 8q0 1 2 5l3 6q3 9 3 12q0 6 3 8q2 6 2 15q0 13 3 14q1 1 4 6t4 7q5 11 5 25q0 16 -1 18q-4 4 -7 5q-4 1 -8 7q-1 4 -6 11q-6 6 -7 6q-3 0 -12 7t-10 7q-2 0 -2 3t7 7l8 4q1 1 2 1q4 1 4 6q0 4 2 6q0 1 6 5z" />
    <glyph glyph-name="uni00A5" unicode="&#xa5;" horiz-adv-x="509" 
d="M431 696q5 3 11 1h16q4 0 12.5 0.5t10.5 0.5q11 0 19 -2q9 -2 9 -4t-5 -4t-5 -5q0 -2 -2 -8q0 -4 -10 -16q-10 -10 -10 -12t-2 -8q-2 -7 -7 -12q-5 -7 -6 -15q-2 -10 -6 -16q-1 -2 -4.5 -6.5t-4.5 -5.5q-5 -7 -5 -12t-4 -9q-3 -3 -5 -10q-2 -6 -6 -15q-6 -8 -9 -11
q-5 -7 -9 -20q-3 -8 -7 -20q-2 -7 -5 -11q-3 -6 -9 -16q-6 -11 -9 -12q-5 -2 -9 -8q-5 -6 -5 -18q0 -11 -7 -20q-1 -2 -6 -8t-7 -8q-5 -7 -5 -12q0 -7 -3 -10q-2 -4 -2 -6q0 -3 -4 -7q-3 -3 -2 -10q0 -5 5 -10q4 -4 10 -6t21 -2q16 0 22 5q6 6 12 5q6 -2 9 -2q1 0 5 0.5
t6 0.5q5 0 8 -3q2 -3 18 -3q15 0 20 -3q4 -3 4 -19t-4 -20t-18 -4q-16 2 -19 3q-5 3 -9.5 3t-8.5 -3q-8 -3 -34 -3q-30 1 -38 4q-10 4 -18 3q-3 0 -8 -0.5t-6 -0.5q-6 -2 -9 -6q-5 -5 -7 -11q-3 -5 -3 -15t4 -14q3 -3 3 -9q0 -3 6 -11q5 -8 10 -8q38 0 79 -1q75 0 77 -3
q3 -2 3 -16q0 -6 -1 -14v-2l-4 -6q-3 -3 -14 -3q-3 0 -11 -0.5t-11 -0.5q-10 -1 -21 2q-1 0 -8 1.5t-9 1.5q-6 1 -16 -1l-16 -4q-8 -2 -8 1q-1 1 -7 1l-9 3q-3 3 -8 3q-3 0 -13 -4q-10 -3 -12 -10q-1 -4 -1 -13q0 -5 -4 -13q-4 -5 -4 -14q1 -4 1 -16v-14v-25q-1 -11 -1 -34
q0 -14 -2 -18q-2 -5 -7 -5q-6 -2 -20 -2h-8q-7 0 -17 3q-4 1 -12 4q-2 1 -3 1q-7 2 -8 3q-3 2 -5 9t1 13q4 5 4 13q0 6 -3 11q-2 4 -2 8q0 5 -2 5q-2 2 0 14q0 11 4 17q4 5 2 7v2q-1 9 -1 15q0 14 -4 25q-5 8 -12 12q-5 2 -28 2h-26q-8 0 -13 -2q-8 -1 -31 0q-17 1 -28 1h-8
q-15 -1 -20 4t-5 19t3 17t18 3q10 0 55 -1h79q11 1 15 6q5 4 6 19q2 14 0 25q-1 9 -8 15q-7 5 -24 4t-19 1t-17 4q-16 1 -20 -2t-15 -3q-10 -1 -18 4q-10 4 -13 4q-4 0 -8 -4q-5 -2 -17 -4q-10 0 -11.5 1t-3.5 8q-2 8 -4 10t-2 6t4 12q2 7 7 10t19 3q15 0 18 -3t19 -3
q15 0 19 2t8 2q7 0 15 -4q10 -4 19 1q8 3 12 7q4 3 4 19q0 15 -7 23q-7 12 -7 15q-2 7 -7 10q-5 5 -5 9q0 3 -5 6q-1 1 -3.5 3t-3.5 3q-4 4 -4 7q0 5 -3 8q-4 6 -4 12q-2 9 -7 17q-5 10 -5 14q0 3 -4 7q-3 5 -3 7q0 3 -3 7q-6 9 -10 13q-6 6 -8 15t-5 12q-2 6 -2 8q0 1 -5 8
q-2 2 -8 10q-1 3 -6 16q-5 10 -9 20q-5 10 -11 16q-5 5 -5 9t-3 7q-2 4 -2 7q0 2 -4 8q-2 2 -4.5 5t-3.5 4l-8 8q-5 3 -5 9q0 5 -4 9q-3 3 -3 6q0 2 2 4q3 3 35 3t37 -3t15 -3t13 -3q3 -1 3 -6q0 -1 1.5 -4.5t1.5 -5.5l6 -9q3 -5 4 -12q2 -8 2 -13q3 -9 5 -14q4 -9 7 -10
q1 -1 9 -11q1 -2 4 -7t4 -6q3 -3 3 -15q0 -11 4 -18q9 -12 10 -13q6 -7 7 -13q0 -5 2 -13q1 -8 9 -17q9 -9 11 -22q2 -12 5 -15q2 -4 2 -7q0 -4 6 -10t6 -9q0 -1 4 -7q3 -3 3 -8q0 -4 5 -12q5 -12 5 -16q2 -7 4 -7q2 -2 2 -4q0 -3 -2 -5q-1 0 -1 -5t3 -6q4 -2 15 -2
q10 0 16 2q6 3 7 8q0 3 5 11q4 3 4 8q0 3 2 9t7 11q5 7 4 8q0 3 4 10q5 12 6 18q2 8 8 16q6 9 4 15q-1 5 2 11l4 6q0 3 8 13q8 12 8 18q0 8 3 14l5 7q2 2 2 4q0 4 9 18t9 18t3 9q1 2 4.5 7.5t4.5 8.5q5 6 8 15q0 6 4 10q4 6 4 11q0 8 6 14l6 8q0 2 7 11q7 11 14 12z" />
    <glyph glyph-name="uni00A6" unicode="&#xa6;" horiz-adv-x="252" 
d="M97 344q1 1 27 1q23 0 26 -3q1 -1 5 -9q0 -2 1.5 -7.5t2.5 -7.5q1 -4 1 -11q-1 -2 -1 -40t-1 -40q-2 -4 0 -29q1 -25 -2 -29q-3 -3 -3 -11q0 -9 3 -15q3 -8 3 -30q-1 -11 -1 -26v-33q0 -29 -2 -31t-6 -2q-6 0 -9 -2q-5 -2 -10 -5q-3 -1 -4 -1q-2 0 -5 2q-3 4 -10 4
q-4 0 -12 2q-6 2 -7 4q-1 1 1 7t-1 16q-1 6 -1 9q0 5 4 13q4 10 4 32v25v11q-2 9 -4 10q-3 2 -1 10q2 10 1 12l-2 28v13q0 12 3 22q4 10 4 16q1 7 -3 11q-3 4 -4 43q0 40 3 41zM98 829q3 1 12 1h3q4 0 9 -3q3 -3 11 -3q5 0 11 2q6 3 10 0t4 -13v-8v-13v-14v-14v-12v-7v-33
q1 -22 -2 -30q-3 -6 -2 -16q0 -10 4 -14q2 -3 2 -12q0 -5 -1 -23q-1 -15 -1 -25t1 -13q1 -8 -3 -15q-5 -8 -5 -12q0 -3 4 -9q4 -4 4 -20q0 -14 -2 -16t-28 -2q-14 -1 -19 -1q-8 0 -11 2q-4 4 -5 19q-1 13 1 22q3 9 4 15q3 8 3 13q0 3 -4 7q-3 4 -4 40q0 39 1 42q2 6 0 20
q-2 15 0 18q3 3 2 11q0 7 -2 21q-1 7 -1 39q0 24 2 32q3 6 -1 11q-3 4 -3 8q1 3 6 5z" />
    <glyph glyph-name="uni00A7" unicode="&#xa7;" horiz-adv-x="531" 
d="M268 480q-2 3 -4 3t-4 -2q-4 -2 -7 -2q-4 0 -9 -5q-6 -6 -12 -5q-5 0 -8.5 -2.5t-17.5 -15.5q-15 -15 -24 -27q-5 -7 -5 -14q0 -4 1 -14q1 -11 1 -23q0 -5 -0.5 -8.5t-0.5 -5.5q0 -4 6 -14q6 -9 13 -16q5 -5 14 -6q9 0 16 -6q8 -6 13 -11t10 -5q2 0 8 1q12 0 20 6
q10 6 24 13q15 7 20 13q6 6 6 9q2 5 7 5q6 2 8 4q3 3 3 6q0 2 3 8q4 4 4 13q0 8 -2 14q-3 6 -1 10q0 2 3 5q1 1 1 2q0 3 -2 7q-2 8 -8 14q-5 7 -7 12q-1 3 -14 13q-13 7 -13 9q-2 2 -5 2q-4 0 -9 5t-15 5q-10 2 -13 3zM233 728q5 4 18 4t21 -4q9 -4 18 -3q8 2 15 4q6 3 22 2
q15 0 33 -4l20 -5q4 -2 6 -6q2 -3 2 -13q-1 -9 3 -13t3 -13q-2 -9 -5 -10q-3 -2 -11 2q-10 4 -15 4q-6 0 -10 4q-5 5 -25 5q-22 -2 -26 -3q-6 -1 -14 0q-10 2 -23 2q-15 0 -24 -5q-12 -8 -13 -10t-6 -7q-6 -4 -10 -8q-1 -1 -4 -3.5t-4 -3.5q-4 -4 -5 -14v-22q2 -12 5 -20
q5 -10 8 -12q1 -1 5 -9q0 -3 7 -12q7 -7 14 -7q8 0 14 -4q6 -3 14 -3t11 -3q4 -2 6 -2t8 -6q3 -3 13 -8q8 -2 12 -2q5 0 9 2q4 1 7 -2q2 -3 11 -7q8 -4 8 -6q4 -3 9 -5q8 -3 11 -6l4.5 -3.5t7.5 -5.5q15 -12 20 -17q8 -7 9 -10.5t0 -16.5q-1 -15 3 -23q3 -9 3 -12
q0 -1 -3 -13q-3 -6 -5 -16q0 -7 -2 -13q-1 -3 -6 -8q-5 -1 -5 -6q0 -4 -2 -8q-1 -3 -7 -9q-3 -5 -7 -5q-1 0 -9 -6q-5 -7 -11 -9q-7 -2 -7 -4q-2 -2 -6 -2t-8 -2q-2 -1 -5 -4q-1 -1 -1 -12q0 -10 4 -13q6 -3 8 -3l6 -3q1 -1 2 -1q1 -2 6 -7q3 -4 13 -4q9 0 15 -3t8 -9
q3 -8 4 -10q2 -6 2 -7q0 -3 5 -6t7 -9q1 -1 3 -11q3 -10 4 -11q2 -5 3 -31q1 -13 1 -18q0 -11 -3 -15q-1 -1 -3.5 -5.5t-3.5 -6.5q-5 -7 -5 -11q-2 -7 -5 -8q-5 -3 -5 -8q0 -6 -6 -8t-8 -6q0 -4 -13 -10q-14 -9 -15 -11l-7 -7q-4 -2 -10 -2q-5 0 -13 -6q-7 -6 -20 -7
q-9 0 -18 -3q-3 -3 -26 -3h-27q-10 0 -16 -1q-10 0 -18 -4q-6 -4 -10 -4q-2 0 -12 6q-8 6 -14 8t-11 2q-6 0 -9 3q-1 1 -9 5q-7 2 -9 5l-4 8q-3 3 -5 11q-2 6 -1 10q2 4 2 15t3 11q2 0 12 -2q8 -3 16 -3q7 0 9 -2q3 -3 9 -3q8 0 12 -5q7 -4 14 -4q13 0 18 -1q10 -3 17 0
q8 2 30 2q23 0 28 4q7 4 15 3q10 -1 15 5q2 3 15 16q10 12 10 14l0.5 6.5t0.5 11.5q1 7 1 21v20q0 10 -1.5 13.5t-11.5 11.5q-10 11 -21 14q-11 2 -12 3q-2 0 -6 6q-3 7 -7 7q-1 1 -4.5 2t-5.5 1q-6 2 -17 2q-12 0 -21 6q-8 7 -17 7q-8 2 -12 5q-4 4 -13 3q-9 0 -16 6t-12 6
q-6 0 -7 4q-5 5 -9 7q-6 3 -10 3q-3 0 -9 6q-6 7 -8 14q-2 9 -7 14q-7 10 -9 17q-4 9 -4 12q0 2 3 8q3 7 3 26q0 17 4 25q3 6 14 15q11 7 15 16q6 7 13 13t12 6q4 -1 12 7q12 9 13 10q6 4 7 6q2 4 2 10t-3 8q-1 1 -11 7q-9 7 -13 8q-3 3 -9 5q-3 0 -9 8q-3 4 -9 10
q-2 1 -9 10q-4 8 -6 14q-2 8 -7 11q-4 4 -4 18q0 10 3 19q2 5 1 20q-1 11 -1 14t4 8q7 9 11 16q3 8 7 12q4 2 6 2q3 0 7 6q2 4 8 8q4 1 13 8q10 5 12 5q5 0 11 4q5 4 13 4q7 0 14 5z" />
    <glyph glyph-name="uni00A8" unicode="&#xa8;" horiz-adv-x="288" 
d="M205 692q4 4 28 4q18 0 22 -1t9 -6q6 -6 7 -10.5t1 -24.5v-15t0.5 -13t0.5 -6q0 -7 -5 -9q-2 -1 -4 -1l-5 1q-5 2 -28 0q-9 -1 -17 -1t-10 1q-3 0 -6 3q-1 1 -1 7q0 1 0.5 9t0.5 28q-1 19 1 26q1 1 3 4t3 4zM38 697l6 2q3 0 12 -3q12 -2 16 -2q5 2 9 0q4 0 8 -9
q4 -8 4 -17q-3 -12 -3 -14q-2 -3 -4 -22q0 -17 -3 -20q-2 -2 -32 -2q-29 0 -32 3t-3 12v9v32q0 14 4 21q5 6 8 8q4 0 10 2z" />
    <glyph glyph-name="uni00A9" unicode="&#xa9;" horiz-adv-x="757" 
d="M355 568q3 3 7 3q2 0 7 -5q5 -4 26 -3q21 3 27 0q7 -3 10 -5q3 -3 8 -3q2 0 16 -6q13 -7 13 -8q0 -2 12 -14q13 -18 15 -21q6 -8 6 -19q2 -12 5 -15q3 -4 1 -6q-1 -3 -15 -4q-11 0 -17 2q-4 2 -8 10q-4 9 -8 11q-4 1 -3 8q0 8 -1 10q-2 5 -9 8q-7 5 -9 5q-1 0 -9 8
q-7 7 -20 7h-20q-11 0 -25.5 -0.5l-14.5 -0.5q-9 -3 -12 -5q-5 -5 -17 -11q-13 -7 -14 -10q-2 -3 -7 -5q-3 -2 -5 -5l-2 -4.5t-4 -8.5q-4 -9 -7 -11t-5 -12q-3 -15 -3 -22q0 -12 -5 -21t-5 -27q0 -19 2 -23q2 -2 0 -13q-2 -12 -2 -19q0 -9 3 -12q3 -4 4 -28q1 -25 6 -35
t10 -15q4 -4 6 -12q3 -9 7 -12q5 -2 9 -9t22 -17q14 -7 19 -8t20 -2q20 0 28 2q5 0 13 5q6 3 10 3q5 0 11 4q7 5 10 10q6 9 9 12q2 2 6 10q2 6 10 14q11 9 14 10q5 1 18 -4q13 -6 13 -7q2 -2 2 -5q0 -2 -6 -4q-5 -3 -12 -11q-3 -6 -6 -16q-2 -6 -6 -9q-6 -4 -8 -9t-7 -7h-6
q-1 0 -11 -10q-7 -7 -10 -8.5t-13 -1.5q-15 0 -19 -3q-5 -4 -13 -4q-7 0 -13 -2q-5 -2 -11 -2h-6q-6 1 -23 1q-11 1 -23 8q-10 8 -15 8q-4 0 -7 3q0 3 -2 7q0 3 -11 12q-10 8 -14 8q-3 0 -5 2q-1 1 -7 13q-1 5 -7 16l-3 9q0 4 -5 9t-5 12q0 4 -4 14q-3 4 -6 15q-1 4 -1 15
q0 10 -1 13q-2 4 0 11t-2 12q-3 3 -3 6q0 1 1 6q2 8 2 18q0 13 -1 17q-1 7 5 14q7 7 6 20q-2 12 2 17q4 6 4 11q0 6 4 16q5 8 3 14q-1 5 4 9q5 3 4 10q-1 8 7 12q9 4 15 14t15 12q9 3 11 8q4 6 11 6q6 0 10 2q3 2 3 5t3 5q1 1 5 2t6 2q4 1 13 4zM431 685q-8 5 -11 5
q-2 0 -6 -2h-28q-25 0 -29 -2q-5 -2 -15 0t-19 -2q-8 -4 -17 -4q-3 0 -12 -3q-2 -2 -16 -4t-16 -4q-2 -3 -6 -3q-3 0 -8 -5q-4 -4 -7 -4q-1 0 -13 -6q-9 -7 -14 -7q-6 0 -10 -6q-8 -6 -9 -6q-2 0 -10 -4q-4 -3 -10 -9q-2 -5 -6 -7q-5 -3 -10 -5q-4 -1 -12 -14q-3 -6 -13 -20
q-8 -8 -8 -11q0 -4 -11 -13q-11 -11 -17 -19q-5 -7 -10 -16q-4 -8 -5 -9q-2 -2 -2 -9q0 -8 -6 -18q-7 -9 -8 -21q0 -9 -4 -15q-4 -4 -4 -9q-2 -4 -2 -11q-2 -8 -2 -34q0 -7 -1 -14.5t-1.5 -11.5l-0.5 -4q-1 -1 1 -10q3 -7 1 -17q0 -2 -0.5 -11t-0.5 -13q0 -16 3 -18
q4 -4 4 -6q0 -5 3 -11q4 -8 4 -21q1 -14 7 -21q3 -4 6 -13q0 -5 2 -13q1 -5 9 -10q9 -4 10 -9q2 -6 6 -10t8 -14q5 -14 8 -17q3 -7 5 -7t19 -17q21 -21 26 -24q12 -10 14 -11q5 -4 8 -4q2 0 4 -5q3 -4 10 -4t13 -4q4 -3 8 -3q2 0 6 -4t9 -4q4 -1 11 -6q6 -6 14 -6
q11 -2 13 -4q7 -3 16 -6q3 -1 9.5 -2.5t8.5 -2.5q4 -1 24 -1h16q11 0 29.5 -0.5t21.5 -0.5q8 -1 11 -1q5 0 17 5q12 6 19 4q7 -1 11 2q4 4 11 4q4 0 13 3q8 4 11 4q4 0 8 4q5 4 7 2q4 0 11 4l14 7q1 0 2 1l8 4q5 3 8 8q3 6 6 4q7 0 10 2q7 5 14 13q6 9 10 13q2 1 8 1
q5 0 5 2q2 2 2 8t7 12q2 2 7 6.5t7 5.5q7 6 12 15l7 14q4 8 8 12t4 8t5 11q6 7 7 15q0 7 8 18q8 10 8 13q0 2 -2 6q-2 3 2 11q4 7 3 16q-1 8 4 14q5 5 5 23q0 7 -1 34q0 50 -2 58q-2 7 -4 24q-2 18 -5 23q-4 6 -4 10q0 3 -6 13q-7 8 -7 17q-2 10 -3 12q-1 1 -8 12
q-4 10 -12 16q-8 8 -11 14q-4 7 -8 10q-1 1 -5.5 6.5t-6.5 8.5q-8 13 -13 17q-3 5 -9 5q-5 0 -22 18q-17 17 -23 21q-1 0 -11 7q-5 5 -8 5q-4 0 -5 3q-2 2 -8 2q-3 0 -9 3q-2 1 -9 4q-8 4 -9 5q-3 3 -9 3q-5 0 -17 4q-10 5 -20 4q-11 -1 -20 4zM402 717q0 1 6 1q3 0 11 -4
q6 -5 16 -4q9 0 16 -4q5 -4 19 -5h17q5 0 13 -5q12 -5 25 -12q16 -7 19 -10q4 -4 9 -4q9 -3 19 -10q15 -9 23 -19q11 -9 13 -9q4 0 9 -5q4 -4 6 -8q0 -3 2 -7q0 -1 2.5 -4.5t4.5 -5.5q6 -8 15 -11q5 -2 10 -2q1 1 5 -2q4 -4 4 -11q0 -8 7 -16q9 -9 9 -14q2 -7 8 -14
q6 -10 6 -11q0 -3 7 -8q7 -8 7 -13q0 -6 2 -12q1 -2 3.5 -5.5t2.5 -4.5q4 -4 4 -11q0 -8 3 -11q4 -4 4 -16t3 -16q3 -6 3 -64q0 -59 -4 -66q-4 -8 -4 -15q0 -8 -4 -12q0 -1 -1.5 -4t-1.5 -4q0 -3 -2 -5q-3 -3 -3 -11t-3 -12q-3 -3 -7 -13t-4 -15q0 -8 -10 -20
q-9 -13 -14 -16q-4 -2 -4 -5q0 -1 -1.5 -4t-1.5 -4q-1 -1 -10 -17q-4 -10 -6.5 -12.5t-9.5 -6.5q-10 -4 -17 -14q-8 -10 -16 -15t-10 -10q-3 -6 -10 -7q-8 -3 -12 -8q-1 -1 -3 -4t-3 -4q-4 -2 -10 -2q-7 0 -11 -7q-6 -9 -13 -11q-6 -3 -12 -3q-2 0 -10 -4q-5 -5 -9 -5
q-3 0 -13 -6q-7 -6 -18 -10q-8 -3 -23 -2q-13 1 -20 -3t-36 -4q-17 -1 -41 -1q-12 0 -16 4t-7.5 4.5t-16.5 -0.5q-19 0 -24 3t-8 3t-9 4q-3 5 -10 5q-5 0 -8 3q-4 3 -11 2q-7 0 -17 5q-8 3 -14 11q-6 7 -12 7q-7 0 -10 3q-4 2 -7 2q-5 0 -7 4q-5 4 -9 6q-6 4 -6 5q0 3 -5 8
t-9 5q-3 0 -8 7q-4 7 -8 7t-11 9q-9 9 -9 14q-2 4 -10 13q-10 8 -14 12q-6 5 -5 12q0 9 -7 18q-6 7 -11 15q-5 5 -5 8t-3 5q-1 1 -5 7q-2 7 -1 9q0 5 -4 8q-4 2 -4 5t-5 8q-4 5 -4 12q0 10 -1 16q-2 11 -4 13q-2 4 -2 13q0 10 -3 15q-2 8 -2 16t3 14q4 4 4 8t-4 10
q-3 5 -5 19v20q0 10 3 18q3 5 5 24q1 15 5 21q5 7 11 11q4 4 5 6.5t0 10.5q-1 9 1 18q2 6 6 8q3 1 6 4q2 4 2 9q0 8 6 15q2 2 5.5 6l3.5 4q2 4 6 10t7 6l5 5q2 6 12 16q11 11 11 16q0 6 3 9q1 4 9 6q8 3 8 7q1 5 11 12q9 6 11 9q1 3 6 5q4 0 8 6q4 5 11 5q6 0 9 4q3 3 11 7
q6 3 11 3q4 0 6 4q6 6 11 9q8 6 17 6q7 0 15 4q7 3 22 5t20 5q7 2 8 1q3 0 6 3t19 3h20q36 0 37 1z" />
    <glyph glyph-name="uni00AA" unicode="&#xaa;" horiz-adv-x="290" 
d="M206 575q-9 3 -12 3t-5 -2q-5 -2 -19 -1q-17 1 -22 -2q-6 -4 -12 -4t-16 -2q-14 -5 -16 -6t-5.5 -4t-4.5 -4q-2 -3 -9 -10q-3 -3 -6 -9q0 -2 -6 -6q-5 -2 -7 -5q-1 -3 -1 -10v-6q2 -14 2 -17t6 -9t6 -9q0 -5 2 -7q5 -2 11 -3q10 -3 14 -7q3 -4 5.5 -4.5t15.5 -0.5
q18 1 23 5t17 4t16 2q3 3 8 3t12 8q8 10 11 16t3 11q0 2 7 9q8 6 8 13q0 3 -2 8q-3 6 -3 19q0 14 -1 16l-6 6q-7 4 -14 5zM137 717q1 0 10.5 0.5t15.5 0.5q18 0 25 -4q8 -2 10 -2q4 1 12 -3q7 -4 19 -6q13 -3 14 -3q4 -4 4 -5q0 -3 3 -5q4 -4 5 -9q1 -4 10 -13q6 -6 5 -10
l-0.5 -7t-0.5 -18.5v-22.5q-1 -24 -1 -46v-15q0 -13 -2 -21q0 -2 -1 -8t-2 -8q0 -9 2 -14q3 -6 3 -33t-2 -28q-1 -2 -18 -2q-16 0 -18 2t-2 8q0 3 -3 9q-4 2 -11 2q-8 0 -14 -2q-6 -4 -8 -6q-2 -3 -7 -5q-6 -2 -11 -7q-5 -3 -20 -9q-16 -5 -23 -6q-12 0 -18 2q-9 2 -13 -1
q-3 -1 -4 -1q-2 0 -6 2l-10 5q-5 0 -11 6q-4 3 -11 10q-2 4 -10 6t-9 6l-2.5 5t-1.5 5q0 4 -4 8t-6 11q-2 8 -2 12q-1 2 -1 5.5t1 5.5q0 4 5 12q4 4 6 13q2 10 3 12q2 2 6 8q4 4 14 10q9 3 11 8q3 3 2 5q0 2 3 4q2 3 19 5q16 2 20 4t19 4q12 0 34 2q19 2 24 0q4 -3 11 -3
q8 0 12 4q5 5 8 5t3 3q2 6 2 32q0 20 -1 24.5t-6 10.5q-3 4 -12 13q-6 4 -8 4t-8 4q-5 3 -26 2q-17 0 -21.5 -1t-17.5 -7q-15 -7 -27 -17q-7 -7 -11 -13q-2 -5 -6 -7q-6 -3 -14 -3q-10 -1 -14 2q-5 3 -5 6q0 2 -2 4q-3 3 -3 6q0 2 6 8q4 4 12 14q5 8 13 13q4 1 13 4
q8 2 11 5q5 4 10 1q5 -2 9 0q3 0 9 4q4 4 11 4z" />
    </font>
</defs>
</svg>
